<?xml version="1.0" encoding="utf-8" standalone="no"?>
<!DOCTYPE svg PUBLIC "-//W3C//DTD SVG 1.1//EN"
  "http://www.w3.org/Graphics/SVG/1.1/DTD/svg11.dtd">
<svg xmlns:xlink="http://www.w3.org/1999/xlink" width="288pt" height="432pt" viewBox="0 0 288 432" xmlns="http://www.w3.org/2000/svg" version="1.1">
 <metadata>
  <rdf:RDF xmlns:dc="http://purl.org/dc/elements/1.1/" xmlns:cc="http://creativecommons.org/ns#" xmlns:rdf="http://www.w3.org/1999/02/22-rdf-syntax-ns#">
   <cc:Work>
    <dc:type rdf:resource="http://purl.org/dc/dcmitype/StillImage"/>
    <dc:date>2022-05-04T15:34:55.151163</dc:date>
    <dc:format>image/svg+xml</dc:format>
    <dc:creator>
     <cc:Agent>
      <dc:title>Matplotlib v3.5.1, https://matplotlib.org/</dc:title>
     </cc:Agent>
    </dc:creator>
   </cc:Work>
  </rdf:RDF>
 </metadata>
 <defs>
  <style type="text/css">*{stroke-linejoin: round; stroke-linecap: butt}</style>
 </defs>
 <g id="figure_1">
  <g id="patch_1">
   <path d="M 0 432 
L 288 432 
L 288 0 
L 0 0 
L 0 432 
z
" style="fill: none"/>
  </g>
  <g id="axes_1">
   <g id="matplotlib.axis_1">
    <g id="xtick_1">
     <g id="text_1">
      <!-- RF-QL -->
      <g style="fill: #262626" transform="translate(128.980281 337.682422)rotate(-90)scale(0.165 -0.165)">
       <defs>
        <path id="ArialMT-52" d="M 503 0 
L 503 4581 
L 2534 4581 
Q 3147 4581 3465 4457 
Q 3784 4334 3975 4021 
Q 4166 3709 4166 3331 
Q 4166 2844 3850 2509 
Q 3534 2175 2875 2084 
Q 3116 1969 3241 1856 
Q 3506 1613 3744 1247 
L 4541 0 
L 3778 0 
L 3172 953 
Q 2906 1366 2734 1584 
Q 2563 1803 2427 1890 
Q 2291 1978 2150 2013 
Q 2047 2034 1813 2034 
L 1109 2034 
L 1109 0 
L 503 0 
z
M 1109 2559 
L 2413 2559 
Q 2828 2559 3062 2645 
Q 3297 2731 3419 2920 
Q 3541 3109 3541 3331 
Q 3541 3656 3305 3865 
Q 3069 4075 2559 4075 
L 1109 4075 
L 1109 2559 
z
" transform="scale(0.015625)"/>
        <path id="ArialMT-46" d="M 525 0 
L 525 4581 
L 3616 4581 
L 3616 4041 
L 1131 4041 
L 1131 2622 
L 3281 2622 
L 3281 2081 
L 1131 2081 
L 1131 0 
L 525 0 
z
" transform="scale(0.015625)"/>
        <path id="ArialMT-2d" d="M 203 1375 
L 203 1941 
L 1931 1941 
L 1931 1375 
L 203 1375 
z
" transform="scale(0.015625)"/>
        <path id="ArialMT-51" d="M 3966 491 
Q 4388 200 4744 66 
L 4566 -356 
Q 4072 -178 3581 206 
Q 3072 -78 2456 -78 
Q 1834 -78 1328 222 
Q 822 522 548 1065 
Q 275 1609 275 2291 
Q 275 2969 550 3525 
Q 825 4081 1333 4372 
Q 1841 4663 2469 4663 
Q 3103 4663 3612 4361 
Q 4122 4059 4389 3517 
Q 4656 2975 4656 2294 
Q 4656 1728 4484 1276 
Q 4313 825 3966 491 
z
M 2631 1266 
Q 3156 1119 3497 828 
Q 4031 1316 4031 2294 
Q 4031 2850 3842 3265 
Q 3653 3681 3289 3911 
Q 2925 4141 2472 4141 
Q 1794 4141 1347 3677 
Q 900 3213 900 2291 
Q 900 1397 1342 919 
Q 1784 441 2472 441 
Q 2797 441 3084 563 
Q 2800 747 2484 825 
L 2631 1266 
z
" transform="scale(0.015625)"/>
        <path id="ArialMT-4c" d="M 469 0 
L 469 4581 
L 1075 4581 
L 1075 541 
L 3331 541 
L 3331 0 
L 469 0 
z
" transform="scale(0.015625)"/>
       </defs>
       <use xlink:href="#ArialMT-52"/>
       <use xlink:href="#ArialMT-46" x="72.216797"/>
       <use xlink:href="#ArialMT-2d" x="133.300781"/>
       <use xlink:href="#ArialMT-51" x="166.601562"/>
       <use xlink:href="#ArialMT-4c" x="244.384766"/>
      </g>
     </g>
    </g>
    <g id="xtick_2">
     <g id="text_2">
      <!-- I-QL -->
      <g style="fill: #262626" transform="translate(163.229144 320.272344)rotate(-90)scale(0.165 -0.165)">
       <defs>
        <path id="ArialMT-49" d="M 597 0 
L 597 4581 
L 1203 4581 
L 1203 0 
L 597 0 
z
" transform="scale(0.015625)"/>
       </defs>
       <use xlink:href="#ArialMT-49"/>
       <use xlink:href="#ArialMT-2d" x="27.783203"/>
       <use xlink:href="#ArialMT-51" x="61.083984"/>
       <use xlink:href="#ArialMT-4c" x="138.867188"/>
      </g>
     </g>
    </g>
    <g id="xtick_3">
     <g id="text_3">
      <!-- LT-QL -->
      <g style="fill: #262626" transform="translate(197.478008 332.8175)rotate(-90)scale(0.165 -0.165)">
       <defs>
        <path id="ArialMT-54" d="M 1659 0 
L 1659 4041 
L 150 4041 
L 150 4581 
L 3781 4581 
L 3781 4041 
L 2266 4041 
L 2266 0 
L 1659 0 
z
" transform="scale(0.015625)"/>
       </defs>
       <use xlink:href="#ArialMT-4c"/>
       <use xlink:href="#ArialMT-54" x="48.240234"/>
       <use xlink:href="#ArialMT-2d" x="103.824219"/>
       <use xlink:href="#ArialMT-51" x="137.125"/>
       <use xlink:href="#ArialMT-4c" x="214.908203"/>
      </g>
     </g>
    </g>
    <g id="xtick_4">
     <g id="text_4">
      <!-- DF-LT-QL -->
      <g style="fill: #262626" transform="translate(231.726871 360.305469)rotate(-90)scale(0.165 -0.165)">
       <defs>
        <path id="ArialMT-44" d="M 494 0 
L 494 4581 
L 2072 4581 
Q 2606 4581 2888 4516 
Q 3281 4425 3559 4188 
Q 3922 3881 4101 3404 
Q 4281 2928 4281 2316 
Q 4281 1794 4159 1391 
Q 4038 988 3847 723 
Q 3656 459 3429 307 
Q 3203 156 2883 78 
Q 2563 0 2147 0 
L 494 0 
z
M 1100 541 
L 2078 541 
Q 2531 541 2789 625 
Q 3047 709 3200 863 
Q 3416 1078 3536 1442 
Q 3656 1806 3656 2325 
Q 3656 3044 3420 3430 
Q 3184 3816 2847 3947 
Q 2603 4041 2063 4041 
L 1100 4041 
L 1100 541 
z
" transform="scale(0.015625)"/>
       </defs>
       <use xlink:href="#ArialMT-44"/>
       <use xlink:href="#ArialMT-46" x="72.216797"/>
       <use xlink:href="#ArialMT-2d" x="133.300781"/>
       <use xlink:href="#ArialMT-4c" x="166.601562"/>
       <use xlink:href="#ArialMT-54" x="214.841797"/>
       <use xlink:href="#ArialMT-2d" x="270.425781"/>
       <use xlink:href="#ArialMT-51" x="303.726562"/>
       <use xlink:href="#ArialMT-4c" x="381.509766"/>
      </g>
     </g>
    </g>
    <g id="xtick_5">
     <g id="text_5">
      <!-- DF-LT-OS-QL -->
      <g style="fill: #262626" transform="translate(265.975735 389.639375)rotate(-90)scale(0.165 -0.165)">
       <defs>
        <path id="ArialMT-4f" d="M 309 2231 
Q 309 3372 921 4017 
Q 1534 4663 2503 4663 
Q 3138 4663 3647 4359 
Q 4156 4056 4423 3514 
Q 4691 2972 4691 2284 
Q 4691 1588 4409 1038 
Q 4128 488 3612 205 
Q 3097 -78 2500 -78 
Q 1853 -78 1343 234 
Q 834 547 571 1087 
Q 309 1628 309 2231 
z
M 934 2222 
Q 934 1394 1379 917 
Q 1825 441 2497 441 
Q 3181 441 3623 922 
Q 4066 1403 4066 2288 
Q 4066 2847 3877 3264 
Q 3688 3681 3323 3911 
Q 2959 4141 2506 4141 
Q 1863 4141 1398 3698 
Q 934 3256 934 2222 
z
" transform="scale(0.015625)"/>
        <path id="ArialMT-53" d="M 288 1472 
L 859 1522 
Q 900 1178 1048 958 
Q 1197 738 1509 602 
Q 1822 466 2213 466 
Q 2559 466 2825 569 
Q 3091 672 3220 851 
Q 3350 1031 3350 1244 
Q 3350 1459 3225 1620 
Q 3100 1781 2813 1891 
Q 2628 1963 1997 2114 
Q 1366 2266 1113 2400 
Q 784 2572 623 2826 
Q 463 3081 463 3397 
Q 463 3744 659 4045 
Q 856 4347 1234 4503 
Q 1613 4659 2075 4659 
Q 2584 4659 2973 4495 
Q 3363 4331 3572 4012 
Q 3781 3694 3797 3291 
L 3216 3247 
Q 3169 3681 2898 3903 
Q 2628 4125 2100 4125 
Q 1550 4125 1298 3923 
Q 1047 3722 1047 3438 
Q 1047 3191 1225 3031 
Q 1400 2872 2139 2705 
Q 2878 2538 3153 2413 
Q 3553 2228 3743 1945 
Q 3934 1663 3934 1294 
Q 3934 928 3725 604 
Q 3516 281 3123 101 
Q 2731 -78 2241 -78 
Q 1619 -78 1198 103 
Q 778 284 539 648 
Q 300 1013 288 1472 
z
" transform="scale(0.015625)"/>
       </defs>
       <use xlink:href="#ArialMT-44"/>
       <use xlink:href="#ArialMT-46" x="72.216797"/>
       <use xlink:href="#ArialMT-2d" x="133.300781"/>
       <use xlink:href="#ArialMT-4c" x="166.601562"/>
       <use xlink:href="#ArialMT-54" x="214.841797"/>
       <use xlink:href="#ArialMT-2d" x="270.425781"/>
       <use xlink:href="#ArialMT-4f" x="303.726562"/>
       <use xlink:href="#ArialMT-53" x="381.509766"/>
       <use xlink:href="#ArialMT-2d" x="448.208984"/>
       <use xlink:href="#ArialMT-51" x="481.509766"/>
       <use xlink:href="#ArialMT-4c" x="559.292969"/>
      </g>
     </g>
    </g>
    <g id="text_6">
     <!-- Value Learning Rules -->
     <g style="fill: #262626" transform="translate(98.335937 407.955)scale(0.2 -0.2)">
      <defs>
       <path id="ArialMT-56" d="M 1803 0 
L 28 4581 
L 684 4581 
L 1875 1253 
Q 2019 853 2116 503 
Q 2222 878 2363 1253 
L 3600 4581 
L 4219 4581 
L 2425 0 
L 1803 0 
z
" transform="scale(0.015625)"/>
       <path id="ArialMT-61" d="M 2588 409 
Q 2275 144 1986 34 
Q 1697 -75 1366 -75 
Q 819 -75 525 192 
Q 231 459 231 875 
Q 231 1119 342 1320 
Q 453 1522 633 1644 
Q 813 1766 1038 1828 
Q 1203 1872 1538 1913 
Q 2219 1994 2541 2106 
Q 2544 2222 2544 2253 
Q 2544 2597 2384 2738 
Q 2169 2928 1744 2928 
Q 1347 2928 1158 2789 
Q 969 2650 878 2297 
L 328 2372 
Q 403 2725 575 2942 
Q 747 3159 1072 3276 
Q 1397 3394 1825 3394 
Q 2250 3394 2515 3294 
Q 2781 3194 2906 3042 
Q 3031 2891 3081 2659 
Q 3109 2516 3109 2141 
L 3109 1391 
Q 3109 606 3145 398 
Q 3181 191 3288 0 
L 2700 0 
Q 2613 175 2588 409 
z
M 2541 1666 
Q 2234 1541 1622 1453 
Q 1275 1403 1131 1340 
Q 988 1278 909 1158 
Q 831 1038 831 891 
Q 831 666 1001 516 
Q 1172 366 1500 366 
Q 1825 366 2078 508 
Q 2331 650 2450 897 
Q 2541 1088 2541 1459 
L 2541 1666 
z
" transform="scale(0.015625)"/>
       <path id="ArialMT-6c" d="M 409 0 
L 409 4581 
L 972 4581 
L 972 0 
L 409 0 
z
" transform="scale(0.015625)"/>
       <path id="ArialMT-75" d="M 2597 0 
L 2597 488 
Q 2209 -75 1544 -75 
Q 1250 -75 995 37 
Q 741 150 617 320 
Q 494 491 444 738 
Q 409 903 409 1263 
L 409 3319 
L 972 3319 
L 972 1478 
Q 972 1038 1006 884 
Q 1059 663 1231 536 
Q 1403 409 1656 409 
Q 1909 409 2131 539 
Q 2353 669 2445 892 
Q 2538 1116 2538 1541 
L 2538 3319 
L 3100 3319 
L 3100 0 
L 2597 0 
z
" transform="scale(0.015625)"/>
       <path id="ArialMT-65" d="M 2694 1069 
L 3275 997 
Q 3138 488 2766 206 
Q 2394 -75 1816 -75 
Q 1088 -75 661 373 
Q 234 822 234 1631 
Q 234 2469 665 2931 
Q 1097 3394 1784 3394 
Q 2450 3394 2872 2941 
Q 3294 2488 3294 1666 
Q 3294 1616 3291 1516 
L 816 1516 
Q 847 969 1125 678 
Q 1403 388 1819 388 
Q 2128 388 2347 550 
Q 2566 713 2694 1069 
z
M 847 1978 
L 2700 1978 
Q 2663 2397 2488 2606 
Q 2219 2931 1791 2931 
Q 1403 2931 1139 2672 
Q 875 2413 847 1978 
z
" transform="scale(0.015625)"/>
       <path id="ArialMT-20" transform="scale(0.015625)"/>
       <path id="ArialMT-72" d="M 416 0 
L 416 3319 
L 922 3319 
L 922 2816 
Q 1116 3169 1280 3281 
Q 1444 3394 1641 3394 
Q 1925 3394 2219 3213 
L 2025 2691 
Q 1819 2813 1613 2813 
Q 1428 2813 1281 2702 
Q 1134 2591 1072 2394 
Q 978 2094 978 1738 
L 978 0 
L 416 0 
z
" transform="scale(0.015625)"/>
       <path id="ArialMT-6e" d="M 422 0 
L 422 3319 
L 928 3319 
L 928 2847 
Q 1294 3394 1984 3394 
Q 2284 3394 2536 3286 
Q 2788 3178 2913 3003 
Q 3038 2828 3088 2588 
Q 3119 2431 3119 2041 
L 3119 0 
L 2556 0 
L 2556 2019 
Q 2556 2363 2490 2533 
Q 2425 2703 2258 2804 
Q 2091 2906 1866 2906 
Q 1506 2906 1245 2678 
Q 984 2450 984 1813 
L 984 0 
L 422 0 
z
" transform="scale(0.015625)"/>
       <path id="ArialMT-69" d="M 425 3934 
L 425 4581 
L 988 4581 
L 988 3934 
L 425 3934 
z
M 425 0 
L 425 3319 
L 988 3319 
L 988 0 
L 425 0 
z
" transform="scale(0.015625)"/>
       <path id="ArialMT-67" d="M 319 -275 
L 866 -356 
Q 900 -609 1056 -725 
Q 1266 -881 1628 -881 
Q 2019 -881 2231 -725 
Q 2444 -569 2519 -288 
Q 2563 -116 2559 434 
Q 2191 0 1641 0 
Q 956 0 581 494 
Q 206 988 206 1678 
Q 206 2153 378 2554 
Q 550 2956 876 3175 
Q 1203 3394 1644 3394 
Q 2231 3394 2613 2919 
L 2613 3319 
L 3131 3319 
L 3131 450 
Q 3131 -325 2973 -648 
Q 2816 -972 2473 -1159 
Q 2131 -1347 1631 -1347 
Q 1038 -1347 672 -1080 
Q 306 -813 319 -275 
z
M 784 1719 
Q 784 1066 1043 766 
Q 1303 466 1694 466 
Q 2081 466 2343 764 
Q 2606 1063 2606 1700 
Q 2606 2309 2336 2618 
Q 2066 2928 1684 2928 
Q 1309 2928 1046 2623 
Q 784 2319 784 1719 
z
" transform="scale(0.015625)"/>
       <path id="ArialMT-73" d="M 197 991 
L 753 1078 
Q 800 744 1014 566 
Q 1228 388 1613 388 
Q 2000 388 2187 545 
Q 2375 703 2375 916 
Q 2375 1106 2209 1216 
Q 2094 1291 1634 1406 
Q 1016 1563 777 1677 
Q 538 1791 414 1992 
Q 291 2194 291 2438 
Q 291 2659 392 2848 
Q 494 3038 669 3163 
Q 800 3259 1026 3326 
Q 1253 3394 1513 3394 
Q 1903 3394 2198 3281 
Q 2494 3169 2634 2976 
Q 2775 2784 2828 2463 
L 2278 2388 
Q 2241 2644 2061 2787 
Q 1881 2931 1553 2931 
Q 1166 2931 1000 2803 
Q 834 2675 834 2503 
Q 834 2394 903 2306 
Q 972 2216 1119 2156 
Q 1203 2125 1616 2013 
Q 2213 1853 2448 1751 
Q 2684 1650 2818 1456 
Q 2953 1263 2953 975 
Q 2953 694 2789 445 
Q 2625 197 2315 61 
Q 2006 -75 1616 -75 
Q 969 -75 630 194 
Q 291 463 197 991 
z
" transform="scale(0.015625)"/>
      </defs>
      <use xlink:href="#ArialMT-56"/>
      <use xlink:href="#ArialMT-61" x="59.324219"/>
      <use xlink:href="#ArialMT-6c" x="114.939453"/>
      <use xlink:href="#ArialMT-75" x="137.15625"/>
      <use xlink:href="#ArialMT-65" x="192.771484"/>
      <use xlink:href="#ArialMT-20" x="248.386719"/>
      <use xlink:href="#ArialMT-4c" x="276.169922"/>
      <use xlink:href="#ArialMT-65" x="331.785156"/>
      <use xlink:href="#ArialMT-61" x="387.400391"/>
      <use xlink:href="#ArialMT-72" x="443.015625"/>
      <use xlink:href="#ArialMT-6e" x="476.316406"/>
      <use xlink:href="#ArialMT-69" x="531.931641"/>
      <use xlink:href="#ArialMT-6e" x="554.148438"/>
      <use xlink:href="#ArialMT-67" x="609.763672"/>
      <use xlink:href="#ArialMT-20" x="665.378906"/>
      <use xlink:href="#ArialMT-52" x="693.162109"/>
      <use xlink:href="#ArialMT-75" x="765.378906"/>
      <use xlink:href="#ArialMT-6c" x="820.994141"/>
      <use xlink:href="#ArialMT-65" x="843.210938"/>
      <use xlink:href="#ArialMT-73" x="898.826172"/>
     </g>
    </g>
   </g>
   <g id="matplotlib.axis_2">
    <g id="ytick_1">
     <g id="text_7">
      <!-- −2350 -->
      <g style="fill: #262626" transform="translate(62.025781 228.632883)scale(0.165 -0.165)">
       <defs>
        <path id="ArialMT-2212" d="M 3381 1997 
L 356 1997 
L 356 2522 
L 3381 2522 
L 3381 1997 
z
" transform="scale(0.015625)"/>
        <path id="ArialMT-32" d="M 3222 541 
L 3222 0 
L 194 0 
Q 188 203 259 391 
Q 375 700 629 1000 
Q 884 1300 1366 1694 
Q 2113 2306 2375 2664 
Q 2638 3022 2638 3341 
Q 2638 3675 2398 3904 
Q 2159 4134 1775 4134 
Q 1369 4134 1125 3890 
Q 881 3647 878 3216 
L 300 3275 
Q 359 3922 746 4261 
Q 1134 4600 1788 4600 
Q 2447 4600 2831 4234 
Q 3216 3869 3216 3328 
Q 3216 3053 3103 2787 
Q 2991 2522 2730 2228 
Q 2469 1934 1863 1422 
Q 1356 997 1212 845 
Q 1069 694 975 541 
L 3222 541 
z
" transform="scale(0.015625)"/>
        <path id="ArialMT-33" d="M 269 1209 
L 831 1284 
Q 928 806 1161 595 
Q 1394 384 1728 384 
Q 2125 384 2398 659 
Q 2672 934 2672 1341 
Q 2672 1728 2419 1979 
Q 2166 2231 1775 2231 
Q 1616 2231 1378 2169 
L 1441 2663 
Q 1497 2656 1531 2656 
Q 1891 2656 2178 2843 
Q 2466 3031 2466 3422 
Q 2466 3731 2256 3934 
Q 2047 4138 1716 4138 
Q 1388 4138 1169 3931 
Q 950 3725 888 3313 
L 325 3413 
Q 428 3978 793 4289 
Q 1159 4600 1703 4600 
Q 2078 4600 2393 4439 
Q 2709 4278 2876 4000 
Q 3044 3722 3044 3409 
Q 3044 3113 2884 2869 
Q 2725 2625 2413 2481 
Q 2819 2388 3044 2092 
Q 3269 1797 3269 1353 
Q 3269 753 2831 336 
Q 2394 -81 1725 -81 
Q 1122 -81 723 278 
Q 325 638 269 1209 
z
" transform="scale(0.015625)"/>
        <path id="ArialMT-35" d="M 266 1200 
L 856 1250 
Q 922 819 1161 601 
Q 1400 384 1738 384 
Q 2144 384 2425 690 
Q 2706 997 2706 1503 
Q 2706 1984 2436 2262 
Q 2166 2541 1728 2541 
Q 1456 2541 1237 2417 
Q 1019 2294 894 2097 
L 366 2166 
L 809 4519 
L 3088 4519 
L 3088 3981 
L 1259 3981 
L 1013 2750 
Q 1425 3038 1878 3038 
Q 2478 3038 2890 2622 
Q 3303 2206 3303 1553 
Q 3303 931 2941 478 
Q 2500 -78 1738 -78 
Q 1113 -78 717 272 
Q 322 622 266 1200 
z
" transform="scale(0.015625)"/>
        <path id="ArialMT-30" d="M 266 2259 
Q 266 3072 433 3567 
Q 600 4063 929 4331 
Q 1259 4600 1759 4600 
Q 2128 4600 2406 4451 
Q 2684 4303 2865 4023 
Q 3047 3744 3150 3342 
Q 3253 2941 3253 2259 
Q 3253 1453 3087 958 
Q 2922 463 2592 192 
Q 2263 -78 1759 -78 
Q 1097 -78 719 397 
Q 266 969 266 2259 
z
M 844 2259 
Q 844 1131 1108 757 
Q 1372 384 1759 384 
Q 2147 384 2411 759 
Q 2675 1134 2675 2259 
Q 2675 3391 2411 3762 
Q 2147 4134 1753 4134 
Q 1366 4134 1134 3806 
Q 844 3388 844 2259 
z
" transform="scale(0.015625)"/>
       </defs>
       <use xlink:href="#ArialMT-2212"/>
       <use xlink:href="#ArialMT-32" x="58.398438"/>
       <use xlink:href="#ArialMT-33" x="114.013672"/>
       <use xlink:href="#ArialMT-35" x="169.628906"/>
       <use xlink:href="#ArialMT-30" x="225.244141"/>
      </g>
     </g>
    </g>
    <g id="ytick_2">
     <g id="text_8">
      <!-- −2300 -->
      <g style="fill: #262626" transform="translate(62.025781 161.788326)scale(0.165 -0.165)">
       <use xlink:href="#ArialMT-2212"/>
       <use xlink:href="#ArialMT-32" x="58.398438"/>
       <use xlink:href="#ArialMT-33" x="114.013672"/>
       <use xlink:href="#ArialMT-30" x="169.628906"/>
       <use xlink:href="#ArialMT-30" x="225.244141"/>
      </g>
     </g>
    </g>
    <g id="ytick_3">
     <g id="text_9">
      <!-- −2250 -->
      <g style="fill: #262626" transform="translate(62.025781 94.94377)scale(0.165 -0.165)">
       <use xlink:href="#ArialMT-2212"/>
       <use xlink:href="#ArialMT-32" x="58.398438"/>
       <use xlink:href="#ArialMT-32" x="114.013672"/>
       <use xlink:href="#ArialMT-35" x="169.628906"/>
       <use xlink:href="#ArialMT-30" x="225.244141"/>
      </g>
     </g>
    </g>
    <g id="text_10">
     <!-- Adjusted LOOCV Score -->
     <g style="fill: #058d96" transform="translate(34.724781 254.603906)rotate(-90)scale(0.18 -0.18)">
      <defs>
       <path id="ArialMT-41" d="M -9 0 
L 1750 4581 
L 2403 4581 
L 4278 0 
L 3588 0 
L 3053 1388 
L 1138 1388 
L 634 0 
L -9 0 
z
M 1313 1881 
L 2866 1881 
L 2388 3150 
Q 2169 3728 2063 4100 
Q 1975 3659 1816 3225 
L 1313 1881 
z
" transform="scale(0.015625)"/>
       <path id="ArialMT-64" d="M 2575 0 
L 2575 419 
Q 2259 -75 1647 -75 
Q 1250 -75 917 144 
Q 584 363 401 755 
Q 219 1147 219 1656 
Q 219 2153 384 2558 
Q 550 2963 881 3178 
Q 1213 3394 1622 3394 
Q 1922 3394 2156 3267 
Q 2391 3141 2538 2938 
L 2538 4581 
L 3097 4581 
L 3097 0 
L 2575 0 
z
M 797 1656 
Q 797 1019 1065 703 
Q 1334 388 1700 388 
Q 2069 388 2326 689 
Q 2584 991 2584 1609 
Q 2584 2291 2321 2609 
Q 2059 2928 1675 2928 
Q 1300 2928 1048 2622 
Q 797 2316 797 1656 
z
" transform="scale(0.015625)"/>
       <path id="ArialMT-6a" d="M 419 3928 
L 419 4581 
L 981 4581 
L 981 3928 
L 419 3928 
z
M -294 -1288 
L -188 -809 
Q -19 -853 78 -853 
Q 250 -853 334 -739 
Q 419 -625 419 -169 
L 419 3319 
L 981 3319 
L 981 -181 
Q 981 -794 822 -1034 
Q 619 -1347 147 -1347 
Q -81 -1347 -294 -1288 
z
" transform="scale(0.015625)"/>
       <path id="ArialMT-74" d="M 1650 503 
L 1731 6 
Q 1494 -44 1306 -44 
Q 1000 -44 831 53 
Q 663 150 594 308 
Q 525 466 525 972 
L 525 2881 
L 113 2881 
L 113 3319 
L 525 3319 
L 525 4141 
L 1084 4478 
L 1084 3319 
L 1650 3319 
L 1650 2881 
L 1084 2881 
L 1084 941 
Q 1084 700 1114 631 
Q 1144 563 1211 522 
Q 1278 481 1403 481 
Q 1497 481 1650 503 
z
" transform="scale(0.015625)"/>
       <path id="ArialMT-43" d="M 3763 1606 
L 4369 1453 
Q 4178 706 3683 314 
Q 3188 -78 2472 -78 
Q 1731 -78 1267 223 
Q 803 525 561 1097 
Q 319 1669 319 2325 
Q 319 3041 592 3573 
Q 866 4106 1370 4382 
Q 1875 4659 2481 4659 
Q 3169 4659 3637 4309 
Q 4106 3959 4291 3325 
L 3694 3184 
Q 3534 3684 3231 3912 
Q 2928 4141 2469 4141 
Q 1941 4141 1586 3887 
Q 1231 3634 1087 3207 
Q 944 2781 944 2328 
Q 944 1744 1114 1308 
Q 1284 872 1643 656 
Q 2003 441 2422 441 
Q 2931 441 3284 734 
Q 3638 1028 3763 1606 
z
" transform="scale(0.015625)"/>
       <path id="ArialMT-63" d="M 2588 1216 
L 3141 1144 
Q 3050 572 2676 248 
Q 2303 -75 1759 -75 
Q 1078 -75 664 370 
Q 250 816 250 1647 
Q 250 2184 428 2587 
Q 606 2991 970 3192 
Q 1334 3394 1763 3394 
Q 2303 3394 2647 3120 
Q 2991 2847 3088 2344 
L 2541 2259 
Q 2463 2594 2264 2762 
Q 2066 2931 1784 2931 
Q 1359 2931 1093 2626 
Q 828 2322 828 1663 
Q 828 994 1084 691 
Q 1341 388 1753 388 
Q 2084 388 2306 591 
Q 2528 794 2588 1216 
z
" transform="scale(0.015625)"/>
       <path id="ArialMT-6f" d="M 213 1659 
Q 213 2581 725 3025 
Q 1153 3394 1769 3394 
Q 2453 3394 2887 2945 
Q 3322 2497 3322 1706 
Q 3322 1066 3130 698 
Q 2938 331 2570 128 
Q 2203 -75 1769 -75 
Q 1072 -75 642 372 
Q 213 819 213 1659 
z
M 791 1659 
Q 791 1022 1069 705 
Q 1347 388 1769 388 
Q 2188 388 2466 706 
Q 2744 1025 2744 1678 
Q 2744 2294 2464 2611 
Q 2184 2928 1769 2928 
Q 1347 2928 1069 2612 
Q 791 2297 791 1659 
z
" transform="scale(0.015625)"/>
      </defs>
      <use xlink:href="#ArialMT-41"/>
      <use xlink:href="#ArialMT-64" x="66.699219"/>
      <use xlink:href="#ArialMT-6a" x="122.314453"/>
      <use xlink:href="#ArialMT-75" x="144.53125"/>
      <use xlink:href="#ArialMT-73" x="200.146484"/>
      <use xlink:href="#ArialMT-74" x="250.146484"/>
      <use xlink:href="#ArialMT-65" x="277.929688"/>
      <use xlink:href="#ArialMT-64" x="333.544922"/>
      <use xlink:href="#ArialMT-20" x="389.160156"/>
      <use xlink:href="#ArialMT-4c" x="416.943359"/>
      <use xlink:href="#ArialMT-4f" x="472.558594"/>
      <use xlink:href="#ArialMT-4f" x="550.341797"/>
      <use xlink:href="#ArialMT-43" x="628.125"/>
      <use xlink:href="#ArialMT-56" x="700.341797"/>
      <use xlink:href="#ArialMT-20" x="767.041016"/>
      <use xlink:href="#ArialMT-53" x="794.824219"/>
      <use xlink:href="#ArialMT-63" x="861.523438"/>
      <use xlink:href="#ArialMT-6f" x="911.523438"/>
      <use xlink:href="#ArialMT-72" x="967.138672"/>
      <use xlink:href="#ArialMT-65" x="1000.439453"/>
     </g>
     <!-- (Higher is Better) -->
     <g style="fill: #058d96" transform="translate(54.237344 227.577187)rotate(-90)scale(0.18 -0.18)">
      <defs>
       <path id="ArialMT-28" d="M 1497 -1347 
Q 1031 -759 709 28 
Q 388 816 388 1659 
Q 388 2403 628 3084 
Q 909 3875 1497 4659 
L 1900 4659 
Q 1522 4009 1400 3731 
Q 1209 3300 1100 2831 
Q 966 2247 966 1656 
Q 966 153 1900 -1347 
L 1497 -1347 
z
" transform="scale(0.015625)"/>
       <path id="ArialMT-48" d="M 513 0 
L 513 4581 
L 1119 4581 
L 1119 2700 
L 3500 2700 
L 3500 4581 
L 4106 4581 
L 4106 0 
L 3500 0 
L 3500 2159 
L 1119 2159 
L 1119 0 
L 513 0 
z
" transform="scale(0.015625)"/>
       <path id="ArialMT-68" d="M 422 0 
L 422 4581 
L 984 4581 
L 984 2938 
Q 1378 3394 1978 3394 
Q 2347 3394 2619 3248 
Q 2891 3103 3008 2847 
Q 3125 2591 3125 2103 
L 3125 0 
L 2563 0 
L 2563 2103 
Q 2563 2525 2380 2717 
Q 2197 2909 1863 2909 
Q 1613 2909 1392 2779 
Q 1172 2650 1078 2428 
Q 984 2206 984 1816 
L 984 0 
L 422 0 
z
" transform="scale(0.015625)"/>
       <path id="ArialMT-42" d="M 469 0 
L 469 4581 
L 2188 4581 
Q 2713 4581 3030 4442 
Q 3347 4303 3526 4014 
Q 3706 3725 3706 3409 
Q 3706 3116 3547 2856 
Q 3388 2597 3066 2438 
Q 3481 2316 3704 2022 
Q 3928 1728 3928 1328 
Q 3928 1006 3792 729 
Q 3656 453 3456 303 
Q 3256 153 2954 76 
Q 2653 0 2216 0 
L 469 0 
z
M 1075 2656 
L 2066 2656 
Q 2469 2656 2644 2709 
Q 2875 2778 2992 2937 
Q 3109 3097 3109 3338 
Q 3109 3566 3000 3739 
Q 2891 3913 2687 3977 
Q 2484 4041 1991 4041 
L 1075 4041 
L 1075 2656 
z
M 1075 541 
L 2216 541 
Q 2509 541 2628 563 
Q 2838 600 2978 687 
Q 3119 775 3209 942 
Q 3300 1109 3300 1328 
Q 3300 1584 3169 1773 
Q 3038 1963 2805 2039 
Q 2572 2116 2134 2116 
L 1075 2116 
L 1075 541 
z
" transform="scale(0.015625)"/>
       <path id="ArialMT-29" d="M 791 -1347 
L 388 -1347 
Q 1322 153 1322 1656 
Q 1322 2244 1188 2822 
Q 1081 3291 891 3722 
Q 769 4003 388 4659 
L 791 4659 
Q 1378 3875 1659 3084 
Q 1900 2403 1900 1659 
Q 1900 816 1576 28 
Q 1253 -759 791 -1347 
z
" transform="scale(0.015625)"/>
      </defs>
      <use xlink:href="#ArialMT-28"/>
      <use xlink:href="#ArialMT-48" x="33.300781"/>
      <use xlink:href="#ArialMT-69" x="105.517578"/>
      <use xlink:href="#ArialMT-67" x="127.734375"/>
      <use xlink:href="#ArialMT-68" x="183.349609"/>
      <use xlink:href="#ArialMT-65" x="238.964844"/>
      <use xlink:href="#ArialMT-72" x="294.580078"/>
      <use xlink:href="#ArialMT-20" x="327.880859"/>
      <use xlink:href="#ArialMT-69" x="355.664062"/>
      <use xlink:href="#ArialMT-73" x="377.880859"/>
      <use xlink:href="#ArialMT-20" x="427.880859"/>
      <use xlink:href="#ArialMT-42" x="455.664062"/>
      <use xlink:href="#ArialMT-65" x="522.363281"/>
      <use xlink:href="#ArialMT-74" x="577.978516"/>
      <use xlink:href="#ArialMT-74" x="605.761719"/>
      <use xlink:href="#ArialMT-65" x="633.544922"/>
      <use xlink:href="#ArialMT-72" x="689.160156"/>
      <use xlink:href="#ArialMT-29" x="722.460938"/>
     </g>
    </g>
   </g>
   <g id="LineCollection_1">
    <path d="M 124.714773 267.855682 
L 124.714773 227.57393 
" clip-path="url(#pe653cfe5f3)" style="fill: none; stroke: #058d96; stroke-width: 3"/>
    <path d="M 158.963636 210.4327 
L 158.963636 164.142223 
" clip-path="url(#pe653cfe5f3)" style="fill: none; stroke: #058d96; stroke-width: 3"/>
    <path d="M 193.2125 147.69074 
L 193.2125 99.242921 
" clip-path="url(#pe653cfe5f3)" style="fill: none; stroke: #058d96; stroke-width: 3"/>
    <path d="M 227.461364 121.423673 
L 227.461364 67.83946 
" clip-path="url(#pe653cfe5f3)" style="fill: none; stroke: #058d96; stroke-width: 3"/>
    <path d="M 261.710227 105.650457 
L 261.710227 51.269318 
" clip-path="url(#pe653cfe5f3)" style="fill: none; stroke: #058d96; stroke-width: 3"/>
   </g>
   <g id="line2d_1">
    <defs>
     <path id="md4217a0a04" d="M 5 0 
L -5 -0 
" style="stroke: #058d96; stroke-width: 3"/>
    </defs>
    <g clip-path="url(#pe653cfe5f3)">
     <use xlink:href="#md4217a0a04" x="124.714773" y="267.855682" style="fill: #058d96; stroke: #058d96; stroke-width: 3"/>
     <use xlink:href="#md4217a0a04" x="158.963636" y="210.4327" style="fill: #058d96; stroke: #058d96; stroke-width: 3"/>
     <use xlink:href="#md4217a0a04" x="193.2125" y="147.69074" style="fill: #058d96; stroke: #058d96; stroke-width: 3"/>
     <use xlink:href="#md4217a0a04" x="227.461364" y="121.423673" style="fill: #058d96; stroke: #058d96; stroke-width: 3"/>
     <use xlink:href="#md4217a0a04" x="261.710227" y="105.650457" style="fill: #058d96; stroke: #058d96; stroke-width: 3"/>
    </g>
   </g>
   <g id="line2d_2">
    <g clip-path="url(#pe653cfe5f3)">
     <use xlink:href="#md4217a0a04" x="124.714773" y="227.57393" style="fill: #058d96; stroke: #058d96; stroke-width: 3"/>
     <use xlink:href="#md4217a0a04" x="158.963636" y="164.142223" style="fill: #058d96; stroke: #058d96; stroke-width: 3"/>
     <use xlink:href="#md4217a0a04" x="193.2125" y="99.242921" style="fill: #058d96; stroke: #058d96; stroke-width: 3"/>
     <use xlink:href="#md4217a0a04" x="227.461364" y="67.83946" style="fill: #058d96; stroke: #058d96; stroke-width: 3"/>
     <use xlink:href="#md4217a0a04" x="261.710227" y="51.269318" style="fill: #058d96; stroke: #058d96; stroke-width: 3"/>
    </g>
   </g>
   <g id="line2d_3">
    <path d="M 117.865 78.459887 
L 268.56 78.459887 
" clip-path="url(#pe653cfe5f3)" style="fill: none; stroke-dasharray: 7.4,3.2; stroke-dashoffset: 0; stroke: #1a1a1a; stroke-width: 2"/>
   </g>
   <g id="line2d_4">
    <defs>
     <path id="m74fa896322" d="M 0 4 
C 1.060812 4 2.078319 3.578535 2.828427 2.828427 
C 3.578535 2.078319 4 1.060812 4 0 
C 4 -1.060812 3.578535 -2.078319 2.828427 -2.828427 
C 2.078319 -3.578535 1.060812 -4 0 -4 
C -1.060812 -4 -2.078319 -3.578535 -2.828427 -2.828427 
C -3.578535 -2.078319 -4 -1.060812 -4 0 
C -4 1.060812 -3.578535 2.078319 -2.828427 2.828427 
C -2.078319 3.578535 -1.060812 4 0 4 
z
" style="stroke: #058d96"/>
    </defs>
    <g clip-path="url(#pe653cfe5f3)">
     <use xlink:href="#m74fa896322" x="124.714773" y="247.714806" style="fill: #058d96; stroke: #058d96"/>
     <use xlink:href="#m74fa896322" x="158.963636" y="187.287462" style="fill: #058d96; stroke: #058d96"/>
     <use xlink:href="#m74fa896322" x="193.2125" y="123.46683" style="fill: #058d96; stroke: #058d96"/>
     <use xlink:href="#m74fa896322" x="227.461364" y="94.631566" style="fill: #058d96; stroke: #058d96"/>
     <use xlink:href="#m74fa896322" x="261.710227" y="78.459887" style="fill: #058d96; stroke: #058d96"/>
    </g>
   </g>
   <g id="text_11">
    <!-- Learning Rule Goodness of Fit -->
    <g style="fill: #262626" transform="translate(57.5875 34.44)scale(0.2 -0.2)">
     <defs>
      <path id="ArialMT-47" d="M 2638 1797 
L 2638 2334 
L 4578 2338 
L 4578 638 
Q 4131 281 3656 101 
Q 3181 -78 2681 -78 
Q 2006 -78 1454 211 
Q 903 500 622 1047 
Q 341 1594 341 2269 
Q 341 2938 620 3517 
Q 900 4097 1425 4378 
Q 1950 4659 2634 4659 
Q 3131 4659 3532 4498 
Q 3934 4338 4162 4050 
Q 4391 3763 4509 3300 
L 3963 3150 
Q 3859 3500 3706 3700 
Q 3553 3900 3268 4020 
Q 2984 4141 2638 4141 
Q 2222 4141 1919 4014 
Q 1616 3888 1430 3681 
Q 1244 3475 1141 3228 
Q 966 2803 966 2306 
Q 966 1694 1177 1281 
Q 1388 869 1791 669 
Q 2194 469 2647 469 
Q 3041 469 3416 620 
Q 3791 772 3984 944 
L 3984 1797 
L 2638 1797 
z
" transform="scale(0.015625)"/>
      <path id="ArialMT-66" d="M 556 0 
L 556 2881 
L 59 2881 
L 59 3319 
L 556 3319 
L 556 3672 
Q 556 4006 616 4169 
Q 697 4388 901 4523 
Q 1106 4659 1475 4659 
Q 1713 4659 2000 4603 
L 1916 4113 
Q 1741 4144 1584 4144 
Q 1328 4144 1222 4034 
Q 1116 3925 1116 3625 
L 1116 3319 
L 1763 3319 
L 1763 2881 
L 1116 2881 
L 1116 0 
L 556 0 
z
" transform="scale(0.015625)"/>
     </defs>
     <use xlink:href="#ArialMT-4c"/>
     <use xlink:href="#ArialMT-65" x="55.615234"/>
     <use xlink:href="#ArialMT-61" x="111.230469"/>
     <use xlink:href="#ArialMT-72" x="166.845703"/>
     <use xlink:href="#ArialMT-6e" x="200.146484"/>
     <use xlink:href="#ArialMT-69" x="255.761719"/>
     <use xlink:href="#ArialMT-6e" x="277.978516"/>
     <use xlink:href="#ArialMT-67" x="333.59375"/>
     <use xlink:href="#ArialMT-20" x="389.208984"/>
     <use xlink:href="#ArialMT-52" x="416.992188"/>
     <use xlink:href="#ArialMT-75" x="489.208984"/>
     <use xlink:href="#ArialMT-6c" x="544.824219"/>
     <use xlink:href="#ArialMT-65" x="567.041016"/>
     <use xlink:href="#ArialMT-20" x="622.65625"/>
     <use xlink:href="#ArialMT-47" x="650.439453"/>
     <use xlink:href="#ArialMT-6f" x="728.222656"/>
     <use xlink:href="#ArialMT-6f" x="783.837891"/>
     <use xlink:href="#ArialMT-64" x="839.453125"/>
     <use xlink:href="#ArialMT-6e" x="895.068359"/>
     <use xlink:href="#ArialMT-65" x="950.683594"/>
     <use xlink:href="#ArialMT-73" x="1006.298828"/>
     <use xlink:href="#ArialMT-73" x="1056.298828"/>
     <use xlink:href="#ArialMT-20" x="1106.298828"/>
     <use xlink:href="#ArialMT-6f" x="1134.082031"/>
     <use xlink:href="#ArialMT-66" x="1189.697266"/>
     <use xlink:href="#ArialMT-20" x="1217.480469"/>
     <use xlink:href="#ArialMT-46" x="1245.263672"/>
     <use xlink:href="#ArialMT-69" x="1306.347656"/>
     <use xlink:href="#ArialMT-74" x="1328.564453"/>
    </g>
   </g>
   <g id="legend_1">
    <g id="line2d_5">
     <path d="M 146.729375 258.4025 
L 160.729375 258.4025 
L 174.729375 258.4025 
" style="fill: none; stroke-dasharray: 7.4,3.2; stroke-dashoffset: 0; stroke: #1a1a1a; stroke-width: 2"/>
    </g>
    <g id="text_12">
     <!-- Best Model -->
     <g style="fill: #262626" transform="translate(185.929375 263.3025)scale(0.14 -0.14)">
      <defs>
       <path id="ArialMT-4d" d="M 475 0 
L 475 4581 
L 1388 4581 
L 2472 1338 
Q 2622 884 2691 659 
Q 2769 909 2934 1394 
L 4031 4581 
L 4847 4581 
L 4847 0 
L 4263 0 
L 4263 3834 
L 2931 0 
L 2384 0 
L 1059 3900 
L 1059 0 
L 475 0 
z
" transform="scale(0.015625)"/>
      </defs>
      <use xlink:href="#ArialMT-42"/>
      <use xlink:href="#ArialMT-65" x="66.699219"/>
      <use xlink:href="#ArialMT-73" x="122.314453"/>
      <use xlink:href="#ArialMT-74" x="172.314453"/>
      <use xlink:href="#ArialMT-20" x="200.097656"/>
      <use xlink:href="#ArialMT-4d" x="227.880859"/>
      <use xlink:href="#ArialMT-6f" x="311.181641"/>
      <use xlink:href="#ArialMT-64" x="366.796875"/>
      <use xlink:href="#ArialMT-65" x="422.412109"/>
      <use xlink:href="#ArialMT-6c" x="478.027344"/>
     </g>
    </g>
   </g>
  </g>
 </g>
 <defs>
  <clipPath id="pe653cfe5f3">
   <rect x="117.865" y="40.44" width="150.695" height="238.245"/>
  </clipPath>
 </defs>
</svg>
