<?xml version="1.0" encoding="utf-8" standalone="no"?>
<!DOCTYPE svg PUBLIC "-//W3C//DTD SVG 1.1//EN"
  "http://www.w3.org/Graphics/SVG/1.1/DTD/svg11.dtd">
<svg xmlns:xlink="http://www.w3.org/1999/xlink" width="504pt" height="504pt" viewBox="0 0 504 504" xmlns="http://www.w3.org/2000/svg" version="1.1">
 <metadata>
  <rdf:RDF xmlns:dc="http://purl.org/dc/elements/1.1/" xmlns:cc="http://creativecommons.org/ns#" xmlns:rdf="http://www.w3.org/1999/02/22-rdf-syntax-ns#">
   <cc:Work>
    <dc:type rdf:resource="http://purl.org/dc/dcmitype/StillImage"/>
    <dc:date>2022-04-26T16:57:17.851850</dc:date>
    <dc:format>image/svg+xml</dc:format>
    <dc:creator>
     <cc:Agent>
      <dc:title>Matplotlib v3.5.1, https://matplotlib.org/</dc:title>
     </cc:Agent>
    </dc:creator>
   </cc:Work>
  </rdf:RDF>
 </metadata>
 <defs>
  <style type="text/css">*{stroke-linejoin: round; stroke-linecap: butt}</style>
 </defs>
 <g id="figure_1">
  <g id="patch_1">
   <path d="M 0 504 
L 504 504 
L 504 0 
L 0 0 
L 0 504 
z
" style="fill: none"/>
  </g>
  <g id="axes_1">
   <g id="matplotlib.axis_1">
    <g id="xtick_1">
     <g id="line2d_1">
      <path d="M 69.64522 438.06 
L 69.64522 19.44 
" clip-path="url(#pa240e5932f)" style="fill: none; stroke: #ffffff; stroke-linecap: round"/>
     </g>
     <g id="text_1">
      <!-- 0 -->
      <g style="fill: #262626" transform="translate(65.057446 459.370391)scale(0.165 -0.165)">
       <defs>
        <path id="ArialMT-30" d="M 266 2259 
Q 266 3072 433 3567 
Q 600 4063 929 4331 
Q 1259 4600 1759 4600 
Q 2128 4600 2406 4451 
Q 2684 4303 2865 4023 
Q 3047 3744 3150 3342 
Q 3253 2941 3253 2259 
Q 3253 1453 3087 958 
Q 2922 463 2592 192 
Q 2263 -78 1759 -78 
Q 1097 -78 719 397 
Q 266 969 266 2259 
z
M 844 2259 
Q 844 1131 1108 757 
Q 1372 384 1759 384 
Q 2147 384 2411 759 
Q 2675 1134 2675 2259 
Q 2675 3391 2411 3762 
Q 2147 4134 1753 4134 
Q 1366 4134 1134 3806 
Q 844 3388 844 2259 
z
" transform="scale(0.015625)"/>
       </defs>
       <use xlink:href="#ArialMT-30"/>
      </g>
     </g>
    </g>
    <g id="xtick_2">
     <g id="line2d_2">
      <path d="M 161.649615 438.06 
L 161.649615 19.44 
" clip-path="url(#pa240e5932f)" style="fill: none; stroke: #ffffff; stroke-linecap: round"/>
     </g>
     <g id="text_2">
      <!-- 20 -->
      <g style="fill: #262626" transform="translate(152.474069 459.370391)scale(0.165 -0.165)">
       <defs>
        <path id="ArialMT-32" d="M 3222 541 
L 3222 0 
L 194 0 
Q 188 203 259 391 
Q 375 700 629 1000 
Q 884 1300 1366 1694 
Q 2113 2306 2375 2664 
Q 2638 3022 2638 3341 
Q 2638 3675 2398 3904 
Q 2159 4134 1775 4134 
Q 1369 4134 1125 3890 
Q 881 3647 878 3216 
L 300 3275 
Q 359 3922 746 4261 
Q 1134 4600 1788 4600 
Q 2447 4600 2831 4234 
Q 3216 3869 3216 3328 
Q 3216 3053 3103 2787 
Q 2991 2522 2730 2228 
Q 2469 1934 1863 1422 
Q 1356 997 1212 845 
Q 1069 694 975 541 
L 3222 541 
z
" transform="scale(0.015625)"/>
       </defs>
       <use xlink:href="#ArialMT-32"/>
       <use xlink:href="#ArialMT-30" x="55.615234"/>
      </g>
     </g>
    </g>
    <g id="xtick_3">
     <g id="line2d_3">
      <path d="M 253.654011 438.06 
L 253.654011 19.44 
" clip-path="url(#pa240e5932f)" style="fill: none; stroke: #ffffff; stroke-linecap: round"/>
     </g>
     <g id="text_3">
      <!-- 40 -->
      <g style="fill: #262626" transform="translate(244.478464 459.370391)scale(0.165 -0.165)">
       <defs>
        <path id="ArialMT-34" d="M 2069 0 
L 2069 1097 
L 81 1097 
L 81 1613 
L 2172 4581 
L 2631 4581 
L 2631 1613 
L 3250 1613 
L 3250 1097 
L 2631 1097 
L 2631 0 
L 2069 0 
z
M 2069 1613 
L 2069 3678 
L 634 1613 
L 2069 1613 
z
" transform="scale(0.015625)"/>
       </defs>
       <use xlink:href="#ArialMT-34"/>
       <use xlink:href="#ArialMT-30" x="55.615234"/>
      </g>
     </g>
    </g>
    <g id="xtick_4">
     <g id="line2d_4">
      <path d="M 345.658407 438.06 
L 345.658407 19.44 
" clip-path="url(#pa240e5932f)" style="fill: none; stroke: #ffffff; stroke-linecap: round"/>
     </g>
     <g id="text_4">
      <!-- 60 -->
      <g style="fill: #262626" transform="translate(336.48286 459.370391)scale(0.165 -0.165)">
       <defs>
        <path id="ArialMT-36" d="M 3184 3459 
L 2625 3416 
Q 2550 3747 2413 3897 
Q 2184 4138 1850 4138 
Q 1581 4138 1378 3988 
Q 1113 3794 959 3422 
Q 806 3050 800 2363 
Q 1003 2672 1297 2822 
Q 1591 2972 1913 2972 
Q 2475 2972 2870 2558 
Q 3266 2144 3266 1488 
Q 3266 1056 3080 686 
Q 2894 316 2569 119 
Q 2244 -78 1831 -78 
Q 1128 -78 684 439 
Q 241 956 241 2144 
Q 241 3472 731 4075 
Q 1159 4600 1884 4600 
Q 2425 4600 2770 4297 
Q 3116 3994 3184 3459 
z
M 888 1484 
Q 888 1194 1011 928 
Q 1134 663 1356 523 
Q 1578 384 1822 384 
Q 2178 384 2434 671 
Q 2691 959 2691 1453 
Q 2691 1928 2437 2201 
Q 2184 2475 1800 2475 
Q 1419 2475 1153 2201 
Q 888 1928 888 1484 
z
" transform="scale(0.015625)"/>
       </defs>
       <use xlink:href="#ArialMT-36"/>
       <use xlink:href="#ArialMT-30" x="55.615234"/>
      </g>
     </g>
    </g>
    <g id="xtick_5">
     <g id="line2d_5">
      <path d="M 437.662802 438.06 
L 437.662802 19.44 
" clip-path="url(#pa240e5932f)" style="fill: none; stroke: #ffffff; stroke-linecap: round"/>
     </g>
     <g id="text_5">
      <!-- 80 -->
      <g style="fill: #262626" transform="translate(428.487255 459.370391)scale(0.165 -0.165)">
       <defs>
        <path id="ArialMT-38" d="M 1131 2484 
Q 781 2613 612 2850 
Q 444 3088 444 3419 
Q 444 3919 803 4259 
Q 1163 4600 1759 4600 
Q 2359 4600 2725 4251 
Q 3091 3903 3091 3403 
Q 3091 3084 2923 2848 
Q 2756 2613 2416 2484 
Q 2838 2347 3058 2040 
Q 3278 1734 3278 1309 
Q 3278 722 2862 322 
Q 2447 -78 1769 -78 
Q 1091 -78 675 323 
Q 259 725 259 1325 
Q 259 1772 486 2073 
Q 713 2375 1131 2484 
z
M 1019 3438 
Q 1019 3113 1228 2906 
Q 1438 2700 1772 2700 
Q 2097 2700 2305 2904 
Q 2513 3109 2513 3406 
Q 2513 3716 2298 3927 
Q 2084 4138 1766 4138 
Q 1444 4138 1231 3931 
Q 1019 3725 1019 3438 
z
M 838 1322 
Q 838 1081 952 856 
Q 1066 631 1291 507 
Q 1516 384 1775 384 
Q 2178 384 2440 643 
Q 2703 903 2703 1303 
Q 2703 1709 2433 1975 
Q 2163 2241 1756 2241 
Q 1359 2241 1098 1978 
Q 838 1716 838 1322 
z
" transform="scale(0.015625)"/>
       </defs>
       <use xlink:href="#ArialMT-38"/>
       <use xlink:href="#ArialMT-30" x="55.615234"/>
      </g>
     </g>
    </g>
    <g id="text_6">
     <!-- Cumulative number of OCT choices -->
     <g style="fill: #262626" transform="translate(131.966562 479.533828)scale(0.18 -0.18)">
      <defs>
       <path id="ArialMT-43" d="M 3763 1606 
L 4369 1453 
Q 4178 706 3683 314 
Q 3188 -78 2472 -78 
Q 1731 -78 1267 223 
Q 803 525 561 1097 
Q 319 1669 319 2325 
Q 319 3041 592 3573 
Q 866 4106 1370 4382 
Q 1875 4659 2481 4659 
Q 3169 4659 3637 4309 
Q 4106 3959 4291 3325 
L 3694 3184 
Q 3534 3684 3231 3912 
Q 2928 4141 2469 4141 
Q 1941 4141 1586 3887 
Q 1231 3634 1087 3207 
Q 944 2781 944 2328 
Q 944 1744 1114 1308 
Q 1284 872 1643 656 
Q 2003 441 2422 441 
Q 2931 441 3284 734 
Q 3638 1028 3763 1606 
z
" transform="scale(0.015625)"/>
       <path id="ArialMT-75" d="M 2597 0 
L 2597 488 
Q 2209 -75 1544 -75 
Q 1250 -75 995 37 
Q 741 150 617 320 
Q 494 491 444 738 
Q 409 903 409 1263 
L 409 3319 
L 972 3319 
L 972 1478 
Q 972 1038 1006 884 
Q 1059 663 1231 536 
Q 1403 409 1656 409 
Q 1909 409 2131 539 
Q 2353 669 2445 892 
Q 2538 1116 2538 1541 
L 2538 3319 
L 3100 3319 
L 3100 0 
L 2597 0 
z
" transform="scale(0.015625)"/>
       <path id="ArialMT-6d" d="M 422 0 
L 422 3319 
L 925 3319 
L 925 2853 
Q 1081 3097 1340 3245 
Q 1600 3394 1931 3394 
Q 2300 3394 2536 3241 
Q 2772 3088 2869 2813 
Q 3263 3394 3894 3394 
Q 4388 3394 4653 3120 
Q 4919 2847 4919 2278 
L 4919 0 
L 4359 0 
L 4359 2091 
Q 4359 2428 4304 2576 
Q 4250 2725 4106 2815 
Q 3963 2906 3769 2906 
Q 3419 2906 3187 2673 
Q 2956 2441 2956 1928 
L 2956 0 
L 2394 0 
L 2394 2156 
Q 2394 2531 2256 2718 
Q 2119 2906 1806 2906 
Q 1569 2906 1367 2781 
Q 1166 2656 1075 2415 
Q 984 2175 984 1722 
L 984 0 
L 422 0 
z
" transform="scale(0.015625)"/>
       <path id="ArialMT-6c" d="M 409 0 
L 409 4581 
L 972 4581 
L 972 0 
L 409 0 
z
" transform="scale(0.015625)"/>
       <path id="ArialMT-61" d="M 2588 409 
Q 2275 144 1986 34 
Q 1697 -75 1366 -75 
Q 819 -75 525 192 
Q 231 459 231 875 
Q 231 1119 342 1320 
Q 453 1522 633 1644 
Q 813 1766 1038 1828 
Q 1203 1872 1538 1913 
Q 2219 1994 2541 2106 
Q 2544 2222 2544 2253 
Q 2544 2597 2384 2738 
Q 2169 2928 1744 2928 
Q 1347 2928 1158 2789 
Q 969 2650 878 2297 
L 328 2372 
Q 403 2725 575 2942 
Q 747 3159 1072 3276 
Q 1397 3394 1825 3394 
Q 2250 3394 2515 3294 
Q 2781 3194 2906 3042 
Q 3031 2891 3081 2659 
Q 3109 2516 3109 2141 
L 3109 1391 
Q 3109 606 3145 398 
Q 3181 191 3288 0 
L 2700 0 
Q 2613 175 2588 409 
z
M 2541 1666 
Q 2234 1541 1622 1453 
Q 1275 1403 1131 1340 
Q 988 1278 909 1158 
Q 831 1038 831 891 
Q 831 666 1001 516 
Q 1172 366 1500 366 
Q 1825 366 2078 508 
Q 2331 650 2450 897 
Q 2541 1088 2541 1459 
L 2541 1666 
z
" transform="scale(0.015625)"/>
       <path id="ArialMT-74" d="M 1650 503 
L 1731 6 
Q 1494 -44 1306 -44 
Q 1000 -44 831 53 
Q 663 150 594 308 
Q 525 466 525 972 
L 525 2881 
L 113 2881 
L 113 3319 
L 525 3319 
L 525 4141 
L 1084 4478 
L 1084 3319 
L 1650 3319 
L 1650 2881 
L 1084 2881 
L 1084 941 
Q 1084 700 1114 631 
Q 1144 563 1211 522 
Q 1278 481 1403 481 
Q 1497 481 1650 503 
z
" transform="scale(0.015625)"/>
       <path id="ArialMT-69" d="M 425 3934 
L 425 4581 
L 988 4581 
L 988 3934 
L 425 3934 
z
M 425 0 
L 425 3319 
L 988 3319 
L 988 0 
L 425 0 
z
" transform="scale(0.015625)"/>
       <path id="ArialMT-76" d="M 1344 0 
L 81 3319 
L 675 3319 
L 1388 1331 
Q 1503 1009 1600 663 
Q 1675 925 1809 1294 
L 2547 3319 
L 3125 3319 
L 1869 0 
L 1344 0 
z
" transform="scale(0.015625)"/>
       <path id="ArialMT-65" d="M 2694 1069 
L 3275 997 
Q 3138 488 2766 206 
Q 2394 -75 1816 -75 
Q 1088 -75 661 373 
Q 234 822 234 1631 
Q 234 2469 665 2931 
Q 1097 3394 1784 3394 
Q 2450 3394 2872 2941 
Q 3294 2488 3294 1666 
Q 3294 1616 3291 1516 
L 816 1516 
Q 847 969 1125 678 
Q 1403 388 1819 388 
Q 2128 388 2347 550 
Q 2566 713 2694 1069 
z
M 847 1978 
L 2700 1978 
Q 2663 2397 2488 2606 
Q 2219 2931 1791 2931 
Q 1403 2931 1139 2672 
Q 875 2413 847 1978 
z
" transform="scale(0.015625)"/>
       <path id="ArialMT-20" transform="scale(0.015625)"/>
       <path id="ArialMT-6e" d="M 422 0 
L 422 3319 
L 928 3319 
L 928 2847 
Q 1294 3394 1984 3394 
Q 2284 3394 2536 3286 
Q 2788 3178 2913 3003 
Q 3038 2828 3088 2588 
Q 3119 2431 3119 2041 
L 3119 0 
L 2556 0 
L 2556 2019 
Q 2556 2363 2490 2533 
Q 2425 2703 2258 2804 
Q 2091 2906 1866 2906 
Q 1506 2906 1245 2678 
Q 984 2450 984 1813 
L 984 0 
L 422 0 
z
" transform="scale(0.015625)"/>
       <path id="ArialMT-62" d="M 941 0 
L 419 0 
L 419 4581 
L 981 4581 
L 981 2947 
Q 1338 3394 1891 3394 
Q 2197 3394 2470 3270 
Q 2744 3147 2920 2923 
Q 3097 2700 3197 2384 
Q 3297 2069 3297 1709 
Q 3297 856 2875 390 
Q 2453 -75 1863 -75 
Q 1275 -75 941 416 
L 941 0 
z
M 934 1684 
Q 934 1088 1097 822 
Q 1363 388 1816 388 
Q 2184 388 2453 708 
Q 2722 1028 2722 1663 
Q 2722 2313 2464 2622 
Q 2206 2931 1841 2931 
Q 1472 2931 1203 2611 
Q 934 2291 934 1684 
z
" transform="scale(0.015625)"/>
       <path id="ArialMT-72" d="M 416 0 
L 416 3319 
L 922 3319 
L 922 2816 
Q 1116 3169 1280 3281 
Q 1444 3394 1641 3394 
Q 1925 3394 2219 3213 
L 2025 2691 
Q 1819 2813 1613 2813 
Q 1428 2813 1281 2702 
Q 1134 2591 1072 2394 
Q 978 2094 978 1738 
L 978 0 
L 416 0 
z
" transform="scale(0.015625)"/>
       <path id="ArialMT-6f" d="M 213 1659 
Q 213 2581 725 3025 
Q 1153 3394 1769 3394 
Q 2453 3394 2887 2945 
Q 3322 2497 3322 1706 
Q 3322 1066 3130 698 
Q 2938 331 2570 128 
Q 2203 -75 1769 -75 
Q 1072 -75 642 372 
Q 213 819 213 1659 
z
M 791 1659 
Q 791 1022 1069 705 
Q 1347 388 1769 388 
Q 2188 388 2466 706 
Q 2744 1025 2744 1678 
Q 2744 2294 2464 2611 
Q 2184 2928 1769 2928 
Q 1347 2928 1069 2612 
Q 791 2297 791 1659 
z
" transform="scale(0.015625)"/>
       <path id="ArialMT-66" d="M 556 0 
L 556 2881 
L 59 2881 
L 59 3319 
L 556 3319 
L 556 3672 
Q 556 4006 616 4169 
Q 697 4388 901 4523 
Q 1106 4659 1475 4659 
Q 1713 4659 2000 4603 
L 1916 4113 
Q 1741 4144 1584 4144 
Q 1328 4144 1222 4034 
Q 1116 3925 1116 3625 
L 1116 3319 
L 1763 3319 
L 1763 2881 
L 1116 2881 
L 1116 0 
L 556 0 
z
" transform="scale(0.015625)"/>
       <path id="ArialMT-4f" d="M 309 2231 
Q 309 3372 921 4017 
Q 1534 4663 2503 4663 
Q 3138 4663 3647 4359 
Q 4156 4056 4423 3514 
Q 4691 2972 4691 2284 
Q 4691 1588 4409 1038 
Q 4128 488 3612 205 
Q 3097 -78 2500 -78 
Q 1853 -78 1343 234 
Q 834 547 571 1087 
Q 309 1628 309 2231 
z
M 934 2222 
Q 934 1394 1379 917 
Q 1825 441 2497 441 
Q 3181 441 3623 922 
Q 4066 1403 4066 2288 
Q 4066 2847 3877 3264 
Q 3688 3681 3323 3911 
Q 2959 4141 2506 4141 
Q 1863 4141 1398 3698 
Q 934 3256 934 2222 
z
" transform="scale(0.015625)"/>
       <path id="ArialMT-54" d="M 1659 0 
L 1659 4041 
L 150 4041 
L 150 4581 
L 3781 4581 
L 3781 4041 
L 2266 4041 
L 2266 0 
L 1659 0 
z
" transform="scale(0.015625)"/>
       <path id="ArialMT-63" d="M 2588 1216 
L 3141 1144 
Q 3050 572 2676 248 
Q 2303 -75 1759 -75 
Q 1078 -75 664 370 
Q 250 816 250 1647 
Q 250 2184 428 2587 
Q 606 2991 970 3192 
Q 1334 3394 1763 3394 
Q 2303 3394 2647 3120 
Q 2991 2847 3088 2344 
L 2541 2259 
Q 2463 2594 2264 2762 
Q 2066 2931 1784 2931 
Q 1359 2931 1093 2626 
Q 828 2322 828 1663 
Q 828 994 1084 691 
Q 1341 388 1753 388 
Q 2084 388 2306 591 
Q 2528 794 2588 1216 
z
" transform="scale(0.015625)"/>
       <path id="ArialMT-68" d="M 422 0 
L 422 4581 
L 984 4581 
L 984 2938 
Q 1378 3394 1978 3394 
Q 2347 3394 2619 3248 
Q 2891 3103 3008 2847 
Q 3125 2591 3125 2103 
L 3125 0 
L 2563 0 
L 2563 2103 
Q 2563 2525 2380 2717 
Q 2197 2909 1863 2909 
Q 1613 2909 1392 2779 
Q 1172 2650 1078 2428 
Q 984 2206 984 1816 
L 984 0 
L 422 0 
z
" transform="scale(0.015625)"/>
       <path id="ArialMT-73" d="M 197 991 
L 753 1078 
Q 800 744 1014 566 
Q 1228 388 1613 388 
Q 2000 388 2187 545 
Q 2375 703 2375 916 
Q 2375 1106 2209 1216 
Q 2094 1291 1634 1406 
Q 1016 1563 777 1677 
Q 538 1791 414 1992 
Q 291 2194 291 2438 
Q 291 2659 392 2848 
Q 494 3038 669 3163 
Q 800 3259 1026 3326 
Q 1253 3394 1513 3394 
Q 1903 3394 2198 3281 
Q 2494 3169 2634 2976 
Q 2775 2784 2828 2463 
L 2278 2388 
Q 2241 2644 2061 2787 
Q 1881 2931 1553 2931 
Q 1166 2931 1000 2803 
Q 834 2675 834 2503 
Q 834 2394 903 2306 
Q 972 2216 1119 2156 
Q 1203 2125 1616 2013 
Q 2213 1853 2448 1751 
Q 2684 1650 2818 1456 
Q 2953 1263 2953 975 
Q 2953 694 2789 445 
Q 2625 197 2315 61 
Q 2006 -75 1616 -75 
Q 969 -75 630 194 
Q 291 463 197 991 
z
" transform="scale(0.015625)"/>
      </defs>
      <use xlink:href="#ArialMT-43"/>
      <use xlink:href="#ArialMT-75" x="72.216797"/>
      <use xlink:href="#ArialMT-6d" x="127.832031"/>
      <use xlink:href="#ArialMT-75" x="211.132812"/>
      <use xlink:href="#ArialMT-6c" x="266.748047"/>
      <use xlink:href="#ArialMT-61" x="288.964844"/>
      <use xlink:href="#ArialMT-74" x="344.580078"/>
      <use xlink:href="#ArialMT-69" x="372.363281"/>
      <use xlink:href="#ArialMT-76" x="394.580078"/>
      <use xlink:href="#ArialMT-65" x="444.580078"/>
      <use xlink:href="#ArialMT-20" x="500.195312"/>
      <use xlink:href="#ArialMT-6e" x="527.978516"/>
      <use xlink:href="#ArialMT-75" x="583.59375"/>
      <use xlink:href="#ArialMT-6d" x="639.208984"/>
      <use xlink:href="#ArialMT-62" x="722.509766"/>
      <use xlink:href="#ArialMT-65" x="778.125"/>
      <use xlink:href="#ArialMT-72" x="833.740234"/>
      <use xlink:href="#ArialMT-20" x="867.041016"/>
      <use xlink:href="#ArialMT-6f" x="894.824219"/>
      <use xlink:href="#ArialMT-66" x="950.439453"/>
      <use xlink:href="#ArialMT-20" x="978.222656"/>
      <use xlink:href="#ArialMT-4f" x="1006.005859"/>
      <use xlink:href="#ArialMT-43" x="1083.789062"/>
      <use xlink:href="#ArialMT-54" x="1156.005859"/>
      <use xlink:href="#ArialMT-20" x="1215.339844"/>
      <use xlink:href="#ArialMT-63" x="1243.123047"/>
      <use xlink:href="#ArialMT-68" x="1293.123047"/>
      <use xlink:href="#ArialMT-6f" x="1348.738281"/>
      <use xlink:href="#ArialMT-69" x="1404.353516"/>
      <use xlink:href="#ArialMT-63" x="1426.570312"/>
      <use xlink:href="#ArialMT-65" x="1476.570312"/>
      <use xlink:href="#ArialMT-73" x="1532.185547"/>
     </g>
    </g>
   </g>
   <g id="matplotlib.axis_2">
    <g id="ytick_1">
     <g id="line2d_6">
      <path d="M 65.045 433.45978 
L 483.665 433.45978 
" clip-path="url(#pa240e5932f)" style="fill: none; stroke: #ffffff; stroke-linecap: round"/>
     </g>
     <g id="text_7">
      <!-- 0 -->
      <g style="fill: #262626" transform="translate(46.369453 439.364976)scale(0.165 -0.165)">
       <use xlink:href="#ArialMT-30"/>
      </g>
     </g>
    </g>
    <g id="ytick_2">
     <g id="line2d_7">
      <path d="M 65.045 341.455385 
L 483.665 341.455385 
" clip-path="url(#pa240e5932f)" style="fill: none; stroke: #ffffff; stroke-linecap: round"/>
     </g>
     <g id="text_8">
      <!-- 20 -->
      <g style="fill: #262626" transform="translate(37.193906 347.36058)scale(0.165 -0.165)">
       <use xlink:href="#ArialMT-32"/>
       <use xlink:href="#ArialMT-30" x="55.615234"/>
      </g>
     </g>
    </g>
    <g id="ytick_3">
     <g id="line2d_8">
      <path d="M 65.045 249.450989 
L 483.665 249.450989 
" clip-path="url(#pa240e5932f)" style="fill: none; stroke: #ffffff; stroke-linecap: round"/>
     </g>
     <g id="text_9">
      <!-- 40 -->
      <g style="fill: #262626" transform="translate(37.193906 255.356184)scale(0.165 -0.165)">
       <use xlink:href="#ArialMT-34"/>
       <use xlink:href="#ArialMT-30" x="55.615234"/>
      </g>
     </g>
    </g>
    <g id="ytick_4">
     <g id="line2d_9">
      <path d="M 65.045 157.446593 
L 483.665 157.446593 
" clip-path="url(#pa240e5932f)" style="fill: none; stroke: #ffffff; stroke-linecap: round"/>
     </g>
     <g id="text_10">
      <!-- 60 -->
      <g style="fill: #262626" transform="translate(37.193906 163.351789)scale(0.165 -0.165)">
       <use xlink:href="#ArialMT-36"/>
       <use xlink:href="#ArialMT-30" x="55.615234"/>
      </g>
     </g>
    </g>
    <g id="ytick_5">
     <g id="line2d_10">
      <path d="M 65.045 65.442198 
L 483.665 65.442198 
" clip-path="url(#pa240e5932f)" style="fill: none; stroke: #ffffff; stroke-linecap: round"/>
     </g>
     <g id="text_11">
      <!-- 80 -->
      <g style="fill: #262626" transform="translate(37.193906 71.347393)scale(0.165 -0.165)">
       <use xlink:href="#ArialMT-38"/>
       <use xlink:href="#ArialMT-30" x="55.615234"/>
      </g>
     </g>
    </g>
    <g id="text_12">
     <!-- Cumulative number of MCH choices -->
     <g style="fill: #262626" transform="translate(29.616406 372.795)rotate(-90)scale(0.18 -0.18)">
      <defs>
       <path id="ArialMT-4d" d="M 475 0 
L 475 4581 
L 1388 4581 
L 2472 1338 
Q 2622 884 2691 659 
Q 2769 909 2934 1394 
L 4031 4581 
L 4847 4581 
L 4847 0 
L 4263 0 
L 4263 3834 
L 2931 0 
L 2384 0 
L 1059 3900 
L 1059 0 
L 475 0 
z
" transform="scale(0.015625)"/>
       <path id="ArialMT-48" d="M 513 0 
L 513 4581 
L 1119 4581 
L 1119 2700 
L 3500 2700 
L 3500 4581 
L 4106 4581 
L 4106 0 
L 3500 0 
L 3500 2159 
L 1119 2159 
L 1119 0 
L 513 0 
z
" transform="scale(0.015625)"/>
      </defs>
      <use xlink:href="#ArialMT-43"/>
      <use xlink:href="#ArialMT-75" x="72.216797"/>
      <use xlink:href="#ArialMT-6d" x="127.832031"/>
      <use xlink:href="#ArialMT-75" x="211.132812"/>
      <use xlink:href="#ArialMT-6c" x="266.748047"/>
      <use xlink:href="#ArialMT-61" x="288.964844"/>
      <use xlink:href="#ArialMT-74" x="344.580078"/>
      <use xlink:href="#ArialMT-69" x="372.363281"/>
      <use xlink:href="#ArialMT-76" x="394.580078"/>
      <use xlink:href="#ArialMT-65" x="444.580078"/>
      <use xlink:href="#ArialMT-20" x="500.195312"/>
      <use xlink:href="#ArialMT-6e" x="527.978516"/>
      <use xlink:href="#ArialMT-75" x="583.59375"/>
      <use xlink:href="#ArialMT-6d" x="639.208984"/>
      <use xlink:href="#ArialMT-62" x="722.509766"/>
      <use xlink:href="#ArialMT-65" x="778.125"/>
      <use xlink:href="#ArialMT-72" x="833.740234"/>
      <use xlink:href="#ArialMT-20" x="867.041016"/>
      <use xlink:href="#ArialMT-6f" x="894.824219"/>
      <use xlink:href="#ArialMT-66" x="950.439453"/>
      <use xlink:href="#ArialMT-20" x="978.222656"/>
      <use xlink:href="#ArialMT-4d" x="1006.005859"/>
      <use xlink:href="#ArialMT-43" x="1089.306641"/>
      <use xlink:href="#ArialMT-48" x="1161.523438"/>
      <use xlink:href="#ArialMT-20" x="1233.740234"/>
      <use xlink:href="#ArialMT-63" x="1261.523438"/>
      <use xlink:href="#ArialMT-68" x="1311.523438"/>
      <use xlink:href="#ArialMT-6f" x="1367.138672"/>
      <use xlink:href="#ArialMT-69" x="1422.753906"/>
      <use xlink:href="#ArialMT-63" x="1444.970703"/>
      <use xlink:href="#ArialMT-65" x="1494.970703"/>
      <use xlink:href="#ArialMT-73" x="1550.585938"/>
     </g>
    </g>
   </g>
   <g id="line2d_11">
    <path d="M 74.24544 433.45978 
L 78.845659 433.45978 
L 78.845659 428.85956 
L 83.445879 428.85956 
L 88.046099 428.85956 
L 88.046099 424.259341 
L 88.046099 419.659121 
L 92.646319 419.659121 
L 97.246538 419.659121 
L 101.846758 419.659121 
L 106.446978 419.659121 
L 111.047198 419.659121 
L 115.647418 419.659121 
L 115.647418 415.058901 
L 120.247637 415.058901 
L 120.247637 410.458681 
L 120.247637 405.858462 
L 124.847857 405.858462 
L 124.847857 401.258242 
L 124.847857 396.658022 
L 124.847857 392.057802 
L 129.448077 392.057802 
L 134.048297 392.057802 
L 138.648516 392.057802 
L 138.648516 387.457582 
L 138.648516 382.857363 
L 138.648516 378.257143 
L 143.248736 378.257143 
L 143.248736 373.656923 
L 147.848956 373.656923 
L 147.848956 369.056703 
L 152.449176 369.056703 
L 157.049396 369.056703 
L 161.649615 369.056703 
L 166.249835 369.056703 
L 166.249835 364.456484 
L 166.249835 359.856264 
L 166.249835 355.256044 
L 166.249835 350.655824 
L 170.850055 350.655824 
L 175.450275 350.655824 
L 180.050495 350.655824 
L 184.650714 350.655824 
L 184.650714 346.055604 
L 189.250934 346.055604 
L 189.250934 341.455385 
L 193.851154 341.455385 
L 198.451374 341.455385 
L 203.051593 341.455385 
L 207.651813 341.455385 
L 212.252033 341.455385 
L 216.852253 341.455385 
L 221.452473 341.455385 
L 226.052692 341.455385 
L 230.652912 341.455385 
L 235.253132 341.455385 
L 239.853352 341.455385 
L 244.453571 341.455385 
L 249.053791 341.455385 
L 253.654011 341.455385 
L 258.254231 341.455385 
L 262.854451 341.455385 
L 267.45467 341.455385 
L 272.05489 341.455385 
L 276.65511 341.455385 
L 281.25533 341.455385 
L 285.855549 341.455385 
L 290.455769 341.455385 
L 295.055989 341.455385 
L 299.656209 341.455385 
L 304.256429 341.455385 
L 308.856648 341.455385 
L 313.456868 341.455385 
L 318.057088 341.455385 
L 322.657308 341.455385 
L 327.257527 341.455385 
L 331.857747 341.455385 
L 336.457967 341.455385 
L 341.058187 341.455385 
L 345.658407 341.455385 
L 350.258626 341.455385 
L 354.858846 341.455385 
L 359.459066 341.455385 
L 364.059286 341.455385 
L 368.659505 341.455385 
L 373.259725 341.455385 
L 377.859945 341.455385 
L 382.460165 341.455385 
L 387.060385 341.455385 
L 391.660604 341.455385 
L 396.260824 341.455385 
L 400.861044 341.455385 
L 405.461264 341.455385 
L 410.061484 341.455385 
L 414.661703 341.455385 
L 419.261923 341.455385 
L 423.862143 341.455385 
L 428.462363 341.455385 
L 433.062582 341.455385 
L 437.662802 341.455385 
" clip-path="url(#pa240e5932f)" style="fill: none; stroke: #9ccb3b; stroke-opacity: 0.5; stroke-width: 2; stroke-linecap: round"/>
   </g>
   <g id="line2d_12">
    <defs>
     <path id="m6f96f42d1b" d="M 0 3 
C 0.795609 3 1.55874 2.683901 2.12132 2.12132 
C 2.683901 1.55874 3 0.795609 3 0 
C 3 -0.795609 2.683901 -1.55874 2.12132 -2.12132 
C 1.55874 -2.683901 0.795609 -3 0 -3 
C -0.795609 -3 -1.55874 -2.683901 -2.12132 -2.12132 
C -2.683901 -1.55874 -3 -0.795609 -3 0 
C -3 0.795609 -2.683901 1.55874 -2.12132 2.12132 
C -1.55874 2.683901 -0.795609 3 0 3 
z
" style="stroke: #008000"/>
    </defs>
    <g clip-path="url(#pa240e5932f)">
     <use xlink:href="#m6f96f42d1b" x="175.450275" y="350.655824" style="fill: #008000; stroke: #008000"/>
    </g>
   </g>
   <g id="line2d_13">
    <path d="M 69.64522 428.85956 
L 69.64522 424.259341 
L 69.64522 419.659121 
L 69.64522 415.058901 
L 69.64522 410.458681 
L 69.64522 405.858462 
L 74.24544 405.858462 
L 78.845659 405.858462 
L 78.845659 401.258242 
L 78.845659 396.658022 
L 78.845659 392.057802 
L 78.845659 387.457582 
L 83.445879 387.457582 
L 83.445879 382.857363 
L 88.046099 382.857363 
L 88.046099 378.257143 
L 88.046099 373.656923 
L 88.046099 369.056703 
L 88.046099 364.456484 
L 92.646319 364.456484 
L 97.246538 364.456484 
L 101.846758 364.456484 
L 106.446978 364.456484 
L 106.446978 359.856264 
L 111.047198 359.856264 
L 111.047198 355.256044 
L 115.647418 355.256044 
L 120.247637 355.256044 
L 120.247637 350.655824 
L 120.247637 346.055604 
L 120.247637 341.455385 
L 124.847857 341.455385 
L 124.847857 336.855165 
L 129.448077 336.855165 
L 134.048297 336.855165 
L 138.648516 336.855165 
L 143.248736 336.855165 
L 143.248736 332.254945 
L 143.248736 327.654725 
L 143.248736 323.054505 
L 147.848956 323.054505 
L 147.848956 318.454286 
L 147.848956 313.854066 
L 147.848956 309.253846 
L 147.848956 304.653626 
L 147.848956 300.053407 
L 147.848956 295.453187 
L 152.449176 295.453187 
L 157.049396 295.453187 
L 161.649615 295.453187 
L 166.249835 295.453187 
L 170.850055 295.453187 
L 170.850055 290.852967 
L 175.450275 290.852967 
L 180.050495 290.852967 
L 180.050495 286.252747 
L 184.650714 286.252747 
L 189.250934 286.252747 
L 193.851154 286.252747 
L 198.451374 286.252747 
L 203.051593 286.252747 
L 207.651813 286.252747 
L 212.252033 286.252747 
L 216.852253 286.252747 
L 221.452473 286.252747 
L 226.052692 286.252747 
L 230.652912 286.252747 
L 235.253132 286.252747 
L 235.253132 281.652527 
L 239.853352 281.652527 
L 244.453571 281.652527 
L 249.053791 281.652527 
L 253.654011 281.652527 
L 258.254231 281.652527 
L 258.254231 277.052308 
L 258.254231 272.452088 
L 262.854451 272.452088 
L 267.45467 272.452088 
L 272.05489 272.452088 
L 276.65511 272.452088 
L 281.25533 272.452088 
L 285.855549 272.452088 
L 290.455769 272.452088 
L 295.055989 272.452088 
L 299.656209 272.452088 
L 304.256429 272.452088 
L 308.856648 272.452088 
L 313.456868 272.452088 
L 318.057088 272.452088 
L 322.657308 272.452088 
L 327.257527 272.452088 
L 331.857747 272.452088 
L 336.457967 272.452088 
L 341.058187 272.452088 
L 345.658407 272.452088 
L 350.258626 272.452088 
L 354.858846 272.452088 
L 359.459066 272.452088 
L 364.059286 272.452088 
L 364.059286 267.851868 
" clip-path="url(#pa240e5932f)" style="fill: none; stroke: #9ccb3b; stroke-opacity: 0.5; stroke-width: 2; stroke-linecap: round"/>
   </g>
   <g id="line2d_14">
    <g clip-path="url(#pa240e5932f)">
     <use xlink:href="#m6f96f42d1b" x="147.848956" y="323.054505" style="fill: #008000; stroke: #008000"/>
    </g>
   </g>
   <g id="line2d_15">
    <path d="M 74.24544 433.45978 
L 74.24544 428.85956 
L 74.24544 424.259341 
L 74.24544 419.659121 
L 74.24544 415.058901 
L 78.845659 415.058901 
L 78.845659 410.458681 
L 83.445879 410.458681 
L 88.046099 410.458681 
L 92.646319 410.458681 
L 92.646319 405.858462 
L 92.646319 401.258242 
L 92.646319 396.658022 
L 97.246538 396.658022 
L 101.846758 396.658022 
L 106.446978 396.658022 
L 106.446978 392.057802 
L 111.047198 392.057802 
L 115.647418 392.057802 
L 120.247637 392.057802 
L 124.847857 392.057802 
L 129.448077 392.057802 
L 134.048297 392.057802 
L 134.048297 387.457582 
L 138.648516 387.457582 
L 143.248736 387.457582 
L 143.248736 382.857363 
L 147.848956 382.857363 
L 152.449176 382.857363 
L 152.449176 378.257143 
L 152.449176 373.656923 
L 152.449176 369.056703 
L 152.449176 364.456484 
L 152.449176 359.856264 
L 152.449176 355.256044 
L 152.449176 350.655824 
L 152.449176 346.055604 
L 157.049396 346.055604 
L 161.649615 346.055604 
L 161.649615 341.455385 
L 166.249835 341.455385 
L 166.249835 336.855165 
L 170.850055 336.855165 
L 175.450275 336.855165 
L 180.050495 336.855165 
L 184.650714 336.855165 
L 189.250934 336.855165 
L 193.851154 336.855165 
L 198.451374 336.855165 
L 203.051593 336.855165 
L 207.651813 336.855165 
L 212.252033 336.855165 
L 216.852253 336.855165 
L 221.452473 336.855165 
L 226.052692 336.855165 
L 230.652912 336.855165 
L 235.253132 336.855165 
L 239.853352 336.855165 
L 244.453571 336.855165 
L 249.053791 336.855165 
L 253.654011 336.855165 
L 258.254231 336.855165 
L 262.854451 336.855165 
L 267.45467 336.855165 
L 272.05489 336.855165 
L 276.65511 336.855165 
L 281.25533 336.855165 
L 285.855549 336.855165 
L 290.455769 336.855165 
L 295.055989 336.855165 
L 299.656209 336.855165 
L 304.256429 336.855165 
L 308.856648 336.855165 
L 313.456868 336.855165 
L 318.057088 336.855165 
L 322.657308 336.855165 
L 327.257527 336.855165 
L 331.857747 336.855165 
L 336.457967 336.855165 
L 341.058187 336.855165 
L 345.658407 336.855165 
L 350.258626 336.855165 
L 354.858846 336.855165 
L 359.459066 336.855165 
L 364.059286 336.855165 
L 368.659505 336.855165 
L 373.259725 336.855165 
L 377.859945 336.855165 
L 382.460165 336.855165 
L 387.060385 336.855165 
L 391.660604 336.855165 
L 396.260824 336.855165 
L 400.861044 336.855165 
L 405.461264 336.855165 
L 410.061484 336.855165 
L 414.661703 336.855165 
L 419.261923 336.855165 
L 423.862143 336.855165 
L 428.462363 336.855165 
L 433.062582 336.855165 
" clip-path="url(#pa240e5932f)" style="fill: none; stroke: #9ccb3b; stroke-opacity: 0.5; stroke-width: 2; stroke-linecap: round"/>
   </g>
   <g id="line2d_16">
    <g clip-path="url(#pa240e5932f)">
     <use xlink:href="#m6f96f42d1b" x="166.249835" y="341.455385" style="fill: #008000; stroke: #008000"/>
    </g>
   </g>
   <g id="line2d_17">
    <path d="M 69.64522 428.85956 
L 69.64522 424.259341 
L 69.64522 419.659121 
L 69.64522 415.058901 
L 69.64522 410.458681 
L 69.64522 405.858462 
L 69.64522 401.258242 
L 69.64522 396.658022 
L 74.24544 396.658022 
L 78.845659 396.658022 
L 78.845659 392.057802 
L 78.845659 387.457582 
L 83.445879 387.457582 
L 88.046099 387.457582 
L 88.046099 382.857363 
L 88.046099 378.257143 
L 92.646319 378.257143 
L 92.646319 373.656923 
L 92.646319 369.056703 
L 97.246538 369.056703 
L 101.846758 369.056703 
L 106.446978 369.056703 
L 106.446978 364.456484 
L 106.446978 359.856264 
L 106.446978 355.256044 
L 106.446978 350.655824 
L 111.047198 350.655824 
L 111.047198 346.055604 
L 115.647418 346.055604 
L 120.247637 346.055604 
L 124.847857 346.055604 
L 124.847857 341.455385 
L 124.847857 336.855165 
L 124.847857 332.254945 
L 129.448077 332.254945 
L 134.048297 332.254945 
L 138.648516 332.254945 
L 138.648516 327.654725 
L 138.648516 323.054505 
L 143.248736 323.054505 
L 143.248736 318.454286 
L 147.848956 318.454286 
L 152.449176 318.454286 
L 157.049396 318.454286 
L 157.049396 313.854066 
L 161.649615 313.854066 
L 166.249835 313.854066 
L 170.850055 313.854066 
L 175.450275 313.854066 
L 180.050495 313.854066 
L 184.650714 313.854066 
L 189.250934 313.854066 
L 193.851154 313.854066 
L 198.451374 313.854066 
L 203.051593 313.854066 
L 207.651813 313.854066 
L 212.252033 313.854066 
L 216.852253 313.854066 
L 221.452473 313.854066 
L 226.052692 313.854066 
L 230.652912 313.854066 
L 235.253132 313.854066 
L 239.853352 313.854066 
L 244.453571 313.854066 
L 249.053791 313.854066 
L 253.654011 313.854066 
L 258.254231 313.854066 
L 262.854451 313.854066 
L 267.45467 313.854066 
L 272.05489 313.854066 
L 276.65511 313.854066 
L 281.25533 313.854066 
L 285.855549 313.854066 
L 290.455769 313.854066 
L 295.055989 313.854066 
L 299.656209 313.854066 
L 304.256429 313.854066 
L 308.856648 313.854066 
L 313.456868 313.854066 
L 318.057088 313.854066 
L 322.657308 313.854066 
L 327.257527 313.854066 
L 331.857747 313.854066 
L 336.457967 313.854066 
L 341.058187 313.854066 
L 345.658407 313.854066 
L 350.258626 313.854066 
L 354.858846 313.854066 
L 359.459066 313.854066 
L 364.059286 313.854066 
L 368.659505 313.854066 
L 373.259725 313.854066 
L 377.859945 313.854066 
L 382.460165 313.854066 
L 387.060385 313.854066 
L 391.660604 313.854066 
L 396.260824 313.854066 
L 400.861044 313.854066 
L 405.461264 313.854066 
L 410.061484 313.854066 
" clip-path="url(#pa240e5932f)" style="fill: none; stroke: #9ccb3b; stroke-opacity: 0.5; stroke-width: 2; stroke-linecap: round"/>
   </g>
   <g id="line2d_18">
    <g clip-path="url(#pa240e5932f)">
     <use xlink:href="#m6f96f42d1b" x="143.248736" y="318.454286" style="fill: #008000; stroke: #008000"/>
    </g>
   </g>
   <g id="line2d_19">
    <path d="M 69.64522 428.85956 
L 69.64522 424.259341 
L 69.64522 419.659121 
L 74.24544 419.659121 
L 74.24544 415.058901 
L 78.845659 415.058901 
L 78.845659 410.458681 
L 83.445879 410.458681 
L 83.445879 405.858462 
L 88.046099 405.858462 
L 92.646319 405.858462 
L 92.646319 401.258242 
L 92.646319 396.658022 
L 92.646319 392.057802 
L 97.246538 392.057802 
L 101.846758 392.057802 
L 106.446978 392.057802 
L 106.446978 387.457582 
L 111.047198 387.457582 
L 111.047198 382.857363 
L 115.647418 382.857363 
L 120.247637 382.857363 
L 120.247637 378.257143 
L 124.847857 378.257143 
L 129.448077 378.257143 
L 129.448077 373.656923 
L 134.048297 373.656923 
L 138.648516 373.656923 
L 143.248736 373.656923 
L 143.248736 369.056703 
L 147.848956 369.056703 
L 147.848956 364.456484 
L 152.449176 364.456484 
L 157.049396 364.456484 
L 157.049396 359.856264 
L 161.649615 359.856264 
L 166.249835 359.856264 
L 170.850055 359.856264 
L 175.450275 359.856264 
L 180.050495 359.856264 
L 180.050495 355.256044 
L 184.650714 355.256044 
L 189.250934 355.256044 
L 193.851154 355.256044 
L 193.851154 350.655824 
L 198.451374 350.655824 
L 203.051593 350.655824 
L 207.651813 350.655824 
L 212.252033 350.655824 
L 216.852253 350.655824 
L 221.452473 350.655824 
L 226.052692 350.655824 
L 230.652912 350.655824 
L 235.253132 350.655824 
L 239.853352 350.655824 
L 244.453571 350.655824 
L 249.053791 350.655824 
L 253.654011 350.655824 
L 258.254231 350.655824 
L 262.854451 350.655824 
L 267.45467 350.655824 
L 272.05489 350.655824 
L 276.65511 350.655824 
L 281.25533 350.655824 
L 285.855549 350.655824 
L 290.455769 350.655824 
L 295.055989 350.655824 
L 299.656209 350.655824 
L 304.256429 350.655824 
L 308.856648 350.655824 
L 313.456868 350.655824 
L 318.057088 350.655824 
L 322.657308 350.655824 
L 327.257527 350.655824 
L 327.257527 346.055604 
L 331.857747 346.055604 
L 336.457967 346.055604 
L 341.058187 346.055604 
L 345.658407 346.055604 
L 350.258626 346.055604 
L 354.858846 346.055604 
L 359.459066 346.055604 
L 364.059286 346.055604 
L 368.659505 346.055604 
L 373.259725 346.055604 
L 377.859945 346.055604 
L 382.460165 346.055604 
L 387.060385 346.055604 
L 391.660604 346.055604 
L 396.260824 346.055604 
L 400.861044 346.055604 
L 405.461264 346.055604 
L 410.061484 346.055604 
L 414.661703 346.055604 
L 419.261923 346.055604 
L 423.862143 346.055604 
L 428.462363 346.055604 
L 433.062582 346.055604 
L 437.662802 346.055604 
L 442.263022 346.055604 
" clip-path="url(#pa240e5932f)" style="fill: none; stroke: #9ccb3b; stroke-opacity: 0.5; stroke-width: 2; stroke-linecap: round"/>
   </g>
   <g id="line2d_20">
    <g clip-path="url(#pa240e5932f)">
     <use xlink:href="#m6f96f42d1b" x="180.050495" y="355.256044" style="fill: #008000; stroke: #008000"/>
    </g>
   </g>
   <g id="line2d_21">
    <path d="M 74.24544 433.45978 
L 78.845659 433.45978 
L 83.445879 433.45978 
L 83.445879 428.85956 
L 83.445879 424.259341 
L 88.046099 424.259341 
L 88.046099 419.659121 
L 92.646319 419.659121 
L 97.246538 419.659121 
L 97.246538 415.058901 
L 101.846758 415.058901 
L 101.846758 410.458681 
L 106.446978 410.458681 
L 106.446978 405.858462 
L 111.047198 405.858462 
L 111.047198 401.258242 
L 111.047198 396.658022 
L 111.047198 392.057802 
L 111.047198 387.457582 
L 111.047198 382.857363 
L 115.647418 382.857363 
L 115.647418 378.257143 
L 115.647418 373.656923 
L 120.247637 373.656923 
L 124.847857 373.656923 
L 129.448077 373.656923 
L 134.048297 373.656923 
L 134.048297 369.056703 
L 134.048297 364.456484 
L 134.048297 359.856264 
L 138.648516 359.856264 
L 138.648516 355.256044 
L 138.648516 350.655824 
L 138.648516 346.055604 
L 138.648516 341.455385 
L 143.248736 341.455385 
L 143.248736 336.855165 
L 143.248736 332.254945 
L 147.848956 332.254945 
L 147.848956 327.654725 
L 147.848956 323.054505 
L 147.848956 318.454286 
L 147.848956 313.854066 
L 152.449176 313.854066 
L 157.049396 313.854066 
L 161.649615 313.854066 
L 166.249835 313.854066 
L 170.850055 313.854066 
L 175.450275 313.854066 
L 180.050495 313.854066 
L 184.650714 313.854066 
L 189.250934 313.854066 
L 193.851154 313.854066 
L 198.451374 313.854066 
L 203.051593 313.854066 
L 207.651813 313.854066 
L 212.252033 313.854066 
L 216.852253 313.854066 
L 221.452473 313.854066 
L 226.052692 313.854066 
L 230.652912 313.854066 
L 235.253132 313.854066 
L 239.853352 313.854066 
L 244.453571 313.854066 
L 249.053791 313.854066 
L 253.654011 313.854066 
L 258.254231 313.854066 
L 262.854451 313.854066 
L 267.45467 313.854066 
L 272.05489 313.854066 
L 276.65511 313.854066 
L 281.25533 313.854066 
L 285.855549 313.854066 
L 290.455769 313.854066 
L 295.055989 313.854066 
L 299.656209 313.854066 
L 304.256429 313.854066 
L 308.856648 313.854066 
L 313.456868 313.854066 
L 318.057088 313.854066 
L 322.657308 313.854066 
L 327.257527 313.854066 
L 331.857747 313.854066 
L 336.457967 313.854066 
L 341.058187 313.854066 
L 345.658407 313.854066 
L 350.258626 313.854066 
L 354.858846 313.854066 
L 359.459066 313.854066 
L 364.059286 313.854066 
L 368.659505 313.854066 
L 373.259725 313.854066 
L 377.859945 313.854066 
L 382.460165 313.854066 
L 387.060385 313.854066 
L 391.660604 313.854066 
L 396.260824 313.854066 
L 400.861044 313.854066 
L 405.461264 313.854066 
L 410.061484 313.854066 
" clip-path="url(#pa240e5932f)" style="fill: none; stroke: #9ccb3b; stroke-opacity: 0.5; stroke-width: 2; stroke-linecap: round"/>
   </g>
   <g id="line2d_22">
    <g clip-path="url(#pa240e5932f)">
     <use xlink:href="#m6f96f42d1b" x="147.848956" y="323.054505" style="fill: #008000; stroke: #008000"/>
    </g>
   </g>
   <g id="line2d_23">
    <path d="M 74.24544 433.45978 
L 78.845659 433.45978 
L 83.445879 433.45978 
L 88.046099 433.45978 
L 92.646319 433.45978 
L 97.246538 433.45978 
L 97.246538 428.85956 
L 97.246538 424.259341 
L 97.246538 419.659121 
L 101.846758 419.659121 
L 101.846758 415.058901 
L 106.446978 415.058901 
L 106.446978 410.458681 
L 106.446978 405.858462 
L 111.047198 405.858462 
L 111.047198 401.258242 
L 115.647418 401.258242 
L 120.247637 401.258242 
L 124.847857 401.258242 
L 129.448077 401.258242 
L 129.448077 396.658022 
L 129.448077 392.057802 
L 134.048297 392.057802 
L 138.648516 392.057802 
L 143.248736 392.057802 
L 143.248736 387.457582 
L 143.248736 382.857363 
L 147.848956 382.857363 
L 147.848956 378.257143 
L 147.848956 373.656923 
L 152.449176 373.656923 
L 157.049396 373.656923 
L 161.649615 373.656923 
L 161.649615 369.056703 
L 166.249835 369.056703 
L 166.249835 364.456484 
L 170.850055 364.456484 
L 170.850055 359.856264 
L 170.850055 355.256044 
L 175.450275 355.256044 
L 175.450275 350.655824 
L 175.450275 346.055604 
L 175.450275 341.455385 
L 180.050495 341.455385 
L 180.050495 336.855165 
L 180.050495 332.254945 
L 184.650714 332.254945 
L 189.250934 332.254945 
L 189.250934 327.654725 
L 193.851154 327.654725 
L 193.851154 323.054505 
L 198.451374 323.054505 
L 203.051593 323.054505 
L 207.651813 323.054505 
L 212.252033 323.054505 
L 216.852253 323.054505 
L 221.452473 323.054505 
L 226.052692 323.054505 
L 230.652912 323.054505 
L 235.253132 323.054505 
L 239.853352 323.054505 
L 244.453571 323.054505 
L 249.053791 323.054505 
L 253.654011 323.054505 
L 258.254231 323.054505 
L 262.854451 323.054505 
L 267.45467 323.054505 
L 272.05489 323.054505 
L 276.65511 323.054505 
L 281.25533 323.054505 
L 285.855549 323.054505 
L 290.455769 323.054505 
L 295.055989 323.054505 
L 299.656209 323.054505 
L 304.256429 323.054505 
L 308.856648 323.054505 
L 313.456868 323.054505 
L 318.057088 323.054505 
L 322.657308 323.054505 
L 327.257527 323.054505 
L 331.857747 323.054505 
L 336.457967 323.054505 
L 341.058187 323.054505 
L 345.658407 323.054505 
L 350.258626 323.054505 
L 354.858846 323.054505 
L 359.459066 323.054505 
L 364.059286 323.054505 
L 368.659505 323.054505 
L 373.259725 323.054505 
L 377.859945 323.054505 
L 382.460165 323.054505 
L 387.060385 323.054505 
L 391.660604 323.054505 
L 396.260824 323.054505 
L 400.861044 323.054505 
L 405.461264 323.054505 
L 410.061484 323.054505 
L 414.661703 323.054505 
L 419.261923 323.054505 
" clip-path="url(#pa240e5932f)" style="fill: none; stroke: #9ccb3b; stroke-opacity: 0.5; stroke-width: 2; stroke-linecap: round"/>
   </g>
   <g id="line2d_24">
    <g clip-path="url(#pa240e5932f)">
     <use xlink:href="#m6f96f42d1b" x="175.450275" y="350.655824" style="fill: #008000; stroke: #008000"/>
    </g>
   </g>
   <g id="line2d_25">
    <path d="M 69.64522 428.85956 
L 69.64522 424.259341 
L 69.64522 419.659121 
L 69.64522 415.058901 
L 69.64522 410.458681 
L 69.64522 405.858462 
L 69.64522 401.258242 
L 74.24544 401.258242 
L 78.845659 401.258242 
L 78.845659 396.658022 
L 83.445879 396.658022 
L 83.445879 392.057802 
L 83.445879 387.457582 
L 83.445879 382.857363 
L 83.445879 378.257143 
L 83.445879 373.656923 
L 88.046099 373.656923 
L 92.646319 373.656923 
L 97.246538 373.656923 
L 101.846758 373.656923 
L 106.446978 373.656923 
L 106.446978 369.056703 
L 111.047198 369.056703 
L 111.047198 364.456484 
L 111.047198 359.856264 
L 111.047198 355.256044 
L 115.647418 355.256044 
L 115.647418 350.655824 
L 115.647418 346.055604 
L 115.647418 341.455385 
L 120.247637 341.455385 
L 124.847857 341.455385 
L 124.847857 336.855165 
L 124.847857 332.254945 
L 124.847857 327.654725 
L 129.448077 327.654725 
L 134.048297 327.654725 
L 138.648516 327.654725 
L 143.248736 327.654725 
L 143.248736 323.054505 
L 147.848956 323.054505 
L 147.848956 318.454286 
L 147.848956 313.854066 
L 152.449176 313.854066 
L 157.049396 313.854066 
L 157.049396 309.253846 
L 161.649615 309.253846 
L 161.649615 304.653626 
L 161.649615 300.053407 
L 166.249835 300.053407 
L 170.850055 300.053407 
L 175.450275 300.053407 
L 175.450275 295.453187 
L 175.450275 290.852967 
L 180.050495 290.852967 
L 184.650714 290.852967 
L 189.250934 290.852967 
L 193.851154 290.852967 
L 198.451374 290.852967 
L 203.051593 290.852967 
L 207.651813 290.852967 
L 212.252033 290.852967 
L 216.852253 290.852967 
L 221.452473 290.852967 
L 226.052692 290.852967 
L 230.652912 290.852967 
L 235.253132 290.852967 
L 239.853352 290.852967 
L 244.453571 290.852967 
L 249.053791 290.852967 
L 253.654011 290.852967 
L 253.654011 286.252747 
L 258.254231 286.252747 
L 262.854451 286.252747 
L 267.45467 286.252747 
L 272.05489 286.252747 
L 276.65511 286.252747 
L 281.25533 286.252747 
L 285.855549 286.252747 
L 290.455769 286.252747 
L 290.455769 281.652527 
L 290.455769 277.052308 
L 295.055989 277.052308 
L 299.656209 277.052308 
L 304.256429 277.052308 
L 308.856648 277.052308 
L 313.456868 277.052308 
L 318.057088 277.052308 
L 322.657308 277.052308 
L 327.257527 277.052308 
L 331.857747 277.052308 
L 336.457967 277.052308 
L 341.058187 277.052308 
L 345.658407 277.052308 
L 350.258626 277.052308 
L 354.858846 277.052308 
L 359.459066 277.052308 
L 364.059286 277.052308 
L 368.659505 277.052308 
L 373.259725 277.052308 
" clip-path="url(#pa240e5932f)" style="fill: none; stroke: #9ccb3b; stroke-opacity: 0.5; stroke-width: 2; stroke-linecap: round"/>
   </g>
   <g id="line2d_26">
    <g clip-path="url(#pa240e5932f)">
     <use xlink:href="#m6f96f42d1b" x="147.848956" y="323.054505" style="fill: #008000; stroke: #008000"/>
    </g>
   </g>
   <g id="line2d_27">
    <path d="M 74.24544 433.45978 
L 78.845659 433.45978 
L 83.445879 433.45978 
L 88.046099 433.45978 
L 88.046099 428.85956 
L 88.046099 424.259341 
L 88.046099 419.659121 
L 88.046099 415.058901 
L 92.646319 415.058901 
L 97.246538 415.058901 
L 101.846758 415.058901 
L 106.446978 415.058901 
L 111.047198 415.058901 
L 111.047198 410.458681 
L 111.047198 405.858462 
L 111.047198 401.258242 
L 115.647418 401.258242 
L 115.647418 396.658022 
L 115.647418 392.057802 
L 115.647418 387.457582 
L 120.247637 387.457582 
L 120.247637 382.857363 
L 124.847857 382.857363 
L 129.448077 382.857363 
L 134.048297 382.857363 
L 138.648516 382.857363 
L 138.648516 378.257143 
L 138.648516 373.656923 
L 138.648516 369.056703 
L 138.648516 364.456484 
L 138.648516 359.856264 
L 138.648516 355.256044 
L 143.248736 355.256044 
L 143.248736 350.655824 
L 143.248736 346.055604 
L 147.848956 346.055604 
L 152.449176 346.055604 
L 152.449176 341.455385 
L 152.449176 336.855165 
L 152.449176 332.254945 
L 152.449176 327.654725 
L 157.049396 327.654725 
L 157.049396 323.054505 
L 161.649615 323.054505 
L 166.249835 323.054505 
L 170.850055 323.054505 
L 175.450275 323.054505 
L 180.050495 323.054505 
L 184.650714 323.054505 
L 189.250934 323.054505 
L 193.851154 323.054505 
L 198.451374 323.054505 
L 203.051593 323.054505 
L 207.651813 323.054505 
L 212.252033 323.054505 
L 212.252033 318.454286 
L 216.852253 318.454286 
L 221.452473 318.454286 
L 226.052692 318.454286 
L 230.652912 318.454286 
L 235.253132 318.454286 
L 239.853352 318.454286 
L 244.453571 318.454286 
L 249.053791 318.454286 
L 253.654011 318.454286 
L 258.254231 318.454286 
L 262.854451 318.454286 
L 267.45467 318.454286 
L 272.05489 318.454286 
L 276.65511 318.454286 
L 281.25533 318.454286 
L 285.855549 318.454286 
L 290.455769 318.454286 
L 295.055989 318.454286 
L 299.656209 318.454286 
L 304.256429 318.454286 
L 308.856648 318.454286 
L 313.456868 318.454286 
L 318.057088 318.454286 
L 322.657308 318.454286 
L 322.657308 313.854066 
L 327.257527 313.854066 
L 331.857747 313.854066 
L 336.457967 313.854066 
L 341.058187 313.854066 
L 345.658407 313.854066 
L 350.258626 313.854066 
L 354.858846 313.854066 
L 359.459066 313.854066 
L 364.059286 313.854066 
L 368.659505 313.854066 
L 373.259725 313.854066 
L 377.859945 313.854066 
L 382.460165 313.854066 
L 387.060385 313.854066 
L 391.660604 313.854066 
L 396.260824 313.854066 
L 400.861044 313.854066 
L 405.461264 313.854066 
L 410.061484 313.854066 
" clip-path="url(#pa240e5932f)" style="fill: none; stroke: #9ccb3b; stroke-opacity: 0.5; stroke-width: 2; stroke-linecap: round"/>
   </g>
   <g id="line2d_28">
    <g clip-path="url(#pa240e5932f)">
     <use xlink:href="#m6f96f42d1b" x="152.449176" y="327.654725" style="fill: #008000; stroke: #008000"/>
    </g>
   </g>
   <g id="line2d_29">
    <path d="M 72.200897 431.415238 
L 74.24544 428.85956 
L 75.778846 425.792747 
L 77.823388 423.23707 
L 78.845659 419.659121 
L 80.890201 417.103443 
L 81.401337 413.014359 
L 84.46815 411.480952 
L 87.534963 409.947546 
L 90.601777 408.414139 
L 93.157454 406.369597 
L 94.690861 403.302784 
L 97.246538 401.258242 
L 98.26881 397.680293 
L 101.335623 396.146886 
L 102.357894 392.568938 
L 104.913571 390.524396 
L 106.958114 387.968718 
L 109.002656 385.41304 
L 111.558333 383.368498 
L 115.136282 382.346227 
L 117.69196 380.301685 
L 120.758773 378.768278 
L 123.314451 376.723736 
L 126.381264 375.19033 
L 127.91467 372.123516 
L 130.470348 370.078974 
L 133.026026 368.034432 
L 134.559432 364.967619 
L 135.581703 361.38967 
L 138.137381 359.345128 
L 140.181923 356.789451 
L 142.226465 354.233773 
L 143.759872 351.16696 
L 145.804414 348.611282 
L 148.871227 347.077875 
L 151.93804 345.544469 
L 153.471447 342.477656 
L 155.515989 339.921978 
L 157.560531 337.3663 
L 159.605073 334.810623 
L 161.649615 332.254945 
L 163.694158 329.699267 
L 167.272106 328.676996 
L 169.827784 326.632454 
L 172.383462 324.587912 
L 176.472546 324.076777 
L 180.56163 323.565641 
L 184.139579 322.54337 
L 188.739799 322.54337 
L 192.828883 322.032234 
L 197.429103 322.032234 
L 201.007051 321.009963 
L 205.096136 320.498828 
L 209.696355 320.498828 
L 213.274304 319.476557 
L 217.874524 319.476557 
L 222.474744 319.476557 
L 227.074963 319.476557 
L 231.675183 319.476557 
L 236.275403 319.476557 
L 240.875623 319.476557 
L 245.475842 319.476557 
L 250.076062 319.476557 
L 254.676282 319.476557 
L 259.276502 319.476557 
L 263.876722 319.476557 
L 268.476941 319.476557 
L 272.566026 318.965421 
L 277.166245 318.965421 
L 281.766465 318.965421 
L 285.855549 318.454286 
L 290.455769 318.454286 
L 295.055989 318.454286 
L 298.633938 317.432015 
L 302.723022 316.920879 
L 307.323242 316.920879 
L 311.923462 316.920879 
L 316.523681 316.920879 
L 321.123901 316.920879 
L 324.70185 315.898608 
L 328.790934 315.387473 
L 333.391154 315.387473 
L 337.991374 315.387473 
L 342.591593 315.387473 
L 347.191813 315.387473 
L 351.792033 315.387473 
L 356.392253 315.387473 
L 360.992473 315.387473 
L 365.592692 315.387473 
L 370.192912 315.387473 
L 374.793132 315.387473 
L 379.393352 315.387473 
L 383.993571 315.387473 
L 388.593791 315.387473 
L 393.194011 315.387473 
L 397.794231 315.387473 
L 402.394451 315.387473 
L 406.99467 315.387473 
L 411.083755 314.876337 
" clip-path="url(#pa240e5932f)" style="fill: none; stroke: #9ccb3b; stroke-width: 4; stroke-linecap: round"/>
   </g>
   <g id="line2d_30">
    <path d="M 69.64522 433.45978 
L 299.656209 203.448791 
" clip-path="url(#pa240e5932f)" style="fill: none; stroke-dasharray: 7.4,3.2; stroke-dashoffset: 0; stroke: #000000; stroke-width: 2"/>
   </g>
   <g id="line2d_31">
    <path d="M 74.24544 433.45978 
L 74.24544 428.85956 
L 78.845659 428.85956 
L 83.445879 428.85956 
L 88.046099 428.85956 
L 88.046099 424.259341 
L 92.646319 424.259341 
L 92.646319 419.659121 
L 97.246538 419.659121 
L 97.246538 415.058901 
L 101.846758 415.058901 
L 101.846758 410.458681 
L 106.446978 410.458681 
L 106.446978 405.858462 
L 111.047198 405.858462 
L 115.647418 405.858462 
L 120.247637 405.858462 
L 124.847857 405.858462 
L 124.847857 401.258242 
L 129.448077 401.258242 
L 129.448077 396.658022 
L 129.448077 392.057802 
L 129.448077 387.457582 
L 134.048297 387.457582 
L 138.648516 387.457582 
L 138.648516 382.857363 
L 138.648516 378.257143 
L 138.648516 373.656923 
L 138.648516 369.056703 
L 138.648516 364.456484 
L 143.248736 364.456484 
L 143.248736 359.856264 
L 143.248736 355.256044 
L 147.848956 355.256044 
L 147.848956 350.655824 
L 147.848956 346.055604 
L 152.449176 346.055604 
L 157.049396 346.055604 
L 157.049396 341.455385 
L 161.649615 341.455385 
L 166.249835 341.455385 
L 166.249835 336.855165 
L 170.850055 336.855165 
L 175.450275 336.855165 
L 180.050495 336.855165 
L 184.650714 336.855165 
L 189.250934 336.855165 
L 189.250934 332.254945 
L 189.250934 327.654725 
L 189.250934 323.054505 
L 189.250934 318.454286 
L 189.250934 313.854066 
L 189.250934 309.253846 
L 189.250934 304.653626 
L 189.250934 300.053407 
L 189.250934 295.453187 
L 189.250934 290.852967 
L 189.250934 286.252747 
L 189.250934 281.652527 
L 189.250934 277.052308 
L 189.250934 272.452088 
L 189.250934 267.851868 
L 189.250934 263.251648 
L 189.250934 258.651429 
L 189.250934 254.051209 
L 189.250934 249.450989 
L 189.250934 244.850769 
L 189.250934 240.250549 
L 189.250934 235.65033 
L 189.250934 231.05011 
L 189.250934 226.44989 
L 189.250934 221.84967 
L 189.250934 217.249451 
L 189.250934 212.649231 
L 189.250934 208.049011 
L 189.250934 203.448791 
L 189.250934 198.848571 
L 189.250934 194.248352 
L 189.250934 189.648132 
L 189.250934 185.047912 
L 189.250934 180.447692 
L 189.250934 175.847473 
L 189.250934 171.247253 
L 189.250934 166.647033 
L 189.250934 162.046813 
L 189.250934 157.446593 
L 189.250934 152.846374 
L 189.250934 148.246154 
L 189.250934 143.645934 
L 189.250934 139.045714 
L 189.250934 134.445495 
L 189.250934 129.845275 
L 189.250934 125.245055 
L 189.250934 120.644835 
L 189.250934 116.044615 
L 189.250934 111.444396 
L 189.250934 106.844176 
L 189.250934 102.243956 
L 189.250934 97.643736 
L 189.250934 93.043516 
" clip-path="url(#pa240e5932f)" style="fill: none; stroke: #39b54a; stroke-opacity: 0.5; stroke-width: 2; stroke-linecap: round"/>
   </g>
   <g id="line2d_32">
    <g clip-path="url(#pa240e5932f)">
     <use xlink:href="#m6f96f42d1b" x="166.249835" y="341.455385" style="fill: #008000; stroke: #008000"/>
    </g>
   </g>
   <g id="line2d_33">
    <path d="M 74.24544 433.45978 
L 74.24544 428.85956 
L 78.845659 428.85956 
L 83.445879 428.85956 
L 83.445879 424.259341 
L 88.046099 424.259341 
L 92.646319 424.259341 
L 97.246538 424.259341 
L 97.246538 419.659121 
L 101.846758 419.659121 
L 101.846758 415.058901 
L 106.446978 415.058901 
L 106.446978 410.458681 
L 106.446978 405.858462 
L 111.047198 405.858462 
L 115.647418 405.858462 
L 120.247637 405.858462 
L 124.847857 405.858462 
L 124.847857 401.258242 
L 124.847857 396.658022 
L 129.448077 396.658022 
L 129.448077 392.057802 
L 134.048297 392.057802 
L 138.648516 392.057802 
L 138.648516 387.457582 
L 143.248736 387.457582 
L 143.248736 382.857363 
L 147.848956 382.857363 
L 147.848956 378.257143 
L 147.848956 373.656923 
L 147.848956 369.056703 
L 147.848956 364.456484 
L 152.449176 364.456484 
L 152.449176 359.856264 
L 157.049396 359.856264 
L 157.049396 355.256044 
L 161.649615 355.256044 
L 166.249835 355.256044 
L 170.850055 355.256044 
L 170.850055 350.655824 
L 175.450275 350.655824 
L 175.450275 346.055604 
L 175.450275 341.455385 
L 175.450275 336.855165 
L 175.450275 332.254945 
L 175.450275 327.654725 
L 175.450275 323.054505 
L 175.450275 318.454286 
L 175.450275 313.854066 
L 175.450275 309.253846 
L 175.450275 304.653626 
L 175.450275 300.053407 
L 175.450275 295.453187 
L 175.450275 290.852967 
L 175.450275 286.252747 
L 175.450275 281.652527 
L 175.450275 277.052308 
L 175.450275 272.452088 
L 175.450275 267.851868 
L 175.450275 263.251648 
L 175.450275 258.651429 
L 175.450275 254.051209 
L 175.450275 249.450989 
L 175.450275 244.850769 
L 175.450275 240.250549 
L 175.450275 235.65033 
L 175.450275 231.05011 
L 175.450275 226.44989 
L 175.450275 221.84967 
L 175.450275 217.249451 
L 175.450275 212.649231 
L 175.450275 208.049011 
L 175.450275 203.448791 
L 175.450275 198.848571 
L 175.450275 194.248352 
L 175.450275 189.648132 
L 175.450275 185.047912 
L 175.450275 180.447692 
L 175.450275 175.847473 
L 175.450275 171.247253 
L 175.450275 166.647033 
L 175.450275 162.046813 
L 175.450275 157.446593 
L 175.450275 152.846374 
L 175.450275 148.246154 
L 175.450275 143.645934 
L 175.450275 139.045714 
L 175.450275 134.445495 
L 175.450275 129.845275 
L 175.450275 125.245055 
L 175.450275 120.644835 
L 175.450275 116.044615 
L 175.450275 111.444396 
L 175.450275 106.844176 
L 175.450275 102.243956 
L 175.450275 97.643736 
L 175.450275 93.043516 
L 175.450275 88.443297 
L 175.450275 83.843077 
L 175.450275 79.242857 
" clip-path="url(#pa240e5932f)" style="fill: none; stroke: #39b54a; stroke-opacity: 0.5; stroke-width: 2; stroke-linecap: round"/>
   </g>
   <g id="line2d_34">
    <g clip-path="url(#pa240e5932f)">
     <use xlink:href="#m6f96f42d1b" x="175.450275" y="350.655824" style="fill: #008000; stroke: #008000"/>
    </g>
   </g>
   <g id="line2d_35">
    <path d="M 74.24544 433.45978 
L 74.24544 428.85956 
L 74.24544 424.259341 
L 74.24544 419.659121 
L 74.24544 415.058901 
L 74.24544 410.458681 
L 74.24544 405.858462 
L 74.24544 401.258242 
L 74.24544 396.658022 
L 74.24544 392.057802 
L 74.24544 387.457582 
L 74.24544 382.857363 
L 74.24544 378.257143 
L 74.24544 373.656923 
L 74.24544 369.056703 
L 74.24544 364.456484 
L 78.845659 364.456484 
L 83.445879 364.456484 
L 83.445879 359.856264 
L 83.445879 355.256044 
L 83.445879 350.655824 
L 88.046099 350.655824 
L 92.646319 350.655824 
L 92.646319 346.055604 
L 97.246538 346.055604 
L 101.846758 346.055604 
L 106.446978 346.055604 
L 106.446978 341.455385 
L 111.047198 341.455385 
L 111.047198 336.855165 
L 115.647418 336.855165 
L 120.247637 336.855165 
L 120.247637 332.254945 
L 124.847857 332.254945 
L 129.448077 332.254945 
L 129.448077 327.654725 
L 134.048297 327.654725 
L 134.048297 323.054505 
L 138.648516 323.054505 
L 143.248736 323.054505 
L 143.248736 318.454286 
L 147.848956 318.454286 
L 147.848956 313.854066 
L 147.848956 309.253846 
L 147.848956 304.653626 
L 147.848956 300.053407 
L 147.848956 295.453187 
L 147.848956 290.852967 
L 147.848956 286.252747 
L 147.848956 281.652527 
L 147.848956 277.052308 
L 147.848956 272.452088 
L 147.848956 267.851868 
L 147.848956 263.251648 
L 147.848956 258.651429 
L 147.848956 254.051209 
L 147.848956 249.450989 
L 147.848956 244.850769 
L 147.848956 240.250549 
L 147.848956 235.65033 
L 147.848956 231.05011 
L 147.848956 226.44989 
L 147.848956 221.84967 
L 147.848956 217.249451 
L 147.848956 212.649231 
L 147.848956 208.049011 
L 147.848956 203.448791 
L 147.848956 198.848571 
L 152.449176 198.848571 
L 152.449176 194.248352 
L 152.449176 189.648132 
L 152.449176 185.047912 
L 152.449176 180.447692 
L 157.049396 180.447692 
L 157.049396 175.847473 
L 157.049396 171.247253 
L 161.649615 171.247253 
L 161.649615 166.647033 
L 161.649615 162.046813 
L 161.649615 157.446593 
L 161.649615 152.846374 
L 161.649615 148.246154 
L 161.649615 143.645934 
L 161.649615 139.045714 
L 161.649615 134.445495 
L 161.649615 129.845275 
L 161.649615 125.245055 
L 161.649615 120.644835 
L 161.649615 116.044615 
L 161.649615 111.444396 
L 161.649615 106.844176 
L 161.649615 102.243956 
L 161.649615 97.643736 
L 161.649615 93.043516 
L 161.649615 88.443297 
L 161.649615 83.843077 
L 161.649615 79.242857 
L 161.649615 74.642637 
L 161.649615 70.042418 
L 161.649615 65.442198 
" clip-path="url(#pa240e5932f)" style="fill: none; stroke: #39b54a; stroke-opacity: 0.5; stroke-width: 2; stroke-linecap: round"/>
   </g>
   <g id="line2d_36">
    <g clip-path="url(#pa240e5932f)">
     <use xlink:href="#m6f96f42d1b" x="143.248736" y="318.454286" style="fill: #008000; stroke: #008000"/>
    </g>
   </g>
   <g id="line2d_37">
    <path d="M 69.64522 428.85956 
L 69.64522 424.259341 
L 69.64522 419.659121 
L 69.64522 415.058901 
L 69.64522 410.458681 
L 69.64522 405.858462 
L 69.64522 401.258242 
L 69.64522 396.658022 
L 69.64522 392.057802 
L 69.64522 387.457582 
L 69.64522 382.857363 
L 69.64522 378.257143 
L 69.64522 373.656923 
L 69.64522 369.056703 
L 69.64522 364.456484 
L 69.64522 359.856264 
L 69.64522 355.256044 
L 69.64522 350.655824 
L 69.64522 346.055604 
L 69.64522 341.455385 
L 69.64522 336.855165 
L 69.64522 332.254945 
L 69.64522 327.654725 
L 74.24544 327.654725 
L 74.24544 323.054505 
L 74.24544 318.454286 
L 74.24544 313.854066 
L 78.845659 313.854066 
L 78.845659 309.253846 
L 78.845659 304.653626 
L 78.845659 300.053407 
L 78.845659 295.453187 
L 78.845659 290.852967 
L 83.445879 290.852967 
L 83.445879 286.252747 
L 88.046099 286.252747 
L 92.646319 286.252747 
L 92.646319 281.652527 
L 92.646319 277.052308 
L 92.646319 272.452088 
L 92.646319 267.851868 
L 92.646319 263.251648 
L 92.646319 258.651429 
L 92.646319 254.051209 
L 92.646319 249.450989 
L 92.646319 244.850769 
L 92.646319 240.250549 
L 92.646319 235.65033 
L 92.646319 231.05011 
L 92.646319 226.44989 
L 92.646319 221.84967 
L 92.646319 217.249451 
L 92.646319 212.649231 
L 92.646319 208.049011 
L 92.646319 203.448791 
L 92.646319 198.848571 
L 92.646319 194.248352 
L 92.646319 189.648132 
L 92.646319 185.047912 
L 92.646319 180.447692 
L 92.646319 175.847473 
L 92.646319 171.247253 
L 92.646319 166.647033 
L 92.646319 162.046813 
L 92.646319 157.446593 
L 92.646319 152.846374 
L 92.646319 148.246154 
L 92.646319 143.645934 
L 92.646319 139.045714 
L 92.646319 134.445495 
L 92.646319 129.845275 
L 92.646319 125.245055 
L 92.646319 120.644835 
L 92.646319 116.044615 
L 92.646319 111.444396 
L 92.646319 106.844176 
L 92.646319 102.243956 
L 92.646319 97.643736 
L 92.646319 93.043516 
L 92.646319 88.443297 
L 92.646319 83.843077 
L 92.646319 79.242857 
L 92.646319 74.642637 
L 92.646319 70.042418 
L 92.646319 65.442198 
L 92.646319 60.841978 
L 92.646319 56.241758 
L 92.646319 51.641538 
L 92.646319 47.041319 
L 92.646319 42.441099 
L 92.646319 37.840879 
L 92.646319 33.240659 
L 92.646319 28.64044 
L 92.646319 24.04022 
L 92.646319 19.44 
L 92.646319 14.83978 
L 92.646319 10.23956 
L 92.646319 5.639341 
L 92.646319 1.039121 
L 92.646319 -1 
" clip-path="url(#pa240e5932f)" style="fill: none; stroke: #39b54a; stroke-opacity: 0.5; stroke-width: 2; stroke-linecap: round"/>
   </g>
   <g id="line2d_38">
    <g clip-path="url(#pa240e5932f)">
     <use xlink:href="#m6f96f42d1b" x="92.646319" y="267.851868" style="fill: #008000; stroke: #008000"/>
    </g>
   </g>
   <g id="line2d_39">
    <path d="M 69.64522 428.85956 
L 69.64522 424.259341 
L 69.64522 419.659121 
L 69.64522 415.058901 
L 69.64522 410.458681 
L 69.64522 405.858462 
L 69.64522 401.258242 
L 69.64522 396.658022 
L 69.64522 392.057802 
L 69.64522 387.457582 
L 69.64522 382.857363 
L 69.64522 378.257143 
L 69.64522 373.656923 
L 69.64522 369.056703 
L 74.24544 369.056703 
L 74.24544 364.456484 
L 78.845659 364.456484 
L 83.445879 364.456484 
L 83.445879 359.856264 
L 83.445879 355.256044 
L 83.445879 350.655824 
L 83.445879 346.055604 
L 83.445879 341.455385 
L 88.046099 341.455385 
L 88.046099 336.855165 
L 88.046099 332.254945 
L 88.046099 327.654725 
L 88.046099 323.054505 
L 92.646319 323.054505 
L 97.246538 323.054505 
L 97.246538 318.454286 
L 101.846758 318.454286 
L 101.846758 313.854066 
L 106.446978 313.854066 
L 106.446978 309.253846 
L 106.446978 304.653626 
L 106.446978 300.053407 
L 111.047198 300.053407 
L 111.047198 295.453187 
L 111.047198 290.852967 
L 115.647418 290.852967 
L 120.247637 290.852967 
L 120.247637 286.252747 
L 120.247637 281.652527 
L 120.247637 277.052308 
L 120.247637 272.452088 
L 120.247637 267.851868 
L 120.247637 263.251648 
L 124.847857 263.251648 
L 124.847857 258.651429 
L 124.847857 254.051209 
L 124.847857 249.450989 
L 124.847857 244.850769 
L 124.847857 240.250549 
L 124.847857 235.65033 
L 124.847857 231.05011 
L 124.847857 226.44989 
L 124.847857 221.84967 
L 124.847857 217.249451 
L 124.847857 212.649231 
L 124.847857 208.049011 
L 124.847857 203.448791 
L 124.847857 198.848571 
L 124.847857 194.248352 
L 124.847857 189.648132 
L 124.847857 185.047912 
L 124.847857 180.447692 
L 124.847857 175.847473 
L 124.847857 171.247253 
L 124.847857 166.647033 
L 124.847857 162.046813 
L 124.847857 157.446593 
L 124.847857 152.846374 
L 124.847857 148.246154 
L 124.847857 143.645934 
L 124.847857 139.045714 
L 124.847857 134.445495 
L 124.847857 129.845275 
L 124.847857 125.245055 
L 124.847857 120.644835 
L 124.847857 116.044615 
L 124.847857 111.444396 
L 124.847857 106.844176 
L 124.847857 102.243956 
L 124.847857 97.643736 
L 124.847857 93.043516 
L 124.847857 88.443297 
L 124.847857 83.843077 
L 124.847857 79.242857 
L 124.847857 74.642637 
L 124.847857 70.042418 
L 124.847857 65.442198 
L 124.847857 60.841978 
L 124.847857 56.241758 
L 124.847857 51.641538 
L 124.847857 47.041319 
L 124.847857 42.441099 
L 124.847857 37.840879 
L 124.847857 33.240659 
L 124.847857 28.64044 
" clip-path="url(#pa240e5932f)" style="fill: none; stroke: #39b54a; stroke-opacity: 0.5; stroke-width: 2; stroke-linecap: round"/>
   </g>
   <g id="line2d_40">
    <g clip-path="url(#pa240e5932f)">
     <use xlink:href="#m6f96f42d1b" x="115.647418" y="290.852967" style="fill: #008000; stroke: #008000"/>
    </g>
   </g>
   <g id="line2d_41">
    <path d="M 74.24544 433.45978 
L 78.845659 433.45978 
L 78.845659 428.85956 
L 83.445879 428.85956 
L 88.046099 428.85956 
L 92.646319 428.85956 
L 97.246538 428.85956 
L 97.246538 424.259341 
L 97.246538 419.659121 
L 97.246538 415.058901 
L 101.846758 415.058901 
L 101.846758 410.458681 
L 106.446978 410.458681 
L 106.446978 405.858462 
L 106.446978 401.258242 
L 111.047198 401.258242 
L 111.047198 396.658022 
L 115.647418 396.658022 
L 120.247637 396.658022 
L 124.847857 396.658022 
L 124.847857 392.057802 
L 124.847857 387.457582 
L 124.847857 382.857363 
L 129.448077 382.857363 
L 134.048297 382.857363 
L 134.048297 378.257143 
L 134.048297 373.656923 
L 138.648516 373.656923 
L 138.648516 369.056703 
L 138.648516 364.456484 
L 138.648516 359.856264 
L 138.648516 355.256044 
L 138.648516 350.655824 
L 143.248736 350.655824 
L 143.248736 346.055604 
L 143.248736 341.455385 
L 143.248736 336.855165 
L 143.248736 332.254945 
L 147.848956 332.254945 
L 147.848956 327.654725 
L 152.449176 327.654725 
L 152.449176 323.054505 
L 152.449176 318.454286 
L 152.449176 313.854066 
L 157.049396 313.854066 
L 161.649615 313.854066 
L 161.649615 309.253846 
L 161.649615 304.653626 
L 161.649615 300.053407 
L 161.649615 295.453187 
L 161.649615 290.852967 
L 161.649615 286.252747 
L 161.649615 281.652527 
L 161.649615 277.052308 
L 161.649615 272.452088 
L 161.649615 267.851868 
L 161.649615 263.251648 
L 161.649615 258.651429 
L 161.649615 254.051209 
L 161.649615 249.450989 
L 161.649615 244.850769 
L 161.649615 240.250549 
L 161.649615 235.65033 
L 161.649615 231.05011 
L 161.649615 226.44989 
L 161.649615 221.84967 
L 161.649615 217.249451 
L 161.649615 212.649231 
L 161.649615 208.049011 
L 161.649615 203.448791 
L 161.649615 198.848571 
L 161.649615 194.248352 
L 161.649615 189.648132 
L 161.649615 185.047912 
L 161.649615 180.447692 
L 161.649615 175.847473 
L 161.649615 171.247253 
L 161.649615 166.647033 
L 161.649615 162.046813 
L 161.649615 157.446593 
L 161.649615 152.846374 
L 161.649615 148.246154 
L 161.649615 143.645934 
L 161.649615 139.045714 
L 161.649615 134.445495 
L 161.649615 129.845275 
L 161.649615 125.245055 
L 161.649615 120.644835 
L 161.649615 116.044615 
L 161.649615 111.444396 
L 161.649615 106.844176 
L 161.649615 102.243956 
L 161.649615 97.643736 
L 161.649615 93.043516 
L 161.649615 88.443297 
L 161.649615 83.843077 
L 161.649615 79.242857 
L 161.649615 74.642637 
L 161.649615 70.042418 
L 161.649615 65.442198 
" clip-path="url(#pa240e5932f)" style="fill: none; stroke: #39b54a; stroke-opacity: 0.5; stroke-width: 2; stroke-linecap: round"/>
   </g>
   <g id="line2d_42">
    <g clip-path="url(#pa240e5932f)">
     <use xlink:href="#m6f96f42d1b" x="152.449176" y="327.654725" style="fill: #008000; stroke: #008000"/>
    </g>
   </g>
   <g id="line2d_43">
    <path d="M 74.24544 433.45978 
L 78.845659 433.45978 
L 78.845659 428.85956 
L 78.845659 424.259341 
L 78.845659 419.659121 
L 78.845659 415.058901 
L 83.445879 415.058901 
L 83.445879 410.458681 
L 83.445879 405.858462 
L 88.046099 405.858462 
L 88.046099 401.258242 
L 92.646319 401.258242 
L 97.246538 401.258242 
L 101.846758 401.258242 
L 101.846758 396.658022 
L 101.846758 392.057802 
L 106.446978 392.057802 
L 106.446978 387.457582 
L 111.047198 387.457582 
L 111.047198 382.857363 
L 115.647418 382.857363 
L 115.647418 378.257143 
L 115.647418 373.656923 
L 115.647418 369.056703 
L 115.647418 364.456484 
L 120.247637 364.456484 
L 124.847857 364.456484 
L 124.847857 359.856264 
L 124.847857 355.256044 
L 124.847857 350.655824 
L 129.448077 350.655824 
L 134.048297 350.655824 
L 138.648516 350.655824 
L 138.648516 346.055604 
L 138.648516 341.455385 
L 138.648516 336.855165 
L 143.248736 336.855165 
L 143.248736 332.254945 
L 147.848956 332.254945 
L 152.449176 332.254945 
L 157.049396 332.254945 
L 157.049396 327.654725 
L 157.049396 323.054505 
L 157.049396 318.454286 
L 157.049396 313.854066 
L 157.049396 309.253846 
L 157.049396 304.653626 
L 157.049396 300.053407 
L 157.049396 295.453187 
L 157.049396 290.852967 
L 157.049396 286.252747 
L 161.649615 286.252747 
L 161.649615 281.652527 
L 161.649615 277.052308 
L 161.649615 272.452088 
L 161.649615 267.851868 
L 166.249835 267.851868 
L 166.249835 263.251648 
L 166.249835 258.651429 
L 166.249835 254.051209 
L 170.850055 254.051209 
L 170.850055 249.450989 
L 170.850055 244.850769 
L 170.850055 240.250549 
L 175.450275 240.250549 
L 180.050495 240.250549 
L 180.050495 235.65033 
L 180.050495 231.05011 
L 180.050495 226.44989 
L 180.050495 221.84967 
L 180.050495 217.249451 
L 180.050495 212.649231 
L 180.050495 208.049011 
L 180.050495 203.448791 
L 180.050495 198.848571 
L 180.050495 194.248352 
L 180.050495 189.648132 
L 180.050495 185.047912 
L 180.050495 180.447692 
L 180.050495 175.847473 
L 180.050495 171.247253 
L 180.050495 166.647033 
L 180.050495 162.046813 
L 180.050495 157.446593 
L 180.050495 152.846374 
L 180.050495 148.246154 
L 184.650714 148.246154 
L 184.650714 143.645934 
L 184.650714 139.045714 
L 184.650714 134.445495 
L 184.650714 129.845275 
L 184.650714 125.245055 
L 184.650714 120.644835 
L 184.650714 116.044615 
L 184.650714 111.444396 
L 184.650714 106.844176 
L 184.650714 102.243956 
L 184.650714 97.643736 
L 184.650714 93.043516 
L 184.650714 88.443297 
" clip-path="url(#pa240e5932f)" style="fill: none; stroke: #39b54a; stroke-opacity: 0.5; stroke-width: 2; stroke-linecap: round"/>
   </g>
   <g id="line2d_44">
    <g clip-path="url(#pa240e5932f)">
     <use xlink:href="#m6f96f42d1b" x="157.049396" y="332.254945" style="fill: #008000; stroke: #008000"/>
    </g>
   </g>
   <g id="line2d_45">
    <path d="M 69.64522 428.85956 
L 69.64522 424.259341 
L 69.64522 419.659121 
L 69.64522 415.058901 
L 74.24544 415.058901 
L 74.24544 410.458681 
L 74.24544 405.858462 
L 74.24544 401.258242 
L 74.24544 396.658022 
L 74.24544 392.057802 
L 74.24544 387.457582 
L 78.845659 387.457582 
L 78.845659 382.857363 
L 83.445879 382.857363 
L 88.046099 382.857363 
L 88.046099 378.257143 
L 88.046099 373.656923 
L 88.046099 369.056703 
L 92.646319 369.056703 
L 92.646319 364.456484 
L 92.646319 359.856264 
L 92.646319 355.256044 
L 97.246538 355.256044 
L 101.846758 355.256044 
L 101.846758 350.655824 
L 101.846758 346.055604 
L 106.446978 346.055604 
L 106.446978 341.455385 
L 106.446978 336.855165 
L 106.446978 332.254945 
L 111.047198 332.254945 
L 115.647418 332.254945 
L 115.647418 327.654725 
L 120.247637 327.654725 
L 120.247637 323.054505 
L 124.847857 323.054505 
L 124.847857 318.454286 
L 124.847857 313.854066 
L 124.847857 309.253846 
L 124.847857 304.653626 
L 129.448077 304.653626 
L 129.448077 300.053407 
L 134.048297 300.053407 
L 134.048297 295.453187 
L 134.048297 290.852967 
L 134.048297 286.252747 
L 134.048297 281.652527 
L 134.048297 277.052308 
L 134.048297 272.452088 
L 134.048297 267.851868 
L 134.048297 263.251648 
L 134.048297 258.651429 
L 134.048297 254.051209 
L 134.048297 249.450989 
L 134.048297 244.850769 
L 134.048297 240.250549 
L 134.048297 235.65033 
L 134.048297 231.05011 
L 134.048297 226.44989 
L 134.048297 221.84967 
L 134.048297 217.249451 
L 134.048297 212.649231 
L 134.048297 208.049011 
L 134.048297 203.448791 
L 134.048297 198.848571 
L 134.048297 194.248352 
L 134.048297 189.648132 
L 134.048297 185.047912 
L 134.048297 180.447692 
L 134.048297 175.847473 
L 134.048297 171.247253 
L 134.048297 166.647033 
L 134.048297 162.046813 
L 134.048297 157.446593 
L 134.048297 152.846374 
L 134.048297 148.246154 
L 134.048297 143.645934 
L 134.048297 139.045714 
L 134.048297 134.445495 
L 134.048297 129.845275 
L 134.048297 125.245055 
L 134.048297 120.644835 
L 134.048297 116.044615 
L 134.048297 111.444396 
L 134.048297 106.844176 
L 134.048297 102.243956 
L 134.048297 97.643736 
L 134.048297 93.043516 
L 134.048297 88.443297 
L 134.048297 83.843077 
L 134.048297 79.242857 
L 134.048297 74.642637 
L 134.048297 70.042418 
L 134.048297 65.442198 
L 134.048297 60.841978 
L 134.048297 56.241758 
L 134.048297 51.641538 
L 134.048297 47.041319 
L 134.048297 42.441099 
L 134.048297 37.840879 
" clip-path="url(#pa240e5932f)" style="fill: none; stroke: #39b54a; stroke-opacity: 0.5; stroke-width: 2; stroke-linecap: round"/>
   </g>
   <g id="line2d_46">
    <g clip-path="url(#pa240e5932f)">
     <use xlink:href="#m6f96f42d1b" x="129.448077" y="304.653626" style="fill: #008000; stroke: #008000"/>
    </g>
   </g>
   <g id="line2d_47">
    <path d="M 72.520357 431.734698 
L 73.670412 428.284533 
L 74.820467 424.834368 
L 76.545549 421.959231 
L 78.270632 419.084093 
L 79.420687 415.633929 
L 81.720797 413.333819 
L 82.295824 409.308626 
L 82.870852 405.283434 
L 84.020907 401.833269 
L 85.170962 398.383104 
L 86.896044 395.507967 
L 88.621126 392.63283 
L 89.771181 389.182665 
L 92.071291 386.882555 
L 93.796374 384.007418 
L 96.671511 382.282335 
L 99.546648 380.557253 
L 101.271731 377.682115 
L 102.421786 374.231951 
L 103.571841 370.781786 
L 104.146868 366.756593 
L 105.871951 363.881456 
L 109.322115 362.731401 
L 111.047198 359.856264 
L 112.77228 356.981126 
L 114.497363 354.105989 
L 116.222445 351.230852 
L 117.3725 347.780687 
L 117.947527 343.755495 
L 120.247637 341.455385 
L 122.547747 339.155275 
L 123.697802 335.70511 
L 127.147967 334.555055 
L 128.298022 331.10489 
L 129.448077 327.654725 
L 132.323214 325.929643 
L 134.048297 323.054505 
L 136.348407 320.754396 
L 138.073489 317.879258 
L 141.523654 316.729203 
L 142.673709 313.279038 
L 143.823764 309.828874 
L 144.398791 305.803681 
L 145.548846 302.353516 
L 146.698901 298.903352 
L 147.273929 294.878159 
L 147.273929 290.27794 
L 147.848956 286.252747 
L 147.848956 281.652527 
L 147.848956 277.052308 
L 148.423984 273.027115 
L 148.423984 268.426896 
L 148.423984 263.826676 
L 148.423984 259.226456 
L 148.423984 254.626236 
L 148.999011 250.601044 
L 148.999011 246.000824 
L 148.999011 241.400604 
L 148.999011 236.800385 
L 149.574038 232.775192 
L 149.574038 228.174973 
L 149.574038 223.574753 
L 149.574038 218.974533 
L 150.149066 214.949341 
L 150.724093 210.924148 
L 150.724093 206.323929 
L 150.724093 201.723709 
L 151.299121 197.698516 
L 151.299121 193.098297 
L 151.299121 188.498077 
L 151.299121 183.897857 
L 151.299121 179.297637 
L 151.874148 175.272445 
L 151.874148 170.672225 
L 151.874148 166.072005 
L 152.449176 162.046813 
L 152.449176 157.446593 
L 152.449176 152.846374 
L 152.449176 148.246154 
L 152.449176 143.645934 
L 152.449176 139.045714 
L 152.449176 134.445495 
L 152.449176 129.845275 
L 152.449176 125.245055 
L 152.449176 120.644835 
L 153.024203 116.619643 
L 153.024203 112.019423 
L 153.024203 107.419203 
L 153.024203 102.818984 
L 153.024203 98.218764 
L 153.024203 93.618544 
L 153.024203 89.018324 
L 153.024203 84.418104 
L 153.024203 79.817885 
L 153.024203 75.217665 
L 153.024203 70.617445 
L 153.024203 66.017225 
L 153.024203 61.417005 
L 153.024203 56.816786 
" clip-path="url(#pa240e5932f)" style="fill: none; stroke: #39b54a; stroke-width: 4; stroke-linecap: round"/>
   </g>
   <g id="line2d_48">
    <path d="M 69.64522 433.45978 
L 299.656209 203.448791 
" clip-path="url(#pa240e5932f)" style="fill: none; stroke-dasharray: 7.4,3.2; stroke-dashoffset: 0; stroke: #000000; stroke-width: 2"/>
   </g>
   <g id="line2d_49"/>
   <g id="text_13">
    <!-- (n = 9 flies) -->
    <g style="fill: #9ccb3b" transform="translate(345.658407 249.450989)scale(0.14 -0.14)">
     <defs>
      <path id="ArialMT-28" d="M 1497 -1347 
Q 1031 -759 709 28 
Q 388 816 388 1659 
Q 388 2403 628 3084 
Q 909 3875 1497 4659 
L 1900 4659 
Q 1522 4009 1400 3731 
Q 1209 3300 1100 2831 
Q 966 2247 966 1656 
Q 966 153 1900 -1347 
L 1497 -1347 
z
" transform="scale(0.015625)"/>
      <path id="ArialMT-3d" d="M 3381 2694 
L 356 2694 
L 356 3219 
L 3381 3219 
L 3381 2694 
z
M 3381 1303 
L 356 1303 
L 356 1828 
L 3381 1828 
L 3381 1303 
z
" transform="scale(0.015625)"/>
      <path id="ArialMT-39" d="M 350 1059 
L 891 1109 
Q 959 728 1153 556 
Q 1347 384 1650 384 
Q 1909 384 2104 503 
Q 2300 622 2425 820 
Q 2550 1019 2634 1356 
Q 2719 1694 2719 2044 
Q 2719 2081 2716 2156 
Q 2547 1888 2255 1720 
Q 1963 1553 1622 1553 
Q 1053 1553 659 1965 
Q 266 2378 266 3053 
Q 266 3750 677 4175 
Q 1088 4600 1706 4600 
Q 2153 4600 2523 4359 
Q 2894 4119 3086 3673 
Q 3278 3228 3278 2384 
Q 3278 1506 3087 986 
Q 2897 466 2520 194 
Q 2144 -78 1638 -78 
Q 1100 -78 759 220 
Q 419 519 350 1059 
z
M 2653 3081 
Q 2653 3566 2395 3850 
Q 2138 4134 1775 4134 
Q 1400 4134 1122 3828 
Q 844 3522 844 3034 
Q 844 2597 1108 2323 
Q 1372 2050 1759 2050 
Q 2150 2050 2401 2323 
Q 2653 2597 2653 3081 
z
" transform="scale(0.015625)"/>
      <path id="ArialMT-29" d="M 791 -1347 
L 388 -1347 
Q 1322 153 1322 1656 
Q 1322 2244 1188 2822 
Q 1081 3291 891 3722 
Q 769 4003 388 4659 
L 791 4659 
Q 1378 3875 1659 3084 
Q 1900 2403 1900 1659 
Q 1900 816 1576 28 
Q 1253 -759 791 -1347 
z
" transform="scale(0.015625)"/>
     </defs>
     <use xlink:href="#ArialMT-28"/>
     <use xlink:href="#ArialMT-6e" x="33.300781"/>
     <use xlink:href="#ArialMT-20" x="88.916016"/>
     <use xlink:href="#ArialMT-3d" x="116.699219"/>
     <use xlink:href="#ArialMT-20" x="175.097656"/>
     <use xlink:href="#ArialMT-39" x="202.880859"/>
     <use xlink:href="#ArialMT-20" x="258.496094"/>
     <use xlink:href="#ArialMT-66" x="286.279297"/>
     <use xlink:href="#ArialMT-6c" x="314.0625"/>
     <use xlink:href="#ArialMT-69" x="336.279297"/>
     <use xlink:href="#ArialMT-65" x="358.496094"/>
     <use xlink:href="#ArialMT-73" x="414.111328"/>
     <use xlink:href="#ArialMT-29" x="464.111328"/>
    </g>
   </g>
   <g id="text_14">
    <!-- (n = 8 flies) -->
    <g style="fill: #39b54a" transform="translate(253.654011 157.446593)scale(0.14 -0.14)">
     <use xlink:href="#ArialMT-28"/>
     <use xlink:href="#ArialMT-6e" x="33.300781"/>
     <use xlink:href="#ArialMT-20" x="88.916016"/>
     <use xlink:href="#ArialMT-3d" x="116.699219"/>
     <use xlink:href="#ArialMT-20" x="175.097656"/>
     <use xlink:href="#ArialMT-38" x="202.880859"/>
     <use xlink:href="#ArialMT-20" x="258.496094"/>
     <use xlink:href="#ArialMT-66" x="286.279297"/>
     <use xlink:href="#ArialMT-6c" x="314.0625"/>
     <use xlink:href="#ArialMT-69" x="336.279297"/>
     <use xlink:href="#ArialMT-65" x="358.496094"/>
     <use xlink:href="#ArialMT-73" x="414.111328"/>
     <use xlink:href="#ArialMT-29" x="464.111328"/>
    </g>
   </g>
   <g id="legend_1">
    <g id="line2d_50">
     <g>
      <use xlink:href="#m6f96f42d1b" x="287.820312" y="40.325391" style="fill: #008000; stroke: #008000"/>
     </g>
    </g>
    <g id="text_15">
     <!-- Rewarded trials start -->
     <g style="fill: #262626" transform="translate(317.520312 46.100391)scale(0.165 -0.165)">
      <defs>
       <path id="ArialMT-52" d="M 503 0 
L 503 4581 
L 2534 4581 
Q 3147 4581 3465 4457 
Q 3784 4334 3975 4021 
Q 4166 3709 4166 3331 
Q 4166 2844 3850 2509 
Q 3534 2175 2875 2084 
Q 3116 1969 3241 1856 
Q 3506 1613 3744 1247 
L 4541 0 
L 3778 0 
L 3172 953 
Q 2906 1366 2734 1584 
Q 2563 1803 2427 1890 
Q 2291 1978 2150 2013 
Q 2047 2034 1813 2034 
L 1109 2034 
L 1109 0 
L 503 0 
z
M 1109 2559 
L 2413 2559 
Q 2828 2559 3062 2645 
Q 3297 2731 3419 2920 
Q 3541 3109 3541 3331 
Q 3541 3656 3305 3865 
Q 3069 4075 2559 4075 
L 1109 4075 
L 1109 2559 
z
" transform="scale(0.015625)"/>
       <path id="ArialMT-77" d="M 1034 0 
L 19 3319 
L 600 3319 
L 1128 1403 
L 1325 691 
Q 1338 744 1497 1375 
L 2025 3319 
L 2603 3319 
L 3100 1394 
L 3266 759 
L 3456 1400 
L 4025 3319 
L 4572 3319 
L 3534 0 
L 2950 0 
L 2422 1988 
L 2294 2553 
L 1622 0 
L 1034 0 
z
" transform="scale(0.015625)"/>
       <path id="ArialMT-64" d="M 2575 0 
L 2575 419 
Q 2259 -75 1647 -75 
Q 1250 -75 917 144 
Q 584 363 401 755 
Q 219 1147 219 1656 
Q 219 2153 384 2558 
Q 550 2963 881 3178 
Q 1213 3394 1622 3394 
Q 1922 3394 2156 3267 
Q 2391 3141 2538 2938 
L 2538 4581 
L 3097 4581 
L 3097 0 
L 2575 0 
z
M 797 1656 
Q 797 1019 1065 703 
Q 1334 388 1700 388 
Q 2069 388 2326 689 
Q 2584 991 2584 1609 
Q 2584 2291 2321 2609 
Q 2059 2928 1675 2928 
Q 1300 2928 1048 2622 
Q 797 2316 797 1656 
z
" transform="scale(0.015625)"/>
      </defs>
      <use xlink:href="#ArialMT-52"/>
      <use xlink:href="#ArialMT-65" x="72.216797"/>
      <use xlink:href="#ArialMT-77" x="127.832031"/>
      <use xlink:href="#ArialMT-61" x="200.048828"/>
      <use xlink:href="#ArialMT-72" x="255.664062"/>
      <use xlink:href="#ArialMT-64" x="288.964844"/>
      <use xlink:href="#ArialMT-65" x="344.580078"/>
      <use xlink:href="#ArialMT-64" x="400.195312"/>
      <use xlink:href="#ArialMT-20" x="455.810547"/>
      <use xlink:href="#ArialMT-74" x="483.59375"/>
      <use xlink:href="#ArialMT-72" x="511.376953"/>
      <use xlink:href="#ArialMT-69" x="544.677734"/>
      <use xlink:href="#ArialMT-61" x="566.894531"/>
      <use xlink:href="#ArialMT-6c" x="622.509766"/>
      <use xlink:href="#ArialMT-73" x="644.726562"/>
      <use xlink:href="#ArialMT-20" x="694.726562"/>
      <use xlink:href="#ArialMT-73" x="722.509766"/>
      <use xlink:href="#ArialMT-74" x="772.509766"/>
      <use xlink:href="#ArialMT-61" x="800.292969"/>
      <use xlink:href="#ArialMT-72" x="855.908203"/>
      <use xlink:href="#ArialMT-74" x="889.208984"/>
     </g>
    </g>
   </g>
  </g>
 </g>
 <defs>
  <clipPath id="pa240e5932f">
   <rect x="65.045" y="19.44" width="418.62" height="418.62"/>
  </clipPath>
 </defs>
</svg>
