<?xml version="1.0" encoding="utf-8" standalone="no"?>
<!DOCTYPE svg PUBLIC "-//W3C//DTD SVG 1.1//EN"
  "http://www.w3.org/Graphics/SVG/1.1/DTD/svg11.dtd">
<svg xmlns:xlink="http://www.w3.org/1999/xlink" width="504pt" height="504pt" viewBox="0 0 504 504" xmlns="http://www.w3.org/2000/svg" version="1.1">
 <metadata>
  <rdf:RDF xmlns:dc="http://purl.org/dc/elements/1.1/" xmlns:cc="http://creativecommons.org/ns#" xmlns:rdf="http://www.w3.org/1999/02/22-rdf-syntax-ns#">
   <cc:Work>
    <dc:type rdf:resource="http://purl.org/dc/dcmitype/StillImage"/>
    <dc:date>2022-04-23T12:58:03.683743</dc:date>
    <dc:format>image/svg+xml</dc:format>
    <dc:creator>
     <cc:Agent>
      <dc:title>Matplotlib v3.5.1, https://matplotlib.org/</dc:title>
     </cc:Agent>
    </dc:creator>
   </cc:Work>
  </rdf:RDF>
 </metadata>
 <defs>
  <style type="text/css">*{stroke-linejoin: round; stroke-linecap: butt}</style>
 </defs>
 <g id="figure_1">
  <g id="patch_1">
   <path d="M 0 504 
L 504 504 
L 504 0 
L 0 0 
L 0 504 
z
" style="fill: none"/>
  </g>
  <g id="axes_1">
   <g id="matplotlib.axis_1">
    <g id="xtick_1">
     <g id="line2d_1">
      <path d="M 60.647615 446.948 
L 60.647615 15.552 
" clip-path="url(#p64737831dc)" style="fill: none; stroke: #ffffff; stroke-linecap: round"/>
     </g>
     <g id="text_1">
      <!-- 0 -->
      <g style="fill: #262626" transform="translate(56.448365 466.477937)scale(0.132 -0.132)">
       <defs>
        <path id="DejaVuSans-30" d="M 2034 4250 
Q 1547 4250 1301 3770 
Q 1056 3291 1056 2328 
Q 1056 1369 1301 889 
Q 1547 409 2034 409 
Q 2525 409 2770 889 
Q 3016 1369 3016 2328 
Q 3016 3291 2770 3770 
Q 2525 4250 2034 4250 
z
M 2034 4750 
Q 2819 4750 3233 4129 
Q 3647 3509 3647 2328 
Q 3647 1150 3233 529 
Q 2819 -91 2034 -91 
Q 1250 -91 836 529 
Q 422 1150 422 2328 
Q 422 3509 836 4129 
Q 1250 4750 2034 4750 
z
" transform="scale(0.015625)"/>
       </defs>
       <use xlink:href="#DejaVuSans-30"/>
      </g>
     </g>
    </g>
    <g id="xtick_2">
     <g id="line2d_2">
      <path d="M 155.459923 446.948 
L 155.459923 15.552 
" clip-path="url(#p64737831dc)" style="fill: none; stroke: #ffffff; stroke-linecap: round"/>
     </g>
     <g id="text_2">
      <!-- 20 -->
      <g style="fill: #262626" transform="translate(147.061423 466.477937)scale(0.132 -0.132)">
       <defs>
        <path id="DejaVuSans-32" d="M 1228 531 
L 3431 531 
L 3431 0 
L 469 0 
L 469 531 
Q 828 903 1448 1529 
Q 2069 2156 2228 2338 
Q 2531 2678 2651 2914 
Q 2772 3150 2772 3378 
Q 2772 3750 2511 3984 
Q 2250 4219 1831 4219 
Q 1534 4219 1204 4116 
Q 875 4013 500 3803 
L 500 4441 
Q 881 4594 1212 4672 
Q 1544 4750 1819 4750 
Q 2544 4750 2975 4387 
Q 3406 4025 3406 3419 
Q 3406 3131 3298 2873 
Q 3191 2616 2906 2266 
Q 2828 2175 2409 1742 
Q 1991 1309 1228 531 
z
" transform="scale(0.015625)"/>
       </defs>
       <use xlink:href="#DejaVuSans-32"/>
       <use xlink:href="#DejaVuSans-30" x="63.623047"/>
      </g>
     </g>
    </g>
    <g id="xtick_3">
     <g id="line2d_3">
      <path d="M 250.272231 446.948 
L 250.272231 15.552 
" clip-path="url(#p64737831dc)" style="fill: none; stroke: #ffffff; stroke-linecap: round"/>
     </g>
     <g id="text_3">
      <!-- 40 -->
      <g style="fill: #262626" transform="translate(241.873731 466.477937)scale(0.132 -0.132)">
       <defs>
        <path id="DejaVuSans-34" d="M 2419 4116 
L 825 1625 
L 2419 1625 
L 2419 4116 
z
M 2253 4666 
L 3047 4666 
L 3047 1625 
L 3713 1625 
L 3713 1100 
L 3047 1100 
L 3047 0 
L 2419 0 
L 2419 1100 
L 313 1100 
L 313 1709 
L 2253 4666 
z
" transform="scale(0.015625)"/>
       </defs>
       <use xlink:href="#DejaVuSans-34"/>
       <use xlink:href="#DejaVuSans-30" x="63.623047"/>
      </g>
     </g>
    </g>
    <g id="xtick_4">
     <g id="line2d_4">
      <path d="M 345.084538 446.948 
L 345.084538 15.552 
" clip-path="url(#p64737831dc)" style="fill: none; stroke: #ffffff; stroke-linecap: round"/>
     </g>
     <g id="text_4">
      <!-- 60 -->
      <g style="fill: #262626" transform="translate(336.686038 466.477937)scale(0.132 -0.132)">
       <defs>
        <path id="DejaVuSans-36" d="M 2113 2584 
Q 1688 2584 1439 2293 
Q 1191 2003 1191 1497 
Q 1191 994 1439 701 
Q 1688 409 2113 409 
Q 2538 409 2786 701 
Q 3034 994 3034 1497 
Q 3034 2003 2786 2293 
Q 2538 2584 2113 2584 
z
M 3366 4563 
L 3366 3988 
Q 3128 4100 2886 4159 
Q 2644 4219 2406 4219 
Q 1781 4219 1451 3797 
Q 1122 3375 1075 2522 
Q 1259 2794 1537 2939 
Q 1816 3084 2150 3084 
Q 2853 3084 3261 2657 
Q 3669 2231 3669 1497 
Q 3669 778 3244 343 
Q 2819 -91 2113 -91 
Q 1303 -91 875 529 
Q 447 1150 447 2328 
Q 447 3434 972 4092 
Q 1497 4750 2381 4750 
Q 2619 4750 2861 4703 
Q 3103 4656 3366 4563 
z
" transform="scale(0.015625)"/>
       </defs>
       <use xlink:href="#DejaVuSans-36"/>
       <use xlink:href="#DejaVuSans-30" x="63.623047"/>
      </g>
     </g>
    </g>
    <g id="xtick_5">
     <g id="line2d_5">
      <path d="M 439.896846 446.948 
L 439.896846 15.552 
" clip-path="url(#p64737831dc)" style="fill: none; stroke: #ffffff; stroke-linecap: round"/>
     </g>
     <g id="text_5">
      <!-- 80 -->
      <g style="fill: #262626" transform="translate(431.498346 466.477937)scale(0.132 -0.132)">
       <defs>
        <path id="DejaVuSans-38" d="M 2034 2216 
Q 1584 2216 1326 1975 
Q 1069 1734 1069 1313 
Q 1069 891 1326 650 
Q 1584 409 2034 409 
Q 2484 409 2743 651 
Q 3003 894 3003 1313 
Q 3003 1734 2745 1975 
Q 2488 2216 2034 2216 
z
M 1403 2484 
Q 997 2584 770 2862 
Q 544 3141 544 3541 
Q 544 4100 942 4425 
Q 1341 4750 2034 4750 
Q 2731 4750 3128 4425 
Q 3525 4100 3525 3541 
Q 3525 3141 3298 2862 
Q 3072 2584 2669 2484 
Q 3125 2378 3379 2068 
Q 3634 1759 3634 1313 
Q 3634 634 3220 271 
Q 2806 -91 2034 -91 
Q 1263 -91 848 271 
Q 434 634 434 1313 
Q 434 1759 690 2068 
Q 947 2378 1403 2484 
z
M 1172 3481 
Q 1172 3119 1398 2916 
Q 1625 2713 2034 2713 
Q 2441 2713 2670 2916 
Q 2900 3119 2900 3481 
Q 2900 3844 2670 4047 
Q 2441 4250 2034 4250 
Q 1625 4250 1398 4047 
Q 1172 3844 1172 3481 
z
" transform="scale(0.015625)"/>
       </defs>
       <use xlink:href="#DejaVuSans-38"/>
       <use xlink:href="#DejaVuSans-30" x="63.623047"/>
      </g>
     </g>
    </g>
    <g id="text_6">
     <!-- Cumulative number of OCT choices -->
     <g style="fill: #262626" transform="translate(144.157125 484.164875)scale(0.144 -0.144)">
      <defs>
       <path id="DejaVuSans-43" d="M 4122 4306 
L 4122 3641 
Q 3803 3938 3442 4084 
Q 3081 4231 2675 4231 
Q 1875 4231 1450 3742 
Q 1025 3253 1025 2328 
Q 1025 1406 1450 917 
Q 1875 428 2675 428 
Q 3081 428 3442 575 
Q 3803 722 4122 1019 
L 4122 359 
Q 3791 134 3420 21 
Q 3050 -91 2638 -91 
Q 1578 -91 968 557 
Q 359 1206 359 2328 
Q 359 3453 968 4101 
Q 1578 4750 2638 4750 
Q 3056 4750 3426 4639 
Q 3797 4528 4122 4306 
z
" transform="scale(0.015625)"/>
       <path id="DejaVuSans-75" d="M 544 1381 
L 544 3500 
L 1119 3500 
L 1119 1403 
Q 1119 906 1312 657 
Q 1506 409 1894 409 
Q 2359 409 2629 706 
Q 2900 1003 2900 1516 
L 2900 3500 
L 3475 3500 
L 3475 0 
L 2900 0 
L 2900 538 
Q 2691 219 2414 64 
Q 2138 -91 1772 -91 
Q 1169 -91 856 284 
Q 544 659 544 1381 
z
M 1991 3584 
L 1991 3584 
z
" transform="scale(0.015625)"/>
       <path id="DejaVuSans-6d" d="M 3328 2828 
Q 3544 3216 3844 3400 
Q 4144 3584 4550 3584 
Q 5097 3584 5394 3201 
Q 5691 2819 5691 2113 
L 5691 0 
L 5113 0 
L 5113 2094 
Q 5113 2597 4934 2840 
Q 4756 3084 4391 3084 
Q 3944 3084 3684 2787 
Q 3425 2491 3425 1978 
L 3425 0 
L 2847 0 
L 2847 2094 
Q 2847 2600 2669 2842 
Q 2491 3084 2119 3084 
Q 1678 3084 1418 2786 
Q 1159 2488 1159 1978 
L 1159 0 
L 581 0 
L 581 3500 
L 1159 3500 
L 1159 2956 
Q 1356 3278 1631 3431 
Q 1906 3584 2284 3584 
Q 2666 3584 2933 3390 
Q 3200 3197 3328 2828 
z
" transform="scale(0.015625)"/>
       <path id="DejaVuSans-6c" d="M 603 4863 
L 1178 4863 
L 1178 0 
L 603 0 
L 603 4863 
z
" transform="scale(0.015625)"/>
       <path id="DejaVuSans-61" d="M 2194 1759 
Q 1497 1759 1228 1600 
Q 959 1441 959 1056 
Q 959 750 1161 570 
Q 1363 391 1709 391 
Q 2188 391 2477 730 
Q 2766 1069 2766 1631 
L 2766 1759 
L 2194 1759 
z
M 3341 1997 
L 3341 0 
L 2766 0 
L 2766 531 
Q 2569 213 2275 61 
Q 1981 -91 1556 -91 
Q 1019 -91 701 211 
Q 384 513 384 1019 
Q 384 1609 779 1909 
Q 1175 2209 1959 2209 
L 2766 2209 
L 2766 2266 
Q 2766 2663 2505 2880 
Q 2244 3097 1772 3097 
Q 1472 3097 1187 3025 
Q 903 2953 641 2809 
L 641 3341 
Q 956 3463 1253 3523 
Q 1550 3584 1831 3584 
Q 2591 3584 2966 3190 
Q 3341 2797 3341 1997 
z
" transform="scale(0.015625)"/>
       <path id="DejaVuSans-74" d="M 1172 4494 
L 1172 3500 
L 2356 3500 
L 2356 3053 
L 1172 3053 
L 1172 1153 
Q 1172 725 1289 603 
Q 1406 481 1766 481 
L 2356 481 
L 2356 0 
L 1766 0 
Q 1100 0 847 248 
Q 594 497 594 1153 
L 594 3053 
L 172 3053 
L 172 3500 
L 594 3500 
L 594 4494 
L 1172 4494 
z
" transform="scale(0.015625)"/>
       <path id="DejaVuSans-69" d="M 603 3500 
L 1178 3500 
L 1178 0 
L 603 0 
L 603 3500 
z
M 603 4863 
L 1178 4863 
L 1178 4134 
L 603 4134 
L 603 4863 
z
" transform="scale(0.015625)"/>
       <path id="DejaVuSans-76" d="M 191 3500 
L 800 3500 
L 1894 563 
L 2988 3500 
L 3597 3500 
L 2284 0 
L 1503 0 
L 191 3500 
z
" transform="scale(0.015625)"/>
       <path id="DejaVuSans-65" d="M 3597 1894 
L 3597 1613 
L 953 1613 
Q 991 1019 1311 708 
Q 1631 397 2203 397 
Q 2534 397 2845 478 
Q 3156 559 3463 722 
L 3463 178 
Q 3153 47 2828 -22 
Q 2503 -91 2169 -91 
Q 1331 -91 842 396 
Q 353 884 353 1716 
Q 353 2575 817 3079 
Q 1281 3584 2069 3584 
Q 2775 3584 3186 3129 
Q 3597 2675 3597 1894 
z
M 3022 2063 
Q 3016 2534 2758 2815 
Q 2500 3097 2075 3097 
Q 1594 3097 1305 2825 
Q 1016 2553 972 2059 
L 3022 2063 
z
" transform="scale(0.015625)"/>
       <path id="DejaVuSans-20" transform="scale(0.015625)"/>
       <path id="DejaVuSans-6e" d="M 3513 2113 
L 3513 0 
L 2938 0 
L 2938 2094 
Q 2938 2591 2744 2837 
Q 2550 3084 2163 3084 
Q 1697 3084 1428 2787 
Q 1159 2491 1159 1978 
L 1159 0 
L 581 0 
L 581 3500 
L 1159 3500 
L 1159 2956 
Q 1366 3272 1645 3428 
Q 1925 3584 2291 3584 
Q 2894 3584 3203 3211 
Q 3513 2838 3513 2113 
z
" transform="scale(0.015625)"/>
       <path id="DejaVuSans-62" d="M 3116 1747 
Q 3116 2381 2855 2742 
Q 2594 3103 2138 3103 
Q 1681 3103 1420 2742 
Q 1159 2381 1159 1747 
Q 1159 1113 1420 752 
Q 1681 391 2138 391 
Q 2594 391 2855 752 
Q 3116 1113 3116 1747 
z
M 1159 2969 
Q 1341 3281 1617 3432 
Q 1894 3584 2278 3584 
Q 2916 3584 3314 3078 
Q 3713 2572 3713 1747 
Q 3713 922 3314 415 
Q 2916 -91 2278 -91 
Q 1894 -91 1617 61 
Q 1341 213 1159 525 
L 1159 0 
L 581 0 
L 581 4863 
L 1159 4863 
L 1159 2969 
z
" transform="scale(0.015625)"/>
       <path id="DejaVuSans-72" d="M 2631 2963 
Q 2534 3019 2420 3045 
Q 2306 3072 2169 3072 
Q 1681 3072 1420 2755 
Q 1159 2438 1159 1844 
L 1159 0 
L 581 0 
L 581 3500 
L 1159 3500 
L 1159 2956 
Q 1341 3275 1631 3429 
Q 1922 3584 2338 3584 
Q 2397 3584 2469 3576 
Q 2541 3569 2628 3553 
L 2631 2963 
z
" transform="scale(0.015625)"/>
       <path id="DejaVuSans-6f" d="M 1959 3097 
Q 1497 3097 1228 2736 
Q 959 2375 959 1747 
Q 959 1119 1226 758 
Q 1494 397 1959 397 
Q 2419 397 2687 759 
Q 2956 1122 2956 1747 
Q 2956 2369 2687 2733 
Q 2419 3097 1959 3097 
z
M 1959 3584 
Q 2709 3584 3137 3096 
Q 3566 2609 3566 1747 
Q 3566 888 3137 398 
Q 2709 -91 1959 -91 
Q 1206 -91 779 398 
Q 353 888 353 1747 
Q 353 2609 779 3096 
Q 1206 3584 1959 3584 
z
" transform="scale(0.015625)"/>
       <path id="DejaVuSans-66" d="M 2375 4863 
L 2375 4384 
L 1825 4384 
Q 1516 4384 1395 4259 
Q 1275 4134 1275 3809 
L 1275 3500 
L 2222 3500 
L 2222 3053 
L 1275 3053 
L 1275 0 
L 697 0 
L 697 3053 
L 147 3053 
L 147 3500 
L 697 3500 
L 697 3744 
Q 697 4328 969 4595 
Q 1241 4863 1831 4863 
L 2375 4863 
z
" transform="scale(0.015625)"/>
       <path id="DejaVuSans-4f" d="M 2522 4238 
Q 1834 4238 1429 3725 
Q 1025 3213 1025 2328 
Q 1025 1447 1429 934 
Q 1834 422 2522 422 
Q 3209 422 3611 934 
Q 4013 1447 4013 2328 
Q 4013 3213 3611 3725 
Q 3209 4238 2522 4238 
z
M 2522 4750 
Q 3503 4750 4090 4092 
Q 4678 3434 4678 2328 
Q 4678 1225 4090 567 
Q 3503 -91 2522 -91 
Q 1538 -91 948 565 
Q 359 1222 359 2328 
Q 359 3434 948 4092 
Q 1538 4750 2522 4750 
z
" transform="scale(0.015625)"/>
       <path id="DejaVuSans-54" d="M -19 4666 
L 3928 4666 
L 3928 4134 
L 2272 4134 
L 2272 0 
L 1638 0 
L 1638 4134 
L -19 4134 
L -19 4666 
z
" transform="scale(0.015625)"/>
       <path id="DejaVuSans-63" d="M 3122 3366 
L 3122 2828 
Q 2878 2963 2633 3030 
Q 2388 3097 2138 3097 
Q 1578 3097 1268 2742 
Q 959 2388 959 1747 
Q 959 1106 1268 751 
Q 1578 397 2138 397 
Q 2388 397 2633 464 
Q 2878 531 3122 666 
L 3122 134 
Q 2881 22 2623 -34 
Q 2366 -91 2075 -91 
Q 1284 -91 818 406 
Q 353 903 353 1747 
Q 353 2603 823 3093 
Q 1294 3584 2113 3584 
Q 2378 3584 2631 3529 
Q 2884 3475 3122 3366 
z
" transform="scale(0.015625)"/>
       <path id="DejaVuSans-68" d="M 3513 2113 
L 3513 0 
L 2938 0 
L 2938 2094 
Q 2938 2591 2744 2837 
Q 2550 3084 2163 3084 
Q 1697 3084 1428 2787 
Q 1159 2491 1159 1978 
L 1159 0 
L 581 0 
L 581 4863 
L 1159 4863 
L 1159 2956 
Q 1366 3272 1645 3428 
Q 1925 3584 2291 3584 
Q 2894 3584 3203 3211 
Q 3513 2838 3513 2113 
z
" transform="scale(0.015625)"/>
       <path id="DejaVuSans-73" d="M 2834 3397 
L 2834 2853 
Q 2591 2978 2328 3040 
Q 2066 3103 1784 3103 
Q 1356 3103 1142 2972 
Q 928 2841 928 2578 
Q 928 2378 1081 2264 
Q 1234 2150 1697 2047 
L 1894 2003 
Q 2506 1872 2764 1633 
Q 3022 1394 3022 966 
Q 3022 478 2636 193 
Q 2250 -91 1575 -91 
Q 1294 -91 989 -36 
Q 684 19 347 128 
L 347 722 
Q 666 556 975 473 
Q 1284 391 1588 391 
Q 1994 391 2212 530 
Q 2431 669 2431 922 
Q 2431 1156 2273 1281 
Q 2116 1406 1581 1522 
L 1381 1569 
Q 847 1681 609 1914 
Q 372 2147 372 2553 
Q 372 3047 722 3315 
Q 1072 3584 1716 3584 
Q 2034 3584 2315 3537 
Q 2597 3491 2834 3397 
z
" transform="scale(0.015625)"/>
      </defs>
      <use xlink:href="#DejaVuSans-43"/>
      <use xlink:href="#DejaVuSans-75" x="69.824219"/>
      <use xlink:href="#DejaVuSans-6d" x="133.203125"/>
      <use xlink:href="#DejaVuSans-75" x="230.615234"/>
      <use xlink:href="#DejaVuSans-6c" x="293.994141"/>
      <use xlink:href="#DejaVuSans-61" x="321.777344"/>
      <use xlink:href="#DejaVuSans-74" x="383.056641"/>
      <use xlink:href="#DejaVuSans-69" x="422.265625"/>
      <use xlink:href="#DejaVuSans-76" x="450.048828"/>
      <use xlink:href="#DejaVuSans-65" x="509.228516"/>
      <use xlink:href="#DejaVuSans-20" x="570.751953"/>
      <use xlink:href="#DejaVuSans-6e" x="602.539062"/>
      <use xlink:href="#DejaVuSans-75" x="665.917969"/>
      <use xlink:href="#DejaVuSans-6d" x="729.296875"/>
      <use xlink:href="#DejaVuSans-62" x="826.708984"/>
      <use xlink:href="#DejaVuSans-65" x="890.185547"/>
      <use xlink:href="#DejaVuSans-72" x="951.708984"/>
      <use xlink:href="#DejaVuSans-20" x="992.822266"/>
      <use xlink:href="#DejaVuSans-6f" x="1024.609375"/>
      <use xlink:href="#DejaVuSans-66" x="1085.791016"/>
      <use xlink:href="#DejaVuSans-20" x="1120.996094"/>
      <use xlink:href="#DejaVuSans-4f" x="1152.783203"/>
      <use xlink:href="#DejaVuSans-43" x="1231.494141"/>
      <use xlink:href="#DejaVuSans-54" x="1301.318359"/>
      <use xlink:href="#DejaVuSans-20" x="1362.402344"/>
      <use xlink:href="#DejaVuSans-63" x="1394.189453"/>
      <use xlink:href="#DejaVuSans-68" x="1449.169922"/>
      <use xlink:href="#DejaVuSans-6f" x="1512.548828"/>
      <use xlink:href="#DejaVuSans-69" x="1573.730469"/>
      <use xlink:href="#DejaVuSans-63" x="1601.513672"/>
      <use xlink:href="#DejaVuSans-65" x="1656.494141"/>
      <use xlink:href="#DejaVuSans-73" x="1718.017578"/>
     </g>
    </g>
   </g>
   <g id="matplotlib.axis_2">
    <g id="ytick_1">
     <g id="line2d_6">
      <path d="M 55.907 442.207385 
L 487.303 442.207385 
" clip-path="url(#p64737831dc)" style="fill: none; stroke: #ffffff; stroke-linecap: round"/>
     </g>
     <g id="text_7">
      <!-- 0 -->
      <g style="fill: #262626" transform="translate(38.0085 447.222353)scale(0.132 -0.132)">
       <use xlink:href="#DejaVuSans-30"/>
      </g>
     </g>
    </g>
    <g id="ytick_2">
     <g id="line2d_7">
      <path d="M 55.907 347.395077 
L 487.303 347.395077 
" clip-path="url(#p64737831dc)" style="fill: none; stroke: #ffffff; stroke-linecap: round"/>
     </g>
     <g id="text_8">
      <!-- 20 -->
      <g style="fill: #262626" transform="translate(29.61 352.410046)scale(0.132 -0.132)">
       <use xlink:href="#DejaVuSans-32"/>
       <use xlink:href="#DejaVuSans-30" x="63.623047"/>
      </g>
     </g>
    </g>
    <g id="ytick_3">
     <g id="line2d_8">
      <path d="M 55.907 252.582769 
L 487.303 252.582769 
" clip-path="url(#p64737831dc)" style="fill: none; stroke: #ffffff; stroke-linecap: round"/>
     </g>
     <g id="text_9">
      <!-- 40 -->
      <g style="fill: #262626" transform="translate(29.61 257.597738)scale(0.132 -0.132)">
       <use xlink:href="#DejaVuSans-34"/>
       <use xlink:href="#DejaVuSans-30" x="63.623047"/>
      </g>
     </g>
    </g>
    <g id="ytick_4">
     <g id="line2d_9">
      <path d="M 55.907 157.770462 
L 487.303 157.770462 
" clip-path="url(#p64737831dc)" style="fill: none; stroke: #ffffff; stroke-linecap: round"/>
     </g>
     <g id="text_10">
      <!-- 60 -->
      <g style="fill: #262626" transform="translate(29.61 162.78543)scale(0.132 -0.132)">
       <use xlink:href="#DejaVuSans-36"/>
       <use xlink:href="#DejaVuSans-30" x="63.623047"/>
      </g>
     </g>
    </g>
    <g id="ytick_5">
     <g id="line2d_10">
      <path d="M 55.907 62.958154 
L 487.303 62.958154 
" clip-path="url(#p64737831dc)" style="fill: none; stroke: #ffffff; stroke-linecap: round"/>
     </g>
     <g id="text_11">
      <!-- 80 -->
      <g style="fill: #262626" transform="translate(29.61 67.973123)scale(0.132 -0.132)">
       <use xlink:href="#DejaVuSans-38"/>
       <use xlink:href="#DejaVuSans-30" x="63.623047"/>
      </g>
     </g>
    </g>
    <g id="text_12">
     <!-- Cumulative number of MCH choices -->
     <g style="fill: #262626" transform="translate(22.61525 360.259375)rotate(-90)scale(0.144 -0.144)">
      <defs>
       <path id="DejaVuSans-4d" d="M 628 4666 
L 1569 4666 
L 2759 1491 
L 3956 4666 
L 4897 4666 
L 4897 0 
L 4281 0 
L 4281 4097 
L 3078 897 
L 2444 897 
L 1241 4097 
L 1241 0 
L 628 0 
L 628 4666 
z
" transform="scale(0.015625)"/>
       <path id="DejaVuSans-48" d="M 628 4666 
L 1259 4666 
L 1259 2753 
L 3553 2753 
L 3553 4666 
L 4184 4666 
L 4184 0 
L 3553 0 
L 3553 2222 
L 1259 2222 
L 1259 0 
L 628 0 
L 628 4666 
z
" transform="scale(0.015625)"/>
      </defs>
      <use xlink:href="#DejaVuSans-43"/>
      <use xlink:href="#DejaVuSans-75" x="69.824219"/>
      <use xlink:href="#DejaVuSans-6d" x="133.203125"/>
      <use xlink:href="#DejaVuSans-75" x="230.615234"/>
      <use xlink:href="#DejaVuSans-6c" x="293.994141"/>
      <use xlink:href="#DejaVuSans-61" x="321.777344"/>
      <use xlink:href="#DejaVuSans-74" x="383.056641"/>
      <use xlink:href="#DejaVuSans-69" x="422.265625"/>
      <use xlink:href="#DejaVuSans-76" x="450.048828"/>
      <use xlink:href="#DejaVuSans-65" x="509.228516"/>
      <use xlink:href="#DejaVuSans-20" x="570.751953"/>
      <use xlink:href="#DejaVuSans-6e" x="602.539062"/>
      <use xlink:href="#DejaVuSans-75" x="665.917969"/>
      <use xlink:href="#DejaVuSans-6d" x="729.296875"/>
      <use xlink:href="#DejaVuSans-62" x="826.708984"/>
      <use xlink:href="#DejaVuSans-65" x="890.185547"/>
      <use xlink:href="#DejaVuSans-72" x="951.708984"/>
      <use xlink:href="#DejaVuSans-20" x="992.822266"/>
      <use xlink:href="#DejaVuSans-6f" x="1024.609375"/>
      <use xlink:href="#DejaVuSans-66" x="1085.791016"/>
      <use xlink:href="#DejaVuSans-20" x="1120.996094"/>
      <use xlink:href="#DejaVuSans-4d" x="1152.783203"/>
      <use xlink:href="#DejaVuSans-43" x="1239.0625"/>
      <use xlink:href="#DejaVuSans-48" x="1308.886719"/>
      <use xlink:href="#DejaVuSans-20" x="1384.082031"/>
      <use xlink:href="#DejaVuSans-63" x="1415.869141"/>
      <use xlink:href="#DejaVuSans-68" x="1470.849609"/>
      <use xlink:href="#DejaVuSans-6f" x="1534.228516"/>
      <use xlink:href="#DejaVuSans-69" x="1595.410156"/>
      <use xlink:href="#DejaVuSans-63" x="1623.193359"/>
      <use xlink:href="#DejaVuSans-65" x="1678.173828"/>
      <use xlink:href="#DejaVuSans-73" x="1739.697266"/>
     </g>
    </g>
   </g>
   <g id="line2d_11">
    <path d="M 65.388231 442.207385 
L 70.128846 442.207385 
L 70.128846 437.466769 
L 74.869462 437.466769 
L 79.610077 437.466769 
L 79.610077 432.726154 
L 79.610077 427.985538 
L 84.350692 427.985538 
L 89.091308 427.985538 
L 93.831923 427.985538 
L 98.572538 427.985538 
L 103.313154 427.985538 
L 108.053769 427.985538 
L 108.053769 423.244923 
L 112.794385 423.244923 
L 112.794385 418.504308 
L 112.794385 413.763692 
L 117.535 413.763692 
L 117.535 409.023077 
L 117.535 404.282462 
L 117.535 399.541846 
L 122.275615 399.541846 
L 127.016231 399.541846 
L 131.756846 399.541846 
L 131.756846 394.801231 
L 131.756846 390.060615 
L 131.756846 385.32 
L 136.497462 385.32 
L 136.497462 380.579385 
L 141.238077 380.579385 
L 141.238077 375.838769 
L 145.978692 375.838769 
L 150.719308 375.838769 
L 155.459923 375.838769 
L 160.200538 375.838769 
L 160.200538 371.098154 
L 160.200538 366.357538 
L 160.200538 361.616923 
L 160.200538 356.876308 
L 164.941154 356.876308 
L 169.681769 356.876308 
L 174.422385 356.876308 
L 179.163 356.876308 
L 179.163 352.135692 
L 183.903615 352.135692 
L 183.903615 347.395077 
L 188.644231 347.395077 
L 193.384846 347.395077 
L 198.125462 347.395077 
L 202.866077 347.395077 
L 207.606692 347.395077 
L 212.347308 347.395077 
L 217.087923 347.395077 
L 221.828538 347.395077 
L 226.569154 347.395077 
L 231.309769 347.395077 
L 236.050385 347.395077 
L 240.791 347.395077 
L 245.531615 347.395077 
L 250.272231 347.395077 
L 255.012846 347.395077 
L 259.753462 347.395077 
L 264.494077 347.395077 
L 269.234692 347.395077 
L 273.975308 347.395077 
L 278.715923 347.395077 
L 283.456538 347.395077 
L 288.197154 347.395077 
L 292.937769 347.395077 
L 297.678385 347.395077 
L 302.419 347.395077 
L 307.159615 347.395077 
L 311.900231 347.395077 
L 316.640846 347.395077 
L 321.381462 347.395077 
L 326.122077 347.395077 
L 330.862692 347.395077 
L 335.603308 347.395077 
L 340.343923 347.395077 
L 345.084538 347.395077 
L 349.825154 347.395077 
L 354.565769 347.395077 
L 359.306385 347.395077 
L 364.047 347.395077 
L 368.787615 347.395077 
L 373.528231 347.395077 
L 378.268846 347.395077 
L 383.009462 347.395077 
L 387.750077 347.395077 
L 392.490692 347.395077 
L 397.231308 347.395077 
L 401.971923 347.395077 
L 406.712538 347.395077 
L 411.453154 347.395077 
L 416.193769 347.395077 
L 420.934385 347.395077 
L 425.675 347.395077 
L 430.415615 347.395077 
L 435.156231 347.395077 
L 439.896846 347.395077 
" clip-path="url(#p64737831dc)" style="fill: none; stroke: #440154; stroke-width: 2; stroke-linecap: round"/>
   </g>
   <g id="line2d_12">
    <defs>
     <path id="ma1b6e904ef" d="M 0 3 
C 0.795609 3 1.55874 2.683901 2.12132 2.12132 
C 2.683901 1.55874 3 0.795609 3 0 
C 3 -0.795609 2.683901 -1.55874 2.12132 -2.12132 
C 1.55874 -2.683901 0.795609 -3 0 -3 
C -0.795609 -3 -1.55874 -2.683901 -2.12132 -2.12132 
C -2.683901 -1.55874 -3 -0.795609 -3 0 
C -3 0.795609 -2.683901 1.55874 -2.12132 2.12132 
C -1.55874 2.683901 -0.795609 3 0 3 
z
" style="stroke: #008000"/>
    </defs>
    <g clip-path="url(#p64737831dc)">
     <use xlink:href="#ma1b6e904ef" x="169.681769" y="356.876308" style="fill: #008000; stroke: #008000"/>
    </g>
   </g>
   <g id="line2d_13">
    <path d="M 60.647615 437.466769 
L 60.647615 432.726154 
L 60.647615 427.985538 
L 60.647615 423.244923 
L 60.647615 418.504308 
L 60.647615 413.763692 
L 65.388231 413.763692 
L 70.128846 413.763692 
L 70.128846 409.023077 
L 70.128846 404.282462 
L 70.128846 399.541846 
L 70.128846 394.801231 
L 74.869462 394.801231 
L 74.869462 390.060615 
L 79.610077 390.060615 
L 79.610077 385.32 
L 79.610077 380.579385 
L 79.610077 375.838769 
L 79.610077 371.098154 
L 84.350692 371.098154 
L 89.091308 371.098154 
L 93.831923 371.098154 
L 98.572538 371.098154 
L 98.572538 366.357538 
L 103.313154 366.357538 
L 103.313154 361.616923 
L 108.053769 361.616923 
L 112.794385 361.616923 
L 112.794385 356.876308 
L 112.794385 352.135692 
L 112.794385 347.395077 
L 117.535 347.395077 
L 117.535 342.654462 
L 122.275615 342.654462 
L 127.016231 342.654462 
L 131.756846 342.654462 
L 136.497462 342.654462 
L 136.497462 337.913846 
L 136.497462 333.173231 
L 136.497462 328.432615 
L 141.238077 328.432615 
L 141.238077 323.692 
L 141.238077 318.951385 
L 141.238077 314.210769 
L 141.238077 309.470154 
L 141.238077 304.729538 
L 141.238077 299.988923 
L 145.978692 299.988923 
L 150.719308 299.988923 
L 155.459923 299.988923 
L 160.200538 299.988923 
L 164.941154 299.988923 
L 164.941154 295.248308 
L 169.681769 295.248308 
L 174.422385 295.248308 
L 174.422385 290.507692 
L 179.163 290.507692 
L 183.903615 290.507692 
L 188.644231 290.507692 
L 193.384846 290.507692 
L 198.125462 290.507692 
L 202.866077 290.507692 
L 207.606692 290.507692 
L 212.347308 290.507692 
L 217.087923 290.507692 
L 221.828538 290.507692 
L 226.569154 290.507692 
L 231.309769 290.507692 
L 231.309769 285.767077 
L 236.050385 285.767077 
L 240.791 285.767077 
L 245.531615 285.767077 
L 250.272231 285.767077 
L 255.012846 285.767077 
L 255.012846 281.026462 
L 255.012846 276.285846 
L 259.753462 276.285846 
L 264.494077 276.285846 
L 269.234692 276.285846 
L 273.975308 276.285846 
L 278.715923 276.285846 
L 283.456538 276.285846 
L 288.197154 276.285846 
L 292.937769 276.285846 
L 297.678385 276.285846 
L 302.419 276.285846 
L 307.159615 276.285846 
L 311.900231 276.285846 
L 316.640846 276.285846 
L 321.381462 276.285846 
L 326.122077 276.285846 
L 330.862692 276.285846 
L 335.603308 276.285846 
L 340.343923 276.285846 
L 345.084538 276.285846 
L 349.825154 276.285846 
L 354.565769 276.285846 
L 359.306385 276.285846 
L 364.047 276.285846 
L 364.047 271.545231 
" clip-path="url(#p64737831dc)" style="fill: none; stroke: #472d7b; stroke-width: 2; stroke-linecap: round"/>
   </g>
   <g id="line2d_14">
    <g clip-path="url(#p64737831dc)">
     <use xlink:href="#ma1b6e904ef" x="141.238077" y="328.432615" style="fill: #008000; stroke: #008000"/>
    </g>
   </g>
   <g id="line2d_15">
    <path d="M 65.388231 442.207385 
L 65.388231 437.466769 
L 65.388231 432.726154 
L 65.388231 427.985538 
L 65.388231 423.244923 
L 70.128846 423.244923 
L 70.128846 418.504308 
L 74.869462 418.504308 
L 79.610077 418.504308 
L 84.350692 418.504308 
L 84.350692 413.763692 
L 84.350692 409.023077 
L 84.350692 404.282462 
L 89.091308 404.282462 
L 93.831923 404.282462 
L 98.572538 404.282462 
L 98.572538 399.541846 
L 103.313154 399.541846 
L 108.053769 399.541846 
L 112.794385 399.541846 
L 117.535 399.541846 
L 122.275615 399.541846 
L 127.016231 399.541846 
L 127.016231 394.801231 
L 131.756846 394.801231 
L 136.497462 394.801231 
L 136.497462 390.060615 
L 141.238077 390.060615 
L 145.978692 390.060615 
L 145.978692 385.32 
L 145.978692 380.579385 
L 145.978692 375.838769 
L 145.978692 371.098154 
L 145.978692 366.357538 
L 145.978692 361.616923 
L 145.978692 356.876308 
L 145.978692 352.135692 
L 150.719308 352.135692 
L 155.459923 352.135692 
L 155.459923 347.395077 
L 160.200538 347.395077 
L 160.200538 342.654462 
L 164.941154 342.654462 
L 169.681769 342.654462 
L 174.422385 342.654462 
L 179.163 342.654462 
L 183.903615 342.654462 
L 188.644231 342.654462 
L 193.384846 342.654462 
L 198.125462 342.654462 
L 202.866077 342.654462 
L 207.606692 342.654462 
L 212.347308 342.654462 
L 217.087923 342.654462 
L 221.828538 342.654462 
L 226.569154 342.654462 
L 231.309769 342.654462 
L 236.050385 342.654462 
L 240.791 342.654462 
L 245.531615 342.654462 
L 250.272231 342.654462 
L 255.012846 342.654462 
L 259.753462 342.654462 
L 264.494077 342.654462 
L 269.234692 342.654462 
L 273.975308 342.654462 
L 278.715923 342.654462 
L 283.456538 342.654462 
L 288.197154 342.654462 
L 292.937769 342.654462 
L 297.678385 342.654462 
L 302.419 342.654462 
L 307.159615 342.654462 
L 311.900231 342.654462 
L 316.640846 342.654462 
L 321.381462 342.654462 
L 326.122077 342.654462 
L 330.862692 342.654462 
L 335.603308 342.654462 
L 340.343923 342.654462 
L 345.084538 342.654462 
L 349.825154 342.654462 
L 354.565769 342.654462 
L 359.306385 342.654462 
L 364.047 342.654462 
L 368.787615 342.654462 
L 373.528231 342.654462 
L 378.268846 342.654462 
L 383.009462 342.654462 
L 387.750077 342.654462 
L 392.490692 342.654462 
L 397.231308 342.654462 
L 401.971923 342.654462 
L 406.712538 342.654462 
L 411.453154 342.654462 
L 416.193769 342.654462 
L 420.934385 342.654462 
L 425.675 342.654462 
L 430.415615 342.654462 
L 435.156231 342.654462 
" clip-path="url(#p64737831dc)" style="fill: none; stroke: #3b528b; stroke-width: 2; stroke-linecap: round"/>
   </g>
   <g id="line2d_16">
    <g clip-path="url(#p64737831dc)">
     <use xlink:href="#ma1b6e904ef" x="160.200538" y="347.395077" style="fill: #008000; stroke: #008000"/>
    </g>
   </g>
   <g id="line2d_17">
    <path d="M 60.647615 437.466769 
L 60.647615 432.726154 
L 60.647615 427.985538 
L 60.647615 423.244923 
L 60.647615 418.504308 
L 60.647615 413.763692 
L 60.647615 409.023077 
L 60.647615 404.282462 
L 65.388231 404.282462 
L 70.128846 404.282462 
L 70.128846 399.541846 
L 70.128846 394.801231 
L 74.869462 394.801231 
L 79.610077 394.801231 
L 79.610077 390.060615 
L 79.610077 385.32 
L 84.350692 385.32 
L 84.350692 380.579385 
L 84.350692 375.838769 
L 89.091308 375.838769 
L 93.831923 375.838769 
L 98.572538 375.838769 
L 98.572538 371.098154 
L 98.572538 366.357538 
L 98.572538 361.616923 
L 98.572538 356.876308 
L 103.313154 356.876308 
L 103.313154 352.135692 
L 108.053769 352.135692 
L 112.794385 352.135692 
L 117.535 352.135692 
L 117.535 347.395077 
L 117.535 342.654462 
L 117.535 337.913846 
L 122.275615 337.913846 
L 127.016231 337.913846 
L 131.756846 337.913846 
L 131.756846 333.173231 
L 131.756846 328.432615 
L 136.497462 328.432615 
L 136.497462 323.692 
L 141.238077 323.692 
L 145.978692 323.692 
L 150.719308 323.692 
L 150.719308 318.951385 
L 155.459923 318.951385 
L 160.200538 318.951385 
L 164.941154 318.951385 
L 169.681769 318.951385 
L 174.422385 318.951385 
L 179.163 318.951385 
L 183.903615 318.951385 
L 188.644231 318.951385 
L 193.384846 318.951385 
L 198.125462 318.951385 
L 202.866077 318.951385 
L 207.606692 318.951385 
L 212.347308 318.951385 
L 217.087923 318.951385 
L 221.828538 318.951385 
L 226.569154 318.951385 
L 231.309769 318.951385 
L 236.050385 318.951385 
L 240.791 318.951385 
L 245.531615 318.951385 
L 250.272231 318.951385 
L 255.012846 318.951385 
L 259.753462 318.951385 
L 264.494077 318.951385 
L 269.234692 318.951385 
L 273.975308 318.951385 
L 278.715923 318.951385 
L 283.456538 318.951385 
L 288.197154 318.951385 
L 292.937769 318.951385 
L 297.678385 318.951385 
L 302.419 318.951385 
L 307.159615 318.951385 
L 311.900231 318.951385 
L 316.640846 318.951385 
L 321.381462 318.951385 
L 326.122077 318.951385 
L 330.862692 318.951385 
L 335.603308 318.951385 
L 340.343923 318.951385 
L 345.084538 318.951385 
L 349.825154 318.951385 
L 354.565769 318.951385 
L 359.306385 318.951385 
L 364.047 318.951385 
L 368.787615 318.951385 
L 373.528231 318.951385 
L 378.268846 318.951385 
L 383.009462 318.951385 
L 387.750077 318.951385 
L 392.490692 318.951385 
L 397.231308 318.951385 
L 401.971923 318.951385 
L 406.712538 318.951385 
L 411.453154 318.951385 
" clip-path="url(#p64737831dc)" style="fill: none; stroke: #2c728e; stroke-width: 2; stroke-linecap: round"/>
   </g>
   <g id="line2d_18">
    <g clip-path="url(#p64737831dc)">
     <use xlink:href="#ma1b6e904ef" x="136.497462" y="323.692" style="fill: #008000; stroke: #008000"/>
    </g>
   </g>
   <g id="line2d_19">
    <path d="M 60.647615 437.466769 
L 60.647615 432.726154 
L 60.647615 427.985538 
L 65.388231 427.985538 
L 65.388231 423.244923 
L 70.128846 423.244923 
L 70.128846 418.504308 
L 74.869462 418.504308 
L 74.869462 413.763692 
L 79.610077 413.763692 
L 84.350692 413.763692 
L 84.350692 409.023077 
L 84.350692 404.282462 
L 84.350692 399.541846 
L 89.091308 399.541846 
L 93.831923 399.541846 
L 98.572538 399.541846 
L 98.572538 394.801231 
L 103.313154 394.801231 
L 103.313154 390.060615 
L 108.053769 390.060615 
L 112.794385 390.060615 
L 112.794385 385.32 
L 117.535 385.32 
L 122.275615 385.32 
L 122.275615 380.579385 
L 127.016231 380.579385 
L 131.756846 380.579385 
L 136.497462 380.579385 
L 136.497462 375.838769 
L 141.238077 375.838769 
L 141.238077 371.098154 
L 145.978692 371.098154 
L 150.719308 371.098154 
L 150.719308 366.357538 
L 155.459923 366.357538 
L 160.200538 366.357538 
L 164.941154 366.357538 
L 169.681769 366.357538 
L 174.422385 366.357538 
L 174.422385 361.616923 
L 179.163 361.616923 
L 183.903615 361.616923 
L 188.644231 361.616923 
L 188.644231 356.876308 
L 193.384846 356.876308 
L 198.125462 356.876308 
L 202.866077 356.876308 
L 207.606692 356.876308 
L 212.347308 356.876308 
L 217.087923 356.876308 
L 221.828538 356.876308 
L 226.569154 356.876308 
L 231.309769 356.876308 
L 236.050385 356.876308 
L 240.791 356.876308 
L 245.531615 356.876308 
L 250.272231 356.876308 
L 255.012846 356.876308 
L 259.753462 356.876308 
L 264.494077 356.876308 
L 269.234692 356.876308 
L 273.975308 356.876308 
L 278.715923 356.876308 
L 283.456538 356.876308 
L 288.197154 356.876308 
L 292.937769 356.876308 
L 297.678385 356.876308 
L 302.419 356.876308 
L 307.159615 356.876308 
L 311.900231 356.876308 
L 316.640846 356.876308 
L 321.381462 356.876308 
L 326.122077 356.876308 
L 326.122077 352.135692 
L 330.862692 352.135692 
L 335.603308 352.135692 
L 340.343923 352.135692 
L 345.084538 352.135692 
L 349.825154 352.135692 
L 354.565769 352.135692 
L 359.306385 352.135692 
L 364.047 352.135692 
L 368.787615 352.135692 
L 373.528231 352.135692 
L 378.268846 352.135692 
L 383.009462 352.135692 
L 387.750077 352.135692 
L 392.490692 352.135692 
L 397.231308 352.135692 
L 401.971923 352.135692 
L 406.712538 352.135692 
L 411.453154 352.135692 
L 416.193769 352.135692 
L 420.934385 352.135692 
L 425.675 352.135692 
L 430.415615 352.135692 
L 435.156231 352.135692 
L 439.896846 352.135692 
L 444.637462 352.135692 
" clip-path="url(#p64737831dc)" style="fill: none; stroke: #21918c; stroke-width: 2; stroke-linecap: round"/>
   </g>
   <g id="line2d_20">
    <g clip-path="url(#p64737831dc)">
     <use xlink:href="#ma1b6e904ef" x="174.422385" y="361.616923" style="fill: #008000; stroke: #008000"/>
    </g>
   </g>
   <g id="line2d_21">
    <path d="M 65.388231 442.207385 
L 70.128846 442.207385 
L 74.869462 442.207385 
L 74.869462 437.466769 
L 74.869462 432.726154 
L 79.610077 432.726154 
L 79.610077 427.985538 
L 84.350692 427.985538 
L 89.091308 427.985538 
L 89.091308 423.244923 
L 93.831923 423.244923 
L 93.831923 418.504308 
L 98.572538 418.504308 
L 98.572538 413.763692 
L 103.313154 413.763692 
L 103.313154 409.023077 
L 103.313154 404.282462 
L 103.313154 399.541846 
L 103.313154 394.801231 
L 103.313154 390.060615 
L 108.053769 390.060615 
L 108.053769 385.32 
L 108.053769 380.579385 
L 112.794385 380.579385 
L 117.535 380.579385 
L 122.275615 380.579385 
L 127.016231 380.579385 
L 127.016231 375.838769 
L 127.016231 371.098154 
L 127.016231 366.357538 
L 131.756846 366.357538 
L 131.756846 361.616923 
L 131.756846 356.876308 
L 131.756846 352.135692 
L 131.756846 347.395077 
L 136.497462 347.395077 
L 136.497462 342.654462 
L 136.497462 337.913846 
L 141.238077 337.913846 
L 141.238077 333.173231 
L 141.238077 328.432615 
L 141.238077 323.692 
L 141.238077 318.951385 
L 145.978692 318.951385 
L 150.719308 318.951385 
L 155.459923 318.951385 
L 160.200538 318.951385 
L 164.941154 318.951385 
L 169.681769 318.951385 
L 174.422385 318.951385 
L 179.163 318.951385 
L 183.903615 318.951385 
L 188.644231 318.951385 
L 193.384846 318.951385 
L 198.125462 318.951385 
L 202.866077 318.951385 
L 207.606692 318.951385 
L 212.347308 318.951385 
L 217.087923 318.951385 
L 221.828538 318.951385 
L 226.569154 318.951385 
L 231.309769 318.951385 
L 236.050385 318.951385 
L 240.791 318.951385 
L 245.531615 318.951385 
L 250.272231 318.951385 
L 255.012846 318.951385 
L 259.753462 318.951385 
L 264.494077 318.951385 
L 269.234692 318.951385 
L 273.975308 318.951385 
L 278.715923 318.951385 
L 283.456538 318.951385 
L 288.197154 318.951385 
L 292.937769 318.951385 
L 297.678385 318.951385 
L 302.419 318.951385 
L 307.159615 318.951385 
L 311.900231 318.951385 
L 316.640846 318.951385 
L 321.381462 318.951385 
L 326.122077 318.951385 
L 330.862692 318.951385 
L 335.603308 318.951385 
L 340.343923 318.951385 
L 345.084538 318.951385 
L 349.825154 318.951385 
L 354.565769 318.951385 
L 359.306385 318.951385 
L 364.047 318.951385 
L 368.787615 318.951385 
L 373.528231 318.951385 
L 378.268846 318.951385 
L 383.009462 318.951385 
L 387.750077 318.951385 
L 392.490692 318.951385 
L 397.231308 318.951385 
L 401.971923 318.951385 
L 406.712538 318.951385 
L 411.453154 318.951385 
" clip-path="url(#p64737831dc)" style="fill: none; stroke: #28ae80; stroke-width: 2; stroke-linecap: round"/>
   </g>
   <g id="line2d_22">
    <g clip-path="url(#p64737831dc)">
     <use xlink:href="#ma1b6e904ef" x="141.238077" y="328.432615" style="fill: #008000; stroke: #008000"/>
    </g>
   </g>
   <g id="line2d_23">
    <path d="M 65.388231 442.207385 
L 70.128846 442.207385 
L 74.869462 442.207385 
L 79.610077 442.207385 
L 84.350692 442.207385 
L 89.091308 442.207385 
L 89.091308 437.466769 
L 89.091308 432.726154 
L 89.091308 427.985538 
L 93.831923 427.985538 
L 93.831923 423.244923 
L 98.572538 423.244923 
L 98.572538 418.504308 
L 98.572538 413.763692 
L 103.313154 413.763692 
L 103.313154 409.023077 
L 108.053769 409.023077 
L 112.794385 409.023077 
L 117.535 409.023077 
L 122.275615 409.023077 
L 122.275615 404.282462 
L 122.275615 399.541846 
L 127.016231 399.541846 
L 131.756846 399.541846 
L 136.497462 399.541846 
L 136.497462 394.801231 
L 136.497462 390.060615 
L 141.238077 390.060615 
L 141.238077 385.32 
L 141.238077 380.579385 
L 145.978692 380.579385 
L 150.719308 380.579385 
L 155.459923 380.579385 
L 155.459923 375.838769 
L 160.200538 375.838769 
L 160.200538 371.098154 
L 164.941154 371.098154 
L 164.941154 366.357538 
L 164.941154 361.616923 
L 169.681769 361.616923 
L 169.681769 356.876308 
L 169.681769 352.135692 
L 169.681769 347.395077 
L 174.422385 347.395077 
L 174.422385 342.654462 
L 174.422385 337.913846 
L 179.163 337.913846 
L 183.903615 337.913846 
L 183.903615 333.173231 
L 188.644231 333.173231 
L 188.644231 328.432615 
L 193.384846 328.432615 
L 198.125462 328.432615 
L 202.866077 328.432615 
L 207.606692 328.432615 
L 212.347308 328.432615 
L 217.087923 328.432615 
L 221.828538 328.432615 
L 226.569154 328.432615 
L 231.309769 328.432615 
L 236.050385 328.432615 
L 240.791 328.432615 
L 245.531615 328.432615 
L 250.272231 328.432615 
L 255.012846 328.432615 
L 259.753462 328.432615 
L 264.494077 328.432615 
L 269.234692 328.432615 
L 273.975308 328.432615 
L 278.715923 328.432615 
L 283.456538 328.432615 
L 288.197154 328.432615 
L 292.937769 328.432615 
L 297.678385 328.432615 
L 302.419 328.432615 
L 307.159615 328.432615 
L 311.900231 328.432615 
L 316.640846 328.432615 
L 321.381462 328.432615 
L 326.122077 328.432615 
L 330.862692 328.432615 
L 335.603308 328.432615 
L 340.343923 328.432615 
L 345.084538 328.432615 
L 349.825154 328.432615 
L 354.565769 328.432615 
L 359.306385 328.432615 
L 364.047 328.432615 
L 368.787615 328.432615 
L 373.528231 328.432615 
L 378.268846 328.432615 
L 383.009462 328.432615 
L 387.750077 328.432615 
L 392.490692 328.432615 
L 397.231308 328.432615 
L 401.971923 328.432615 
L 406.712538 328.432615 
L 411.453154 328.432615 
L 416.193769 328.432615 
L 420.934385 328.432615 
" clip-path="url(#p64737831dc)" style="fill: none; stroke: #5ec962; stroke-width: 2; stroke-linecap: round"/>
   </g>
   <g id="line2d_24">
    <g clip-path="url(#p64737831dc)">
     <use xlink:href="#ma1b6e904ef" x="169.681769" y="356.876308" style="fill: #008000; stroke: #008000"/>
    </g>
   </g>
   <g id="line2d_25">
    <path d="M 60.647615 437.466769 
L 60.647615 432.726154 
L 60.647615 427.985538 
L 60.647615 423.244923 
L 60.647615 418.504308 
L 60.647615 413.763692 
L 60.647615 409.023077 
L 65.388231 409.023077 
L 70.128846 409.023077 
L 70.128846 404.282462 
L 74.869462 404.282462 
L 74.869462 399.541846 
L 74.869462 394.801231 
L 74.869462 390.060615 
L 74.869462 385.32 
L 74.869462 380.579385 
L 79.610077 380.579385 
L 84.350692 380.579385 
L 89.091308 380.579385 
L 93.831923 380.579385 
L 98.572538 380.579385 
L 98.572538 375.838769 
L 103.313154 375.838769 
L 103.313154 371.098154 
L 103.313154 366.357538 
L 103.313154 361.616923 
L 108.053769 361.616923 
L 108.053769 356.876308 
L 108.053769 352.135692 
L 108.053769 347.395077 
L 112.794385 347.395077 
L 117.535 347.395077 
L 117.535 342.654462 
L 117.535 337.913846 
L 117.535 333.173231 
L 122.275615 333.173231 
L 127.016231 333.173231 
L 131.756846 333.173231 
L 136.497462 333.173231 
L 136.497462 328.432615 
L 141.238077 328.432615 
L 141.238077 323.692 
L 141.238077 318.951385 
L 145.978692 318.951385 
L 150.719308 318.951385 
L 150.719308 314.210769 
L 155.459923 314.210769 
L 155.459923 309.470154 
L 155.459923 304.729538 
L 160.200538 304.729538 
L 164.941154 304.729538 
L 169.681769 304.729538 
L 169.681769 299.988923 
L 169.681769 295.248308 
L 174.422385 295.248308 
L 179.163 295.248308 
L 183.903615 295.248308 
L 188.644231 295.248308 
L 193.384846 295.248308 
L 198.125462 295.248308 
L 202.866077 295.248308 
L 207.606692 295.248308 
L 212.347308 295.248308 
L 217.087923 295.248308 
L 221.828538 295.248308 
L 226.569154 295.248308 
L 231.309769 295.248308 
L 236.050385 295.248308 
L 240.791 295.248308 
L 245.531615 295.248308 
L 250.272231 295.248308 
L 250.272231 290.507692 
L 255.012846 290.507692 
L 259.753462 290.507692 
L 264.494077 290.507692 
L 269.234692 290.507692 
L 273.975308 290.507692 
L 278.715923 290.507692 
L 283.456538 290.507692 
L 288.197154 290.507692 
L 288.197154 285.767077 
L 288.197154 281.026462 
L 292.937769 281.026462 
L 297.678385 281.026462 
L 302.419 281.026462 
L 307.159615 281.026462 
L 311.900231 281.026462 
L 316.640846 281.026462 
L 321.381462 281.026462 
L 326.122077 281.026462 
L 330.862692 281.026462 
L 335.603308 281.026462 
L 340.343923 281.026462 
L 345.084538 281.026462 
L 349.825154 281.026462 
L 354.565769 281.026462 
L 359.306385 281.026462 
L 364.047 281.026462 
L 368.787615 281.026462 
L 373.528231 281.026462 
" clip-path="url(#p64737831dc)" style="fill: none; stroke: #addc30; stroke-width: 2; stroke-linecap: round"/>
   </g>
   <g id="line2d_26">
    <g clip-path="url(#p64737831dc)">
     <use xlink:href="#ma1b6e904ef" x="141.238077" y="328.432615" style="fill: #008000; stroke: #008000"/>
    </g>
   </g>
   <g id="line2d_27">
    <path d="M 65.388231 442.207385 
L 70.128846 442.207385 
L 74.869462 442.207385 
L 79.610077 442.207385 
L 79.610077 437.466769 
L 79.610077 432.726154 
L 79.610077 427.985538 
L 79.610077 423.244923 
L 84.350692 423.244923 
L 89.091308 423.244923 
L 93.831923 423.244923 
L 98.572538 423.244923 
L 103.313154 423.244923 
L 103.313154 418.504308 
L 103.313154 413.763692 
L 103.313154 409.023077 
L 108.053769 409.023077 
L 108.053769 404.282462 
L 108.053769 399.541846 
L 108.053769 394.801231 
L 112.794385 394.801231 
L 112.794385 390.060615 
L 117.535 390.060615 
L 122.275615 390.060615 
L 127.016231 390.060615 
L 131.756846 390.060615 
L 131.756846 385.32 
L 131.756846 380.579385 
L 131.756846 375.838769 
L 131.756846 371.098154 
L 131.756846 366.357538 
L 131.756846 361.616923 
L 136.497462 361.616923 
L 136.497462 356.876308 
L 136.497462 352.135692 
L 141.238077 352.135692 
L 145.978692 352.135692 
L 145.978692 347.395077 
L 145.978692 342.654462 
L 145.978692 337.913846 
L 145.978692 333.173231 
L 150.719308 333.173231 
L 150.719308 328.432615 
L 155.459923 328.432615 
L 160.200538 328.432615 
L 164.941154 328.432615 
L 169.681769 328.432615 
L 174.422385 328.432615 
L 179.163 328.432615 
L 183.903615 328.432615 
L 188.644231 328.432615 
L 193.384846 328.432615 
L 198.125462 328.432615 
L 202.866077 328.432615 
L 207.606692 328.432615 
L 207.606692 323.692 
L 212.347308 323.692 
L 217.087923 323.692 
L 221.828538 323.692 
L 226.569154 323.692 
L 231.309769 323.692 
L 236.050385 323.692 
L 240.791 323.692 
L 245.531615 323.692 
L 250.272231 323.692 
L 255.012846 323.692 
L 259.753462 323.692 
L 264.494077 323.692 
L 269.234692 323.692 
L 273.975308 323.692 
L 278.715923 323.692 
L 283.456538 323.692 
L 288.197154 323.692 
L 292.937769 323.692 
L 297.678385 323.692 
L 302.419 323.692 
L 307.159615 323.692 
L 311.900231 323.692 
L 316.640846 323.692 
L 321.381462 323.692 
L 321.381462 318.951385 
L 326.122077 318.951385 
L 330.862692 318.951385 
L 335.603308 318.951385 
L 340.343923 318.951385 
L 345.084538 318.951385 
L 349.825154 318.951385 
L 354.565769 318.951385 
L 359.306385 318.951385 
L 364.047 318.951385 
L 368.787615 318.951385 
L 373.528231 318.951385 
L 378.268846 318.951385 
L 383.009462 318.951385 
L 387.750077 318.951385 
L 392.490692 318.951385 
L 397.231308 318.951385 
L 401.971923 318.951385 
L 406.712538 318.951385 
L 411.453154 318.951385 
" clip-path="url(#p64737831dc)" style="fill: none; stroke: #fde725; stroke-width: 2; stroke-linecap: round"/>
   </g>
   <g id="line2d_28">
    <g clip-path="url(#p64737831dc)">
     <use xlink:href="#ma1b6e904ef" x="145.978692" y="333.173231" style="fill: #008000; stroke: #008000"/>
    </g>
   </g>
   <g id="line2d_29">
    <path d="M 63.281291 440.100444 
L 65.388231 437.466769 
L 66.968436 434.306359 
L 69.075376 431.672684 
L 70.128846 427.985538 
L 72.235786 425.351863 
L 72.762521 421.137983 
L 75.922932 419.557778 
L 79.083342 417.977573 
L 82.243752 416.397368 
L 84.877427 414.290427 
L 86.457632 411.130017 
L 89.091308 409.023077 
L 90.144778 405.335932 
L 93.305188 403.755726 
L 94.358658 400.068581 
L 96.992333 397.961641 
L 99.099274 395.327966 
L 101.206214 392.694291 
L 103.839889 390.58735 
L 107.527034 389.53388 
L 110.160709 387.42694 
L 113.32112 385.846735 
L 115.954795 383.739795 
L 119.115205 382.15959 
L 120.69541 378.999179 
L 123.329085 376.892239 
L 125.962761 374.785299 
L 127.542966 371.624889 
L 128.596436 367.937744 
L 131.230111 365.830803 
L 133.337051 363.197128 
L 135.443991 360.563453 
L 137.024197 357.403043 
L 139.131137 354.769368 
L 142.291547 353.189162 
L 145.451957 351.608957 
L 147.032162 348.448547 
L 149.139103 345.814872 
L 151.246043 343.181197 
L 153.352983 340.547521 
L 155.459923 337.913846 
L 157.566863 335.280171 
L 161.254009 334.226701 
L 163.887684 332.119761 
L 166.521359 330.012821 
L 170.735239 329.486085 
L 174.94912 328.95935 
L 178.636265 327.90588 
L 183.37688 327.90588 
L 187.590761 327.379145 
L 192.331376 327.379145 
L 196.018521 326.325675 
L 200.232402 325.79894 
L 204.973017 325.79894 
L 208.660162 324.74547 
L 213.400778 324.74547 
L 218.141393 324.74547 
L 222.882009 324.74547 
L 227.622624 324.74547 
L 232.363239 324.74547 
L 237.103855 324.74547 
L 241.84447 324.74547 
L 246.585085 324.74547 
L 251.325701 324.74547 
L 256.066316 324.74547 
L 260.806932 324.74547 
L 265.547547 324.74547 
L 269.761427 324.218735 
L 274.502043 324.218735 
L 279.242658 324.218735 
L 283.456538 323.692 
L 288.197154 323.692 
L 292.937769 323.692 
L 296.624915 322.63853 
L 300.838795 322.111795 
L 305.57941 322.111795 
L 310.320026 322.111795 
L 315.060641 322.111795 
L 319.801256 322.111795 
L 323.488402 321.058325 
L 327.702282 320.53159 
L 332.442897 320.53159 
L 337.183513 320.53159 
L 341.924128 320.53159 
L 346.664744 320.53159 
L 351.405359 320.53159 
L 356.145974 320.53159 
L 360.88659 320.53159 
L 365.627205 320.53159 
L 370.367821 320.53159 
L 375.108436 320.53159 
L 379.849051 320.53159 
L 384.589667 320.53159 
L 389.330282 320.53159 
L 394.070897 320.53159 
L 398.811513 320.53159 
L 403.552128 320.53159 
L 408.292744 320.53159 
L 412.506624 320.004855 
" clip-path="url(#p64737831dc)" style="fill: none; stroke: #808080; stroke-width: 3; stroke-linecap: round"/>
   </g>
   <g id="line2d_30">
    <path d="M 60.647615 442.207385 
L 297.678385 205.176615 
" clip-path="url(#p64737831dc)" style="fill: none; stroke-dasharray: 7.4,3.2; stroke-dashoffset: 0; stroke: #000000; stroke-width: 2"/>
   </g>
   <g id="line2d_31"/>
   <g id="text_13">
    <!-- (n = 9 flies) -->
    <g style="fill: #262626" transform="translate(108.053769 252.582769)scale(0.14 -0.14)">
     <defs>
      <path id="DejaVuSans-28" d="M 1984 4856 
Q 1566 4138 1362 3434 
Q 1159 2731 1159 2009 
Q 1159 1288 1364 580 
Q 1569 -128 1984 -844 
L 1484 -844 
Q 1016 -109 783 600 
Q 550 1309 550 2009 
Q 550 2706 781 3412 
Q 1013 4119 1484 4856 
L 1984 4856 
z
" transform="scale(0.015625)"/>
      <path id="DejaVuSans-3d" d="M 678 2906 
L 4684 2906 
L 4684 2381 
L 678 2381 
L 678 2906 
z
M 678 1631 
L 4684 1631 
L 4684 1100 
L 678 1100 
L 678 1631 
z
" transform="scale(0.015625)"/>
      <path id="DejaVuSans-39" d="M 703 97 
L 703 672 
Q 941 559 1184 500 
Q 1428 441 1663 441 
Q 2288 441 2617 861 
Q 2947 1281 2994 2138 
Q 2813 1869 2534 1725 
Q 2256 1581 1919 1581 
Q 1219 1581 811 2004 
Q 403 2428 403 3163 
Q 403 3881 828 4315 
Q 1253 4750 1959 4750 
Q 2769 4750 3195 4129 
Q 3622 3509 3622 2328 
Q 3622 1225 3098 567 
Q 2575 -91 1691 -91 
Q 1453 -91 1209 -44 
Q 966 3 703 97 
z
M 1959 2075 
Q 2384 2075 2632 2365 
Q 2881 2656 2881 3163 
Q 2881 3666 2632 3958 
Q 2384 4250 1959 4250 
Q 1534 4250 1286 3958 
Q 1038 3666 1038 3163 
Q 1038 2656 1286 2365 
Q 1534 2075 1959 2075 
z
" transform="scale(0.015625)"/>
      <path id="DejaVuSans-29" d="M 513 4856 
L 1013 4856 
Q 1481 4119 1714 3412 
Q 1947 2706 1947 2009 
Q 1947 1309 1714 600 
Q 1481 -109 1013 -844 
L 513 -844 
Q 928 -128 1133 580 
Q 1338 1288 1338 2009 
Q 1338 2731 1133 3434 
Q 928 4138 513 4856 
z
" transform="scale(0.015625)"/>
     </defs>
     <use xlink:href="#DejaVuSans-28"/>
     <use xlink:href="#DejaVuSans-6e" x="39.013672"/>
     <use xlink:href="#DejaVuSans-20" x="102.392578"/>
     <use xlink:href="#DejaVuSans-3d" x="134.179688"/>
     <use xlink:href="#DejaVuSans-20" x="217.96875"/>
     <use xlink:href="#DejaVuSans-39" x="249.755859"/>
     <use xlink:href="#DejaVuSans-20" x="313.378906"/>
     <use xlink:href="#DejaVuSans-66" x="345.166016"/>
     <use xlink:href="#DejaVuSans-6c" x="380.371094"/>
     <use xlink:href="#DejaVuSans-69" x="408.154297"/>
     <use xlink:href="#DejaVuSans-65" x="435.9375"/>
     <use xlink:href="#DejaVuSans-73" x="497.460938"/>
     <use xlink:href="#DejaVuSans-29" x="549.560547"/>
    </g>
   </g>
   <g id="legend_1">
    <g id="line2d_32">
     <defs>
      <path id="m7e44abd35a" d="M 0 -3 
L -3 3 
L 3 3 
z
" style="stroke: #008000; stroke-linejoin: miter"/>
     </defs>
     <g>
      <use xlink:href="#m7e44abd35a" x="313.968437" y="32.841937" style="fill: #008000; stroke: #008000; stroke-linejoin: miter"/>
     </g>
    </g>
    <g id="text_14">
     <!-- Rewarded trials start -->
     <g style="fill: #262626" transform="translate(337.728437 37.461937)scale(0.132 -0.132)">
      <defs>
       <path id="DejaVuSans-52" d="M 2841 2188 
Q 3044 2119 3236 1894 
Q 3428 1669 3622 1275 
L 4263 0 
L 3584 0 
L 2988 1197 
Q 2756 1666 2539 1819 
Q 2322 1972 1947 1972 
L 1259 1972 
L 1259 0 
L 628 0 
L 628 4666 
L 2053 4666 
Q 2853 4666 3247 4331 
Q 3641 3997 3641 3322 
Q 3641 2881 3436 2590 
Q 3231 2300 2841 2188 
z
M 1259 4147 
L 1259 2491 
L 2053 2491 
Q 2509 2491 2742 2702 
Q 2975 2913 2975 3322 
Q 2975 3731 2742 3939 
Q 2509 4147 2053 4147 
L 1259 4147 
z
" transform="scale(0.015625)"/>
       <path id="DejaVuSans-77" d="M 269 3500 
L 844 3500 
L 1563 769 
L 2278 3500 
L 2956 3500 
L 3675 769 
L 4391 3500 
L 4966 3500 
L 4050 0 
L 3372 0 
L 2619 2869 
L 1863 0 
L 1184 0 
L 269 3500 
z
" transform="scale(0.015625)"/>
       <path id="DejaVuSans-64" d="M 2906 2969 
L 2906 4863 
L 3481 4863 
L 3481 0 
L 2906 0 
L 2906 525 
Q 2725 213 2448 61 
Q 2172 -91 1784 -91 
Q 1150 -91 751 415 
Q 353 922 353 1747 
Q 353 2572 751 3078 
Q 1150 3584 1784 3584 
Q 2172 3584 2448 3432 
Q 2725 3281 2906 2969 
z
M 947 1747 
Q 947 1113 1208 752 
Q 1469 391 1925 391 
Q 2381 391 2643 752 
Q 2906 1113 2906 1747 
Q 2906 2381 2643 2742 
Q 2381 3103 1925 3103 
Q 1469 3103 1208 2742 
Q 947 2381 947 1747 
z
" transform="scale(0.015625)"/>
      </defs>
      <use xlink:href="#DejaVuSans-52"/>
      <use xlink:href="#DejaVuSans-65" x="64.982422"/>
      <use xlink:href="#DejaVuSans-77" x="126.505859"/>
      <use xlink:href="#DejaVuSans-61" x="208.292969"/>
      <use xlink:href="#DejaVuSans-72" x="269.572266"/>
      <use xlink:href="#DejaVuSans-64" x="308.935547"/>
      <use xlink:href="#DejaVuSans-65" x="372.412109"/>
      <use xlink:href="#DejaVuSans-64" x="433.935547"/>
      <use xlink:href="#DejaVuSans-20" x="497.412109"/>
      <use xlink:href="#DejaVuSans-74" x="529.199219"/>
      <use xlink:href="#DejaVuSans-72" x="568.408203"/>
      <use xlink:href="#DejaVuSans-69" x="609.521484"/>
      <use xlink:href="#DejaVuSans-61" x="637.304688"/>
      <use xlink:href="#DejaVuSans-6c" x="698.583984"/>
      <use xlink:href="#DejaVuSans-73" x="726.367188"/>
      <use xlink:href="#DejaVuSans-20" x="778.466797"/>
      <use xlink:href="#DejaVuSans-73" x="810.253906"/>
      <use xlink:href="#DejaVuSans-74" x="862.353516"/>
      <use xlink:href="#DejaVuSans-61" x="901.5625"/>
      <use xlink:href="#DejaVuSans-72" x="962.841797"/>
      <use xlink:href="#DejaVuSans-74" x="1003.955078"/>
     </g>
    </g>
   </g>
  </g>
 </g>
 <defs>
  <clipPath id="p64737831dc">
   <rect x="55.907" y="15.552" width="431.396" height="431.396"/>
  </clipPath>
 </defs>
</svg>
