<?xml version="1.0" encoding="utf-8" standalone="no"?>
<!DOCTYPE svg PUBLIC "-//W3C//DTD SVG 1.1//EN"
  "http://www.w3.org/Graphics/SVG/1.1/DTD/svg11.dtd">
<svg xmlns:xlink="http://www.w3.org/1999/xlink" width="576pt" height="216pt" viewBox="0 0 576 216" xmlns="http://www.w3.org/2000/svg" version="1.1">
 <metadata>
  <rdf:RDF xmlns:dc="http://purl.org/dc/elements/1.1/" xmlns:cc="http://creativecommons.org/ns#" xmlns:rdf="http://www.w3.org/1999/02/22-rdf-syntax-ns#">
   <cc:Work>
    <dc:type rdf:resource="http://purl.org/dc/dcmitype/StillImage"/>
    <dc:date>2022-04-23T16:05:08.838282</dc:date>
    <dc:format>image/svg+xml</dc:format>
    <dc:creator>
     <cc:Agent>
      <dc:title>Matplotlib v3.5.1, https://matplotlib.org/</dc:title>
     </cc:Agent>
    </dc:creator>
   </cc:Work>
  </rdf:RDF>
 </metadata>
 <defs>
  <style type="text/css">*{stroke-linejoin: round; stroke-linecap: butt}</style>
 </defs>
 <g id="figure_1">
  <g id="patch_1">
   <path d="M 0 216 
L 576 216 
L 576 0 
L 0 0 
L 0 216 
z
" style="fill: none"/>
  </g>
  <g id="axes_1">
   <g id="matplotlib.axis_1">
    <g id="xtick_1">
     <g id="line2d_1">
      <path d="M 72.223 157.652 
L 72.223 33.848 
" clip-path="url(#p87204ea98d)" style="fill: none; stroke: #ffffff; stroke-linecap: round"/>
     </g>
     <g id="text_1">
      <!-- 0 -->
      <g style="fill: #262626" transform="translate(68.24693 177.387672)scale(0.143 -0.143)">
       <defs>
        <path id="ArialMT-30" d="M 266 2259 
Q 266 3072 433 3567 
Q 600 4063 929 4331 
Q 1259 4600 1759 4600 
Q 2128 4600 2406 4451 
Q 2684 4303 2865 4023 
Q 3047 3744 3150 3342 
Q 3253 2941 3253 2259 
Q 3253 1453 3087 958 
Q 2922 463 2592 192 
Q 2263 -78 1759 -78 
Q 1097 -78 719 397 
Q 266 969 266 2259 
z
M 844 2259 
Q 844 1131 1108 757 
Q 1372 384 1759 384 
Q 2147 384 2411 759 
Q 2675 1134 2675 2259 
Q 2675 3391 2411 3762 
Q 2147 4134 1753 4134 
Q 1366 4134 1134 3806 
Q 844 3388 844 2259 
z
" transform="scale(0.015625)"/>
       </defs>
       <use xlink:href="#ArialMT-30"/>
      </g>
     </g>
    </g>
    <g id="xtick_2">
     <g id="line2d_2">
      <path d="M 130.652528 157.652 
L 130.652528 33.848 
" clip-path="url(#p87204ea98d)" style="fill: none; stroke: #ffffff; stroke-linecap: round"/>
     </g>
     <g id="text_2">
      <!-- 50 -->
      <g style="fill: #262626" transform="translate(122.700387 177.387672)scale(0.143 -0.143)">
       <defs>
        <path id="ArialMT-35" d="M 266 1200 
L 856 1250 
Q 922 819 1161 601 
Q 1400 384 1738 384 
Q 2144 384 2425 690 
Q 2706 997 2706 1503 
Q 2706 1984 2436 2262 
Q 2166 2541 1728 2541 
Q 1456 2541 1237 2417 
Q 1019 2294 894 2097 
L 366 2166 
L 809 4519 
L 3088 4519 
L 3088 3981 
L 1259 3981 
L 1013 2750 
Q 1425 3038 1878 3038 
Q 2478 3038 2890 2622 
Q 3303 2206 3303 1553 
Q 3303 931 2941 478 
Q 2500 -78 1738 -78 
Q 1113 -78 717 272 
Q 322 622 266 1200 
z
" transform="scale(0.015625)"/>
       </defs>
       <use xlink:href="#ArialMT-35"/>
       <use xlink:href="#ArialMT-30" x="55.615234"/>
      </g>
     </g>
    </g>
    <g id="xtick_3">
     <g id="line2d_3">
      <path d="M 189.082055 157.652 
L 189.082055 33.848 
" clip-path="url(#p87204ea98d)" style="fill: none; stroke: #ffffff; stroke-linecap: round"/>
     </g>
     <g id="text_3">
      <!-- 100 -->
      <g style="fill: #262626" transform="translate(177.153844 177.387672)scale(0.143 -0.143)">
       <defs>
        <path id="ArialMT-31" d="M 2384 0 
L 1822 0 
L 1822 3584 
Q 1619 3391 1289 3197 
Q 959 3003 697 2906 
L 697 3450 
Q 1169 3672 1522 3987 
Q 1875 4303 2022 4600 
L 2384 4600 
L 2384 0 
z
" transform="scale(0.015625)"/>
       </defs>
       <use xlink:href="#ArialMT-31"/>
       <use xlink:href="#ArialMT-30" x="55.615234"/>
       <use xlink:href="#ArialMT-30" x="111.230469"/>
      </g>
     </g>
    </g>
    <g id="text_4">
     <!-- Trial -->
     <g style="fill: #262626" transform="translate(131.556094 195.395984)scale(0.156 -0.156)">
      <defs>
       <path id="ArialMT-54" d="M 1659 0 
L 1659 4041 
L 150 4041 
L 150 4581 
L 3781 4581 
L 3781 4041 
L 2266 4041 
L 2266 0 
L 1659 0 
z
" transform="scale(0.015625)"/>
       <path id="ArialMT-72" d="M 416 0 
L 416 3319 
L 922 3319 
L 922 2816 
Q 1116 3169 1280 3281 
Q 1444 3394 1641 3394 
Q 1925 3394 2219 3213 
L 2025 2691 
Q 1819 2813 1613 2813 
Q 1428 2813 1281 2702 
Q 1134 2591 1072 2394 
Q 978 2094 978 1738 
L 978 0 
L 416 0 
z
" transform="scale(0.015625)"/>
       <path id="ArialMT-69" d="M 425 3934 
L 425 4581 
L 988 4581 
L 988 3934 
L 425 3934 
z
M 425 0 
L 425 3319 
L 988 3319 
L 988 0 
L 425 0 
z
" transform="scale(0.015625)"/>
       <path id="ArialMT-61" d="M 2588 409 
Q 2275 144 1986 34 
Q 1697 -75 1366 -75 
Q 819 -75 525 192 
Q 231 459 231 875 
Q 231 1119 342 1320 
Q 453 1522 633 1644 
Q 813 1766 1038 1828 
Q 1203 1872 1538 1913 
Q 2219 1994 2541 2106 
Q 2544 2222 2544 2253 
Q 2544 2597 2384 2738 
Q 2169 2928 1744 2928 
Q 1347 2928 1158 2789 
Q 969 2650 878 2297 
L 328 2372 
Q 403 2725 575 2942 
Q 747 3159 1072 3276 
Q 1397 3394 1825 3394 
Q 2250 3394 2515 3294 
Q 2781 3194 2906 3042 
Q 3031 2891 3081 2659 
Q 3109 2516 3109 2141 
L 3109 1391 
Q 3109 606 3145 398 
Q 3181 191 3288 0 
L 2700 0 
Q 2613 175 2588 409 
z
M 2541 1666 
Q 2234 1541 1622 1453 
Q 1275 1403 1131 1340 
Q 988 1278 909 1158 
Q 831 1038 831 891 
Q 831 666 1001 516 
Q 1172 366 1500 366 
Q 1825 366 2078 508 
Q 2331 650 2450 897 
Q 2541 1088 2541 1459 
L 2541 1666 
z
" transform="scale(0.015625)"/>
       <path id="ArialMT-6c" d="M 409 0 
L 409 4581 
L 972 4581 
L 972 0 
L 409 0 
z
" transform="scale(0.015625)"/>
      </defs>
      <use xlink:href="#ArialMT-54"/>
      <use xlink:href="#ArialMT-72" x="57.333984"/>
      <use xlink:href="#ArialMT-69" x="90.634766"/>
      <use xlink:href="#ArialMT-61" x="112.851562"/>
      <use xlink:href="#ArialMT-6c" x="168.466797"/>
     </g>
    </g>
   </g>
   <g id="matplotlib.axis_2">
    <g id="ytick_1">
     <g id="line2d_4">
      <path d="M 72.223 147.335 
L 220.634 147.335 
" clip-path="url(#p87204ea98d)" style="fill: none; stroke: #ffffff; stroke-linecap: round"/>
     </g>
     <g id="text_5">
      <!-- 0.0 -->
      <g style="fill: #262626" transform="translate(42.846 152.452836)scale(0.143 -0.143)">
       <defs>
        <path id="ArialMT-2e" d="M 581 0 
L 581 641 
L 1222 641 
L 1222 0 
L 581 0 
z
" transform="scale(0.015625)"/>
       </defs>
       <use xlink:href="#ArialMT-30"/>
       <use xlink:href="#ArialMT-2e" x="55.615234"/>
       <use xlink:href="#ArialMT-30" x="83.398438"/>
      </g>
     </g>
    </g>
    <g id="ytick_2">
     <g id="line2d_5">
      <path d="M 72.223 95.75 
L 220.634 95.75 
" clip-path="url(#p87204ea98d)" style="fill: none; stroke: #ffffff; stroke-linecap: round"/>
     </g>
     <g id="text_6">
      <!-- 0.5 -->
      <g style="fill: #262626" transform="translate(42.846 100.867836)scale(0.143 -0.143)">
       <use xlink:href="#ArialMT-30"/>
       <use xlink:href="#ArialMT-2e" x="55.615234"/>
       <use xlink:href="#ArialMT-35" x="83.398438"/>
      </g>
     </g>
    </g>
    <g id="ytick_3">
     <g id="line2d_6">
      <path d="M 72.223 44.165 
L 220.634 44.165 
" clip-path="url(#p87204ea98d)" style="fill: none; stroke: #ffffff; stroke-linecap: round"/>
     </g>
     <g id="text_7">
      <!-- 1.0 -->
      <g style="fill: #262626" transform="translate(42.846 49.282836)scale(0.143 -0.143)">
       <use xlink:href="#ArialMT-31"/>
       <use xlink:href="#ArialMT-2e" x="55.615234"/>
       <use xlink:href="#ArialMT-30" x="83.398438"/>
      </g>
     </g>
    </g>
    <g id="text_8">
     <!-- P(OCT) -->
     <g style="fill: #262626" transform="translate(35.562688 122.61125)rotate(-90)scale(0.156 -0.156)">
      <defs>
       <path id="ArialMT-50" d="M 494 0 
L 494 4581 
L 2222 4581 
Q 2678 4581 2919 4538 
Q 3256 4481 3484 4323 
Q 3713 4166 3852 3881 
Q 3991 3597 3991 3256 
Q 3991 2672 3619 2267 
Q 3247 1863 2275 1863 
L 1100 1863 
L 1100 0 
L 494 0 
z
M 1100 2403 
L 2284 2403 
Q 2872 2403 3119 2622 
Q 3366 2841 3366 3238 
Q 3366 3525 3220 3729 
Q 3075 3934 2838 4000 
Q 2684 4041 2272 4041 
L 1100 4041 
L 1100 2403 
z
" transform="scale(0.015625)"/>
       <path id="ArialMT-28" d="M 1497 -1347 
Q 1031 -759 709 28 
Q 388 816 388 1659 
Q 388 2403 628 3084 
Q 909 3875 1497 4659 
L 1900 4659 
Q 1522 4009 1400 3731 
Q 1209 3300 1100 2831 
Q 966 2247 966 1656 
Q 966 153 1900 -1347 
L 1497 -1347 
z
" transform="scale(0.015625)"/>
       <path id="ArialMT-4f" d="M 309 2231 
Q 309 3372 921 4017 
Q 1534 4663 2503 4663 
Q 3138 4663 3647 4359 
Q 4156 4056 4423 3514 
Q 4691 2972 4691 2284 
Q 4691 1588 4409 1038 
Q 4128 488 3612 205 
Q 3097 -78 2500 -78 
Q 1853 -78 1343 234 
Q 834 547 571 1087 
Q 309 1628 309 2231 
z
M 934 2222 
Q 934 1394 1379 917 
Q 1825 441 2497 441 
Q 3181 441 3623 922 
Q 4066 1403 4066 2288 
Q 4066 2847 3877 3264 
Q 3688 3681 3323 3911 
Q 2959 4141 2506 4141 
Q 1863 4141 1398 3698 
Q 934 3256 934 2222 
z
" transform="scale(0.015625)"/>
       <path id="ArialMT-43" d="M 3763 1606 
L 4369 1453 
Q 4178 706 3683 314 
Q 3188 -78 2472 -78 
Q 1731 -78 1267 223 
Q 803 525 561 1097 
Q 319 1669 319 2325 
Q 319 3041 592 3573 
Q 866 4106 1370 4382 
Q 1875 4659 2481 4659 
Q 3169 4659 3637 4309 
Q 4106 3959 4291 3325 
L 3694 3184 
Q 3534 3684 3231 3912 
Q 2928 4141 2469 4141 
Q 1941 4141 1586 3887 
Q 1231 3634 1087 3207 
Q 944 2781 944 2328 
Q 944 1744 1114 1308 
Q 1284 872 1643 656 
Q 2003 441 2422 441 
Q 2931 441 3284 734 
Q 3638 1028 3763 1606 
z
" transform="scale(0.015625)"/>
       <path id="ArialMT-29" d="M 791 -1347 
L 388 -1347 
Q 1322 153 1322 1656 
Q 1322 2244 1188 2822 
Q 1081 3291 891 3722 
Q 769 4003 388 4659 
L 791 4659 
Q 1378 3875 1659 3084 
Q 1900 2403 1900 1659 
Q 1900 816 1576 28 
Q 1253 -759 791 -1347 
z
" transform="scale(0.015625)"/>
      </defs>
      <use xlink:href="#ArialMT-50"/>
      <use xlink:href="#ArialMT-28" x="66.699219"/>
      <use xlink:href="#ArialMT-4f" x="100"/>
      <use xlink:href="#ArialMT-43" x="177.783203"/>
      <use xlink:href="#ArialMT-54" x="250"/>
      <use xlink:href="#ArialMT-29" x="311.083984"/>
     </g>
    </g>
   </g>
   <g id="line2d_7">
    <path d="M 89.751858 64.799 
L 93.25763 64.799 
L 94.42622 57.921 
L 96.763402 57.921 
L 97.931992 51.043 
L 99.100583 51.043 
L 100.269173 44.165 
L 178.56474 44.165 
L 180.901921 57.921 
L 182.070512 57.921 
L 187.913465 92.311 
L 189.082055 92.311 
L 193.756417 119.823 
L 194.925008 119.823 
L 196.093598 126.701 
L 198.43078 126.701 
L 199.59937 133.579 
L 200.767961 126.701 
L 205.442323 126.701 
L 206.610913 133.579 
L 208.948094 119.823 
L 210.116685 119.823 
L 211.285276 112.945 
L 212.453866 119.823 
L 215.959638 99.189 
L 220.634 99.189 
L 221.802591 92.311 
L 224.139772 92.311 
L 226.476953 106.067 
L 227.645543 99.189 
L 228.814134 106.067 
L 229.982724 99.189 
L 231.151315 99.189 
L 232.319906 106.067 
L 236.994268 106.067 
L 236.994268 106.067 
" clip-path="url(#p87204ea98d)" style="fill: none; stroke: #1a1a1a; stroke-opacity: 0.5; stroke-width: 2; stroke-linecap: round"/>
   </g>
   <g id="line2d_8">
    <path d="M 72.223 95.75 
L 73.391591 101.122166 
L 74.560181 87.613751 
L 75.728772 77.586635 
L 76.897362 70.257768 
L 78.065953 78.350035 
L 79.234543 71.548467 
L 80.403134 66.609532 
L 81.571724 74.184882 
L 82.740315 69.1787 
L 83.908906 76.118207 
L 85.077496 71.139812 
L 86.246087 67.357271 
L 87.414677 64.464656 
L 88.583268 62.225843 
L 89.751858 60.467643 
L 90.920449 59.065591 
L 92.089039 57.930623 
L 93.25763 56.998731 
L 95.594811 55.570807 
L 97.931992 54.538088 
L 99.100583 54.124389 
L 100.269173 55.100214 
L 102.606354 54.038205 
L 104.943535 53.2757 
L 108.449307 52.475295 
L 110.786488 52.08884 
L 111.955079 52.973489 
L 114.29226 52.360757 
L 117.798031 51.738066 
L 122.472394 51.219686 
L 128.315346 50.831573 
L 136.49548 50.523099 
L 147.012795 50.312043 
L 148.181386 51.08676 
L 151.687157 50.727498 
L 157.53011 50.409237 
L 158.698701 50.369323 
L 159.867291 51.16025 
L 163.373063 50.740203 
L 165.710244 50.562509 
L 168.047425 52.267836 
L 169.216016 53.200223 
L 170.384606 52.601062 
L 172.721787 54.488706 
L 173.890378 53.57688 
L 175.058969 52.886442 
L 179.733331 56.570384 
L 182.070512 81.778422 
L 183.239102 76.239519 
L 184.407693 87.63561 
L 185.576283 96.491326 
L 186.744874 103.106819 
L 187.913465 108.64143 
L 189.082055 113.21603 
L 190.250646 109.159677 
L 191.419236 113.632964 
L 192.587827 117.321734 
L 193.756417 120.373291 
L 194.925008 122.913322 
L 196.093598 117.436249 
L 197.262189 116.622562 
L 198.43078 119.963484 
L 199.59937 119.10465 
L 200.767961 122.234546 
L 201.936551 116.524909 
L 203.105142 119.961653 
L 204.273732 122.767741 
L 205.442323 125.078087 
L 206.610913 126.998422 
L 207.779504 125.935876 
L 208.948094 114.387871 
L 210.116685 104.484475 
L 211.285276 104.270833 
L 212.453866 102.006645 
L 213.622457 107.55322 
L 214.791047 104.586657 
L 215.959638 102.09361 
L 217.128228 94.054003 
L 218.296819 100.794622 
L 219.465409 99.204461 
L 220.634 105.202336 
L 221.802591 110.219071 
L 222.971181 106.779065 
L 224.139772 111.579971 
L 225.308362 115.555234 
L 226.476953 118.850798 
L 227.645543 121.596202 
L 228.814134 116.327961 
L 229.982724 115.55641 
L 231.151315 105.192619 
L 232.319906 97.108936 
L 233.488496 102.722661 
L 234.657087 101.061968 
L 235.825677 106.359458 
L 236.994268 98.17824 
L 238.162858 98.301602 
L 239.331449 98.619194 
L 240.500039 99.106255 
L 242.83722 100.483708 
L 245.174402 102.233692 
L 249.848764 106.213638 
L 254.523126 110.14269 
L 258.028898 112.793085 
L 261.534669 115.117011 
L 265.040441 117.110807 
L 268.546213 118.798583 
L 272.051984 120.215927 
L 275.557756 121.400854 
L 279.063528 122.389291 
L 283.73789 123.45613 
L 288.412252 124.293355 
L 294.255205 125.092593 
L 301.266748 125.784605 
L 304.77252 126.048791 
L 304.77252 126.048791 
" clip-path="url(#p87204ea98d)" style="fill: none; stroke: #701f60; stroke-width: 2; stroke-linecap: round"/>
   </g>
   <g id="line2d_9">
    <path d="M 72.223 95.75 
L 73.391591 95.75 
L 74.560181 87.182028 
L 75.728772 79.871398 
L 76.897362 73.900641 
L 78.065953 79.305888 
L 79.234543 73.574703 
L 80.403134 69.035992 
L 81.571724 75.367359 
L 82.740315 70.633128 
L 83.908906 76.708975 
L 85.077496 71.861456 
L 86.246087 68.027688 
L 87.414677 65.014247 
L 88.583268 62.645028 
L 89.751858 60.773933 
L 90.920449 59.285642 
L 92.089039 58.091533 
L 93.25763 57.124399 
L 94.42622 56.333524 
L 96.763402 55.136703 
L 99.100583 54.292473 
L 100.269173 54.81015 
L 102.606354 54.023051 
L 104.943535 53.455359 
L 108.449307 52.864428 
L 110.786488 52.584476 
L 111.955079 52.954369 
L 115.46085 52.511399 
L 120.135213 52.136047 
L 127.146756 51.816727 
L 137.664071 51.588848 
L 147.012795 51.49627 
L 148.181386 51.725136 
L 158.698701 51.54689 
L 159.867291 51.798888 
L 165.710244 51.649635 
L 168.047425 52.298258 
L 169.216016 52.751086 
L 170.384606 52.586418 
L 172.721787 53.72249 
L 175.058969 53.127713 
L 177.39615 54.483447 
L 179.733331 56.271885 
L 182.070512 82.1294 
L 183.239102 77.31879 
L 184.407693 88.48062 
L 185.576283 96.686938 
L 186.744874 102.746739 
L 187.913465 108.072221 
L 189.082055 112.657344 
L 190.250646 108.415921 
L 191.419236 113.02219 
L 192.587827 116.919336 
L 193.756417 120.194238 
L 194.925008 122.939689 
L 196.093598 116.520645 
L 197.262189 116.565459 
L 198.43078 120.021683 
L 199.59937 119.83116 
L 200.767961 122.882527 
L 201.936551 116.483634 
L 203.105142 120.034495 
L 204.273732 122.967017 
L 205.442323 125.391186 
L 206.610913 127.402239 
L 207.779504 127.091843 
L 208.948094 113.99775 
L 210.116685 103.361329 
L 211.285276 103.726427 
L 212.453866 101.514528 
L 213.622457 107.216921 
L 214.791047 104.178305 
L 215.959638 101.82351 
L 217.128228 93.513606 
L 218.296819 100.660218 
L 219.465409 99.123943 
L 220.634 105.41893 
L 221.802591 110.80614 
L 222.971181 106.910518 
L 224.139772 112.119389 
L 225.308362 116.464405 
L 226.476953 120.055342 
L 227.645543 123.013594 
L 228.814134 116.591416 
L 229.982724 116.430575 
L 231.151315 104.739912 
L 232.319906 96.034624 
L 233.488496 102.191113 
L 234.657087 100.328213 
L 235.825677 106.200264 
L 236.994268 97.129675 
L 239.331449 97.90211 
L 241.66863 98.500678 
L 244.005811 98.917624 
L 247.511583 99.245774 
L 251.017354 99.302821 
L 255.691717 99.111321 
L 262.70326 98.554556 
L 277.894937 97.293957 
L 288.412252 96.688156 
L 300.098157 96.265648 
L 304.77252 96.152078 
L 304.77252 96.152078 
" clip-path="url(#p87204ea98d)" style="fill: none; stroke: #92278f; stroke-width: 2; stroke-linecap: round"/>
   </g>
   <g id="line2d_10">
    <path d="M 72.223 95.75 
L 73.391591 95.75 
L 75.728772 85.882378 
L 76.897362 81.374991 
L 78.065953 83.196987 
L 80.403134 75.04681 
L 81.571724 77.490703 
L 82.740315 73.797676 
L 83.908906 76.28868 
L 86.246087 69.614629 
L 87.414677 66.77964 
L 88.583268 64.256573 
L 89.751858 62.021992 
L 90.920449 60.050203 
L 92.089039 58.314957 
L 93.25763 56.790648 
L 95.594811 54.279919 
L 97.931992 52.347906 
L 99.100583 51.554829 
L 100.269173 52.116522 
L 102.606354 50.678578 
L 104.943535 49.563086 
L 107.280717 48.692123 
L 110.786488 47.72011 
L 111.955079 48.061251 
L 115.46085 47.273772 
L 118.966622 46.708704 
L 123.640984 46.18369 
L 129.483937 45.757465 
L 137.664071 45.402203 
L 147.012795 45.174971 
L 148.181386 45.267919 
L 158.698701 45.082807 
L 161.035882 45.14328 
L 166.878835 45.155589 
L 172.721787 45.553272 
L 175.058969 45.461363 
L 179.733331 46.077721 
L 180.901921 48.110989 
L 182.070512 51.270237 
L 183.239102 50.944282 
L 184.407693 55.116637 
L 186.744874 65.556763 
L 189.082055 75.942342 
L 190.250646 78.194223 
L 191.419236 82.419671 
L 192.587827 86.028206 
L 193.756417 89.059257 
L 196.093598 94.166106 
L 197.262189 91.810825 
L 198.43078 93.966482 
L 199.59937 91.640701 
L 200.767961 93.825779 
L 201.936551 96.411879 
L 204.273732 99.445335 
L 206.610913 102.197834 
L 207.779504 99.629597 
L 208.948094 97.539362 
L 210.116685 95.813582 
L 211.285276 93.223726 
L 212.453866 95.813395 
L 213.622457 97.339066 
L 214.791047 99.69497 
L 215.959638 101.696112 
L 217.128228 99.205112 
L 218.296819 100.655309 
L 219.465409 102.518784 
L 221.802591 105.180833 
L 226.476953 109.790421 
L 227.645543 110.811687 
L 228.814134 111.083101 
L 229.982724 108.708939 
L 231.151315 105.3034 
L 232.319906 102.458578 
L 233.488496 103.610912 
L 234.657087 105.037728 
L 235.825677 106.119399 
L 236.994268 103.22674 
L 242.83722 90.782611 
L 244.005811 88.930851 
L 245.174402 87.369746 
L 246.342992 86.058015 
L 247.511583 84.958056 
L 248.680173 84.036759 
L 251.017354 82.620213 
L 253.354535 81.628165 
L 255.691717 80.933045 
L 258.028898 80.445561 
L 261.534669 79.972656 
L 266.209031 79.629562 
L 273.220575 79.410625 
L 286.075071 79.310508 
L 304.77252 79.294563 
L 304.77252 79.294563 
" clip-path="url(#p87204ea98d)" style="fill: none; stroke: #b23493; stroke-width: 2; stroke-linecap: round"/>
   </g>
   <g id="line2d_11">
    <path d="M 72.223 95.75 
L 73.391591 95.75 
L 75.728772 83.063079 
L 76.897362 77.843114 
L 78.065953 77.843114 
L 79.234543 73.488432 
L 80.403134 69.968323 
L 81.571724 69.968323 
L 82.740315 67.19464 
L 83.908906 67.19464 
L 85.077496 65.052791 
L 86.246087 63.424494 
L 87.414677 62.201261 
L 88.583268 61.290518 
L 89.751858 60.616947 
L 90.920449 60.12124 
L 93.25763 59.491934 
L 95.594811 59.156506 
L 99.100583 58.924175 
L 104.943535 58.819741 
L 120.135213 58.780344 
L 179.733331 58.779479 
L 182.070512 66.270148 
L 183.239102 66.270148 
L 186.744874 78.316591 
L 187.913465 81.800729 
L 189.082055 84.811571 
L 190.250646 84.811571 
L 191.419236 87.318142 
L 192.587827 89.340894 
L 193.756417 90.932571 
L 194.925008 92.16037 
L 197.262189 92.16037 
L 198.43078 93.093023 
L 199.59937 93.093023 
L 200.767961 93.793234 
L 201.936551 93.793234 
L 203.105142 94.314329 
L 205.442323 94.983049 
L 206.610913 95.190861 
L 212.453866 95.190861 
L 213.622457 95.342816 
L 219.465409 95.453714 
L 222.971181 95.593378 
L 228.814134 95.706376 
L 304.77252 95.726993 
L 304.77252 95.726993 
" clip-path="url(#p87204ea98d)" style="fill: none; stroke: #d28dbd; stroke-width: 2; stroke-linecap: round"/>
   </g>
   <g id="LineCollection_1">
    <path d="M 72.223 95.75 
L 305.94111 95.75 
" clip-path="url(#p87204ea98d)" style="fill: none; stroke-dasharray: 1.5,2.475; stroke-dashoffset: 0; stroke: #808080; stroke-width: 1.5"/>
   </g>
   <g id="text_9">
    <!-- Fly 1 -->
    <g style="fill: #262626" transform="translate(129.526875 27.848)scale(0.156 -0.156)">
     <defs>
      <path id="ArialMT-46" d="M 525 0 
L 525 4581 
L 3616 4581 
L 3616 4041 
L 1131 4041 
L 1131 2622 
L 3281 2622 
L 3281 2081 
L 1131 2081 
L 1131 0 
L 525 0 
z
" transform="scale(0.015625)"/>
      <path id="ArialMT-79" d="M 397 -1278 
L 334 -750 
Q 519 -800 656 -800 
Q 844 -800 956 -737 
Q 1069 -675 1141 -563 
Q 1194 -478 1313 -144 
Q 1328 -97 1363 -6 
L 103 3319 
L 709 3319 
L 1400 1397 
Q 1534 1031 1641 628 
Q 1738 1016 1872 1384 
L 2581 3319 
L 3144 3319 
L 1881 -56 
Q 1678 -603 1566 -809 
Q 1416 -1088 1222 -1217 
Q 1028 -1347 759 -1347 
Q 597 -1347 397 -1278 
z
" transform="scale(0.015625)"/>
      <path id="ArialMT-20" transform="scale(0.015625)"/>
     </defs>
     <use xlink:href="#ArialMT-46"/>
     <use xlink:href="#ArialMT-6c" x="61.083984"/>
     <use xlink:href="#ArialMT-79" x="83.300781"/>
     <use xlink:href="#ArialMT-20" x="133.300781"/>
     <use xlink:href="#ArialMT-31" x="161.083984"/>
    </g>
   </g>
  </g>
  <g id="axes_2">
   <g id="matplotlib.axis_3">
    <g id="xtick_4">
     <g id="line2d_12">
      <path d="M 241.482 157.652 
L 241.482 33.848 
" clip-path="url(#p2bc6625e5d)" style="fill: none; stroke: #ffffff; stroke-linecap: round"/>
     </g>
     <g id="text_10">
      <!-- 0 -->
      <g style="fill: #262626" transform="translate(237.50593 177.387672)scale(0.143 -0.143)">
       <use xlink:href="#ArialMT-30"/>
      </g>
     </g>
    </g>
    <g id="xtick_5">
     <g id="line2d_13">
      <path d="M 336.617256 157.652 
L 336.617256 33.848 
" clip-path="url(#p2bc6625e5d)" style="fill: none; stroke: #ffffff; stroke-linecap: round"/>
     </g>
     <g id="text_11">
      <!-- 100 -->
      <g style="fill: #262626" transform="translate(324.689045 177.387672)scale(0.143 -0.143)">
       <use xlink:href="#ArialMT-31"/>
       <use xlink:href="#ArialMT-30" x="55.615234"/>
       <use xlink:href="#ArialMT-30" x="111.230469"/>
      </g>
     </g>
    </g>
    <g id="text_12">
     <!-- Trial -->
     <g style="fill: #262626" transform="translate(300.815094 195.395984)scale(0.156 -0.156)">
      <use xlink:href="#ArialMT-54"/>
      <use xlink:href="#ArialMT-72" x="57.333984"/>
      <use xlink:href="#ArialMT-69" x="90.634766"/>
      <use xlink:href="#ArialMT-61" x="112.851562"/>
      <use xlink:href="#ArialMT-6c" x="168.466797"/>
     </g>
    </g>
   </g>
   <g id="matplotlib.axis_4"/>
   <g id="line2d_14">
    <path d="M 255.752288 106.067 
L 256.703641 99.189 
L 257.654994 106.067 
L 260.509051 85.433 
L 261.460404 85.433 
L 262.411756 92.311 
L 265.265814 92.311 
L 268.119872 71.677 
L 270.973929 71.677 
L 271.925282 64.799 
L 272.876635 71.677 
L 274.77934 71.677 
L 275.730692 78.555 
L 276.682045 78.555 
L 277.633397 85.433 
L 278.58475 85.433 
L 279.536103 78.555 
L 282.39016 78.555 
L 283.341513 71.677 
L 284.292865 78.555 
L 285.244218 78.555 
L 286.195571 85.433 
L 287.146923 78.555 
L 288.098276 78.555 
L 289.049628 85.433 
L 290.000981 85.433 
L 291.903686 71.677 
L 292.855038 78.555 
L 295.709096 78.555 
L 296.660449 85.433 
L 297.611801 85.433 
L 298.563154 78.555 
L 299.514506 78.555 
L 300.465859 71.677 
L 302.368564 71.677 
L 304.271269 57.921 
L 305.222622 57.921 
L 306.173974 64.799 
L 307.125327 57.921 
L 308.076679 64.799 
L 309.979385 64.799 
L 310.930737 57.921 
L 315.6875 57.921 
L 316.638853 64.799 
L 317.590205 64.799 
L 319.49291 78.555 
L 320.444263 71.677 
L 322.346968 71.677 
L 323.298321 78.555 
L 325.201026 78.555 
L 329.006436 106.067 
L 331.860494 106.067 
L 332.811846 99.189 
L 333.763199 99.189 
L 335.665904 112.945 
L 336.617256 106.067 
L 337.568609 106.067 
L 338.519962 112.945 
L 339.471314 112.945 
L 340.422667 106.067 
L 342.325372 106.067 
L 343.276724 99.189 
L 344.228077 106.067 
L 345.179429 106.067 
L 346.130782 112.945 
L 347.082135 112.945 
L 348.033487 106.067 
L 349.936192 106.067 
L 350.887545 112.945 
L 352.79025 99.189 
L 353.741603 106.067 
L 354.692955 106.067 
L 356.59566 92.311 
L 357.547013 92.311 
L 360.401071 71.677 
L 361.352423 71.677 
L 362.303776 78.555 
L 363.255128 71.677 
L 365.157833 71.677 
L 367.060538 85.433 
L 368.011891 85.433 
L 369.914596 99.189 
L 371.817301 99.189 
L 372.768654 106.067 
L 373.720006 106.067 
L 374.671359 112.945 
L 379.428122 112.945 
L 383.233532 85.433 
L 384.184885 85.433 
L 386.08759 99.189 
L 387.038942 99.189 
L 387.990295 106.067 
L 388.941647 106.067 
L 389.893 112.945 
L 391.795705 112.945 
L 392.747058 106.067 
L 393.69841 106.067 
L 395.601115 119.823 
L 396.552468 119.823 
L 397.503821 126.701 
L 403.211936 85.433 
L 403.211936 85.433 
" clip-path="url(#p2bc6625e5d)" style="fill: none; stroke: #1a1a1a; stroke-opacity: 0.5; stroke-width: 2; stroke-linecap: round"/>
   </g>
   <g id="line2d_15">
    <path d="M 241.482 95.75 
L 242.433353 90.377834 
L 243.384705 96.685361 
L 244.336058 84.579486 
L 245.28741 91.239082 
L 246.238763 96.31443 
L 247.190115 100.18434 
L 248.141468 88.415009 
L 249.092821 79.530333 
L 250.044173 72.829135 
L 250.995526 67.890262 
L 251.946878 75.133237 
L 252.898231 81.316507 
L 253.849583 92.891304 
L 254.800936 95.233899 
L 255.752288 97.165219 
L 256.703641 88.610493 
L 257.654994 81.796065 
L 258.606346 86.108937 
L 259.557699 79.936937 
L 260.509051 75.03454 
L 261.460404 71.156345 
L 262.411756 68.075047 
L 263.363109 74.068794 
L 264.314462 70.646768 
L 265.265814 67.877344 
L 266.217167 73.706954 
L 267.168519 70.550064 
L 268.119872 67.957009 
L 269.071224 65.808501 
L 270.022577 71.710886 
L 270.973929 69.064489 
L 271.925282 66.850463 
L 272.876635 64.982987 
L 273.827987 76.021934 
L 274.77934 73.129697 
L 275.730692 70.642515 
L 276.682045 80.841035 
L 277.633397 89.051859 
L 278.58475 90.163611 
L 279.536103 85.597063 
L 280.487455 81.618405 
L 281.438808 78.160311 
L 282.39016 75.154509 
L 283.341513 72.537741 
L 284.292865 70.254039 
L 285.244218 80.324407 
L 286.195571 77.242654 
L 287.146923 85.962096 
L 289.049628 79.143184 
L 290.000981 82.110539 
L 290.952333 84.634992 
L 291.903686 80.751889 
L 292.855038 77.383345 
L 293.806391 80.952922 
L 294.757744 77.439242 
L 295.709096 74.41404 
L 296.660449 71.802885 
L 297.611801 76.44415 
L 298.563154 73.50814 
L 299.514506 70.981331 
L 300.465859 68.797871 
L 302.368564 65.250201 
L 304.271269 62.529591 
L 306.173974 60.407426 
L 307.125327 71.207156 
L 308.076679 69.164212 
L 309.028032 74.100535 
L 310.930737 69.481228 
L 312.833442 65.922538 
L 314.736147 63.147088 
L 316.638853 60.955549 
L 317.590205 71.711007 
L 318.541558 72.661397 
L 319.49291 82.668793 
L 320.444263 90.619046 
L 322.346968 82.341206 
L 323.298321 90.164291 
L 324.249673 96.166823 
L 325.201026 96.2852 
L 326.152378 96.153753 
L 327.103731 101.691921 
L 328.055083 106.49006 
L 329.006436 110.616956 
L 329.957788 114.158427 
L 330.909141 104.979233 
L 331.860494 109.019014 
L 332.811846 106.481726 
L 333.763199 104.290108 
L 334.714551 108.837981 
L 335.665904 112.722065 
L 336.617256 116.037836 
L 337.568609 106.465673 
L 338.519962 110.364278 
L 339.471314 113.753736 
L 340.422667 110.274643 
L 341.374019 101.860261 
L 342.325372 106.276508 
L 343.276724 110.138147 
L 344.228077 107.39255 
L 345.179429 106.872082 
L 346.130782 111.207942 
L 347.082135 114.876813 
L 348.033487 110.894725 
L 348.98484 107.578125 
L 349.936192 111.95352 
L 350.887545 115.62747 
L 351.838897 118.718499 
L 352.79025 108.51205 
L 353.741603 100.399047 
L 354.692955 105.043031 
L 355.644308 97.881529 
L 356.59566 92.412803 
L 357.547013 92.662798 
L 358.498365 87.612194 
L 359.449718 87.947602 
L 360.401071 88.090027 
L 361.352423 88.04738 
L 362.303776 87.836224 
L 363.255128 96.473661 
L 364.206481 95.510683 
L 365.157833 102.403074 
L 366.109186 108.141429 
L 367.060538 112.874269 
L 368.011891 116.761924 
L 368.963244 119.962527 
L 369.914596 122.613018 
L 370.865949 124.824943 
L 371.817301 113.800999 
L 372.768654 104.538204 
L 373.720006 108.750686 
L 374.671359 106.188953 
L 375.622712 105.774278 
L 376.574064 103.373389 
L 377.525417 108.502724 
L 378.476769 105.494771 
L 379.428122 110.381311 
L 380.379474 114.45302 
L 381.330827 110.34118 
L 382.282179 101.148729 
L 384.184885 98.412351 
L 385.136237 104.443001 
L 386.08759 109.509216 
L 387.038942 113.732064 
L 387.990295 113.091829 
L 388.941647 112.604978 
L 389.893 116.870365 
L 390.844353 116.231365 
L 391.795705 115.739626 
L 392.747058 104.460161 
L 393.69841 95.661379 
L 394.649763 96.487782 
L 395.601115 103.223622 
L 396.552468 103.506674 
L 397.503821 94.804427 
L 398.455173 95.867017 
L 400.357878 93.680239 
L 401.309231 92.506082 
L 402.260583 85.348485 
L 403.211936 79.547083 
L 404.163288 79.694616 
L 405.114641 84.26733 
L 406.065994 87.984331 
L 407.017346 91.006921 
L 407.968699 93.483565 
L 408.920051 95.536106 
L 411.774109 100.498982 
L 414.628167 104.898172 
L 416.530872 107.494122 
L 418.433577 109.82052 
L 420.336282 111.890203 
L 422.238987 113.72216 
L 424.141692 115.338204 
L 426.99575 117.406338 
L 429.849808 119.110839 
L 430.80116 119.609472 
L 430.80116 119.609472 
" clip-path="url(#p2bc6625e5d)" style="fill: none; stroke: #701f60; stroke-width: 2; stroke-linecap: round"/>
   </g>
   <g id="line2d_16">
    <path d="M 241.482 95.75 
L 243.384705 95.75 
L 244.336058 87.182028 
L 245.28741 89.444931 
L 246.238763 91.135087 
L 247.190115 92.391964 
L 248.141468 84.33512 
L 249.092821 77.595698 
L 250.044173 72.162444 
L 250.995526 67.881984 
L 251.946878 74.390089 
L 252.898231 79.744019 
L 253.849583 91.802083 
L 254.800936 93.07371 
L 255.752288 94.014848 
L 256.703641 86.297288 
L 257.654994 79.800849 
L 258.606346 83.994294 
L 259.557699 77.961574 
L 260.509051 73.078874 
L 261.460404 69.185038 
L 262.411756 66.097743 
L 263.363109 72.898464 
L 264.314462 69.246733 
L 265.265814 66.322262 
L 266.217167 73.093825 
L 267.168519 69.583899 
L 268.119872 66.743451 
L 269.071224 64.439135 
L 270.022577 71.490829 
L 270.973929 68.465059 
L 271.925282 65.982127 
L 272.876635 63.936891 
L 273.827987 77.004058 
L 274.77934 73.4821 
L 275.730692 70.495494 
L 276.682045 82.406622 
L 277.633397 91.269441 
L 278.58475 92.60796 
L 280.487455 82.568468 
L 281.438808 78.433017 
L 282.39016 74.85502 
L 283.341513 71.780938 
L 284.292865 69.149606 
L 285.244218 81.188372 
L 286.195571 77.501086 
L 287.146923 87.392333 
L 289.049628 79.367283 
L 290.000981 83.344041 
L 290.952333 86.416457 
L 291.903686 81.914206 
L 292.855038 77.95735 
L 293.806391 82.320477 
L 294.757744 78.211691 
L 295.709096 74.659878 
L 296.660449 71.610258 
L 297.611801 77.419287 
L 298.563154 73.965299 
L 299.514506 71.005627 
L 300.465859 68.476774 
L 301.417212 66.317305 
L 302.368564 64.471375 
L 303.319917 62.890099 
L 305.222622 60.360835 
L 306.173974 59.348124 
L 307.125327 72.686867 
L 308.076679 70.173311 
L 309.028032 76.392049 
L 310.930737 70.771425 
L 311.88209 68.463662 
L 313.784795 64.691702 
L 315.6875 61.828262 
L 316.638853 60.665138 
L 317.590205 74.032348 
L 318.541558 73.178696 
L 319.49291 84.029426 
L 320.444263 91.700274 
L 322.346968 83.44516 
L 323.298321 91.295906 
L 324.249673 96.92876 
L 326.152378 95.742623 
L 328.055083 106.148238 
L 329.006436 110.53981 
L 329.957788 114.385497 
L 330.909141 104.15628 
L 331.860494 108.581703 
L 332.811846 105.405559 
L 333.763199 102.910503 
L 334.714551 107.900707 
L 335.665904 112.258269 
L 336.617256 116.016289 
L 337.568609 105.222165 
L 338.519962 109.674326 
L 339.471314 113.593568 
L 340.422667 109.223346 
L 341.374019 100.18376 
L 343.276724 109.621207 
L 344.228077 106.175348 
L 345.179429 106.555705 
L 346.130782 111.292489 
L 347.082135 115.34491 
L 348.033487 110.514805 
L 348.98484 106.760475 
L 349.936192 111.621116 
L 350.887545 115.745534 
L 351.838897 119.215415 
L 352.79025 107.470479 
L 353.741603 98.726212 
L 354.692955 104.00435 
L 355.644308 96.320917 
L 356.59566 90.725647 
L 357.547013 90.270101 
L 358.498365 84.994362 
L 359.449718 84.690228 
L 360.401071 84.517725 
L 362.303776 84.501049 
L 363.255128 94.462305 
L 364.206481 94.111231 
L 365.157833 101.588221 
L 366.109186 107.78601 
L 367.060538 113.004685 
L 368.011891 117.322589 
L 368.963244 120.863908 
L 369.914596 123.760984 
L 370.865949 126.135106 
L 371.817301 113.148749 
L 372.768654 102.751783 
L 373.720006 107.755859 
L 374.671359 104.684807 
L 375.622712 104.981963 
L 376.574064 102.46366 
L 377.525417 108.150021 
L 378.476769 104.880444 
L 379.428122 110.318157 
L 380.379474 114.893021 
L 381.330827 110.098292 
L 382.282179 99.879877 
L 383.233532 98.529509 
L 384.184885 97.480372 
L 385.136237 104.077582 
L 386.08759 109.745061 
L 387.038942 114.504429 
L 387.990295 114.289494 
L 388.941647 113.951518 
L 389.893 118.322197 
L 391.795705 117.146343 
L 392.747058 104.695171 
L 393.69841 95.254458 
L 394.649763 95.766546 
L 395.601115 102.848624 
L 396.552468 102.912464 
L 397.503821 93.776103 
L 398.455173 94.626282 
L 400.357878 94.050482 
L 401.309231 93.823688 
L 402.260583 86.399299 
L 403.211936 80.13833 
L 404.163288 80.646031 
L 405.114641 84.644319 
L 406.065994 87.697007 
L 407.017346 90.002175 
L 407.968699 91.730298 
L 408.920051 93.017787 
L 409.871404 93.970666 
L 410.822756 94.670377 
L 411.774109 95.179166 
L 413.676814 95.802416 
L 416.530872 96.286549 
L 420.336282 96.632263 
L 425.093045 96.761459 
L 430.80116 96.690934 
L 430.80116 96.690934 
" clip-path="url(#p2bc6625e5d)" style="fill: none; stroke: #92278f; stroke-width: 2; stroke-linecap: round"/>
   </g>
   <g id="line2d_17">
    <path d="M 241.482 95.75 
L 243.384705 95.75 
L 244.336058 90.696146 
L 246.238763 91.920791 
L 247.190115 92.390711 
L 249.092821 82.962626 
L 250.995526 74.837983 
L 251.946878 77.308013 
L 252.898231 79.457696 
L 253.849583 86.092313 
L 255.752288 87.679507 
L 257.654994 79.590455 
L 258.606346 81.199486 
L 260.509051 74.143062 
L 262.411756 68.300438 
L 263.363109 70.951983 
L 265.265814 65.862603 
L 266.217167 68.599928 
L 268.119872 64.124275 
L 269.071224 62.227081 
L 270.022577 65.063254 
L 271.925282 61.454237 
L 272.876635 59.925021 
L 273.827987 65.898242 
L 275.730692 62.529971 
L 277.633397 74.469551 
L 278.58475 75.689323 
L 280.487455 71.608676 
L 282.39016 68.142789 
L 284.292865 65.221154 
L 285.244218 70.949735 
L 286.195571 69.428462 
L 287.146923 74.933201 
L 289.049628 71.855235 
L 290.952333 74.162343 
L 292.855038 71.37025 
L 293.806391 72.636778 
L 295.709096 70.153537 
L 296.660449 69.042064 
L 297.611801 70.580108 
L 299.514506 68.50462 
L 301.417212 66.710119 
L 303.319917 65.158396 
L 305.222622 63.815274 
L 306.173974 63.212411 
L 307.125327 68.596377 
L 308.076679 67.920827 
L 309.028032 69.5849 
L 311.88209 67.720038 
L 314.736147 66.182841 
L 316.638853 65.308423 
L 317.590205 70.581617 
L 318.541558 72.422531 
L 319.49291 77.046485 
L 320.444263 81.037453 
L 322.346968 79.746889 
L 323.298321 83.27506 
L 324.249673 86.200629 
L 326.152378 90.96133 
L 327.103731 92.703605 
L 328.055083 94.132066 
L 329.006436 95.304308 
L 329.957788 96.267863 
L 330.909141 95.315492 
L 331.860494 96.232939 
L 332.811846 98.659388 
L 333.763199 100.773335 
L 336.617256 103.081663 
L 337.568609 101.04129 
L 339.471314 102.408343 
L 340.422667 103.930395 
L 341.374019 101.791573 
L 343.276724 103.030611 
L 344.228077 104.435066 
L 345.179429 102.144066 
L 347.082135 103.476653 
L 348.033487 104.836332 
L 348.98484 105.991345 
L 351.838897 107.717385 
L 352.79025 104.96336 
L 353.741603 102.71582 
L 354.692955 103.253577 
L 355.644308 101.347264 
L 356.59566 99.798933 
L 357.547013 101.613181 
L 358.498365 100.014976 
L 359.449718 101.801146 
L 360.401071 103.345962 
L 361.352423 104.670436 
L 362.303776 105.798925 
L 363.255128 106.301403 
L 364.206481 107.168126 
L 367.060538 108.520284 
L 370.865949 110.032258 
L 371.817301 106.972695 
L 372.768654 104.489307 
L 373.720006 104.840183 
L 374.671359 105.816487 
L 375.622712 103.793474 
L 376.574064 104.998249 
L 377.525417 105.422443 
L 378.476769 106.371501 
L 380.379474 107.153633 
L 381.330827 107.810057 
L 382.282179 105.15369 
L 384.184885 106.931043 
L 387.038942 107.971727 
L 388.941647 103.881245 
L 389.893 104.393037 
L 391.795705 99.843704 
L 392.747058 98.390559 
L 393.69841 97.202086 
L 394.649763 94.771015 
L 395.601115 95.727534 
L 396.552468 93.26277 
L 397.503821 92.482445 
L 398.455173 90.443921 
L 401.309231 97.925676 
L 402.260583 96.546611 
L 403.211936 95.412792 
L 404.163288 97.958625 
L 406.065994 92.880616 
L 407.017346 90.701977 
L 407.968699 88.842908 
L 408.920051 87.267267 
L 409.871404 85.937873 
L 410.822756 84.819551 
L 412.725462 83.093024 
L 414.628167 81.879947 
L 416.530872 81.028554 
L 418.433577 80.430974 
L 421.287635 79.850983 
L 424.141692 79.509327 
L 428.898455 79.221932 
L 430.80116 79.161457 
L 430.80116 79.161457 
" clip-path="url(#p2bc6625e5d)" style="fill: none; stroke: #b23493; stroke-width: 2; stroke-linecap: round"/>
   </g>
   <g id="line2d_18">
    <path d="M 241.482 95.75 
L 243.384705 95.75 
L 244.336058 89.088954 
L 247.190115 89.088954 
L 248.141468 83.063079 
L 249.092821 77.843114 
L 250.044173 73.488432 
L 250.995526 69.968323 
L 252.898231 69.968323 
L 253.849583 75.310256 
L 255.752288 75.310256 
L 256.703641 72.170207 
L 257.654994 69.713131 
L 258.606346 69.713131 
L 259.557699 67.826009 
L 260.509051 66.39729 
L 261.460404 65.327336 
L 262.411756 64.532575 
L 263.363109 64.532575 
L 264.314462 63.945799 
L 265.265814 63.51452 
L 266.217167 63.51452 
L 268.119872 62.967677 
L 269.071224 62.799234 
L 270.022577 62.799234 
L 272.876635 62.522202 
L 273.827987 66.470327 
L 275.730692 66.375802 
L 277.633397 74.584714 
L 284.292865 74.473711 
L 285.244218 78.336974 
L 286.195571 78.331392 
L 287.146923 81.816215 
L 306.173974 81.800821 
L 307.125327 84.811667 
L 316.638853 84.811577 
L 317.590205 87.318148 
L 318.541558 87.318148 
L 319.49291 89.3409 
L 320.444263 90.932577 
L 322.346968 90.932574 
L 323.298321 92.160373 
L 324.249673 93.093026 
L 326.152378 93.093026 
L 327.103731 93.793237 
L 328.055083 94.314332 
L 329.957788 94.983052 
L 330.909141 94.983051 
L 331.860494 95.190863 
L 333.763199 95.190863 
L 336.617256 95.534538 
L 341.374019 95.636188 
L 347.082135 95.71832 
L 430.80116 95.749962 
L 430.80116 95.749962 
" clip-path="url(#p2bc6625e5d)" style="fill: none; stroke: #d28dbd; stroke-width: 2; stroke-linecap: round"/>
   </g>
   <g id="LineCollection_2">
    <path d="M 241.482 95.75 
L 431.752513 95.75 
" clip-path="url(#p2bc6625e5d)" style="fill: none; stroke-dasharray: 1.5,2.475; stroke-dashoffset: 0; stroke: #808080; stroke-width: 1.5"/>
   </g>
   <g id="text_13">
    <!-- Fly 2 -->
    <g style="fill: #262626" transform="translate(298.785875 27.848)scale(0.156 -0.156)">
     <defs>
      <path id="ArialMT-32" d="M 3222 541 
L 3222 0 
L 194 0 
Q 188 203 259 391 
Q 375 700 629 1000 
Q 884 1300 1366 1694 
Q 2113 2306 2375 2664 
Q 2638 3022 2638 3341 
Q 2638 3675 2398 3904 
Q 2159 4134 1775 4134 
Q 1369 4134 1125 3890 
Q 881 3647 878 3216 
L 300 3275 
Q 359 3922 746 4261 
Q 1134 4600 1788 4600 
Q 2447 4600 2831 4234 
Q 3216 3869 3216 3328 
Q 3216 3053 3103 2787 
Q 2991 2522 2730 2228 
Q 2469 1934 1863 1422 
Q 1356 997 1212 845 
Q 1069 694 975 541 
L 3222 541 
z
" transform="scale(0.015625)"/>
     </defs>
     <use xlink:href="#ArialMT-46"/>
     <use xlink:href="#ArialMT-6c" x="61.083984"/>
     <use xlink:href="#ArialMT-79" x="83.300781"/>
     <use xlink:href="#ArialMT-20" x="133.300781"/>
     <use xlink:href="#ArialMT-32" x="161.083984"/>
    </g>
   </g>
  </g>
  <g id="axes_3">
   <g id="matplotlib.axis_5">
    <g id="xtick_6">
     <g id="line2d_19">
      <path d="M 410.741 157.652 
L 410.741 33.848 
" clip-path="url(#pecd3076054)" style="fill: none; stroke: #ffffff; stroke-linecap: round"/>
     </g>
     <g id="text_14">
      <!-- 0 -->
      <g style="fill: #262626" transform="translate(406.76493 177.387672)scale(0.143 -0.143)">
       <use xlink:href="#ArialMT-30"/>
      </g>
     </g>
    </g>
    <g id="xtick_7">
     <g id="line2d_20">
      <path d="M 498.041588 157.652 
L 498.041588 33.848 
" clip-path="url(#pecd3076054)" style="fill: none; stroke: #ffffff; stroke-linecap: round"/>
     </g>
     <g id="text_15">
      <!-- 100 -->
      <g style="fill: #262626" transform="translate(486.113377 177.387672)scale(0.143 -0.143)">
       <use xlink:href="#ArialMT-31"/>
       <use xlink:href="#ArialMT-30" x="55.615234"/>
       <use xlink:href="#ArialMT-30" x="111.230469"/>
      </g>
     </g>
    </g>
    <g id="text_16">
     <!-- Trial -->
     <g style="fill: #262626" transform="translate(470.074094 195.395984)scale(0.156 -0.156)">
      <use xlink:href="#ArialMT-54"/>
      <use xlink:href="#ArialMT-72" x="57.333984"/>
      <use xlink:href="#ArialMT-69" x="90.634766"/>
      <use xlink:href="#ArialMT-61" x="112.851562"/>
      <use xlink:href="#ArialMT-6c" x="168.466797"/>
     </g>
    </g>
   </g>
   <g id="matplotlib.axis_6"/>
   <g id="line2d_21">
    <path d="M 423.836088 106.067 
L 424.709094 112.945 
L 426.455106 112.945 
L 427.328112 119.823 
L 428.201118 112.945 
L 429.074124 112.945 
L 429.947129 119.823 
L 433.439153 119.823 
L 437.804182 85.433 
L 439.550194 85.433 
L 440.4232 78.555 
L 442.169212 92.311 
L 446.534241 57.921 
L 448.280253 57.921 
L 449.153259 64.799 
L 450.899271 64.799 
L 451.772276 71.677 
L 453.518288 71.677 
L 455.2643 57.921 
L 458.756324 57.921 
L 459.629329 64.799 
L 461.375341 64.799 
L 462.248347 57.921 
L 463.121353 64.799 
L 463.994359 64.799 
L 464.867365 57.921 
L 468.359388 85.433 
L 470.978406 85.433 
L 471.851412 92.311 
L 472.724418 85.433 
L 473.597424 92.311 
L 475.343435 92.311 
L 476.216441 85.433 
L 477.962453 85.433 
L 480.581471 64.799 
L 484.9465 64.799 
L 485.819506 71.677 
L 486.692512 71.677 
L 487.565518 78.555 
L 488.438524 78.555 
L 489.311529 85.433 
L 490.184535 85.433 
L 493.676559 112.945 
L 495.422571 112.945 
L 496.295576 119.823 
L 498.041588 119.823 
L 498.914594 112.945 
L 499.7876 112.945 
L 500.660606 106.067 
L 501.533612 112.945 
L 502.406618 106.067 
L 503.279624 112.945 
L 506.771647 112.945 
L 507.644653 106.067 
L 509.390665 106.067 
L 510.263671 112.945 
L 512.882688 112.945 
L 513.755694 119.823 
L 514.6287 119.823 
L 515.501706 126.701 
L 516.374712 119.823 
L 517.247718 119.823 
L 518.120724 112.945 
L 519.866735 112.945 
L 520.739741 119.823 
L 521.612747 119.823 
L 523.358759 106.067 
L 524.231765 106.067 
L 525.104771 112.945 
L 528.596794 112.945 
L 529.4698 119.823 
L 530.342806 119.823 
L 531.215812 126.701 
L 533.834829 126.701 
L 536.453847 147.335 
L 552.167953 147.335 
L 553.913965 133.579 
L 554.786971 133.579 
L 556.532982 119.823 
L 560.898012 119.823 
L 563.517029 99.189 
L 564.390035 99.189 
L 565.263041 92.311 
L 566.136047 99.189 
L 567.882059 99.189 
L 568.755065 106.067 
L 569.628071 106.067 
L 571.374082 92.311 
L 571.374082 92.311 
" clip-path="url(#pecd3076054)" style="fill: none; stroke: #1a1a1a; stroke-opacity: 0.5; stroke-width: 2; stroke-linecap: round"/>
   </g>
   <g id="line2d_22">
    <path d="M 410.741 95.75 
L 411.614006 90.377834 
L 412.487012 79.168069 
L 413.360018 70.951756 
L 414.233024 69.877728 
L 415.106029 64.438265 
L 415.979035 78.999674 
L 416.852041 72.460184 
L 417.725047 67.640208 
L 418.598053 80.947847 
L 419.471059 92.244339 
L 420.344065 94.499965 
L 421.217071 96.381713 
L 422.090076 104.235921 
L 424.709094 106.649217 
L 425.5821 113.13217 
L 426.455106 101.64173 
L 427.328112 92.8579 
L 428.201118 94.609644 
L 429.074124 93.417737 
L 429.947129 86.218372 
L 430.820135 95.625013 
L 431.693141 102.57083 
L 432.566147 102.943879 
L 433.439153 103.447744 
L 434.312159 109.616447 
L 435.185165 99.577497 
L 436.058171 92.016138 
L 436.931176 91.547518 
L 437.804182 90.939485 
L 438.677188 84.552167 
L 439.550194 84.452607 
L 440.4232 78.982472 
L 441.296206 79.247702 
L 442.169212 83.787133 
L 443.042218 87.487888 
L 443.915224 86.883542 
L 444.788229 80.619057 
L 445.661235 75.627367 
L 446.534241 71.669621 
L 447.407247 72.383906 
L 448.280253 68.891823 
L 449.153259 69.707468 
L 450.026265 81.724297 
L 450.899271 76.919395 
L 451.772276 73.039998 
L 452.645282 78.19055 
L 453.518288 78.642218 
L 454.391294 74.318042 
L 455.2643 74.940595 
L 456.137306 75.416691 
L 457.010312 71.292722 
L 458.756324 72.486016 
L 459.629329 72.881386 
L 460.502335 85.183047 
L 462.248347 84.151385 
L 463.121353 83.525165 
L 463.994359 87.864818 
L 465.740371 85.69764 
L 466.613376 89.833772 
L 467.486382 93.123983 
L 468.359388 95.753509 
L 469.232394 97.876666 
L 470.1054 88.762227 
L 470.978406 81.600328 
L 471.851412 81.202015 
L 472.724418 92.428863 
L 473.597424 91.214673 
L 474.470429 93.80478 
L 475.343435 86.142394 
L 476.216441 79.947969 
L 477.089447 79.948203 
L 477.962453 79.827158 
L 478.835459 74.536846 
L 479.708465 74.85188 
L 480.581471 70.498054 
L 481.454476 71.083758 
L 482.327482 83.410577 
L 484.073494 82.814164 
L 484.9465 82.37059 
L 485.819506 86.861401 
L 486.692512 90.467526 
L 487.565518 93.367708 
L 488.438524 95.719554 
L 489.311529 93.798799 
L 490.184535 102.618465 
L 491.057541 99.424496 
L 491.930547 106.957304 
L 492.803553 112.987794 
L 493.676559 117.739375 
L 494.549565 121.4741 
L 495.422571 120.711407 
L 496.295576 108.786147 
L 497.168582 108.765943 
L 498.041588 104.923911 
L 498.914594 110.839292 
L 499.7876 106.702232 
L 500.660606 106.947987 
L 501.533612 103.32881 
L 502.406618 104.048695 
L 503.279624 100.795649 
L 504.152629 107.822559 
L 505.025635 113.461823 
L 505.898641 117.935055 
L 506.771647 121.482329 
L 507.644653 120.671771 
L 508.517659 114.783107 
L 509.390665 109.857772 
L 510.263671 114.87839 
L 511.136676 118.890385 
L 512.009682 122.105795 
L 512.882688 116.373068 
L 513.755694 115.7521 
L 514.6287 119.613637 
L 515.501706 118.873024 
L 516.374712 122.321086 
L 517.247718 116.374884 
L 518.120724 115.841525 
L 518.993729 110.695313 
L 519.866735 110.676898 
L 521.612747 111.010229 
L 522.485753 99.829448 
L 523.358759 91.400406 
L 524.231765 90.565657 
L 525.104771 99.183681 
L 525.977776 105.821525 
L 526.850782 111.269001 
L 527.723788 110.999921 
L 528.596794 115.72893 
L 529.4698 115.222845 
L 530.342806 119.337751 
L 531.215812 118.664002 
L 532.088818 122.266632 
L 532.961824 121.476254 
L 533.834829 124.65622 
L 534.707835 123.785904 
L 535.580841 126.618317 
L 536.453847 125.694102 
L 537.326853 128.240436 
L 538.199859 127.280654 
L 539.072865 129.590687 
L 539.945871 131.384963 
L 541.691882 129.365934 
L 542.564888 128.475889 
L 543.437894 130.814335 
L 544.3109 129.875889 
L 545.183906 131.94735 
L 546.929918 130.093614 
L 547.802924 132.241292 
L 549.548935 130.452104 
L 551.294947 129.003224 
L 552.167953 128.410635 
L 553.040959 131.24149 
L 553.913965 123.678135 
L 554.786971 110.598459 
L 555.659976 110.925621 
L 556.532982 99.604797 
L 557.405988 91.08309 
L 558.278994 93.335137 
L 559.152 101.367342 
L 560.025006 102.099849 
L 560.898012 108.614767 
L 561.771018 108.750977 
L 562.644024 98.466387 
L 563.517029 90.778936 
L 564.390035 90.209529 
L 565.263041 92.492751 
L 566.136047 91.512373 
L 567.009053 93.802312 
L 567.882059 92.465358 
L 568.755065 94.7914 
L 569.628071 96.718066 
L 570.501076 88.402502 
L 571.374082 81.727956 
L 572.247088 81.533759 
L 573.120094 85.992437 
L 573.9931 89.591959 
L 574.866106 92.502804 
L 575.739112 94.876434 
L 577 97.620303 
L 577 97.620303 
" clip-path="url(#pecd3076054)" style="fill: none; stroke: #701f60; stroke-width: 2; stroke-linecap: round"/>
   </g>
   <g id="line2d_23">
    <path d="M 410.741 95.75 
L 411.614006 95.75 
L 412.487012 87.182028 
L 413.360018 79.871398 
L 414.233024 80.894217 
L 415.106029 74.723584 
L 415.979035 88.004232 
L 416.852041 80.918834 
L 417.725047 75.12334 
L 418.598053 87.988332 
L 419.471059 97.798186 
L 421.217071 98.176505 
L 422.090076 105.638191 
L 424.709094 104.714468 
L 425.5821 111.401352 
L 426.455106 99.580327 
L 427.328112 90.903244 
L 428.201118 92.427391 
L 429.074124 92.305291 
L 429.947129 85.040303 
L 430.820135 95.487735 
L 431.693141 102.957112 
L 433.439153 102.867658 
L 434.312159 109.505473 
L 435.185165 98.449182 
L 436.058171 90.439567 
L 437.804182 90.26326 
L 438.677188 83.495151 
L 439.550194 83.805493 
L 440.4232 77.990365 
L 441.296206 78.584149 
L 442.169212 83.050116 
L 443.042218 86.484862 
L 443.915224 86.724932 
L 444.788229 80.240359 
L 445.661235 74.941411 
L 446.534241 70.692455 
L 447.407247 71.565044 
L 448.280253 67.925907 
L 449.153259 68.893114 
L 450.026265 82.278914 
L 450.899271 76.955998 
L 451.772276 72.621981 
L 452.645282 78.305327 
L 453.518288 78.708635 
L 454.391294 73.99568 
L 456.137306 75.294312 
L 457.010312 71.013159 
L 459.629329 73.680698 
L 460.502335 86.608676 
L 463.121353 87.256175 
L 463.994359 89.659444 
L 465.740371 89.937436 
L 466.613376 91.643818 
L 467.486382 92.909943 
L 468.359388 93.844297 
L 469.232394 94.529557 
L 470.1054 86.496552 
L 470.978406 79.721905 
L 471.851412 80.499592 
L 472.724418 92.437528 
L 473.597424 92.37713 
L 474.470429 93.483959 
L 475.343435 85.785543 
L 476.216441 79.324175 
L 477.962453 80.725245 
L 478.835459 75.065777 
L 479.708465 76.005347 
L 480.581471 71.238314 
L 481.454476 72.319391 
L 482.327482 85.561284 
L 484.9465 86.502449 
L 485.819506 89.084072 
L 486.692512 91.017167 
L 487.565518 92.455673 
L 488.438524 93.520169 
L 489.311529 93.45895 
L 490.184535 102.246843 
L 491.057541 100.366843 
L 491.930547 107.819948 
L 492.803553 114.003436 
L 493.676559 118.985857 
L 494.549565 122.93484 
L 495.422571 121.880429 
L 496.295576 108.451142 
L 497.168582 108.101748 
L 498.041588 104.749989 
L 498.914594 111.117794 
L 499.7876 107.061052 
L 500.660606 106.737486 
L 501.533612 103.714244 
L 502.406618 103.520821 
L 503.279624 101.295878 
L 504.152629 108.429639 
L 505.025635 114.332265 
L 505.898641 119.092743 
L 506.771647 122.879694 
L 507.644653 121.939082 
L 508.517659 115.672765 
L 509.390665 110.609412 
L 510.263671 115.925858 
L 511.136676 120.20775 
L 512.009682 123.6262 
L 512.882688 117.090319 
L 513.755694 116.494006 
L 514.6287 120.606057 
L 515.501706 119.85202 
L 516.374712 123.390871 
L 517.247718 116.890944 
L 518.120724 116.258799 
L 518.993729 111.079104 
L 521.612747 109.556375 
L 522.485753 98.19709 
L 523.358759 89.95212 
L 524.231765 89.937111 
L 525.104771 99.112467 
L 525.977776 106.116113 
L 526.850782 112.005536 
L 527.723788 111.571949 
L 528.596794 116.614135 
L 529.4698 115.958222 
L 530.342806 120.260308 
L 531.215812 119.447337 
L 532.088818 123.133822 
L 532.961824 122.214386 
L 533.834829 125.401608 
L 534.707835 124.412202 
L 535.580841 127.199185 
L 536.453847 126.165062 
L 537.326853 128.632354 
L 538.199859 127.570544 
L 539.072865 129.782244 
L 539.945871 131.523613 
L 541.691882 129.418136 
L 542.564888 128.24429 
L 543.437894 130.414505 
L 544.3109 129.244603 
L 545.183906 131.219863 
L 546.929918 128.823687 
L 547.802924 130.930948 
L 550.421941 127.102575 
L 552.167953 124.359727 
L 553.040959 127.531664 
L 553.913965 120.507785 
L 554.786971 107.107288 
L 555.659976 106.758822 
L 556.532982 96.113553 
L 557.405988 88.492853 
L 558.278994 90.611121 
L 559.152 99.538477 
L 560.025006 99.681336 
L 560.898012 106.697617 
L 561.771018 106.441988 
L 562.644024 96.040963 
L 563.517029 88.605003 
L 564.390035 88.612975 
L 565.263041 90.701738 
L 566.136047 90.665341 
L 567.009053 92.236169 
L 567.882059 92.161292 
L 568.755065 93.336992 
L 569.628071 94.20516 
L 570.501076 86.428973 
L 571.374082 79.878403 
L 572.247088 80.538522 
L 573.120094 84.559492 
L 573.9931 87.623414 
L 574.866106 89.930057 
L 575.739112 91.653649 
L 577 93.354161 
L 577 93.354161 
" clip-path="url(#pecd3076054)" style="fill: none; stroke: #92278f; stroke-width: 2; stroke-linecap: round"/>
   </g>
   <g id="line2d_24">
    <path d="M 410.741 95.75 
L 411.614006 95.75 
L 413.360018 85.882378 
L 414.233024 86.158891 
L 415.106029 81.631968 
L 415.979035 88.302376 
L 417.725047 79.661574 
L 419.471059 92.100871 
L 421.217071 91.938803 
L 422.090076 96.917673 
L 424.709094 94.878578 
L 425.5821 99.380187 
L 426.455106 94.539628 
L 427.328112 90.340294 
L 428.201118 90.27988 
L 429.074124 91.205444 
L 429.947129 87.155878 
L 430.820135 92.484669 
L 431.693141 97.004568 
L 433.439153 94.915292 
L 434.312159 99.038494 
L 435.185165 94.616438 
L 436.058171 90.777725 
L 437.804182 93.242264 
L 438.677188 89.460817 
L 439.550194 90.738832 
L 440.4232 87.074541 
L 441.296206 88.402761 
L 443.042218 88.158642 
L 443.915224 89.458078 
L 445.661235 82.45415 
L 446.534241 79.278818 
L 447.407247 80.712489 
L 448.280253 77.660855 
L 449.153259 79.106214 
L 450.026265 84.844707 
L 451.772276 78.754726 
L 452.645282 79.717714 
L 453.518288 81.325439 
L 454.391294 78.441815 
L 456.137306 81.661611 
L 457.010312 78.754725 
L 459.629329 83.55994 
L 460.502335 88.685541 
L 463.121353 93.465259 
L 463.994359 92.31279 
L 465.740371 95.309483 
L 466.613376 93.941004 
L 467.486382 92.79347 
L 469.232394 91.026942 
L 470.978406 84.279548 
L 471.851412 85.83709 
L 472.724418 90.730349 
L 473.597424 92.303421 
L 474.470429 91.320241 
L 476.216441 84.788554 
L 477.962453 88.0711 
L 478.835459 84.885847 
L 479.708465 86.538069 
L 480.581471 83.439642 
L 481.454476 85.109957 
L 482.327482 89.954802 
L 484.9465 94.92871 
L 485.819506 93.483476 
L 486.692512 92.271875 
L 488.438524 90.407634 
L 489.311529 91.972894 
L 490.184535 95.99659 
L 491.057541 97.498266 
L 492.803553 104.11324 
L 494.549565 110.054242 
L 495.422571 108.299245 
L 496.295576 103.343892 
L 497.168582 101.54036 
L 498.041588 102.387809 
L 498.914594 105.40352 
L 499.7876 105.70009 
L 500.660606 103.890812 
L 501.533612 104.386021 
L 502.406618 102.608309 
L 503.279624 103.265719 
L 505.025635 109.128718 
L 506.771647 114.282896 
L 507.644653 112.456232 
L 509.390665 111.206534 
L 511.136676 116.001623 
L 512.009682 118.141006 
L 512.882688 116.798569 
L 513.755694 114.92893 
L 514.6287 117.099386 
L 515.501706 115.233211 
L 516.374712 117.381248 
L 517.247718 116.160525 
L 518.120724 114.256188 
L 518.993729 113.450138 
L 521.612747 107.616784 
L 522.485753 102.99299 
L 523.358759 99.046806 
L 524.231765 100.538515 
L 525.977776 105.863589 
L 526.850782 108.314367 
L 527.723788 106.216438 
L 528.596794 108.646861 
L 529.4698 106.548023 
L 530.342806 108.959129 
L 531.215812 106.859664 
L 532.088818 109.25245 
L 532.961824 107.152598 
L 533.834829 109.52802 
L 534.707835 107.427985 
L 535.580841 109.786957 
L 536.453847 107.686909 
L 537.326853 110.030304 
L 538.199859 107.930386 
L 539.945871 112.442108 
L 542.564888 106.153881 
L 543.437894 108.587928 
L 544.3109 106.489233 
L 545.183906 108.903777 
L 546.929918 104.713673 
L 547.802924 107.229324 
L 552.167953 97.007018 
L 553.040959 99.894036 
L 553.913965 101.231865 
L 554.786971 97.538972 
L 555.659976 95.533297 
L 557.405988 89.944292 
L 558.278994 88.784457 
L 559.152 92.579059 
L 560.025006 90.989839 
L 560.898012 94.434712 
L 561.771018 92.546797 
L 563.517029 87.39718 
L 564.390035 89.569395 
L 565.263041 88.399714 
L 566.136047 90.534516 
L 567.009053 89.258099 
L 567.882059 91.351793 
L 568.755065 89.992962 
L 569.628071 88.856181 
L 571.374082 83.729015 
L 572.247088 85.819793 
L 573.9931 84.851344 
L 575.739112 84.173336 
L 577 83.818446 
L 577 83.818446 
" clip-path="url(#pecd3076054)" style="fill: none; stroke: #b23493; stroke-width: 2; stroke-linecap: round"/>
   </g>
   <g id="line2d_25">
    <path d="M 410.741 95.75 
L 411.614006 95.75 
L 413.360018 83.063079 
L 414.233024 83.063079 
L 415.106029 77.843114 
L 415.979035 83.976415 
L 416.852041 79.228834 
L 417.725047 75.310256 
L 419.471059 86.222192 
L 421.217071 86.222192 
L 422.090076 91.261868 
L 424.709094 91.261868 
L 425.5821 95.75 
L 426.455106 91.915431 
L 427.328112 88.753646 
L 429.074124 88.753646 
L 429.947129 86.222123 
L 430.820135 89.977436 
L 431.693141 93.153432 
L 433.439153 93.153432 
L 434.312159 95.75 
L 435.185165 93.685318 
L 436.058171 92.079542 
L 437.804182 92.079542 
L 438.677188 90.852061 
L 439.550194 90.852061 
L 440.4232 89.926088 
L 443.915224 89.926088 
L 444.788229 89.23451 
L 445.661235 88.721841 
L 446.534241 88.343901 
L 447.407247 88.343901 
L 448.280253 88.06642 
L 449.153259 88.06642 
L 450.026265 90.097403 
L 451.772276 89.742187 
L 456.137306 89.632815 
L 457.883318 89.553142 
L 459.629329 89.553142 
L 460.502335 91.146239 
L 471.851412 91.045415 
L 472.724418 92.27365 
L 481.454476 92.191899 
L 482.327482 93.124621 
L 489.311529 93.124621 
L 490.184535 93.824871 
L 491.057541 93.824871 
L 491.930547 94.345986 
L 493.676559 95.014724 
L 494.549565 95.222539 
L 498.041588 95.213865 
L 498.914594 95.365821 
L 504.152629 95.47672 
L 506.771647 95.659194 
L 577 95.751191 
L 577 95.751191 
" clip-path="url(#pecd3076054)" style="fill: none; stroke: #d28dbd; stroke-width: 2; stroke-linecap: round"/>
   </g>
   <g id="LineCollection_3">
    <path d="M 410.741 95.75 
L 577 95.75 
" clip-path="url(#pecd3076054)" style="fill: none; stroke-dasharray: 1.5,2.475; stroke-dashoffset: 0; stroke: #808080; stroke-width: 1.5"/>
   </g>
   <g id="text_17">
    <!-- Fly 3 -->
    <g style="fill: #262626" transform="translate(468.044875 27.848)scale(0.156 -0.156)">
     <defs>
      <path id="ArialMT-33" d="M 269 1209 
L 831 1284 
Q 928 806 1161 595 
Q 1394 384 1728 384 
Q 2125 384 2398 659 
Q 2672 934 2672 1341 
Q 2672 1728 2419 1979 
Q 2166 2231 1775 2231 
Q 1616 2231 1378 2169 
L 1441 2663 
Q 1497 2656 1531 2656 
Q 1891 2656 2178 2843 
Q 2466 3031 2466 3422 
Q 2466 3731 2256 3934 
Q 2047 4138 1716 4138 
Q 1388 4138 1169 3931 
Q 950 3725 888 3313 
L 325 3413 
Q 428 3978 793 4289 
Q 1159 4600 1703 4600 
Q 2078 4600 2393 4439 
Q 2709 4278 2876 4000 
Q 3044 3722 3044 3409 
Q 3044 3113 2884 2869 
Q 2725 2625 2413 2481 
Q 2819 2388 3044 2092 
Q 3269 1797 3269 1353 
Q 3269 753 2831 336 
Q 2394 -81 1725 -81 
Q 1122 -81 723 278 
Q 325 638 269 1209 
z
" transform="scale(0.015625)"/>
     </defs>
     <use xlink:href="#ArialMT-46"/>
     <use xlink:href="#ArialMT-6c" x="61.083984"/>
     <use xlink:href="#ArialMT-79" x="83.300781"/>
     <use xlink:href="#ArialMT-20" x="133.300781"/>
     <use xlink:href="#ArialMT-33" x="161.083984"/>
    </g>
   </g>
  </g>
 </g>
 <defs>
  <clipPath id="p87204ea98d">
   <rect x="72.223" y="33.848" width="148.411" height="123.804"/>
  </clipPath>
  <clipPath id="p2bc6625e5d">
   <rect x="241.482" y="33.848" width="148.411" height="123.804"/>
  </clipPath>
  <clipPath id="pecd3076054">
   <rect x="410.741" y="33.848" width="148.411" height="123.804"/>
  </clipPath>
 </defs>
</svg>
