<?xml version="1.0" encoding="utf-8" standalone="no"?>
<!DOCTYPE svg PUBLIC "-//W3C//DTD SVG 1.1//EN"
  "http://www.w3.org/Graphics/SVG/1.1/DTD/svg11.dtd">
<svg xmlns:xlink="http://www.w3.org/1999/xlink" width="864pt" height="288pt" viewBox="0 0 864 288" xmlns="http://www.w3.org/2000/svg" version="1.1">
 <metadata>
  <rdf:RDF xmlns:dc="http://purl.org/dc/elements/1.1/" xmlns:cc="http://creativecommons.org/ns#" xmlns:rdf="http://www.w3.org/1999/02/22-rdf-syntax-ns#">
   <cc:Work>
    <dc:type rdf:resource="http://purl.org/dc/dcmitype/StillImage"/>
    <dc:date>2022-05-13T12:13:38.908794</dc:date>
    <dc:format>image/svg+xml</dc:format>
    <dc:creator>
     <cc:Agent>
      <dc:title>Matplotlib v3.5.1, https://matplotlib.org/</dc:title>
     </cc:Agent>
    </dc:creator>
   </cc:Work>
  </rdf:RDF>
 </metadata>
 <defs>
  <style type="text/css">*{stroke-linejoin: round; stroke-linecap: butt}</style>
 </defs>
 <g id="figure_1">
  <g id="patch_1">
   <path d="M 0 288 
L 864 288 
L 864 0 
L 0 0 
L 0 288 
z
" style="fill: none"/>
  </g>
  <g id="axes_1">
   <g id="matplotlib.axis_1">
    <g id="xtick_1">
     <g id="line2d_1">
      <path d="M 82.815 222.06 
L 82.815 39.44 
" clip-path="url(#pc3105a5f3c)" style="fill: none; stroke: #ffffff; stroke-linecap: round"/>
     </g>
     <g id="text_1">
      <!-- 0 -->
      <g style="fill: #262626" transform="translate(78.227227 243.370391)scale(0.165 -0.165)">
       <defs>
        <path id="ArialMT-30" d="M 266 2259 
Q 266 3072 433 3567 
Q 600 4063 929 4331 
Q 1259 4600 1759 4600 
Q 2128 4600 2406 4451 
Q 2684 4303 2865 4023 
Q 3047 3744 3150 3342 
Q 3253 2941 3253 2259 
Q 3253 1453 3087 958 
Q 2922 463 2592 192 
Q 2263 -78 1759 -78 
Q 1097 -78 719 397 
Q 266 969 266 2259 
z
M 844 2259 
Q 844 1131 1108 757 
Q 1372 384 1759 384 
Q 2147 384 2411 759 
Q 2675 1134 2675 2259 
Q 2675 3391 2411 3762 
Q 2147 4134 1753 4134 
Q 1366 4134 1134 3806 
Q 844 3388 844 2259 
z
" transform="scale(0.015625)"/>
       </defs>
       <use xlink:href="#ArialMT-30"/>
      </g>
     </g>
    </g>
    <g id="xtick_2">
     <g id="line2d_2">
      <path d="M 176.481667 222.06 
L 176.481667 39.44 
" clip-path="url(#pc3105a5f3c)" style="fill: none; stroke: #ffffff; stroke-linecap: round"/>
     </g>
     <g id="text_2">
      <!-- 50 -->
      <g style="fill: #262626" transform="translate(167.30612 243.370391)scale(0.165 -0.165)">
       <defs>
        <path id="ArialMT-35" d="M 266 1200 
L 856 1250 
Q 922 819 1161 601 
Q 1400 384 1738 384 
Q 2144 384 2425 690 
Q 2706 997 2706 1503 
Q 2706 1984 2436 2262 
Q 2166 2541 1728 2541 
Q 1456 2541 1237 2417 
Q 1019 2294 894 2097 
L 366 2166 
L 809 4519 
L 3088 4519 
L 3088 3981 
L 1259 3981 
L 1013 2750 
Q 1425 3038 1878 3038 
Q 2478 3038 2890 2622 
Q 3303 2206 3303 1553 
Q 3303 931 2941 478 
Q 2500 -78 1738 -78 
Q 1113 -78 717 272 
Q 322 622 266 1200 
z
" transform="scale(0.015625)"/>
       </defs>
       <use xlink:href="#ArialMT-35"/>
       <use xlink:href="#ArialMT-30" x="55.615234"/>
      </g>
     </g>
    </g>
    <g id="xtick_3">
     <g id="line2d_3">
      <path d="M 270.148333 222.06 
L 270.148333 39.44 
" clip-path="url(#pc3105a5f3c)" style="fill: none; stroke: #ffffff; stroke-linecap: round"/>
     </g>
     <g id="text_3">
      <!-- 100 -->
      <g style="fill: #262626" transform="translate(256.385013 243.370391)scale(0.165 -0.165)">
       <defs>
        <path id="ArialMT-31" d="M 2384 0 
L 1822 0 
L 1822 3584 
Q 1619 3391 1289 3197 
Q 959 3003 697 2906 
L 697 3450 
Q 1169 3672 1522 3987 
Q 1875 4303 2022 4600 
L 2384 4600 
L 2384 0 
z
" transform="scale(0.015625)"/>
       </defs>
       <use xlink:href="#ArialMT-31"/>
       <use xlink:href="#ArialMT-30" x="55.615234"/>
       <use xlink:href="#ArialMT-30" x="111.230469"/>
      </g>
     </g>
    </g>
    <g id="text_4">
     <!-- Trial -->
     <g style="fill: #262626" transform="translate(184.611198 263.533828)scale(0.18 -0.18)">
      <defs>
       <path id="ArialMT-54" d="M 1659 0 
L 1659 4041 
L 150 4041 
L 150 4581 
L 3781 4581 
L 3781 4041 
L 2266 4041 
L 2266 0 
L 1659 0 
z
" transform="scale(0.015625)"/>
       <path id="ArialMT-72" d="M 416 0 
L 416 3319 
L 922 3319 
L 922 2816 
Q 1116 3169 1280 3281 
Q 1444 3394 1641 3394 
Q 1925 3394 2219 3213 
L 2025 2691 
Q 1819 2813 1613 2813 
Q 1428 2813 1281 2702 
Q 1134 2591 1072 2394 
Q 978 2094 978 1738 
L 978 0 
L 416 0 
z
" transform="scale(0.015625)"/>
       <path id="ArialMT-69" d="M 425 3934 
L 425 4581 
L 988 4581 
L 988 3934 
L 425 3934 
z
M 425 0 
L 425 3319 
L 988 3319 
L 988 0 
L 425 0 
z
" transform="scale(0.015625)"/>
       <path id="ArialMT-61" d="M 2588 409 
Q 2275 144 1986 34 
Q 1697 -75 1366 -75 
Q 819 -75 525 192 
Q 231 459 231 875 
Q 231 1119 342 1320 
Q 453 1522 633 1644 
Q 813 1766 1038 1828 
Q 1203 1872 1538 1913 
Q 2219 1994 2541 2106 
Q 2544 2222 2544 2253 
Q 2544 2597 2384 2738 
Q 2169 2928 1744 2928 
Q 1347 2928 1158 2789 
Q 969 2650 878 2297 
L 328 2372 
Q 403 2725 575 2942 
Q 747 3159 1072 3276 
Q 1397 3394 1825 3394 
Q 2250 3394 2515 3294 
Q 2781 3194 2906 3042 
Q 3031 2891 3081 2659 
Q 3109 2516 3109 2141 
L 3109 1391 
Q 3109 606 3145 398 
Q 3181 191 3288 0 
L 2700 0 
Q 2613 175 2588 409 
z
M 2541 1666 
Q 2234 1541 1622 1453 
Q 1275 1403 1131 1340 
Q 988 1278 909 1158 
Q 831 1038 831 891 
Q 831 666 1001 516 
Q 1172 366 1500 366 
Q 1825 366 2078 508 
Q 2331 650 2450 897 
Q 2541 1088 2541 1459 
L 2541 1666 
z
" transform="scale(0.015625)"/>
       <path id="ArialMT-6c" d="M 409 0 
L 409 4581 
L 972 4581 
L 972 0 
L 409 0 
z
" transform="scale(0.015625)"/>
      </defs>
      <use xlink:href="#ArialMT-54"/>
      <use xlink:href="#ArialMT-72" x="57.333984"/>
      <use xlink:href="#ArialMT-69" x="90.634766"/>
      <use xlink:href="#ArialMT-61" x="112.851562"/>
      <use xlink:href="#ArialMT-6c" x="168.466797"/>
     </g>
    </g>
   </g>
   <g id="matplotlib.axis_2">
    <g id="ytick_1">
     <g id="line2d_4">
      <path d="M 82.815 206.841667 
L 320.728333 206.841667 
" clip-path="url(#pc3105a5f3c)" style="fill: none; stroke: #ffffff; stroke-linecap: round"/>
     </g>
     <g id="text_5">
      <!-- 0.00 -->
      <g style="fill: #262626" transform="translate(41.204453 212.746862)scale(0.165 -0.165)">
       <defs>
        <path id="ArialMT-2e" d="M 581 0 
L 581 641 
L 1222 641 
L 1222 0 
L 581 0 
z
" transform="scale(0.015625)"/>
       </defs>
       <use xlink:href="#ArialMT-30"/>
       <use xlink:href="#ArialMT-2e" x="55.615234"/>
       <use xlink:href="#ArialMT-30" x="83.398438"/>
       <use xlink:href="#ArialMT-30" x="139.013672"/>
      </g>
     </g>
    </g>
    <g id="ytick_2">
     <g id="line2d_5">
      <path d="M 82.815 168.795833 
L 320.728333 168.795833 
" clip-path="url(#pc3105a5f3c)" style="fill: none; stroke: #ffffff; stroke-linecap: round"/>
     </g>
     <g id="text_6">
      <!-- 0.25 -->
      <g style="fill: #262626" transform="translate(41.204453 174.701029)scale(0.165 -0.165)">
       <defs>
        <path id="ArialMT-32" d="M 3222 541 
L 3222 0 
L 194 0 
Q 188 203 259 391 
Q 375 700 629 1000 
Q 884 1300 1366 1694 
Q 2113 2306 2375 2664 
Q 2638 3022 2638 3341 
Q 2638 3675 2398 3904 
Q 2159 4134 1775 4134 
Q 1369 4134 1125 3890 
Q 881 3647 878 3216 
L 300 3275 
Q 359 3922 746 4261 
Q 1134 4600 1788 4600 
Q 2447 4600 2831 4234 
Q 3216 3869 3216 3328 
Q 3216 3053 3103 2787 
Q 2991 2522 2730 2228 
Q 2469 1934 1863 1422 
Q 1356 997 1212 845 
Q 1069 694 975 541 
L 3222 541 
z
" transform="scale(0.015625)"/>
       </defs>
       <use xlink:href="#ArialMT-30"/>
       <use xlink:href="#ArialMT-2e" x="55.615234"/>
       <use xlink:href="#ArialMT-32" x="83.398438"/>
       <use xlink:href="#ArialMT-35" x="139.013672"/>
      </g>
     </g>
    </g>
    <g id="ytick_3">
     <g id="line2d_6">
      <path d="M 82.815 130.75 
L 320.728333 130.75 
" clip-path="url(#pc3105a5f3c)" style="fill: none; stroke: #ffffff; stroke-linecap: round"/>
     </g>
     <g id="text_7">
      <!-- 0.50 -->
      <g style="fill: #262626" transform="translate(41.204453 136.655195)scale(0.165 -0.165)">
       <use xlink:href="#ArialMT-30"/>
       <use xlink:href="#ArialMT-2e" x="55.615234"/>
       <use xlink:href="#ArialMT-35" x="83.398438"/>
       <use xlink:href="#ArialMT-30" x="139.013672"/>
      </g>
     </g>
    </g>
    <g id="ytick_4">
     <g id="line2d_7">
      <path d="M 82.815 92.704167 
L 320.728333 92.704167 
" clip-path="url(#pc3105a5f3c)" style="fill: none; stroke: #ffffff; stroke-linecap: round"/>
     </g>
     <g id="text_8">
      <!-- 0.75 -->
      <g style="fill: #262626" transform="translate(41.204453 98.609362)scale(0.165 -0.165)">
       <defs>
        <path id="ArialMT-37" d="M 303 3981 
L 303 4522 
L 3269 4522 
L 3269 4084 
Q 2831 3619 2401 2847 
Q 1972 2075 1738 1259 
Q 1569 684 1522 0 
L 944 0 
Q 953 541 1156 1306 
Q 1359 2072 1739 2783 
Q 2119 3494 2547 3981 
L 303 3981 
z
" transform="scale(0.015625)"/>
       </defs>
       <use xlink:href="#ArialMT-30"/>
       <use xlink:href="#ArialMT-2e" x="55.615234"/>
       <use xlink:href="#ArialMT-37" x="83.398438"/>
       <use xlink:href="#ArialMT-35" x="139.013672"/>
      </g>
     </g>
    </g>
    <g id="ytick_5">
     <g id="line2d_8">
      <path d="M 82.815 54.658333 
L 320.728333 54.658333 
" clip-path="url(#pc3105a5f3c)" style="fill: none; stroke: #ffffff; stroke-linecap: round"/>
     </g>
     <g id="text_9">
      <!-- 1.00 -->
      <g style="fill: #262626" transform="translate(41.204453 60.563529)scale(0.165 -0.165)">
       <use xlink:href="#ArialMT-31"/>
       <use xlink:href="#ArialMT-2e" x="55.615234"/>
       <use xlink:href="#ArialMT-30" x="83.398438"/>
       <use xlink:href="#ArialMT-30" x="139.013672"/>
      </g>
     </g>
    </g>
    <g id="text_10">
     <!-- P(OCT) -->
     <g style="fill: #262626" transform="translate(33.416016 161.74375)rotate(-90)scale(0.18 -0.18)">
      <defs>
       <path id="ArialMT-50" d="M 494 0 
L 494 4581 
L 2222 4581 
Q 2678 4581 2919 4538 
Q 3256 4481 3484 4323 
Q 3713 4166 3852 3881 
Q 3991 3597 3991 3256 
Q 3991 2672 3619 2267 
Q 3247 1863 2275 1863 
L 1100 1863 
L 1100 0 
L 494 0 
z
M 1100 2403 
L 2284 2403 
Q 2872 2403 3119 2622 
Q 3366 2841 3366 3238 
Q 3366 3525 3220 3729 
Q 3075 3934 2838 4000 
Q 2684 4041 2272 4041 
L 1100 4041 
L 1100 2403 
z
" transform="scale(0.015625)"/>
       <path id="ArialMT-28" d="M 1497 -1347 
Q 1031 -759 709 28 
Q 388 816 388 1659 
Q 388 2403 628 3084 
Q 909 3875 1497 4659 
L 1900 4659 
Q 1522 4009 1400 3731 
Q 1209 3300 1100 2831 
Q 966 2247 966 1656 
Q 966 153 1900 -1347 
L 1497 -1347 
z
" transform="scale(0.015625)"/>
       <path id="ArialMT-4f" d="M 309 2231 
Q 309 3372 921 4017 
Q 1534 4663 2503 4663 
Q 3138 4663 3647 4359 
Q 4156 4056 4423 3514 
Q 4691 2972 4691 2284 
Q 4691 1588 4409 1038 
Q 4128 488 3612 205 
Q 3097 -78 2500 -78 
Q 1853 -78 1343 234 
Q 834 547 571 1087 
Q 309 1628 309 2231 
z
M 934 2222 
Q 934 1394 1379 917 
Q 1825 441 2497 441 
Q 3181 441 3623 922 
Q 4066 1403 4066 2288 
Q 4066 2847 3877 3264 
Q 3688 3681 3323 3911 
Q 2959 4141 2506 4141 
Q 1863 4141 1398 3698 
Q 934 3256 934 2222 
z
" transform="scale(0.015625)"/>
       <path id="ArialMT-43" d="M 3763 1606 
L 4369 1453 
Q 4178 706 3683 314 
Q 3188 -78 2472 -78 
Q 1731 -78 1267 223 
Q 803 525 561 1097 
Q 319 1669 319 2325 
Q 319 3041 592 3573 
Q 866 4106 1370 4382 
Q 1875 4659 2481 4659 
Q 3169 4659 3637 4309 
Q 4106 3959 4291 3325 
L 3694 3184 
Q 3534 3684 3231 3912 
Q 2928 4141 2469 4141 
Q 1941 4141 1586 3887 
Q 1231 3634 1087 3207 
Q 944 2781 944 2328 
Q 944 1744 1114 1308 
Q 1284 872 1643 656 
Q 2003 441 2422 441 
Q 2931 441 3284 734 
Q 3638 1028 3763 1606 
z
" transform="scale(0.015625)"/>
       <path id="ArialMT-29" d="M 791 -1347 
L 388 -1347 
Q 1322 153 1322 1656 
Q 1322 2244 1188 2822 
Q 1081 3291 891 3722 
Q 769 4003 388 4659 
L 791 4659 
Q 1378 3875 1659 3084 
Q 1900 2403 1900 1659 
Q 1900 816 1576 28 
Q 1253 -759 791 -1347 
z
" transform="scale(0.015625)"/>
      </defs>
      <use xlink:href="#ArialMT-50"/>
      <use xlink:href="#ArialMT-28" x="66.699219"/>
      <use xlink:href="#ArialMT-4f" x="100"/>
      <use xlink:href="#ArialMT-43" x="177.783203"/>
      <use xlink:href="#ArialMT-54" x="250"/>
      <use xlink:href="#ArialMT-29" x="311.083984"/>
     </g>
    </g>
   </g>
   <g id="LineCollection_1">
    <path d="M 82.815 130.75 
L 457.481667 130.75 
" clip-path="url(#pc3105a5f3c)" style="fill: none; stroke-dasharray: 1.5,2.475; stroke-dashoffset: 0; stroke: #808080; stroke-width: 1.5"/>
   </g>
   <g id="text_11">
    <!-- Fly 1 -->
    <g style="fill: #262626" transform="translate(182.269792 33.44)scale(0.18 -0.18)">
     <defs>
      <path id="ArialMT-46" d="M 525 0 
L 525 4581 
L 3616 4581 
L 3616 4041 
L 1131 4041 
L 1131 2622 
L 3281 2622 
L 3281 2081 
L 1131 2081 
L 1131 0 
L 525 0 
z
" transform="scale(0.015625)"/>
      <path id="ArialMT-79" d="M 397 -1278 
L 334 -750 
Q 519 -800 656 -800 
Q 844 -800 956 -737 
Q 1069 -675 1141 -563 
Q 1194 -478 1313 -144 
Q 1328 -97 1363 -6 
L 103 3319 
L 709 3319 
L 1400 1397 
Q 1534 1031 1641 628 
Q 1738 1016 1872 1384 
L 2581 3319 
L 3144 3319 
L 1881 -56 
Q 1678 -603 1566 -809 
Q 1416 -1088 1222 -1217 
Q 1028 -1347 759 -1347 
Q 597 -1347 397 -1278 
z
" transform="scale(0.015625)"/>
      <path id="ArialMT-20" transform="scale(0.015625)"/>
     </defs>
     <use xlink:href="#ArialMT-46"/>
     <use xlink:href="#ArialMT-6c" x="61.083984"/>
     <use xlink:href="#ArialMT-79" x="83.300781"/>
     <use xlink:href="#ArialMT-20" x="133.300781"/>
     <use xlink:href="#ArialMT-31" x="161.083984"/>
    </g>
   </g>
   <g id="line2d_9">
    <defs>
     <path id="m6aa5c0e9b8" d="M 0 2.5 
C 0.663008 2.5 1.29895 2.236584 1.767767 1.767767 
C 2.236584 1.29895 2.5 0.663008 2.5 0 
C 2.5 -0.663008 2.236584 -1.29895 1.767767 -1.767767 
C 1.29895 -2.236584 0.663008 -2.5 0 -2.5 
C -0.663008 -2.5 -1.29895 -2.236584 -1.767767 -1.767767 
C -2.236584 -1.29895 -2.5 -0.663008 -2.5 0 
C -2.5 0.663008 -2.236584 1.29895 -1.767767 1.767767 
C -1.29895 2.236584 -0.663008 2.5 0 2.5 
z
" style="stroke: #55a868"/>
    </defs>
    <g clip-path="url(#pc3105a5f3c)">
     <use xlink:href="#m6aa5c0e9b8" x="110.915" y="85.095" style="fill: #55a868; stroke: #55a868"/>
     <use xlink:href="#m6aa5c0e9b8" x="112.788333" y="85.095" style="fill: #55a868; stroke: #55a868"/>
     <use xlink:href="#m6aa5c0e9b8" x="114.661667" y="85.095" style="fill: #55a868; stroke: #55a868"/>
     <use xlink:href="#m6aa5c0e9b8" x="116.535" y="85.095" style="fill: #55a868; stroke: #55a868"/>
     <use xlink:href="#m6aa5c0e9b8" x="118.408333" y="74.949444" style="fill: #55a868; stroke: #55a868"/>
     <use xlink:href="#m6aa5c0e9b8" x="120.281667" y="74.949444" style="fill: #55a868; stroke: #55a868"/>
     <use xlink:href="#m6aa5c0e9b8" x="122.155" y="74.949444" style="fill: #55a868; stroke: #55a868"/>
     <use xlink:href="#m6aa5c0e9b8" x="124.028333" y="64.803889" style="fill: #55a868; stroke: #55a868"/>
     <use xlink:href="#m6aa5c0e9b8" x="125.901667" y="64.803889" style="fill: #55a868; stroke: #55a868"/>
     <use xlink:href="#m6aa5c0e9b8" x="127.775" y="54.658333" style="fill: #55a868; stroke: #55a868"/>
     <use xlink:href="#m6aa5c0e9b8" x="129.648333" y="54.658333" style="fill: #55a868; stroke: #55a868"/>
     <use xlink:href="#m6aa5c0e9b8" x="131.521667" y="54.658333" style="fill: #55a868; stroke: #55a868"/>
     <use xlink:href="#m6aa5c0e9b8" x="133.395" y="54.658333" style="fill: #55a868; stroke: #55a868"/>
     <use xlink:href="#m6aa5c0e9b8" x="135.268333" y="54.658333" style="fill: #55a868; stroke: #55a868"/>
     <use xlink:href="#m6aa5c0e9b8" x="137.141667" y="54.658333" style="fill: #55a868; stroke: #55a868"/>
     <use xlink:href="#m6aa5c0e9b8" x="139.015" y="54.658333" style="fill: #55a868; stroke: #55a868"/>
     <use xlink:href="#m6aa5c0e9b8" x="140.888333" y="54.658333" style="fill: #55a868; stroke: #55a868"/>
     <use xlink:href="#m6aa5c0e9b8" x="142.761667" y="54.658333" style="fill: #55a868; stroke: #55a868"/>
     <use xlink:href="#m6aa5c0e9b8" x="144.635" y="54.658333" style="fill: #55a868; stroke: #55a868"/>
     <use xlink:href="#m6aa5c0e9b8" x="146.508333" y="54.658333" style="fill: #55a868; stroke: #55a868"/>
     <use xlink:href="#m6aa5c0e9b8" x="148.381667" y="54.658333" style="fill: #55a868; stroke: #55a868"/>
     <use xlink:href="#m6aa5c0e9b8" x="150.255" y="54.658333" style="fill: #55a868; stroke: #55a868"/>
     <use xlink:href="#m6aa5c0e9b8" x="152.128333" y="54.658333" style="fill: #55a868; stroke: #55a868"/>
     <use xlink:href="#m6aa5c0e9b8" x="154.001667" y="54.658333" style="fill: #55a868; stroke: #55a868"/>
     <use xlink:href="#m6aa5c0e9b8" x="155.875" y="54.658333" style="fill: #55a868; stroke: #55a868"/>
     <use xlink:href="#m6aa5c0e9b8" x="157.748333" y="54.658333" style="fill: #55a868; stroke: #55a868"/>
     <use xlink:href="#m6aa5c0e9b8" x="159.621667" y="54.658333" style="fill: #55a868; stroke: #55a868"/>
     <use xlink:href="#m6aa5c0e9b8" x="161.495" y="54.658333" style="fill: #55a868; stroke: #55a868"/>
     <use xlink:href="#m6aa5c0e9b8" x="163.368333" y="54.658333" style="fill: #55a868; stroke: #55a868"/>
     <use xlink:href="#m6aa5c0e9b8" x="165.241667" y="54.658333" style="fill: #55a868; stroke: #55a868"/>
     <use xlink:href="#m6aa5c0e9b8" x="167.115" y="54.658333" style="fill: #55a868; stroke: #55a868"/>
     <use xlink:href="#m6aa5c0e9b8" x="168.988333" y="54.658333" style="fill: #55a868; stroke: #55a868"/>
     <use xlink:href="#m6aa5c0e9b8" x="170.861667" y="54.658333" style="fill: #55a868; stroke: #55a868"/>
     <use xlink:href="#m6aa5c0e9b8" x="172.735" y="54.658333" style="fill: #55a868; stroke: #55a868"/>
     <use xlink:href="#m6aa5c0e9b8" x="174.608333" y="54.658333" style="fill: #55a868; stroke: #55a868"/>
     <use xlink:href="#m6aa5c0e9b8" x="176.481667" y="54.658333" style="fill: #55a868; stroke: #55a868"/>
     <use xlink:href="#m6aa5c0e9b8" x="178.355" y="54.658333" style="fill: #55a868; stroke: #55a868"/>
     <use xlink:href="#m6aa5c0e9b8" x="180.228333" y="54.658333" style="fill: #55a868; stroke: #55a868"/>
     <use xlink:href="#m6aa5c0e9b8" x="182.101667" y="54.658333" style="fill: #55a868; stroke: #55a868"/>
     <use xlink:href="#m6aa5c0e9b8" x="183.975" y="54.658333" style="fill: #55a868; stroke: #55a868"/>
     <use xlink:href="#m6aa5c0e9b8" x="185.848333" y="54.658333" style="fill: #55a868; stroke: #55a868"/>
     <use xlink:href="#m6aa5c0e9b8" x="187.721667" y="54.658333" style="fill: #55a868; stroke: #55a868"/>
     <use xlink:href="#m6aa5c0e9b8" x="189.595" y="54.658333" style="fill: #55a868; stroke: #55a868"/>
     <use xlink:href="#m6aa5c0e9b8" x="191.468333" y="54.658333" style="fill: #55a868; stroke: #55a868"/>
     <use xlink:href="#m6aa5c0e9b8" x="193.341667" y="54.658333" style="fill: #55a868; stroke: #55a868"/>
     <use xlink:href="#m6aa5c0e9b8" x="195.215" y="54.658333" style="fill: #55a868; stroke: #55a868"/>
     <use xlink:href="#m6aa5c0e9b8" x="197.088333" y="54.658333" style="fill: #55a868; stroke: #55a868"/>
     <use xlink:href="#m6aa5c0e9b8" x="198.961667" y="54.658333" style="fill: #55a868; stroke: #55a868"/>
     <use xlink:href="#m6aa5c0e9b8" x="200.835" y="54.658333" style="fill: #55a868; stroke: #55a868"/>
     <use xlink:href="#m6aa5c0e9b8" x="202.708333" y="54.658333" style="fill: #55a868; stroke: #55a868"/>
     <use xlink:href="#m6aa5c0e9b8" x="204.581667" y="54.658333" style="fill: #55a868; stroke: #55a868"/>
     <use xlink:href="#m6aa5c0e9b8" x="206.455" y="54.658333" style="fill: #55a868; stroke: #55a868"/>
     <use xlink:href="#m6aa5c0e9b8" x="208.328333" y="54.658333" style="fill: #55a868; stroke: #55a868"/>
     <use xlink:href="#m6aa5c0e9b8" x="210.201667" y="54.658333" style="fill: #55a868; stroke: #55a868"/>
     <use xlink:href="#m6aa5c0e9b8" x="212.075" y="54.658333" style="fill: #55a868; stroke: #55a868"/>
     <use xlink:href="#m6aa5c0e9b8" x="213.948333" y="54.658333" style="fill: #55a868; stroke: #55a868"/>
     <use xlink:href="#m6aa5c0e9b8" x="215.821667" y="54.658333" style="fill: #55a868; stroke: #55a868"/>
     <use xlink:href="#m6aa5c0e9b8" x="217.695" y="54.658333" style="fill: #55a868; stroke: #55a868"/>
     <use xlink:href="#m6aa5c0e9b8" x="219.568333" y="54.658333" style="fill: #55a868; stroke: #55a868"/>
     <use xlink:href="#m6aa5c0e9b8" x="221.441667" y="54.658333" style="fill: #55a868; stroke: #55a868"/>
     <use xlink:href="#m6aa5c0e9b8" x="223.315" y="54.658333" style="fill: #55a868; stroke: #55a868"/>
     <use xlink:href="#m6aa5c0e9b8" x="225.188333" y="54.658333" style="fill: #55a868; stroke: #55a868"/>
     <use xlink:href="#m6aa5c0e9b8" x="227.061667" y="54.658333" style="fill: #55a868; stroke: #55a868"/>
     <use xlink:href="#m6aa5c0e9b8" x="228.935" y="54.658333" style="fill: #55a868; stroke: #55a868"/>
     <use xlink:href="#m6aa5c0e9b8" x="230.808333" y="54.658333" style="fill: #55a868; stroke: #55a868"/>
     <use xlink:href="#m6aa5c0e9b8" x="232.681667" y="54.658333" style="fill: #55a868; stroke: #55a868"/>
     <use xlink:href="#m6aa5c0e9b8" x="234.555" y="54.658333" style="fill: #55a868; stroke: #55a868"/>
     <use xlink:href="#m6aa5c0e9b8" x="236.428333" y="54.658333" style="fill: #55a868; stroke: #55a868"/>
     <use xlink:href="#m6aa5c0e9b8" x="238.301667" y="54.658333" style="fill: #55a868; stroke: #55a868"/>
     <use xlink:href="#m6aa5c0e9b8" x="240.175" y="54.658333" style="fill: #55a868; stroke: #55a868"/>
     <use xlink:href="#m6aa5c0e9b8" x="242.048333" y="54.658333" style="fill: #55a868; stroke: #55a868"/>
     <use xlink:href="#m6aa5c0e9b8" x="243.921667" y="54.658333" style="fill: #55a868; stroke: #55a868"/>
     <use xlink:href="#m6aa5c0e9b8" x="245.795" y="54.658333" style="fill: #55a868; stroke: #55a868"/>
     <use xlink:href="#m6aa5c0e9b8" x="247.668333" y="54.658333" style="fill: #55a868; stroke: #55a868"/>
     <use xlink:href="#m6aa5c0e9b8" x="249.541667" y="54.658333" style="fill: #55a868; stroke: #55a868"/>
     <use xlink:href="#m6aa5c0e9b8" x="251.415" y="54.658333" style="fill: #55a868; stroke: #55a868"/>
     <use xlink:href="#m6aa5c0e9b8" x="253.288333" y="54.658333" style="fill: #55a868; stroke: #55a868"/>
     <use xlink:href="#m6aa5c0e9b8" x="255.161667" y="64.803889" style="fill: #55a868; stroke: #55a868"/>
     <use xlink:href="#m6aa5c0e9b8" x="257.035" y="74.949444" style="fill: #55a868; stroke: #55a868"/>
     <use xlink:href="#m6aa5c0e9b8" x="258.908333" y="74.949444" style="fill: #55a868; stroke: #55a868"/>
     <use xlink:href="#m6aa5c0e9b8" x="260.781667" y="85.095" style="fill: #55a868; stroke: #55a868"/>
     <use xlink:href="#m6aa5c0e9b8" x="262.655" y="95.240556" style="fill: #55a868; stroke: #55a868"/>
     <use xlink:href="#m6aa5c0e9b8" x="264.528333" y="105.386111" style="fill: #55a868; stroke: #55a868"/>
     <use xlink:href="#m6aa5c0e9b8" x="266.401667" y="115.531667" style="fill: #55a868; stroke: #55a868"/>
     <use xlink:href="#m6aa5c0e9b8" x="268.275" y="125.677222" style="fill: #55a868; stroke: #55a868"/>
     <use xlink:href="#m6aa5c0e9b8" x="270.148333" y="125.677222" style="fill: #55a868; stroke: #55a868"/>
     <use xlink:href="#m6aa5c0e9b8" x="272.021667" y="135.822778" style="fill: #55a868; stroke: #55a868"/>
     <use xlink:href="#m6aa5c0e9b8" x="273.895" y="145.968333" style="fill: #55a868; stroke: #55a868"/>
     <use xlink:href="#m6aa5c0e9b8" x="275.768333" y="156.113889" style="fill: #55a868; stroke: #55a868"/>
     <use xlink:href="#m6aa5c0e9b8" x="277.641667" y="166.259444" style="fill: #55a868; stroke: #55a868"/>
     <use xlink:href="#m6aa5c0e9b8" x="279.515" y="166.259444" style="fill: #55a868; stroke: #55a868"/>
     <use xlink:href="#m6aa5c0e9b8" x="281.388333" y="176.405" style="fill: #55a868; stroke: #55a868"/>
     <use xlink:href="#m6aa5c0e9b8" x="283.261667" y="176.405" style="fill: #55a868; stroke: #55a868"/>
     <use xlink:href="#m6aa5c0e9b8" x="285.135" y="176.405" style="fill: #55a868; stroke: #55a868"/>
     <use xlink:href="#m6aa5c0e9b8" x="287.008333" y="186.550556" style="fill: #55a868; stroke: #55a868"/>
     <use xlink:href="#m6aa5c0e9b8" x="288.881667" y="176.405" style="fill: #55a868; stroke: #55a868"/>
     <use xlink:href="#m6aa5c0e9b8" x="290.755" y="176.405" style="fill: #55a868; stroke: #55a868"/>
     <use xlink:href="#m6aa5c0e9b8" x="292.628333" y="176.405" style="fill: #55a868; stroke: #55a868"/>
     <use xlink:href="#m6aa5c0e9b8" x="294.501667" y="176.405" style="fill: #55a868; stroke: #55a868"/>
     <use xlink:href="#m6aa5c0e9b8" x="296.375" y="176.405" style="fill: #55a868; stroke: #55a868"/>
     <use xlink:href="#m6aa5c0e9b8" x="298.248333" y="186.550556" style="fill: #55a868; stroke: #55a868"/>
     <use xlink:href="#m6aa5c0e9b8" x="300.121667" y="176.405" style="fill: #55a868; stroke: #55a868"/>
     <use xlink:href="#m6aa5c0e9b8" x="301.995" y="166.259444" style="fill: #55a868; stroke: #55a868"/>
     <use xlink:href="#m6aa5c0e9b8" x="303.868333" y="166.259444" style="fill: #55a868; stroke: #55a868"/>
     <use xlink:href="#m6aa5c0e9b8" x="305.741667" y="156.113889" style="fill: #55a868; stroke: #55a868"/>
     <use xlink:href="#m6aa5c0e9b8" x="307.615" y="166.259444" style="fill: #55a868; stroke: #55a868"/>
     <use xlink:href="#m6aa5c0e9b8" x="309.488333" y="156.113889" style="fill: #55a868; stroke: #55a868"/>
     <use xlink:href="#m6aa5c0e9b8" x="311.361667" y="145.968333" style="fill: #55a868; stroke: #55a868"/>
     <use xlink:href="#m6aa5c0e9b8" x="313.235" y="135.822778" style="fill: #55a868; stroke: #55a868"/>
     <use xlink:href="#m6aa5c0e9b8" x="315.108333" y="135.822778" style="fill: #55a868; stroke: #55a868"/>
     <use xlink:href="#m6aa5c0e9b8" x="316.981667" y="135.822778" style="fill: #55a868; stroke: #55a868"/>
     <use xlink:href="#m6aa5c0e9b8" x="318.855" y="135.822778" style="fill: #55a868; stroke: #55a868"/>
     <use xlink:href="#m6aa5c0e9b8" x="320.728333" y="135.822778" style="fill: #55a868; stroke: #55a868"/>
     <use xlink:href="#m6aa5c0e9b8" x="322.601667" y="125.677222" style="fill: #55a868; stroke: #55a868"/>
     <use xlink:href="#m6aa5c0e9b8" x="324.475" y="125.677222" style="fill: #55a868; stroke: #55a868"/>
     <use xlink:href="#m6aa5c0e9b8" x="326.348333" y="125.677222" style="fill: #55a868; stroke: #55a868"/>
     <use xlink:href="#m6aa5c0e9b8" x="328.221667" y="135.822778" style="fill: #55a868; stroke: #55a868"/>
     <use xlink:href="#m6aa5c0e9b8" x="330.095" y="145.968333" style="fill: #55a868; stroke: #55a868"/>
     <use xlink:href="#m6aa5c0e9b8" x="331.968333" y="135.822778" style="fill: #55a868; stroke: #55a868"/>
     <use xlink:href="#m6aa5c0e9b8" x="333.841667" y="145.968333" style="fill: #55a868; stroke: #55a868"/>
     <use xlink:href="#m6aa5c0e9b8" x="335.715" y="135.822778" style="fill: #55a868; stroke: #55a868"/>
     <use xlink:href="#m6aa5c0e9b8" x="337.588333" y="135.822778" style="fill: #55a868; stroke: #55a868"/>
     <use xlink:href="#m6aa5c0e9b8" x="339.461667" y="145.968333" style="fill: #55a868; stroke: #55a868"/>
     <use xlink:href="#m6aa5c0e9b8" x="341.335" y="145.968333" style="fill: #55a868; stroke: #55a868"/>
     <use xlink:href="#m6aa5c0e9b8" x="343.208333" y="145.968333" style="fill: #55a868; stroke: #55a868"/>
     <use xlink:href="#m6aa5c0e9b8" x="345.081667" y="145.968333" style="fill: #55a868; stroke: #55a868"/>
     <use xlink:href="#m6aa5c0e9b8" x="346.955" y="145.968333" style="fill: #55a868; stroke: #55a868"/>
    </g>
   </g>
   <g id="line2d_10">
    <path d="M 82.815 148.785346 
L 84.688333 141.203318 
L 86.561667 132.299683 
L 88.435 124.936882 
L 92.181667 106.954732 
L 95.928333 88.198964 
L 97.801667 83.827504 
L 99.675 79.055633 
L 101.548333 75.956349 
L 103.421667 74.41294 
L 105.295 73.731196 
L 107.168333 71.555585 
L 109.041667 70.859874 
L 110.915 70.5545 
L 112.788333 68.668762 
L 114.661667 69.043306 
L 116.535 67.098064 
L 118.408333 66.507375 
L 120.281667 66.247687 
L 124.028333 66.08725 
L 131.521667 66.051445 
L 133.395 66.989466 
L 137.141667 67.220694 
L 140.888333 67.265275 
L 142.761667 66.332442 
L 146.508333 66.104431 
L 155.875 66.05108 
L 159.621667 66.050397 
L 161.495 65.111539 
L 165.241667 64.87979 
L 174.608333 64.82558 
L 189.595 64.824734 
L 191.468333 65.763414 
L 195.215 65.995069 
L 204.581667 66.049256 
L 208.328333 66.049946 
L 210.201667 66.988805 
L 213.948333 67.220555 
L 217.695 67.265235 
L 219.568333 66.332425 
L 221.441667 67.116393 
L 223.315 68.291356 
L 225.188333 69.718044 
L 227.061667 70.069402 
L 228.935 71.309366 
L 230.808333 72.759227 
L 232.681667 73.120761 
L 234.555 73.28047 
L 236.428333 74.353561 
L 238.301667 74.748805 
L 240.175 76.107956 
L 242.048333 77.686513 
L 243.921667 79.971615 
L 245.795 83.904678 
L 247.668333 86.10985 
L 249.541667 88.96432 
L 251.415 93.315605 
L 253.288333 99.044663 
L 255.161667 106.75996 
L 257.035 113.997705 
L 258.908333 119.448686 
L 260.781667 127.311552 
L 262.655 135.69353 
L 266.401667 150.712844 
L 272.021667 167.609773 
L 273.895 171.089732 
L 275.768333 177.34589 
L 277.641667 180.429622 
L 279.515 183.047687 
L 281.388333 184.398903 
L 283.261667 185.000007 
L 285.135 185.259367 
L 287.008333 186.167189 
L 288.881667 185.256691 
L 290.755 182.622679 
L 292.628333 179.691912 
L 294.501667 176.18309 
L 296.375 176.196145 
L 298.248333 175.162996 
L 300.121667 172.31718 
L 301.995 168.908738 
L 303.868333 166.262634 
L 305.741667 164.401144 
L 307.615 163.093681 
L 309.488333 162.494487 
L 311.361667 160.321539 
L 313.235 159.621927 
L 315.108333 160.272947 
L 316.981667 161.606571 
L 318.855 164.427263 
L 320.728333 165.775615 
L 322.601667 167.525671 
L 324.475 166.665137 
L 326.348333 165.297774 
L 328.221667 166.225902 
L 331.968333 169.082223 
L 333.841667 169.940723 
L 335.715 168.764618 
L 337.588333 166.77214 
L 339.461667 166.381208 
L 341.335 164.594616 
L 345.081667 160.31009 
L 346.955 158.108911 
L 348.828333 157.590675 
L 350.701667 157.230597 
L 352.575 157.622499 
L 354.448333 159.712885 
L 356.321667 160.056607 
L 358.195 161.371489 
L 360.068333 160.806874 
L 361.941667 161.665204 
L 363.815 162.676416 
L 365.688333 163.478897 
L 367.561667 164.114259 
L 371.308333 165.002426 
L 375.055 165.537607 
L 378.801667 165.854881 
L 384.421667 166.10266 
L 393.788333 166.249317 
L 418.141667 166.298136 
L 442.495 166.299509 
L 455.608333 185.219197 
L 455.608333 185.219197 
" clip-path="url(#pc3105a5f3c)" style="fill: none; stroke: #800000; stroke-width: 3; stroke-linecap: round"/>
   </g>
   <g id="line2d_11">
    <path d="M 82.815 156.110449 
L 86.561667 140.621485 
L 90.308333 124.649136 
L 95.928333 99.564162 
L 99.675 92.60557 
L 101.548333 89.721192 
L 103.421667 87.403247 
L 107.168333 83.741937 
L 109.041667 82.322436 
L 112.788333 80.155668 
L 116.535 78.525169 
L 118.408333 77.915769 
L 120.281667 77.464439 
L 124.028333 76.88785 
L 127.775 76.578814 
L 133.395 76.364267 
L 144.635 76.243669 
L 178.355 76.215882 
L 242.048333 76.215765 
L 243.921667 76.566833 
L 247.668333 78.040071 
L 249.541667 79.180142 
L 251.415 80.721608 
L 253.288333 82.642853 
L 255.161667 84.906722 
L 258.908333 90.026622 
L 262.655 95.838419 
L 266.401667 102.282915 
L 270.148333 108.848151 
L 272.021667 111.871416 
L 275.768333 117.215702 
L 277.641667 119.518821 
L 279.515 121.47179 
L 281.388333 123.082865 
L 283.261667 124.379191 
L 287.008333 126.420553 
L 288.881667 127.194743 
L 290.755 127.770018 
L 292.628333 128.188771 
L 300.121667 129.333937 
L 303.868333 129.718466 
L 307.615 130.001748 
L 313.235 130.193453 
L 335.715 130.659499 
L 358.195 130.716063 
L 442.495 130.716063 
L 455.608333 166.241345 
L 455.608333 166.241345 
" clip-path="url(#pc3105a5f3c)" style="fill: none; stroke: #d28dbd; stroke-width: 3; stroke-linecap: round"/>
   </g>
   <g id="line2d_12">
    <path d="M 82.815 154.737975 
L 84.688333 147.544522 
L 86.561667 139.858769 
L 88.435 132.855436 
L 92.181667 117.497667 
L 95.928333 100.97886 
L 97.801667 97.509255 
L 99.675 93.373486 
L 101.548333 90.454499 
L 103.421667 88.429921 
L 105.295 87.049814 
L 107.168333 84.809745 
L 109.041667 83.18391 
L 110.915 81.996825 
L 112.788333 80.024112 
L 114.661667 78.639658 
L 116.535 76.515988 
L 118.408333 74.834246 
L 120.281667 73.484079 
L 122.155 72.383776 
L 124.028333 71.473755 
L 127.775 70.062537 
L 131.521667 69.023107 
L 137.141667 68.154375 
L 142.761667 67.368957 
L 148.381667 66.598718 
L 154.001667 66.050875 
L 174.608333 64.481903 
L 185.848333 64.073777 
L 191.468333 64.014631 
L 202.708333 64.088233 
L 210.201667 64.156358 
L 217.695 64.340792 
L 221.441667 64.331856 
L 225.188333 64.716674 
L 228.935 65.201459 
L 232.681667 65.899833 
L 236.428333 66.48388 
L 240.175 67.301374 
L 242.048333 67.863389 
L 243.921667 69.646788 
L 245.795 72.708515 
L 247.668333 75.233547 
L 249.541667 78.798953 
L 251.415 83.147813 
L 253.288333 88.055539 
L 255.161667 93.56645 
L 257.035 99.434693 
L 258.908333 104.81094 
L 260.781667 110.716749 
L 264.528333 123.596825 
L 266.401667 130.297525 
L 270.148333 142.274702 
L 272.021667 147.298598 
L 273.895 150.969193 
L 275.768333 155.492263 
L 277.641667 158.333185 
L 279.515 160.641216 
L 281.388333 162.574636 
L 283.261667 164.190988 
L 285.135 165.546324 
L 287.008333 167.196066 
L 288.881667 167.270302 
L 290.755 166.007909 
L 292.628333 164.424421 
L 294.501667 162.368496 
L 296.375 161.396616 
L 298.248333 160.213027 
L 300.121667 158.455735 
L 301.995 155.992298 
L 303.868333 153.883934 
L 305.741667 152.180672 
L 307.615 150.729267 
L 309.488333 149.495253 
L 311.361667 147.695759 
L 313.235 146.179536 
L 315.108333 145.158722 
L 316.981667 145.597598 
L 318.855 147.280335 
L 320.728333 148.466012 
L 322.601667 149.798472 
L 324.475 149.566335 
L 326.348333 148.830989 
L 328.221667 148.892848 
L 330.095 149.581999 
L 331.968333 150.129235 
L 333.841667 150.028319 
L 335.715 149.349713 
L 337.588333 148.209001 
L 339.461667 147.454471 
L 341.335 146.289797 
L 343.208333 144.80769 
L 345.081667 143.084096 
L 346.955 141.180021 
L 348.828333 139.888453 
L 350.701667 138.770415 
L 352.575 138.770933 
L 354.448333 139.666273 
L 356.321667 140.108906 
L 358.195 140.812784 
L 360.068333 141.091572 
L 363.815 143.522807 
L 369.435 147.54294 
L 376.928333 152.90836 
L 382.548333 156.594653 
L 386.295 158.822437 
L 390.041667 160.853116 
L 393.788333 162.688058 
L 397.535 164.335545 
L 401.281667 165.807886 
L 406.901667 167.719478 
L 412.521667 169.31931 
L 418.141667 170.655002 
L 423.761667 171.769125 
L 431.255 172.972646 
L 438.748333 173.918628 
L 442.495 174.313162 
L 451.861667 185.475933 
L 455.608333 189.837401 
L 455.608333 189.837401 
" clip-path="url(#pc3105a5f3c)" style="fill: none; stroke: #701f60; stroke-width: 3; stroke-linecap: round"/>
   </g>
  </g>
  <g id="axes_2">
   <g id="matplotlib.axis_3">
    <g id="xtick_4">
     <g id="line2d_13">
      <path d="M 344.730833 222.06 
L 344.730833 39.44 
" clip-path="url(#p7a9bb4526c)" style="fill: none; stroke: #ffffff; stroke-linecap: round"/>
     </g>
     <g id="text_12">
      <!-- 0 -->
      <g style="fill: #262626" transform="translate(340.14306 243.370391)scale(0.165 -0.165)">
       <use xlink:href="#ArialMT-30"/>
      </g>
     </g>
    </g>
    <g id="xtick_5">
     <g id="line2d_14">
      <path d="M 420.985107 222.06 
L 420.985107 39.44 
" clip-path="url(#p7a9bb4526c)" style="fill: none; stroke: #ffffff; stroke-linecap: round"/>
     </g>
     <g id="text_13">
      <!-- 50 -->
      <g style="fill: #262626" transform="translate(411.80956 243.370391)scale(0.165 -0.165)">
       <use xlink:href="#ArialMT-35"/>
       <use xlink:href="#ArialMT-30" x="55.615234"/>
      </g>
     </g>
    </g>
    <g id="xtick_6">
     <g id="line2d_15">
      <path d="M 497.23938 222.06 
L 497.23938 39.44 
" clip-path="url(#p7a9bb4526c)" style="fill: none; stroke: #ffffff; stroke-linecap: round"/>
     </g>
     <g id="text_14">
      <!-- 100 -->
      <g style="fill: #262626" transform="translate(483.47606 243.370391)scale(0.165 -0.165)">
       <use xlink:href="#ArialMT-31"/>
       <use xlink:href="#ArialMT-30" x="55.615234"/>
       <use xlink:href="#ArialMT-30" x="111.230469"/>
      </g>
     </g>
    </g>
    <g id="xtick_7">
     <g id="line2d_16">
      <path d="M 573.493654 222.06 
L 573.493654 39.44 
" clip-path="url(#p7a9bb4526c)" style="fill: none; stroke: #ffffff; stroke-linecap: round"/>
     </g>
     <g id="text_15">
      <!-- 150 -->
      <g style="fill: #262626" transform="translate(559.730334 243.370391)scale(0.165 -0.165)">
       <use xlink:href="#ArialMT-31"/>
       <use xlink:href="#ArialMT-35" x="55.615234"/>
       <use xlink:href="#ArialMT-30" x="111.230469"/>
      </g>
     </g>
    </g>
    <g id="text_16">
     <!-- Trial -->
     <g style="fill: #262626" transform="translate(446.527031 263.533828)scale(0.18 -0.18)">
      <use xlink:href="#ArialMT-54"/>
      <use xlink:href="#ArialMT-72" x="57.333984"/>
      <use xlink:href="#ArialMT-69" x="90.634766"/>
      <use xlink:href="#ArialMT-61" x="112.851562"/>
      <use xlink:href="#ArialMT-6c" x="168.466797"/>
     </g>
    </g>
   </g>
   <g id="matplotlib.axis_4"/>
   <g id="LineCollection_2">
    <path d="M 344.730833 130.75 
L 649.747927 130.75 
" clip-path="url(#p7a9bb4526c)" style="fill: none; stroke-dasharray: 1.5,2.475; stroke-dashoffset: 0; stroke: #808080; stroke-width: 1.5"/>
   </g>
   <g id="text_17">
    <!-- Fly 2 -->
    <g style="fill: #262626" transform="translate(444.185625 33.44)scale(0.18 -0.18)">
     <use xlink:href="#ArialMT-46"/>
     <use xlink:href="#ArialMT-6c" x="61.083984"/>
     <use xlink:href="#ArialMT-79" x="83.300781"/>
     <use xlink:href="#ArialMT-20" x="133.300781"/>
     <use xlink:href="#ArialMT-32" x="161.083984"/>
    </g>
   </g>
   <g id="line2d_17">
    <g clip-path="url(#p7a9bb4526c)">
     <use xlink:href="#m6aa5c0e9b8" x="367.607115" y="145.968333" style="fill: #55a868; stroke: #55a868"/>
     <use xlink:href="#m6aa5c0e9b8" x="369.132201" y="135.822778" style="fill: #55a868; stroke: #55a868"/>
     <use xlink:href="#m6aa5c0e9b8" x="370.657286" y="145.968333" style="fill: #55a868; stroke: #55a868"/>
     <use xlink:href="#m6aa5c0e9b8" x="372.182372" y="135.822778" style="fill: #55a868; stroke: #55a868"/>
     <use xlink:href="#m6aa5c0e9b8" x="373.707457" y="125.677222" style="fill: #55a868; stroke: #55a868"/>
     <use xlink:href="#m6aa5c0e9b8" x="375.232543" y="115.531667" style="fill: #55a868; stroke: #55a868"/>
     <use xlink:href="#m6aa5c0e9b8" x="376.757628" y="115.531667" style="fill: #55a868; stroke: #55a868"/>
     <use xlink:href="#m6aa5c0e9b8" x="378.282714" y="125.677222" style="fill: #55a868; stroke: #55a868"/>
     <use xlink:href="#m6aa5c0e9b8" x="379.807799" y="125.677222" style="fill: #55a868; stroke: #55a868"/>
     <use xlink:href="#m6aa5c0e9b8" x="381.332885" y="125.677222" style="fill: #55a868; stroke: #55a868"/>
     <use xlink:href="#m6aa5c0e9b8" x="382.85797" y="125.677222" style="fill: #55a868; stroke: #55a868"/>
     <use xlink:href="#m6aa5c0e9b8" x="384.383056" y="115.531667" style="fill: #55a868; stroke: #55a868"/>
     <use xlink:href="#m6aa5c0e9b8" x="385.908141" y="105.386111" style="fill: #55a868; stroke: #55a868"/>
     <use xlink:href="#m6aa5c0e9b8" x="387.433226" y="95.240556" style="fill: #55a868; stroke: #55a868"/>
     <use xlink:href="#m6aa5c0e9b8" x="388.958312" y="95.240556" style="fill: #55a868; stroke: #55a868"/>
     <use xlink:href="#m6aa5c0e9b8" x="390.483397" y="95.240556" style="fill: #55a868; stroke: #55a868"/>
     <use xlink:href="#m6aa5c0e9b8" x="392.008483" y="95.240556" style="fill: #55a868; stroke: #55a868"/>
     <use xlink:href="#m6aa5c0e9b8" x="393.533568" y="85.095" style="fill: #55a868; stroke: #55a868"/>
     <use xlink:href="#m6aa5c0e9b8" x="395.058654" y="95.240556" style="fill: #55a868; stroke: #55a868"/>
     <use xlink:href="#m6aa5c0e9b8" x="396.583739" y="95.240556" style="fill: #55a868; stroke: #55a868"/>
     <use xlink:href="#m6aa5c0e9b8" x="398.108825" y="95.240556" style="fill: #55a868; stroke: #55a868"/>
     <use xlink:href="#m6aa5c0e9b8" x="399.63391" y="105.386111" style="fill: #55a868; stroke: #55a868"/>
     <use xlink:href="#m6aa5c0e9b8" x="401.158996" y="105.386111" style="fill: #55a868; stroke: #55a868"/>
     <use xlink:href="#m6aa5c0e9b8" x="402.684081" y="115.531667" style="fill: #55a868; stroke: #55a868"/>
     <use xlink:href="#m6aa5c0e9b8" x="404.209167" y="115.531667" style="fill: #55a868; stroke: #55a868"/>
     <use xlink:href="#m6aa5c0e9b8" x="405.734252" y="105.386111" style="fill: #55a868; stroke: #55a868"/>
     <use xlink:href="#m6aa5c0e9b8" x="407.259338" y="105.386111" style="fill: #55a868; stroke: #55a868"/>
     <use xlink:href="#m6aa5c0e9b8" x="408.784423" y="105.386111" style="fill: #55a868; stroke: #55a868"/>
     <use xlink:href="#m6aa5c0e9b8" x="410.309509" y="105.386111" style="fill: #55a868; stroke: #55a868"/>
     <use xlink:href="#m6aa5c0e9b8" x="411.834594" y="95.240556" style="fill: #55a868; stroke: #55a868"/>
     <use xlink:href="#m6aa5c0e9b8" x="413.359679" y="105.386111" style="fill: #55a868; stroke: #55a868"/>
     <use xlink:href="#m6aa5c0e9b8" x="414.884765" y="105.386111" style="fill: #55a868; stroke: #55a868"/>
     <use xlink:href="#m6aa5c0e9b8" x="416.40985" y="115.531667" style="fill: #55a868; stroke: #55a868"/>
     <use xlink:href="#m6aa5c0e9b8" x="417.934936" y="105.386111" style="fill: #55a868; stroke: #55a868"/>
     <use xlink:href="#m6aa5c0e9b8" x="419.460021" y="105.386111" style="fill: #55a868; stroke: #55a868"/>
     <use xlink:href="#m6aa5c0e9b8" x="420.985107" y="115.531667" style="fill: #55a868; stroke: #55a868"/>
     <use xlink:href="#m6aa5c0e9b8" x="422.510192" y="115.531667" style="fill: #55a868; stroke: #55a868"/>
     <use xlink:href="#m6aa5c0e9b8" x="424.035278" y="105.386111" style="fill: #55a868; stroke: #55a868"/>
     <use xlink:href="#m6aa5c0e9b8" x="425.560363" y="95.240556" style="fill: #55a868; stroke: #55a868"/>
     <use xlink:href="#m6aa5c0e9b8" x="427.085449" y="105.386111" style="fill: #55a868; stroke: #55a868"/>
     <use xlink:href="#m6aa5c0e9b8" x="428.610534" y="105.386111" style="fill: #55a868; stroke: #55a868"/>
     <use xlink:href="#m6aa5c0e9b8" x="430.13562" y="105.386111" style="fill: #55a868; stroke: #55a868"/>
     <use xlink:href="#m6aa5c0e9b8" x="431.660705" y="105.386111" style="fill: #55a868; stroke: #55a868"/>
     <use xlink:href="#m6aa5c0e9b8" x="433.185791" y="115.531667" style="fill: #55a868; stroke: #55a868"/>
     <use xlink:href="#m6aa5c0e9b8" x="434.710876" y="115.531667" style="fill: #55a868; stroke: #55a868"/>
     <use xlink:href="#m6aa5c0e9b8" x="436.235962" y="105.386111" style="fill: #55a868; stroke: #55a868"/>
     <use xlink:href="#m6aa5c0e9b8" x="437.761047" y="105.386111" style="fill: #55a868; stroke: #55a868"/>
     <use xlink:href="#m6aa5c0e9b8" x="439.286132" y="95.240556" style="fill: #55a868; stroke: #55a868"/>
     <use xlink:href="#m6aa5c0e9b8" x="440.811218" y="95.240556" style="fill: #55a868; stroke: #55a868"/>
     <use xlink:href="#m6aa5c0e9b8" x="442.336303" y="95.240556" style="fill: #55a868; stroke: #55a868"/>
     <use xlink:href="#m6aa5c0e9b8" x="443.861389" y="85.095" style="fill: #55a868; stroke: #55a868"/>
     <use xlink:href="#m6aa5c0e9b8" x="445.386474" y="74.949444" style="fill: #55a868; stroke: #55a868"/>
     <use xlink:href="#m6aa5c0e9b8" x="446.91156" y="74.949444" style="fill: #55a868; stroke: #55a868"/>
     <use xlink:href="#m6aa5c0e9b8" x="448.436645" y="85.095" style="fill: #55a868; stroke: #55a868"/>
     <use xlink:href="#m6aa5c0e9b8" x="449.961731" y="74.949444" style="fill: #55a868; stroke: #55a868"/>
     <use xlink:href="#m6aa5c0e9b8" x="451.486816" y="85.095" style="fill: #55a868; stroke: #55a868"/>
     <use xlink:href="#m6aa5c0e9b8" x="453.011902" y="85.095" style="fill: #55a868; stroke: #55a868"/>
     <use xlink:href="#m6aa5c0e9b8" x="454.536987" y="85.095" style="fill: #55a868; stroke: #55a868"/>
     <use xlink:href="#m6aa5c0e9b8" x="456.062073" y="74.949444" style="fill: #55a868; stroke: #55a868"/>
     <use xlink:href="#m6aa5c0e9b8" x="457.587158" y="74.949444" style="fill: #55a868; stroke: #55a868"/>
     <use xlink:href="#m6aa5c0e9b8" x="459.112244" y="74.949444" style="fill: #55a868; stroke: #55a868"/>
     <use xlink:href="#m6aa5c0e9b8" x="460.637329" y="74.949444" style="fill: #55a868; stroke: #55a868"/>
     <use xlink:href="#m6aa5c0e9b8" x="462.162415" y="74.949444" style="fill: #55a868; stroke: #55a868"/>
     <use xlink:href="#m6aa5c0e9b8" x="463.6875" y="74.949444" style="fill: #55a868; stroke: #55a868"/>
     <use xlink:href="#m6aa5c0e9b8" x="465.212585" y="85.095" style="fill: #55a868; stroke: #55a868"/>
     <use xlink:href="#m6aa5c0e9b8" x="466.737671" y="85.095" style="fill: #55a868; stroke: #55a868"/>
     <use xlink:href="#m6aa5c0e9b8" x="468.262756" y="95.240556" style="fill: #55a868; stroke: #55a868"/>
     <use xlink:href="#m6aa5c0e9b8" x="469.787842" y="105.386111" style="fill: #55a868; stroke: #55a868"/>
     <use xlink:href="#m6aa5c0e9b8" x="471.312927" y="95.240556" style="fill: #55a868; stroke: #55a868"/>
     <use xlink:href="#m6aa5c0e9b8" x="472.838013" y="95.240556" style="fill: #55a868; stroke: #55a868"/>
     <use xlink:href="#m6aa5c0e9b8" x="474.363098" y="95.240556" style="fill: #55a868; stroke: #55a868"/>
     <use xlink:href="#m6aa5c0e9b8" x="475.888184" y="105.386111" style="fill: #55a868; stroke: #55a868"/>
     <use xlink:href="#m6aa5c0e9b8" x="477.413269" y="105.386111" style="fill: #55a868; stroke: #55a868"/>
     <use xlink:href="#m6aa5c0e9b8" x="478.938355" y="105.386111" style="fill: #55a868; stroke: #55a868"/>
     <use xlink:href="#m6aa5c0e9b8" x="480.46344" y="115.531667" style="fill: #55a868; stroke: #55a868"/>
     <use xlink:href="#m6aa5c0e9b8" x="481.988526" y="125.677222" style="fill: #55a868; stroke: #55a868"/>
     <use xlink:href="#m6aa5c0e9b8" x="483.513611" y="135.822778" style="fill: #55a868; stroke: #55a868"/>
     <use xlink:href="#m6aa5c0e9b8" x="485.038697" y="145.968333" style="fill: #55a868; stroke: #55a868"/>
     <use xlink:href="#m6aa5c0e9b8" x="486.563782" y="145.968333" style="fill: #55a868; stroke: #55a868"/>
     <use xlink:href="#m6aa5c0e9b8" x="488.088868" y="145.968333" style="fill: #55a868; stroke: #55a868"/>
     <use xlink:href="#m6aa5c0e9b8" x="489.613953" y="145.968333" style="fill: #55a868; stroke: #55a868"/>
     <use xlink:href="#m6aa5c0e9b8" x="491.139038" y="135.822778" style="fill: #55a868; stroke: #55a868"/>
     <use xlink:href="#m6aa5c0e9b8" x="492.664124" y="135.822778" style="fill: #55a868; stroke: #55a868"/>
     <use xlink:href="#m6aa5c0e9b8" x="494.189209" y="145.968333" style="fill: #55a868; stroke: #55a868"/>
     <use xlink:href="#m6aa5c0e9b8" x="495.714295" y="156.113889" style="fill: #55a868; stroke: #55a868"/>
     <use xlink:href="#m6aa5c0e9b8" x="497.23938" y="145.968333" style="fill: #55a868; stroke: #55a868"/>
     <use xlink:href="#m6aa5c0e9b8" x="498.764466" y="145.968333" style="fill: #55a868; stroke: #55a868"/>
     <use xlink:href="#m6aa5c0e9b8" x="500.289551" y="156.113889" style="fill: #55a868; stroke: #55a868"/>
     <use xlink:href="#m6aa5c0e9b8" x="501.814637" y="156.113889" style="fill: #55a868; stroke: #55a868"/>
     <use xlink:href="#m6aa5c0e9b8" x="503.339722" y="145.968333" style="fill: #55a868; stroke: #55a868"/>
     <use xlink:href="#m6aa5c0e9b8" x="504.864808" y="145.968333" style="fill: #55a868; stroke: #55a868"/>
     <use xlink:href="#m6aa5c0e9b8" x="506.389893" y="145.968333" style="fill: #55a868; stroke: #55a868"/>
     <use xlink:href="#m6aa5c0e9b8" x="507.914979" y="135.822778" style="fill: #55a868; stroke: #55a868"/>
     <use xlink:href="#m6aa5c0e9b8" x="509.440064" y="145.968333" style="fill: #55a868; stroke: #55a868"/>
     <use xlink:href="#m6aa5c0e9b8" x="510.96515" y="145.968333" style="fill: #55a868; stroke: #55a868"/>
     <use xlink:href="#m6aa5c0e9b8" x="512.490235" y="156.113889" style="fill: #55a868; stroke: #55a868"/>
     <use xlink:href="#m6aa5c0e9b8" x="514.015321" y="156.113889" style="fill: #55a868; stroke: #55a868"/>
     <use xlink:href="#m6aa5c0e9b8" x="515.540406" y="145.968333" style="fill: #55a868; stroke: #55a868"/>
     <use xlink:href="#m6aa5c0e9b8" x="517.065491" y="145.968333" style="fill: #55a868; stroke: #55a868"/>
     <use xlink:href="#m6aa5c0e9b8" x="518.590577" y="145.968333" style="fill: #55a868; stroke: #55a868"/>
     <use xlink:href="#m6aa5c0e9b8" x="520.115662" y="156.113889" style="fill: #55a868; stroke: #55a868"/>
     <use xlink:href="#m6aa5c0e9b8" x="521.640748" y="145.968333" style="fill: #55a868; stroke: #55a868"/>
     <use xlink:href="#m6aa5c0e9b8" x="523.165833" y="135.822778" style="fill: #55a868; stroke: #55a868"/>
     <use xlink:href="#m6aa5c0e9b8" x="524.690919" y="145.968333" style="fill: #55a868; stroke: #55a868"/>
     <use xlink:href="#m6aa5c0e9b8" x="526.216004" y="145.968333" style="fill: #55a868; stroke: #55a868"/>
     <use xlink:href="#m6aa5c0e9b8" x="527.74109" y="135.822778" style="fill: #55a868; stroke: #55a868"/>
     <use xlink:href="#m6aa5c0e9b8" x="529.266175" y="125.677222" style="fill: #55a868; stroke: #55a868"/>
     <use xlink:href="#m6aa5c0e9b8" x="530.791261" y="125.677222" style="fill: #55a868; stroke: #55a868"/>
     <use xlink:href="#m6aa5c0e9b8" x="532.316346" y="115.531667" style="fill: #55a868; stroke: #55a868"/>
     <use xlink:href="#m6aa5c0e9b8" x="533.841432" y="105.386111" style="fill: #55a868; stroke: #55a868"/>
     <use xlink:href="#m6aa5c0e9b8" x="535.366517" y="95.240556" style="fill: #55a868; stroke: #55a868"/>
     <use xlink:href="#m6aa5c0e9b8" x="536.891603" y="95.240556" style="fill: #55a868; stroke: #55a868"/>
     <use xlink:href="#m6aa5c0e9b8" x="538.416688" y="105.386111" style="fill: #55a868; stroke: #55a868"/>
     <use xlink:href="#m6aa5c0e9b8" x="539.941774" y="95.240556" style="fill: #55a868; stroke: #55a868"/>
     <use xlink:href="#m6aa5c0e9b8" x="541.466859" y="95.240556" style="fill: #55a868; stroke: #55a868"/>
     <use xlink:href="#m6aa5c0e9b8" x="542.991944" y="95.240556" style="fill: #55a868; stroke: #55a868"/>
     <use xlink:href="#m6aa5c0e9b8" x="544.51703" y="105.386111" style="fill: #55a868; stroke: #55a868"/>
     <use xlink:href="#m6aa5c0e9b8" x="546.042115" y="115.531667" style="fill: #55a868; stroke: #55a868"/>
     <use xlink:href="#m6aa5c0e9b8" x="547.567201" y="115.531667" style="fill: #55a868; stroke: #55a868"/>
     <use xlink:href="#m6aa5c0e9b8" x="549.092286" y="125.677222" style="fill: #55a868; stroke: #55a868"/>
     <use xlink:href="#m6aa5c0e9b8" x="550.617372" y="135.822778" style="fill: #55a868; stroke: #55a868"/>
     <use xlink:href="#m6aa5c0e9b8" x="552.142457" y="135.822778" style="fill: #55a868; stroke: #55a868"/>
     <use xlink:href="#m6aa5c0e9b8" x="553.667543" y="135.822778" style="fill: #55a868; stroke: #55a868"/>
     <use xlink:href="#m6aa5c0e9b8" x="555.192628" y="145.968333" style="fill: #55a868; stroke: #55a868"/>
     <use xlink:href="#m6aa5c0e9b8" x="556.717714" y="145.968333" style="fill: #55a868; stroke: #55a868"/>
     <use xlink:href="#m6aa5c0e9b8" x="558.242799" y="156.113889" style="fill: #55a868; stroke: #55a868"/>
     <use xlink:href="#m6aa5c0e9b8" x="559.767885" y="156.113889" style="fill: #55a868; stroke: #55a868"/>
     <use xlink:href="#m6aa5c0e9b8" x="561.29297" y="156.113889" style="fill: #55a868; stroke: #55a868"/>
     <use xlink:href="#m6aa5c0e9b8" x="562.818056" y="156.113889" style="fill: #55a868; stroke: #55a868"/>
     <use xlink:href="#m6aa5c0e9b8" x="564.343141" y="156.113889" style="fill: #55a868; stroke: #55a868"/>
     <use xlink:href="#m6aa5c0e9b8" x="565.868226" y="156.113889" style="fill: #55a868; stroke: #55a868"/>
     <use xlink:href="#m6aa5c0e9b8" x="567.393312" y="145.968333" style="fill: #55a868; stroke: #55a868"/>
     <use xlink:href="#m6aa5c0e9b8" x="568.918397" y="135.822778" style="fill: #55a868; stroke: #55a868"/>
     <use xlink:href="#m6aa5c0e9b8" x="570.443483" y="125.677222" style="fill: #55a868; stroke: #55a868"/>
     <use xlink:href="#m6aa5c0e9b8" x="571.968568" y="115.531667" style="fill: #55a868; stroke: #55a868"/>
     <use xlink:href="#m6aa5c0e9b8" x="573.493654" y="115.531667" style="fill: #55a868; stroke: #55a868"/>
     <use xlink:href="#m6aa5c0e9b8" x="575.018739" y="125.677222" style="fill: #55a868; stroke: #55a868"/>
     <use xlink:href="#m6aa5c0e9b8" x="576.543825" y="135.822778" style="fill: #55a868; stroke: #55a868"/>
     <use xlink:href="#m6aa5c0e9b8" x="578.06891" y="135.822778" style="fill: #55a868; stroke: #55a868"/>
     <use xlink:href="#m6aa5c0e9b8" x="579.593996" y="145.968333" style="fill: #55a868; stroke: #55a868"/>
     <use xlink:href="#m6aa5c0e9b8" x="581.119081" y="145.968333" style="fill: #55a868; stroke: #55a868"/>
     <use xlink:href="#m6aa5c0e9b8" x="582.644167" y="156.113889" style="fill: #55a868; stroke: #55a868"/>
     <use xlink:href="#m6aa5c0e9b8" x="584.169252" y="156.113889" style="fill: #55a868; stroke: #55a868"/>
     <use xlink:href="#m6aa5c0e9b8" x="585.694338" y="156.113889" style="fill: #55a868; stroke: #55a868"/>
     <use xlink:href="#m6aa5c0e9b8" x="587.219423" y="145.968333" style="fill: #55a868; stroke: #55a868"/>
     <use xlink:href="#m6aa5c0e9b8" x="588.744509" y="145.968333" style="fill: #55a868; stroke: #55a868"/>
     <use xlink:href="#m6aa5c0e9b8" x="590.269594" y="156.113889" style="fill: #55a868; stroke: #55a868"/>
     <use xlink:href="#m6aa5c0e9b8" x="591.794679" y="166.259444" style="fill: #55a868; stroke: #55a868"/>
     <use xlink:href="#m6aa5c0e9b8" x="593.319765" y="166.259444" style="fill: #55a868; stroke: #55a868"/>
     <use xlink:href="#m6aa5c0e9b8" x="594.84485" y="176.405" style="fill: #55a868; stroke: #55a868"/>
     <use xlink:href="#m6aa5c0e9b8" x="596.369936" y="166.259444" style="fill: #55a868; stroke: #55a868"/>
     <use xlink:href="#m6aa5c0e9b8" x="597.895021" y="156.113889" style="fill: #55a868; stroke: #55a868"/>
     <use xlink:href="#m6aa5c0e9b8" x="599.420107" y="145.968333" style="fill: #55a868; stroke: #55a868"/>
     <use xlink:href="#m6aa5c0e9b8" x="600.945192" y="135.822778" style="fill: #55a868; stroke: #55a868"/>
     <use xlink:href="#m6aa5c0e9b8" x="602.470278" y="125.677222" style="fill: #55a868; stroke: #55a868"/>
     <use xlink:href="#m6aa5c0e9b8" x="603.995363" y="115.531667" style="fill: #55a868; stroke: #55a868"/>
    </g>
   </g>
   <g id="line2d_18">
    <path d="M 344.730833 161.250784 
L 346.255919 153.038799 
L 349.30609 134.888243 
L 350.831175 127.252952 
L 352.356261 120.32112 
L 353.881346 114.395034 
L 355.406432 109.097369 
L 356.931517 109.279161 
L 358.456603 108.106011 
L 359.981688 105.038492 
L 361.506774 104.980722 
L 363.031859 102.334416 
L 364.556944 98.716959 
L 366.08203 94.450679 
L 367.607115 91.866066 
L 369.132201 92.310823 
L 373.707457 92.211503 
L 375.232543 90.210343 
L 376.757628 86.903478 
L 378.282714 82.834758 
L 379.807799 79.981192 
L 381.332885 77.64397 
L 382.85797 76.498798 
L 384.383056 74.000712 
L 387.433226 74.193901 
L 388.958312 74.218736 
L 390.483397 75.321063 
L 392.008483 76.096384 
L 393.533568 79.029781 
L 395.058654 80.344259 
L 396.583739 79.213271 
L 398.108825 78.973617 
L 401.158996 78.81992 
L 402.684081 77.12059 
L 404.209167 77.574083 
L 405.734252 77.770764 
L 407.259338 79.139264 
L 408.784423 78.743891 
L 410.309509 78.566937 
L 411.834594 80.236025 
L 413.359679 81.617522 
L 414.884765 80.032496 
L 416.40985 77.001958 
L 417.934936 77.434919 
L 420.985107 77.315692 
L 422.510192 77.301536 
L 424.035278 78.97947 
L 425.560363 79.457063 
L 427.085449 78.726271 
L 428.610534 78.40618 
L 430.13562 76.984498 
L 431.660705 76.354797 
L 433.185791 76.083176 
L 434.710876 74.220694 
L 436.235962 71.663983 
L 437.761047 70.773757 
L 439.286132 71.303106 
L 440.811218 69.742787 
L 442.336303 71.11639 
L 443.861389 71.455804 
L 445.386474 71.606725 
L 446.91156 69.987673 
L 448.436645 69.535537 
L 449.961731 69.336681 
L 453.011902 69.213666 
L 454.536987 69.197542 
L 456.062073 70.111973 
L 457.587158 71.777944 
L 459.112244 74.10792 
L 460.637329 78.072591 
L 462.162415 79.379012 
L 463.6875 79.98896 
L 465.212585 80.264859 
L 469.787842 90.192813 
L 471.312927 94.950507 
L 472.838013 101.4737 
L 474.363098 109.233851 
L 475.888184 117.577185 
L 478.938355 132.069932 
L 480.46344 137.02648 
L 483.513611 144.476636 
L 485.038697 150.580741 
L 486.563782 158.161345 
L 488.088868 163.526217 
L 489.613953 167.951221 
L 491.139038 172.835976 
L 492.664124 176.426343 
L 494.189209 177.828166 
L 495.714295 178.865093 
L 497.23938 179.358853 
L 498.764466 177.727988 
L 500.289551 177.162061 
L 501.814637 177.184472 
L 503.339722 179.066805 
L 504.864808 179.991333 
L 506.389893 178.472978 
L 507.914979 178.040222 
L 509.440064 177.846311 
L 510.96515 178.855419 
L 512.490235 178.232383 
L 514.015321 176.027647 
L 515.540406 176.734842 
L 517.065491 176.93389 
L 518.590577 174.129552 
L 523.165833 162.006433 
L 524.690919 156.476134 
L 526.216004 150.457129 
L 527.74109 145.920932 
L 529.266175 143.039874 
L 530.791261 138.497641 
L 532.316346 134.867887 
L 533.841432 132.758143 
L 535.366517 132.861169 
L 536.891603 134.838886 
L 538.416688 135.759434 
L 539.941774 138.057635 
L 541.466859 142.034121 
L 542.991944 145.552746 
L 544.51703 149.651277 
L 546.042115 154.657267 
L 550.617372 165.987831 
L 552.142457 170.313884 
L 555.192628 176.490474 
L 556.717714 178.404484 
L 558.242799 177.503577 
L 559.767885 175.226414 
L 561.29297 171.812849 
L 562.818056 167.831341 
L 564.343141 165.656174 
L 565.868226 165.611016 
L 567.393312 167.370592 
L 568.918397 167.072794 
L 570.443483 167.955936 
L 571.968568 169.858496 
L 573.493654 171.496882 
L 575.018739 171.151686 
L 576.543825 171.533833 
L 578.06891 168.725986 
L 579.593996 165.548093 
L 581.119081 165.835 
L 584.169252 166.889145 
L 585.694338 167.779981 
L 587.219423 166.313927 
L 588.744509 163.194822 
L 590.269594 159.091453 
L 591.794679 154.0245 
L 594.84485 141.239013 
L 596.369936 136.207147 
L 597.895021 131.94981 
L 599.420107 128.80982 
L 600.945192 127.704293 
L 602.470278 126.922304 
L 603.995363 124.625578 
L 605.520449 123.216648 
L 607.045534 122.970007 
L 608.57062 123.072202 
L 610.095705 123.887954 
L 611.620791 125.332019 
L 613.145876 127.328997 
L 614.670962 131.262369 
L 616.196047 136.592444 
L 617.721132 141.305655 
L 619.246218 145.381373 
L 620.771303 148.929503 
L 622.296389 152.000639 
L 623.821474 154.63499 
L 625.34656 156.870182 
L 626.871645 158.744047 
L 628.396731 160.295537 
L 629.921816 161.564389 
L 631.446902 162.590045 
L 632.971987 163.410323 
L 634.497073 164.060191 
L 637.547244 164.969507 
L 642.1225 173.823354 
L 648.222842 185.036817 
L 648.222842 185.036817 
" clip-path="url(#p7a9bb4526c)" style="fill: none; stroke: #800000; stroke-width: 3; stroke-linecap: round"/>
   </g>
   <g id="line2d_19">
    <path d="M 344.730833 162.391693 
L 347.781004 148.296043 
L 353.881346 118.38895 
L 355.406432 111.306164 
L 356.931517 109.296155 
L 358.456603 106.97736 
L 359.981688 104.41694 
L 361.506774 102.511556 
L 364.556944 98.189138 
L 366.08203 95.852462 
L 367.607115 94.030205 
L 369.132201 92.72127 
L 370.657286 91.782864 
L 375.232543 89.847828 
L 379.807799 86.173457 
L 381.332885 85.239864 
L 384.383056 83.831967 
L 385.908141 83.698652 
L 388.958312 83.803555 
L 390.483397 84.389569 
L 393.533568 86.424291 
L 401.158996 91.985718 
L 402.684081 93.133765 
L 405.734252 96.222045 
L 407.259338 98.119384 
L 411.834594 102.659468 
L 413.359679 103.772377 
L 425.560363 109.499451 
L 428.610534 110.181387 
L 437.761047 110.175906 
L 454.536987 113.430792 
L 457.587158 114.515898 
L 459.112244 115.257372 
L 460.637329 116.155373 
L 463.6875 117.359214 
L 466.737671 118.896254 
L 471.312927 121.408254 
L 475.888184 124.315352 
L 477.413269 125.315597 
L 480.46344 126.863975 
L 481.988526 127.43925 
L 488.088868 129.101905 
L 494.189209 130.029198 
L 498.764466 130.32915 
L 506.389893 130.590024 
L 518.590577 130.708563 
L 564.343141 130.749469 
L 637.547244 130.749944 
L 648.222842 166.259414 
L 648.222842 166.259414 
" clip-path="url(#p7a9bb4526c)" style="fill: none; stroke: #d28dbd; stroke-width: 3; stroke-linecap: round"/>
   </g>
   <g id="line2d_20">
    <path d="M 344.730833 164.051313 
L 346.255919 157.383521 
L 350.831175 135.144097 
L 352.356261 128.651955 
L 355.406432 118.174528 
L 356.931517 118.313698 
L 358.456603 118.139901 
L 359.981688 116.675714 
L 361.506774 116.826117 
L 363.031859 115.714684 
L 364.556944 113.622058 
L 366.08203 110.767496 
L 367.607115 108.7673 
L 369.132201 108.230222 
L 370.657286 108.015612 
L 372.182372 108.014341 
L 373.707457 107.874083 
L 375.232543 106.81533 
L 376.757628 104.363336 
L 378.282714 101.469694 
L 379.807799 98.96656 
L 381.332885 97.044441 
L 382.85797 95.574716 
L 384.383056 93.497228 
L 385.908141 93.112233 
L 387.433226 92.924914 
L 388.958312 92.874385 
L 390.483397 94.12977 
L 392.008483 95.603178 
L 395.058654 99.264956 
L 399.63391 101.499122 
L 401.158996 102.160863 
L 402.684081 102.0176 
L 405.734252 104.14683 
L 407.259338 106.209878 
L 410.309509 107.424173 
L 411.834594 108.551918 
L 413.359679 108.925009 
L 414.884765 108.108805 
L 416.40985 106.852016 
L 419.460021 105.984348 
L 422.510192 105.286353 
L 425.560363 105.990505 
L 428.610534 104.241279 
L 430.13562 102.36701 
L 431.660705 100.684798 
L 433.185791 99.176255 
L 434.710876 97.250699 
L 436.235962 94.96629 
L 437.761047 92.965651 
L 439.286132 92.358296 
L 440.811218 91.199015 
L 443.861389 90.597626 
L 445.386474 90.369318 
L 448.436645 88.752541 
L 451.486816 87.554662 
L 454.536987 86.64907 
L 456.062073 87.426746 
L 457.587158 88.42309 
L 459.112244 90.514146 
L 460.637329 93.485104 
L 462.162415 94.961223 
L 463.6875 96.257026 
L 465.212585 97.836707 
L 466.737671 100.248904 
L 469.787842 105.693789 
L 471.312927 109.211287 
L 472.838013 113.345343 
L 474.363098 118.013446 
L 475.888184 123.143756 
L 477.413269 127.472967 
L 478.938355 131.141771 
L 480.46344 134.467602 
L 481.988526 136.593804 
L 483.513611 138.385422 
L 485.038697 140.991805 
L 486.563782 144.305472 
L 488.088868 145.908522 
L 489.613953 147.304674 
L 491.139038 149.022499 
L 492.664124 150.411123 
L 497.23938 150.359591 
L 498.764466 149.694247 
L 501.814637 150.095642 
L 503.339722 150.9212 
L 504.864808 151.570686 
L 507.914979 151.371217 
L 509.440064 151.330862 
L 510.96515 152.535783 
L 512.490235 152.353638 
L 514.015321 151.040362 
L 515.540406 150.525894 
L 517.065491 150.134633 
L 518.590577 148.771301 
L 520.115662 147.052806 
L 523.165833 143.246641 
L 524.690919 140.973266 
L 526.216004 138.334907 
L 527.74109 136.067374 
L 529.266175 134.975381 
L 530.791261 133.358421 
L 532.316346 132.057958 
L 533.841432 131.017827 
L 535.366517 131.4468 
L 538.416688 134.523053 
L 539.941774 136.955104 
L 541.466859 140.142457 
L 542.991944 142.22115 
L 544.51703 143.885624 
L 546.042115 145.931363 
L 549.092286 149.454411 
L 550.617372 150.982309 
L 552.142457 152.165225 
L 553.667543 153.147043 
L 555.192628 153.931609 
L 556.717714 154.552279 
L 558.242799 154.30318 
L 559.767885 152.767806 
L 561.29297 150.778198 
L 562.818056 148.398347 
L 564.343141 146.394023 
L 565.868226 145.971976 
L 567.393312 146.876084 
L 568.918397 147.302985 
L 570.443483 147.933925 
L 571.968568 149.025095 
L 573.493654 150.289525 
L 575.018739 151.001189 
L 576.543825 150.899448 
L 578.06891 149.451916 
L 579.593996 147.685246 
L 581.119081 146.985318 
L 582.644167 147.217194 
L 584.169252 146.732799 
L 585.694338 146.482495 
L 587.219423 145.534474 
L 588.744509 143.97788 
L 590.269594 141.890555 
L 591.794679 139.162323 
L 593.319765 135.911468 
L 594.84485 132.255671 
L 596.369936 129.112384 
L 597.895021 126.382977 
L 599.420107 125.060009 
L 600.945192 124.845847 
L 602.470278 124.752261 
L 603.995363 124.165788 
L 605.520449 123.713441 
L 608.57062 124.879558 
L 610.095705 125.734642 
L 611.620791 126.837793 
L 613.145876 128.187407 
L 614.670962 130.36517 
L 619.246218 138.81127 
L 620.771303 141.162131 
L 623.821474 145.298851 
L 626.871645 148.94701 
L 629.921816 152.234193 
L 632.971987 155.173455 
L 636.022158 157.785449 
L 637.547244 158.976852 
L 640.597415 166.4662 
L 643.647585 173.536074 
L 648.222842 183.457665 
L 648.222842 183.457665 
" clip-path="url(#p7a9bb4526c)" style="fill: none; stroke: #701f60; stroke-width: 3; stroke-linecap: round"/>
   </g>
  </g>
  <g id="axes_3">
   <g id="matplotlib.axis_5">
    <g id="xtick_8">
     <g id="line2d_21">
      <path d="M 606.646667 222.06 
L 606.646667 39.44 
" clip-path="url(#p0a44a7f8bb)" style="fill: none; stroke: #ffffff; stroke-linecap: round"/>
     </g>
     <g id="text_18">
      <!-- 0 -->
      <g style="fill: #262626" transform="translate(602.058893 243.370391)scale(0.165 -0.165)">
       <use xlink:href="#ArialMT-30"/>
      </g>
     </g>
    </g>
    <g id="xtick_9">
     <g id="line2d_22">
      <path d="M 676.621176 222.06 
L 676.621176 39.44 
" clip-path="url(#p0a44a7f8bb)" style="fill: none; stroke: #ffffff; stroke-linecap: round"/>
     </g>
     <g id="text_19">
      <!-- 50 -->
      <g style="fill: #262626" transform="translate(667.44563 243.370391)scale(0.165 -0.165)">
       <use xlink:href="#ArialMT-35"/>
       <use xlink:href="#ArialMT-30" x="55.615234"/>
      </g>
     </g>
    </g>
    <g id="xtick_10">
     <g id="line2d_23">
      <path d="M 746.595686 222.06 
L 746.595686 39.44 
" clip-path="url(#p0a44a7f8bb)" style="fill: none; stroke: #ffffff; stroke-linecap: round"/>
     </g>
     <g id="text_20">
      <!-- 100 -->
      <g style="fill: #262626" transform="translate(732.832366 243.370391)scale(0.165 -0.165)">
       <use xlink:href="#ArialMT-31"/>
       <use xlink:href="#ArialMT-30" x="55.615234"/>
       <use xlink:href="#ArialMT-30" x="111.230469"/>
      </g>
     </g>
    </g>
    <g id="xtick_11">
     <g id="line2d_24">
      <path d="M 816.570196 222.06 
L 816.570196 39.44 
" clip-path="url(#p0a44a7f8bb)" style="fill: none; stroke: #ffffff; stroke-linecap: round"/>
     </g>
     <g id="text_21">
      <!-- 150 -->
      <g style="fill: #262626" transform="translate(802.806876 243.370391)scale(0.165 -0.165)">
       <use xlink:href="#ArialMT-31"/>
       <use xlink:href="#ArialMT-35" x="55.615234"/>
       <use xlink:href="#ArialMT-30" x="111.230469"/>
      </g>
     </g>
    </g>
    <g id="text_22">
     <!-- Trial -->
     <g style="fill: #262626" transform="translate(708.442865 263.533828)scale(0.18 -0.18)">
      <use xlink:href="#ArialMT-54"/>
      <use xlink:href="#ArialMT-72" x="57.333984"/>
      <use xlink:href="#ArialMT-69" x="90.634766"/>
      <use xlink:href="#ArialMT-61" x="112.851562"/>
      <use xlink:href="#ArialMT-6c" x="168.466797"/>
     </g>
    </g>
   </g>
   <g id="matplotlib.axis_6"/>
   <g id="LineCollection_3">
    <path d="M 606.646667 130.75 
L 865 130.75 
" clip-path="url(#p0a44a7f8bb)" style="fill: none; stroke-dasharray: 1.5,2.475; stroke-dashoffset: 0; stroke: #808080; stroke-width: 1.5"/>
   </g>
   <g id="text_23">
    <!-- Fly 3 -->
    <g style="fill: #262626" transform="translate(706.101458 33.44)scale(0.18 -0.18)">
     <defs>
      <path id="ArialMT-33" d="M 269 1209 
L 831 1284 
Q 928 806 1161 595 
Q 1394 384 1728 384 
Q 2125 384 2398 659 
Q 2672 934 2672 1341 
Q 2672 1728 2419 1979 
Q 2166 2231 1775 2231 
Q 1616 2231 1378 2169 
L 1441 2663 
Q 1497 2656 1531 2656 
Q 1891 2656 2178 2843 
Q 2466 3031 2466 3422 
Q 2466 3731 2256 3934 
Q 2047 4138 1716 4138 
Q 1388 4138 1169 3931 
Q 950 3725 888 3313 
L 325 3413 
Q 428 3978 793 4289 
Q 1159 4600 1703 4600 
Q 2078 4600 2393 4439 
Q 2709 4278 2876 4000 
Q 3044 3722 3044 3409 
Q 3044 3113 2884 2869 
Q 2725 2625 2413 2481 
Q 2819 2388 3044 2092 
Q 3269 1797 3269 1353 
Q 3269 753 2831 336 
Q 2394 -81 1725 -81 
Q 1122 -81 723 278 
Q 325 638 269 1209 
z
" transform="scale(0.015625)"/>
     </defs>
     <use xlink:href="#ArialMT-46"/>
     <use xlink:href="#ArialMT-6c" x="61.083984"/>
     <use xlink:href="#ArialMT-79" x="83.300781"/>
     <use xlink:href="#ArialMT-20" x="133.300781"/>
     <use xlink:href="#ArialMT-33" x="161.083984"/>
    </g>
   </g>
   <g id="line2d_25">
    <g clip-path="url(#p0a44a7f8bb)">
     <use xlink:href="#m6aa5c0e9b8" x="627.63902" y="145.968333" style="fill: #55a868; stroke: #55a868"/>
     <use xlink:href="#m6aa5c0e9b8" x="629.03851" y="156.113889" style="fill: #55a868; stroke: #55a868"/>
     <use xlink:href="#m6aa5c0e9b8" x="630.438" y="156.113889" style="fill: #55a868; stroke: #55a868"/>
     <use xlink:href="#m6aa5c0e9b8" x="631.83749" y="156.113889" style="fill: #55a868; stroke: #55a868"/>
     <use xlink:href="#m6aa5c0e9b8" x="633.23698" y="166.259444" style="fill: #55a868; stroke: #55a868"/>
     <use xlink:href="#m6aa5c0e9b8" x="634.636471" y="156.113889" style="fill: #55a868; stroke: #55a868"/>
     <use xlink:href="#m6aa5c0e9b8" x="636.035961" y="156.113889" style="fill: #55a868; stroke: #55a868"/>
     <use xlink:href="#m6aa5c0e9b8" x="637.435451" y="166.259444" style="fill: #55a868; stroke: #55a868"/>
     <use xlink:href="#m6aa5c0e9b8" x="638.834941" y="166.259444" style="fill: #55a868; stroke: #55a868"/>
     <use xlink:href="#m6aa5c0e9b8" x="640.234431" y="166.259444" style="fill: #55a868; stroke: #55a868"/>
     <use xlink:href="#m6aa5c0e9b8" x="641.633922" y="166.259444" style="fill: #55a868; stroke: #55a868"/>
     <use xlink:href="#m6aa5c0e9b8" x="643.033412" y="166.259444" style="fill: #55a868; stroke: #55a868"/>
     <use xlink:href="#m6aa5c0e9b8" x="644.432902" y="156.113889" style="fill: #55a868; stroke: #55a868"/>
     <use xlink:href="#m6aa5c0e9b8" x="645.832392" y="145.968333" style="fill: #55a868; stroke: #55a868"/>
     <use xlink:href="#m6aa5c0e9b8" x="647.231882" y="135.822778" style="fill: #55a868; stroke: #55a868"/>
     <use xlink:href="#m6aa5c0e9b8" x="648.631373" y="125.677222" style="fill: #55a868; stroke: #55a868"/>
     <use xlink:href="#m6aa5c0e9b8" x="650.030863" y="115.531667" style="fill: #55a868; stroke: #55a868"/>
     <use xlink:href="#m6aa5c0e9b8" x="651.430353" y="115.531667" style="fill: #55a868; stroke: #55a868"/>
     <use xlink:href="#m6aa5c0e9b8" x="652.829843" y="115.531667" style="fill: #55a868; stroke: #55a868"/>
     <use xlink:href="#m6aa5c0e9b8" x="654.229333" y="105.386111" style="fill: #55a868; stroke: #55a868"/>
     <use xlink:href="#m6aa5c0e9b8" x="655.628824" y="115.531667" style="fill: #55a868; stroke: #55a868"/>
     <use xlink:href="#m6aa5c0e9b8" x="657.028314" y="125.677222" style="fill: #55a868; stroke: #55a868"/>
     <use xlink:href="#m6aa5c0e9b8" x="658.427804" y="115.531667" style="fill: #55a868; stroke: #55a868"/>
     <use xlink:href="#m6aa5c0e9b8" x="659.827294" y="105.386111" style="fill: #55a868; stroke: #55a868"/>
     <use xlink:href="#m6aa5c0e9b8" x="661.226784" y="95.240556" style="fill: #55a868; stroke: #55a868"/>
     <use xlink:href="#m6aa5c0e9b8" x="662.626275" y="85.095" style="fill: #55a868; stroke: #55a868"/>
     <use xlink:href="#m6aa5c0e9b8" x="664.025765" y="74.949444" style="fill: #55a868; stroke: #55a868"/>
     <use xlink:href="#m6aa5c0e9b8" x="665.425255" y="74.949444" style="fill: #55a868; stroke: #55a868"/>
     <use xlink:href="#m6aa5c0e9b8" x="666.824745" y="74.949444" style="fill: #55a868; stroke: #55a868"/>
     <use xlink:href="#m6aa5c0e9b8" x="668.224235" y="85.095" style="fill: #55a868; stroke: #55a868"/>
     <use xlink:href="#m6aa5c0e9b8" x="669.623725" y="85.095" style="fill: #55a868; stroke: #55a868"/>
     <use xlink:href="#m6aa5c0e9b8" x="671.023216" y="85.095" style="fill: #55a868; stroke: #55a868"/>
     <use xlink:href="#m6aa5c0e9b8" x="672.422706" y="95.240556" style="fill: #55a868; stroke: #55a868"/>
     <use xlink:href="#m6aa5c0e9b8" x="673.822196" y="95.240556" style="fill: #55a868; stroke: #55a868"/>
     <use xlink:href="#m6aa5c0e9b8" x="675.221686" y="95.240556" style="fill: #55a868; stroke: #55a868"/>
     <use xlink:href="#m6aa5c0e9b8" x="676.621176" y="85.095" style="fill: #55a868; stroke: #55a868"/>
     <use xlink:href="#m6aa5c0e9b8" x="678.020667" y="74.949444" style="fill: #55a868; stroke: #55a868"/>
     <use xlink:href="#m6aa5c0e9b8" x="679.420157" y="74.949444" style="fill: #55a868; stroke: #55a868"/>
     <use xlink:href="#m6aa5c0e9b8" x="680.819647" y="74.949444" style="fill: #55a868; stroke: #55a868"/>
     <use xlink:href="#m6aa5c0e9b8" x="682.219137" y="74.949444" style="fill: #55a868; stroke: #55a868"/>
     <use xlink:href="#m6aa5c0e9b8" x="683.618627" y="74.949444" style="fill: #55a868; stroke: #55a868"/>
     <use xlink:href="#m6aa5c0e9b8" x="685.018118" y="85.095" style="fill: #55a868; stroke: #55a868"/>
     <use xlink:href="#m6aa5c0e9b8" x="686.417608" y="85.095" style="fill: #55a868; stroke: #55a868"/>
     <use xlink:href="#m6aa5c0e9b8" x="687.817098" y="85.095" style="fill: #55a868; stroke: #55a868"/>
     <use xlink:href="#m6aa5c0e9b8" x="689.216588" y="74.949444" style="fill: #55a868; stroke: #55a868"/>
     <use xlink:href="#m6aa5c0e9b8" x="690.616078" y="85.095" style="fill: #55a868; stroke: #55a868"/>
     <use xlink:href="#m6aa5c0e9b8" x="692.015569" y="85.095" style="fill: #55a868; stroke: #55a868"/>
     <use xlink:href="#m6aa5c0e9b8" x="693.415059" y="74.949444" style="fill: #55a868; stroke: #55a868"/>
     <use xlink:href="#m6aa5c0e9b8" x="694.814549" y="85.095" style="fill: #55a868; stroke: #55a868"/>
     <use xlink:href="#m6aa5c0e9b8" x="696.214039" y="95.240556" style="fill: #55a868; stroke: #55a868"/>
     <use xlink:href="#m6aa5c0e9b8" x="697.613529" y="105.386111" style="fill: #55a868; stroke: #55a868"/>
     <use xlink:href="#m6aa5c0e9b8" x="699.01302" y="115.531667" style="fill: #55a868; stroke: #55a868"/>
     <use xlink:href="#m6aa5c0e9b8" x="700.41251" y="115.531667" style="fill: #55a868; stroke: #55a868"/>
     <use xlink:href="#m6aa5c0e9b8" x="701.812" y="115.531667" style="fill: #55a868; stroke: #55a868"/>
     <use xlink:href="#m6aa5c0e9b8" x="703.21149" y="115.531667" style="fill: #55a868; stroke: #55a868"/>
     <use xlink:href="#m6aa5c0e9b8" x="704.61098" y="125.677222" style="fill: #55a868; stroke: #55a868"/>
     <use xlink:href="#m6aa5c0e9b8" x="706.010471" y="115.531667" style="fill: #55a868; stroke: #55a868"/>
     <use xlink:href="#m6aa5c0e9b8" x="707.409961" y="125.677222" style="fill: #55a868; stroke: #55a868"/>
     <use xlink:href="#m6aa5c0e9b8" x="708.809451" y="125.677222" style="fill: #55a868; stroke: #55a868"/>
     <use xlink:href="#m6aa5c0e9b8" x="710.208941" y="125.677222" style="fill: #55a868; stroke: #55a868"/>
     <use xlink:href="#m6aa5c0e9b8" x="711.608431" y="115.531667" style="fill: #55a868; stroke: #55a868"/>
     <use xlink:href="#m6aa5c0e9b8" x="713.007922" y="115.531667" style="fill: #55a868; stroke: #55a868"/>
     <use xlink:href="#m6aa5c0e9b8" x="714.407412" y="115.531667" style="fill: #55a868; stroke: #55a868"/>
     <use xlink:href="#m6aa5c0e9b8" x="715.806902" y="105.386111" style="fill: #55a868; stroke: #55a868"/>
     <use xlink:href="#m6aa5c0e9b8" x="717.206392" y="95.240556" style="fill: #55a868; stroke: #55a868"/>
     <use xlink:href="#m6aa5c0e9b8" x="718.605882" y="85.095" style="fill: #55a868; stroke: #55a868"/>
     <use xlink:href="#m6aa5c0e9b8" x="720.005373" y="85.095" style="fill: #55a868; stroke: #55a868"/>
     <use xlink:href="#m6aa5c0e9b8" x="721.404863" y="85.095" style="fill: #55a868; stroke: #55a868"/>
     <use xlink:href="#m6aa5c0e9b8" x="722.804353" y="85.095" style="fill: #55a868; stroke: #55a868"/>
     <use xlink:href="#m6aa5c0e9b8" x="724.203843" y="85.095" style="fill: #55a868; stroke: #55a868"/>
     <use xlink:href="#m6aa5c0e9b8" x="725.603333" y="85.095" style="fill: #55a868; stroke: #55a868"/>
     <use xlink:href="#m6aa5c0e9b8" x="727.002824" y="95.240556" style="fill: #55a868; stroke: #55a868"/>
     <use xlink:href="#m6aa5c0e9b8" x="728.402314" y="95.240556" style="fill: #55a868; stroke: #55a868"/>
     <use xlink:href="#m6aa5c0e9b8" x="729.801804" y="105.386111" style="fill: #55a868; stroke: #55a868"/>
     <use xlink:href="#m6aa5c0e9b8" x="731.201294" y="105.386111" style="fill: #55a868; stroke: #55a868"/>
     <use xlink:href="#m6aa5c0e9b8" x="732.600784" y="115.531667" style="fill: #55a868; stroke: #55a868"/>
     <use xlink:href="#m6aa5c0e9b8" x="734.000275" y="115.531667" style="fill: #55a868; stroke: #55a868"/>
     <use xlink:href="#m6aa5c0e9b8" x="735.399765" y="125.677222" style="fill: #55a868; stroke: #55a868"/>
     <use xlink:href="#m6aa5c0e9b8" x="736.799255" y="135.822778" style="fill: #55a868; stroke: #55a868"/>
     <use xlink:href="#m6aa5c0e9b8" x="738.198745" y="145.968333" style="fill: #55a868; stroke: #55a868"/>
     <use xlink:href="#m6aa5c0e9b8" x="739.598235" y="156.113889" style="fill: #55a868; stroke: #55a868"/>
     <use xlink:href="#m6aa5c0e9b8" x="740.997725" y="156.113889" style="fill: #55a868; stroke: #55a868"/>
     <use xlink:href="#m6aa5c0e9b8" x="742.397216" y="156.113889" style="fill: #55a868; stroke: #55a868"/>
     <use xlink:href="#m6aa5c0e9b8" x="743.796706" y="166.259444" style="fill: #55a868; stroke: #55a868"/>
     <use xlink:href="#m6aa5c0e9b8" x="745.196196" y="166.259444" style="fill: #55a868; stroke: #55a868"/>
     <use xlink:href="#m6aa5c0e9b8" x="746.595686" y="166.259444" style="fill: #55a868; stroke: #55a868"/>
     <use xlink:href="#m6aa5c0e9b8" x="747.995176" y="156.113889" style="fill: #55a868; stroke: #55a868"/>
     <use xlink:href="#m6aa5c0e9b8" x="749.394667" y="156.113889" style="fill: #55a868; stroke: #55a868"/>
     <use xlink:href="#m6aa5c0e9b8" x="750.794157" y="145.968333" style="fill: #55a868; stroke: #55a868"/>
     <use xlink:href="#m6aa5c0e9b8" x="752.193647" y="156.113889" style="fill: #55a868; stroke: #55a868"/>
     <use xlink:href="#m6aa5c0e9b8" x="753.593137" y="145.968333" style="fill: #55a868; stroke: #55a868"/>
     <use xlink:href="#m6aa5c0e9b8" x="754.992627" y="156.113889" style="fill: #55a868; stroke: #55a868"/>
     <use xlink:href="#m6aa5c0e9b8" x="756.392118" y="156.113889" style="fill: #55a868; stroke: #55a868"/>
     <use xlink:href="#m6aa5c0e9b8" x="757.791608" y="156.113889" style="fill: #55a868; stroke: #55a868"/>
     <use xlink:href="#m6aa5c0e9b8" x="759.191098" y="156.113889" style="fill: #55a868; stroke: #55a868"/>
     <use xlink:href="#m6aa5c0e9b8" x="760.590588" y="156.113889" style="fill: #55a868; stroke: #55a868"/>
     <use xlink:href="#m6aa5c0e9b8" x="761.990078" y="145.968333" style="fill: #55a868; stroke: #55a868"/>
     <use xlink:href="#m6aa5c0e9b8" x="763.389569" y="145.968333" style="fill: #55a868; stroke: #55a868"/>
     <use xlink:href="#m6aa5c0e9b8" x="764.789059" y="145.968333" style="fill: #55a868; stroke: #55a868"/>
     <use xlink:href="#m6aa5c0e9b8" x="766.188549" y="156.113889" style="fill: #55a868; stroke: #55a868"/>
     <use xlink:href="#m6aa5c0e9b8" x="767.588039" y="156.113889" style="fill: #55a868; stroke: #55a868"/>
     <use xlink:href="#m6aa5c0e9b8" x="768.987529" y="156.113889" style="fill: #55a868; stroke: #55a868"/>
     <use xlink:href="#m6aa5c0e9b8" x="770.38702" y="156.113889" style="fill: #55a868; stroke: #55a868"/>
     <use xlink:href="#m6aa5c0e9b8" x="771.78651" y="166.259444" style="fill: #55a868; stroke: #55a868"/>
     <use xlink:href="#m6aa5c0e9b8" x="773.186" y="166.259444" style="fill: #55a868; stroke: #55a868"/>
     <use xlink:href="#m6aa5c0e9b8" x="774.58549" y="176.405" style="fill: #55a868; stroke: #55a868"/>
     <use xlink:href="#m6aa5c0e9b8" x="775.98498" y="166.259444" style="fill: #55a868; stroke: #55a868"/>
     <use xlink:href="#m6aa5c0e9b8" x="777.384471" y="166.259444" style="fill: #55a868; stroke: #55a868"/>
     <use xlink:href="#m6aa5c0e9b8" x="778.783961" y="156.113889" style="fill: #55a868; stroke: #55a868"/>
     <use xlink:href="#m6aa5c0e9b8" x="780.183451" y="156.113889" style="fill: #55a868; stroke: #55a868"/>
     <use xlink:href="#m6aa5c0e9b8" x="781.582941" y="156.113889" style="fill: #55a868; stroke: #55a868"/>
     <use xlink:href="#m6aa5c0e9b8" x="782.982431" y="166.259444" style="fill: #55a868; stroke: #55a868"/>
     <use xlink:href="#m6aa5c0e9b8" x="784.381922" y="166.259444" style="fill: #55a868; stroke: #55a868"/>
     <use xlink:href="#m6aa5c0e9b8" x="785.781412" y="156.113889" style="fill: #55a868; stroke: #55a868"/>
     <use xlink:href="#m6aa5c0e9b8" x="787.180902" y="145.968333" style="fill: #55a868; stroke: #55a868"/>
     <use xlink:href="#m6aa5c0e9b8" x="788.580392" y="145.968333" style="fill: #55a868; stroke: #55a868"/>
     <use xlink:href="#m6aa5c0e9b8" x="789.979882" y="156.113889" style="fill: #55a868; stroke: #55a868"/>
     <use xlink:href="#m6aa5c0e9b8" x="791.379373" y="156.113889" style="fill: #55a868; stroke: #55a868"/>
     <use xlink:href="#m6aa5c0e9b8" x="792.778863" y="156.113889" style="fill: #55a868; stroke: #55a868"/>
     <use xlink:href="#m6aa5c0e9b8" x="794.178353" y="156.113889" style="fill: #55a868; stroke: #55a868"/>
     <use xlink:href="#m6aa5c0e9b8" x="795.577843" y="156.113889" style="fill: #55a868; stroke: #55a868"/>
     <use xlink:href="#m6aa5c0e9b8" x="796.977333" y="166.259444" style="fill: #55a868; stroke: #55a868"/>
     <use xlink:href="#m6aa5c0e9b8" x="798.376824" y="166.259444" style="fill: #55a868; stroke: #55a868"/>
     <use xlink:href="#m6aa5c0e9b8" x="799.776314" y="176.405" style="fill: #55a868; stroke: #55a868"/>
     <use xlink:href="#m6aa5c0e9b8" x="801.175804" y="176.405" style="fill: #55a868; stroke: #55a868"/>
     <use xlink:href="#m6aa5c0e9b8" x="802.575294" y="176.405" style="fill: #55a868; stroke: #55a868"/>
     <use xlink:href="#m6aa5c0e9b8" x="803.974784" y="176.405" style="fill: #55a868; stroke: #55a868"/>
     <use xlink:href="#m6aa5c0e9b8" x="805.374275" y="186.550556" style="fill: #55a868; stroke: #55a868"/>
     <use xlink:href="#m6aa5c0e9b8" x="806.773765" y="196.696111" style="fill: #55a868; stroke: #55a868"/>
     <use xlink:href="#m6aa5c0e9b8" x="808.173255" y="206.841667" style="fill: #55a868; stroke: #55a868"/>
     <use xlink:href="#m6aa5c0e9b8" x="809.572745" y="206.841667" style="fill: #55a868; stroke: #55a868"/>
     <use xlink:href="#m6aa5c0e9b8" x="810.972235" y="206.841667" style="fill: #55a868; stroke: #55a868"/>
     <use xlink:href="#m6aa5c0e9b8" x="812.371725" y="206.841667" style="fill: #55a868; stroke: #55a868"/>
     <use xlink:href="#m6aa5c0e9b8" x="813.771216" y="206.841667" style="fill: #55a868; stroke: #55a868"/>
     <use xlink:href="#m6aa5c0e9b8" x="815.170706" y="206.841667" style="fill: #55a868; stroke: #55a868"/>
     <use xlink:href="#m6aa5c0e9b8" x="816.570196" y="206.841667" style="fill: #55a868; stroke: #55a868"/>
     <use xlink:href="#m6aa5c0e9b8" x="817.969686" y="206.841667" style="fill: #55a868; stroke: #55a868"/>
     <use xlink:href="#m6aa5c0e9b8" x="819.369176" y="206.841667" style="fill: #55a868; stroke: #55a868"/>
     <use xlink:href="#m6aa5c0e9b8" x="820.768667" y="206.841667" style="fill: #55a868; stroke: #55a868"/>
     <use xlink:href="#m6aa5c0e9b8" x="822.168157" y="206.841667" style="fill: #55a868; stroke: #55a868"/>
     <use xlink:href="#m6aa5c0e9b8" x="823.567647" y="206.841667" style="fill: #55a868; stroke: #55a868"/>
     <use xlink:href="#m6aa5c0e9b8" x="824.967137" y="206.841667" style="fill: #55a868; stroke: #55a868"/>
     <use xlink:href="#m6aa5c0e9b8" x="826.366627" y="206.841667" style="fill: #55a868; stroke: #55a868"/>
     <use xlink:href="#m6aa5c0e9b8" x="827.766118" y="206.841667" style="fill: #55a868; stroke: #55a868"/>
     <use xlink:href="#m6aa5c0e9b8" x="829.165608" y="206.841667" style="fill: #55a868; stroke: #55a868"/>
     <use xlink:href="#m6aa5c0e9b8" x="830.565098" y="206.841667" style="fill: #55a868; stroke: #55a868"/>
     <use xlink:href="#m6aa5c0e9b8" x="831.964588" y="206.841667" style="fill: #55a868; stroke: #55a868"/>
     <use xlink:href="#m6aa5c0e9b8" x="833.364078" y="206.841667" style="fill: #55a868; stroke: #55a868"/>
     <use xlink:href="#m6aa5c0e9b8" x="834.763569" y="196.696111" style="fill: #55a868; stroke: #55a868"/>
     <use xlink:href="#m6aa5c0e9b8" x="836.163059" y="186.550556" style="fill: #55a868; stroke: #55a868"/>
     <use xlink:href="#m6aa5c0e9b8" x="837.562549" y="186.550556" style="fill: #55a868; stroke: #55a868"/>
     <use xlink:href="#m6aa5c0e9b8" x="838.962039" y="176.405" style="fill: #55a868; stroke: #55a868"/>
     <use xlink:href="#m6aa5c0e9b8" x="840.361529" y="166.259444" style="fill: #55a868; stroke: #55a868"/>
     <use xlink:href="#m6aa5c0e9b8" x="841.76102" y="166.259444" style="fill: #55a868; stroke: #55a868"/>
     <use xlink:href="#m6aa5c0e9b8" x="843.16051" y="166.259444" style="fill: #55a868; stroke: #55a868"/>
     <use xlink:href="#m6aa5c0e9b8" x="844.56" y="166.259444" style="fill: #55a868; stroke: #55a868"/>
     <use xlink:href="#m6aa5c0e9b8" x="845.95949" y="166.259444" style="fill: #55a868; stroke: #55a868"/>
     <use xlink:href="#m6aa5c0e9b8" x="847.35898" y="166.259444" style="fill: #55a868; stroke: #55a868"/>
     <use xlink:href="#m6aa5c0e9b8" x="848.758471" y="156.113889" style="fill: #55a868; stroke: #55a868"/>
     <use xlink:href="#m6aa5c0e9b8" x="850.157961" y="145.968333" style="fill: #55a868; stroke: #55a868"/>
     <use xlink:href="#m6aa5c0e9b8" x="851.557451" y="135.822778" style="fill: #55a868; stroke: #55a868"/>
     <use xlink:href="#m6aa5c0e9b8" x="852.956941" y="135.822778" style="fill: #55a868; stroke: #55a868"/>
     <use xlink:href="#m6aa5c0e9b8" x="854.356431" y="125.677222" style="fill: #55a868; stroke: #55a868"/>
     <use xlink:href="#m6aa5c0e9b8" x="855.755922" y="135.822778" style="fill: #55a868; stroke: #55a868"/>
     <use xlink:href="#m6aa5c0e9b8" x="857.155412" y="135.822778" style="fill: #55a868; stroke: #55a868"/>
     <use xlink:href="#m6aa5c0e9b8" x="858.554902" y="135.822778" style="fill: #55a868; stroke: #55a868"/>
     <use xlink:href="#m6aa5c0e9b8" x="859.954392" y="145.968333" style="fill: #55a868; stroke: #55a868"/>
     <use xlink:href="#m6aa5c0e9b8" x="861.353882" y="145.968333" style="fill: #55a868; stroke: #55a868"/>
     <use xlink:href="#m6aa5c0e9b8" x="862.753373" y="135.822778" style="fill: #55a868; stroke: #55a868"/>
     <use xlink:href="#m6aa5c0e9b8" x="864.152863" y="125.677222" style="fill: #55a868; stroke: #55a868"/>
    </g>
   </g>
   <g id="line2d_26">
    <path d="M 606.646667 147.039456 
L 608.046157 137.867916 
L 609.445647 129.707046 
L 610.845137 122.886694 
L 613.644118 111.503421 
L 616.443098 103.848734 
L 617.842588 105.285343 
L 619.242078 107.300218 
L 622.041059 118.423675 
L 623.440549 121.600443 
L 624.840039 126.199691 
L 626.239529 129.272171 
L 627.63902 131.475701 
L 629.03851 135.804359 
L 630.438 140.885062 
L 631.83749 144.315699 
L 633.23698 147.002439 
L 634.636471 150.881707 
L 636.035961 151.866224 
L 637.435451 151.36948 
L 638.834941 150.059928 
L 640.234431 148.161875 
L 641.633922 142.68634 
L 644.432902 134.89257 
L 645.832392 131.514205 
L 647.231882 129.326846 
L 648.631373 129.451566 
L 650.030863 127.630364 
L 652.829843 116.6908 
L 654.229333 110.66084 
L 657.028314 97.433433 
L 658.427804 93.464333 
L 659.827294 90.592954 
L 661.226784 87.209137 
L 662.626275 85.248298 
L 664.025765 84.505829 
L 665.425255 85.503292 
L 668.224235 83.37945 
L 669.623725 81.936716 
L 671.023216 79.546623 
L 672.422706 79.771945 
L 673.822196 80.784573 
L 675.221686 82.205531 
L 676.621176 83.377034 
L 678.020667 85.793636 
L 679.420157 87.162952 
L 680.819647 87.906701 
L 682.219137 90.158978 
L 683.618627 92.62452 
L 685.018118 93.351862 
L 686.417608 94.604777 
L 687.817098 97.716498 
L 689.216588 100.446161 
L 690.616078 103.429621 
L 692.015569 105.823396 
L 693.415059 105.885429 
L 694.814549 106.380056 
L 696.214039 107.50616 
L 697.613529 108.183559 
L 699.01302 109.026897 
L 700.41251 108.119076 
L 701.812 106.43785 
L 703.21149 104.952636 
L 704.61098 103.804474 
L 706.010471 101.621483 
L 707.409961 99.733929 
L 708.809451 96.340395 
L 711.608431 90.559387 
L 713.007922 90.009942 
L 714.407412 90.860779 
L 715.806902 91.044223 
L 717.206392 91.084375 
L 720.005373 91.786978 
L 721.404863 94.450281 
L 722.804353 97.622652 
L 724.203843 101.635825 
L 725.603333 104.80463 
L 728.402314 117.553172 
L 729.801804 125.624842 
L 731.201294 133.040696 
L 732.600784 139.013927 
L 734.000275 143.942494 
L 735.399765 148.363804 
L 736.799255 152.202541 
L 738.198745 157.161906 
L 739.598235 160.219294 
L 740.997725 162.890147 
L 742.397216 164.508914 
L 743.796706 166.692536 
L 745.196196 166.682143 
L 746.595686 169.255235 
L 747.995176 170.742965 
L 749.394667 171.437428 
L 750.794157 171.73858 
L 753.593137 169.953501 
L 754.992627 168.87911 
L 756.392118 170.088648 
L 757.791608 172.459661 
L 759.191098 173.319605 
L 760.590588 173.935816 
L 761.990078 174.371267 
L 763.389569 176.739837 
L 764.789059 178.070617 
L 766.188549 181.016183 
L 767.588039 180.509038 
L 768.987529 179.181907 
L 771.78651 174.482046 
L 773.186 173.146807 
L 774.58549 172.87052 
L 775.98498 172.332644 
L 777.384471 168.304822 
L 778.783961 163.588035 
L 780.183451 160.171054 
L 781.582941 160.033785 
L 782.982431 161.040054 
L 784.381922 159.966912 
L 785.781412 160.925461 
L 787.180902 159.960171 
L 788.580392 161.581413 
L 789.979882 162.34622 
L 791.379373 164.707992 
L 792.778863 166.023521 
L 794.178353 168.155424 
L 795.577843 169.304015 
L 796.977333 172.283043 
L 798.376824 176.130389 
L 799.776314 181.034535 
L 801.175804 183.492772 
L 802.575294 185.184409 
L 803.974784 185.943517 
L 805.374275 186.537223 
L 806.773765 185.665775 
L 808.173255 185.467695 
L 812.371725 185.288472 
L 813.771216 185.266757 
L 815.170706 184.101995 
L 816.570196 184.904367 
L 817.969686 183.912692 
L 819.369176 183.614444 
L 820.768667 182.255612 
L 822.168157 181.691718 
L 823.567647 180.141018 
L 824.967137 179.736863 
L 826.366627 178.696164 
L 829.165608 175.543842 
L 830.565098 171.598458 
L 833.364078 161.795195 
L 834.763569 159.243147 
L 836.163059 157.040491 
L 837.562549 155.666777 
L 838.962039 154.644042 
L 840.361529 152.942138 
L 843.16051 146.246971 
L 844.56 143.398033 
L 845.95949 138.913675 
L 847.35898 136.432565 
L 848.758471 134.412699 
L 850.157961 132.9877 
L 852.956941 133.550804 
L 854.356431 131.457564 
L 855.755922 128.459763 
L 857.155412 125.978493 
L 858.554902 122.153519 
L 859.954392 119.356807 
L 861.353882 117.899148 
L 862.753373 118.612818 
L 865 120.545249 
L 865 120.545249 
" clip-path="url(#p0a44a7f8bb)" style="fill: none; stroke: #800000; stroke-width: 3; stroke-linecap: round"/>
   </g>
   <g id="line2d_27">
    <path d="M 606.646667 158.565803 
L 609.445647 144.942055 
L 613.644118 126.912879 
L 616.443098 115.884613 
L 619.242078 115.001903 
L 620.641569 115.656939 
L 622.041059 116.527463 
L 623.440549 117.087064 
L 624.840039 118.159986 
L 626.239529 118.62977 
L 627.63902 119.317478 
L 629.03851 120.759823 
L 630.438 121.972664 
L 633.23698 123.335876 
L 634.636471 124.272824 
L 636.035961 124.511142 
L 640.234431 124.752367 
L 641.633922 124.270713 
L 643.033412 124.166143 
L 647.231882 124.512031 
L 648.631373 124.876272 
L 650.030863 124.871222 
L 652.829843 124.050048 
L 654.229333 123.577087 
L 655.628824 122.848784 
L 657.028314 122.296232 
L 658.427804 121.901588 
L 662.626275 121.38242 
L 665.425255 121.255193 
L 672.422706 121.163332 
L 675.221686 121.363995 
L 679.420157 122.2453 
L 685.018118 122.747911 
L 694.814549 123.776882 
L 696.214039 124.044412 
L 711.608431 125.298988 
L 717.206392 125.991893 
L 724.203843 126.492739 
L 727.002824 126.861205 
L 736.799255 128.508035 
L 745.196196 129.761548 
L 747.995176 130.04313 
L 752.193647 130.236487 
L 770.38702 130.69698 
L 795.577843 130.753673 
L 865 130.752419 
L 865 130.752419 
" clip-path="url(#p0a44a7f8bb)" style="fill: none; stroke: #d28dbd; stroke-width: 3; stroke-linecap: round"/>
   </g>
   <g id="line2d_28">
    <path d="M 606.646667 152.101051 
L 608.046157 144.264006 
L 609.445647 137.73561 
L 612.244627 127.122388 
L 613.644118 122.111732 
L 616.443098 113.709585 
L 617.842588 114.698154 
L 619.242078 116.298253 
L 620.641569 119.638223 
L 622.041059 122.65622 
L 623.440549 124.91605 
L 624.840039 127.88305 
L 627.63902 130.653853 
L 629.03851 133.405829 
L 630.438 135.532195 
L 631.83749 136.584369 
L 633.23698 137.464277 
L 634.636471 138.765758 
L 636.035961 138.307657 
L 638.834941 135.629724 
L 640.234431 134.084856 
L 641.633922 131.274349 
L 643.033412 129.584001 
L 645.832392 126.70885 
L 647.231882 125.761793 
L 648.631373 125.886635 
L 650.030863 125.027015 
L 651.430353 122.868316 
L 652.829843 120.182059 
L 654.229333 117.057054 
L 655.628824 113.395672 
L 657.028314 110.378097 
L 658.427804 108.184302 
L 659.827294 107.218303 
L 661.226784 105.839592 
L 662.626275 104.707506 
L 664.025765 104.091707 
L 665.425255 104.058247 
L 666.824745 103.573473 
L 668.224235 102.70352 
L 669.623725 101.51646 
L 671.023216 99.983286 
L 672.422706 99.131548 
L 673.822196 98.822634 
L 675.221686 98.941796 
L 676.621176 100.200441 
L 679.420157 103.176393 
L 680.819647 103.353487 
L 682.219137 104.429841 
L 683.618627 105.780896 
L 685.018118 106.51913 
L 686.417608 107.619688 
L 687.817098 109.469031 
L 692.015569 115.44233 
L 694.814549 117.24768 
L 696.214039 119.169945 
L 697.613529 119.763084 
L 699.01302 120.657418 
L 700.41251 120.85321 
L 701.812 120.501435 
L 704.61098 119.039311 
L 706.010471 117.941778 
L 707.409961 116.468485 
L 710.208941 111.817512 
L 711.608431 110.394942 
L 713.007922 109.844751 
L 715.806902 110.079033 
L 717.206392 109.531538 
L 720.005373 109.415085 
L 721.404863 110.356886 
L 722.804353 111.718952 
L 724.203843 113.948305 
L 725.603333 115.875473 
L 727.002824 119.063643 
L 728.402314 122.813862 
L 731.201294 132.414787 
L 732.600784 136.082885 
L 735.399765 141.154245 
L 738.198745 145.730042 
L 739.598235 147.326535 
L 740.997725 148.661995 
L 742.397216 149.410276 
L 743.796706 150.418232 
L 745.196196 150.23898 
L 746.595686 151.064831 
L 747.995176 151.704474 
L 749.394667 152.190978 
L 750.794157 152.559054 
L 752.193647 152.480154 
L 753.593137 151.897176 
L 754.992627 152.002558 
L 756.392118 152.603645 
L 757.791608 153.977083 
L 759.191098 155.085011 
L 761.990078 156.901805 
L 764.789059 159.961025 
L 766.188549 162.077798 
L 767.588039 162.918819 
L 768.987529 163.152834 
L 770.38702 162.440891 
L 773.186 160.406343 
L 774.58549 160.035325 
L 775.98498 159.049157 
L 777.384471 156.740374 
L 778.783961 153.95497 
L 780.183451 151.70085 
L 781.582941 150.66323 
L 782.982431 150.22237 
L 784.381922 149.375312 
L 785.781412 149.066128 
L 787.180902 148.368099 
L 789.979882 148.93702 
L 792.778863 151.136912 
L 795.577843 153.757034 
L 796.977333 156.391404 
L 798.376824 159.763785 
L 799.776314 163.468656 
L 801.175804 166.231663 
L 802.575294 168.569081 
L 805.374275 172.449356 
L 808.173255 175.093676 
L 810.972235 177.32482 
L 813.771216 179.211534 
L 815.170706 179.746238 
L 816.570196 180.577726 
L 819.369176 181.506737 
L 822.168157 181.818011 
L 824.967137 181.687858 
L 826.366627 181.032504 
L 829.165608 177.461081 
L 830.565098 174.391991 
L 833.364078 166.780118 
L 836.163059 161.115057 
L 838.962039 156.573506 
L 840.361529 153.428087 
L 845.95949 138.348413 
L 847.35898 135.410478 
L 848.758471 133.627301 
L 850.157961 132.04069 
L 852.956941 131.49321 
L 854.356431 130.35178 
L 855.755922 128.40138 
L 857.155412 126.817406 
L 858.554902 124.946737 
L 859.954392 123.34892 
L 861.353882 122.99589 
L 862.753373 123.591442 
L 865 124.881207 
L 865 124.881207 
" clip-path="url(#p0a44a7f8bb)" style="fill: none; stroke: #701f60; stroke-width: 3; stroke-linecap: round"/>
   </g>
  </g>
 </g>
 <defs>
  <clipPath id="pc3105a5f3c">
   <rect x="82.815" y="39.44" width="237.913333" height="182.62"/>
  </clipPath>
  <clipPath id="p7a9bb4526c">
   <rect x="344.730833" y="39.44" width="237.913333" height="182.62"/>
  </clipPath>
  <clipPath id="p0a44a7f8bb">
   <rect x="606.646667" y="39.44" width="237.913333" height="182.62"/>
  </clipPath>
 </defs>
</svg>
