<?xml version="1.0" encoding="utf-8" standalone="no"?>
<!DOCTYPE svg PUBLIC "-//W3C//DTD SVG 1.1//EN"
  "http://www.w3.org/Graphics/SVG/1.1/DTD/svg11.dtd">
<svg xmlns:xlink="http://www.w3.org/1999/xlink" width="648pt" height="144pt" viewBox="0 0 648 144" xmlns="http://www.w3.org/2000/svg" version="1.1">
 <metadata>
  <rdf:RDF xmlns:dc="http://purl.org/dc/elements/1.1/" xmlns:cc="http://creativecommons.org/ns#" xmlns:rdf="http://www.w3.org/1999/02/22-rdf-syntax-ns#">
   <cc:Work>
    <dc:type rdf:resource="http://purl.org/dc/dcmitype/StillImage"/>
    <dc:date>2022-04-26T18:41:12.503692</dc:date>
    <dc:format>image/svg+xml</dc:format>
    <dc:creator>
     <cc:Agent>
      <dc:title>Matplotlib v3.5.1, https://matplotlib.org/</dc:title>
     </cc:Agent>
    </dc:creator>
   </cc:Work>
  </rdf:RDF>
 </metadata>
 <defs>
  <style type="text/css">*{stroke-linejoin: round; stroke-linecap: butt}</style>
 </defs>
 <g id="figure_1">
  <g id="patch_1">
   <path d="M 0 144 
L 648 144 
L 648 0 
L 0 0 
L 0 144 
z
" style="fill: none"/>
  </g>
  <g id="axes_1">
   <g id="matplotlib.axis_1">
    <g id="xtick_1">
     <g id="line2d_1">
      <path d="M 141.657273 85.652 
L 141.657273 24.406182 
" clip-path="url(#p6c3301393d)" style="fill: none; stroke: #ffffff; stroke-linecap: round"/>
     </g>
     <g id="text_1">
      <!-- 0 -->
      <g style="fill: #262626" transform="translate(137.681202 105.387672)scale(0.143 -0.143)">
       <defs>
        <path id="ArialMT-30" d="M 266 2259 
Q 266 3072 433 3567 
Q 600 4063 929 4331 
Q 1259 4600 1759 4600 
Q 2128 4600 2406 4451 
Q 2684 4303 2865 4023 
Q 3047 3744 3150 3342 
Q 3253 2941 3253 2259 
Q 3253 1453 3087 958 
Q 2922 463 2592 192 
Q 2263 -78 1759 -78 
Q 1097 -78 719 397 
Q 266 969 266 2259 
z
M 844 2259 
Q 844 1131 1108 757 
Q 1372 384 1759 384 
Q 2147 384 2411 759 
Q 2675 1134 2675 2259 
Q 2675 3391 2411 3762 
Q 2147 4134 1753 4134 
Q 1366 4134 1134 3806 
Q 844 3388 844 2259 
z
" transform="scale(0.015625)"/>
       </defs>
       <use xlink:href="#ArialMT-30"/>
      </g>
     </g>
    </g>
    <g id="xtick_2">
     <g id="line2d_2">
      <path d="M 235.836152 85.652 
L 235.836152 24.406182 
" clip-path="url(#p6c3301393d)" style="fill: none; stroke: #ffffff; stroke-linecap: round"/>
     </g>
     <g id="text_2">
      <!-- 20 -->
      <g style="fill: #262626" transform="translate(227.884012 105.387672)scale(0.143 -0.143)">
       <defs>
        <path id="ArialMT-32" d="M 3222 541 
L 3222 0 
L 194 0 
Q 188 203 259 391 
Q 375 700 629 1000 
Q 884 1300 1366 1694 
Q 2113 2306 2375 2664 
Q 2638 3022 2638 3341 
Q 2638 3675 2398 3904 
Q 2159 4134 1775 4134 
Q 1369 4134 1125 3890 
Q 881 3647 878 3216 
L 300 3275 
Q 359 3922 746 4261 
Q 1134 4600 1788 4600 
Q 2447 4600 2831 4234 
Q 3216 3869 3216 3328 
Q 3216 3053 3103 2787 
Q 2991 2522 2730 2228 
Q 2469 1934 1863 1422 
Q 1356 997 1212 845 
Q 1069 694 975 541 
L 3222 541 
z
" transform="scale(0.015625)"/>
       </defs>
       <use xlink:href="#ArialMT-32"/>
       <use xlink:href="#ArialMT-30" x="55.615234"/>
      </g>
     </g>
    </g>
    <g id="xtick_3">
     <g id="line2d_3">
      <path d="M 330.015032 85.652 
L 330.015032 24.406182 
" clip-path="url(#p6c3301393d)" style="fill: none; stroke: #ffffff; stroke-linecap: round"/>
     </g>
     <g id="text_3">
      <!-- 40 -->
      <g style="fill: #262626" transform="translate(322.062892 105.387672)scale(0.143 -0.143)">
       <defs>
        <path id="ArialMT-34" d="M 2069 0 
L 2069 1097 
L 81 1097 
L 81 1613 
L 2172 4581 
L 2631 4581 
L 2631 1613 
L 3250 1613 
L 3250 1097 
L 2631 1097 
L 2631 0 
L 2069 0 
z
M 2069 1613 
L 2069 3678 
L 634 1613 
L 2069 1613 
z
" transform="scale(0.015625)"/>
       </defs>
       <use xlink:href="#ArialMT-34"/>
       <use xlink:href="#ArialMT-30" x="55.615234"/>
      </g>
     </g>
    </g>
    <g id="xtick_4">
     <g id="line2d_4">
      <path d="M 424.193912 85.652 
L 424.193912 24.406182 
" clip-path="url(#p6c3301393d)" style="fill: none; stroke: #ffffff; stroke-linecap: round"/>
     </g>
     <g id="text_4">
      <!-- 60 -->
      <g style="fill: #262626" transform="translate(416.241771 105.387672)scale(0.143 -0.143)">
       <defs>
        <path id="ArialMT-36" d="M 3184 3459 
L 2625 3416 
Q 2550 3747 2413 3897 
Q 2184 4138 1850 4138 
Q 1581 4138 1378 3988 
Q 1113 3794 959 3422 
Q 806 3050 800 2363 
Q 1003 2672 1297 2822 
Q 1591 2972 1913 2972 
Q 2475 2972 2870 2558 
Q 3266 2144 3266 1488 
Q 3266 1056 3080 686 
Q 2894 316 2569 119 
Q 2244 -78 1831 -78 
Q 1128 -78 684 439 
Q 241 956 241 2144 
Q 241 3472 731 4075 
Q 1159 4600 1884 4600 
Q 2425 4600 2770 4297 
Q 3116 3994 3184 3459 
z
M 888 1484 
Q 888 1194 1011 928 
Q 1134 663 1356 523 
Q 1578 384 1822 384 
Q 2178 384 2434 671 
Q 2691 959 2691 1453 
Q 2691 1928 2437 2201 
Q 2184 2475 1800 2475 
Q 1419 2475 1153 2201 
Q 888 1928 888 1484 
z
" transform="scale(0.015625)"/>
       </defs>
       <use xlink:href="#ArialMT-36"/>
       <use xlink:href="#ArialMT-30" x="55.615234"/>
      </g>
     </g>
    </g>
    <g id="xtick_5">
     <g id="line2d_5">
      <path d="M 518.372792 85.652 
L 518.372792 24.406182 
" clip-path="url(#p6c3301393d)" style="fill: none; stroke: #ffffff; stroke-linecap: round"/>
     </g>
     <g id="text_5">
      <!-- 80 -->
      <g style="fill: #262626" transform="translate(510.420651 105.387672)scale(0.143 -0.143)">
       <defs>
        <path id="ArialMT-38" d="M 1131 2484 
Q 781 2613 612 2850 
Q 444 3088 444 3419 
Q 444 3919 803 4259 
Q 1163 4600 1759 4600 
Q 2359 4600 2725 4251 
Q 3091 3903 3091 3403 
Q 3091 3084 2923 2848 
Q 2756 2613 2416 2484 
Q 2838 2347 3058 2040 
Q 3278 1734 3278 1309 
Q 3278 722 2862 322 
Q 2447 -78 1769 -78 
Q 1091 -78 675 323 
Q 259 725 259 1325 
Q 259 1772 486 2073 
Q 713 2375 1131 2484 
z
M 1019 3438 
Q 1019 3113 1228 2906 
Q 1438 2700 1772 2700 
Q 2097 2700 2305 2904 
Q 2513 3109 2513 3406 
Q 2513 3716 2298 3927 
Q 2084 4138 1766 4138 
Q 1444 4138 1231 3931 
Q 1019 3725 1019 3438 
z
M 838 1322 
Q 838 1081 952 856 
Q 1066 631 1291 507 
Q 1516 384 1775 384 
Q 2178 384 2440 643 
Q 2703 903 2703 1303 
Q 2703 1709 2433 1975 
Q 2163 2241 1756 2241 
Q 1359 2241 1098 1978 
Q 838 1716 838 1322 
z
" transform="scale(0.015625)"/>
       </defs>
       <use xlink:href="#ArialMT-38"/>
       <use xlink:href="#ArialMT-30" x="55.615234"/>
      </g>
     </g>
    </g>
    <g id="xtick_6">
     <g id="line2d_6">
      <path d="M 612.551671 85.652 
L 612.551671 24.406182 
" clip-path="url(#p6c3301393d)" style="fill: none; stroke: #ffffff; stroke-linecap: round"/>
     </g>
     <g id="text_6">
      <!-- 100 -->
      <g style="fill: #262626" transform="translate(600.62346 105.387672)scale(0.143 -0.143)">
       <defs>
        <path id="ArialMT-31" d="M 2384 0 
L 1822 0 
L 1822 3584 
Q 1619 3391 1289 3197 
Q 959 3003 697 2906 
L 697 3450 
Q 1169 3672 1522 3987 
Q 1875 4303 2022 4600 
L 2384 4600 
L 2384 0 
z
" transform="scale(0.015625)"/>
       </defs>
       <use xlink:href="#ArialMT-31"/>
       <use xlink:href="#ArialMT-30" x="55.615234"/>
       <use xlink:href="#ArialMT-30" x="111.230469"/>
      </g>
     </g>
    </g>
    <g id="text_7">
     <!-- Trial -->
     <g style="fill: #262626" transform="translate(359.877594 123.395984)scale(0.156 -0.156)">
      <defs>
       <path id="ArialMT-54" d="M 1659 0 
L 1659 4041 
L 150 4041 
L 150 4581 
L 3781 4581 
L 3781 4041 
L 2266 4041 
L 2266 0 
L 1659 0 
z
" transform="scale(0.015625)"/>
       <path id="ArialMT-72" d="M 416 0 
L 416 3319 
L 922 3319 
L 922 2816 
Q 1116 3169 1280 3281 
Q 1444 3394 1641 3394 
Q 1925 3394 2219 3213 
L 2025 2691 
Q 1819 2813 1613 2813 
Q 1428 2813 1281 2702 
Q 1134 2591 1072 2394 
Q 978 2094 978 1738 
L 978 0 
L 416 0 
z
" transform="scale(0.015625)"/>
       <path id="ArialMT-69" d="M 425 3934 
L 425 4581 
L 988 4581 
L 988 3934 
L 425 3934 
z
M 425 0 
L 425 3319 
L 988 3319 
L 988 0 
L 425 0 
z
" transform="scale(0.015625)"/>
       <path id="ArialMT-61" d="M 2588 409 
Q 2275 144 1986 34 
Q 1697 -75 1366 -75 
Q 819 -75 525 192 
Q 231 459 231 875 
Q 231 1119 342 1320 
Q 453 1522 633 1644 
Q 813 1766 1038 1828 
Q 1203 1872 1538 1913 
Q 2219 1994 2541 2106 
Q 2544 2222 2544 2253 
Q 2544 2597 2384 2738 
Q 2169 2928 1744 2928 
Q 1347 2928 1158 2789 
Q 969 2650 878 2297 
L 328 2372 
Q 403 2725 575 2942 
Q 747 3159 1072 3276 
Q 1397 3394 1825 3394 
Q 2250 3394 2515 3294 
Q 2781 3194 2906 3042 
Q 3031 2891 3081 2659 
Q 3109 2516 3109 2141 
L 3109 1391 
Q 3109 606 3145 398 
Q 3181 191 3288 0 
L 2700 0 
Q 2613 175 2588 409 
z
M 2541 1666 
Q 2234 1541 1622 1453 
Q 1275 1403 1131 1340 
Q 988 1278 909 1158 
Q 831 1038 831 891 
Q 831 666 1001 516 
Q 1172 366 1500 366 
Q 1825 366 2078 508 
Q 2331 650 2450 897 
Q 2541 1088 2541 1459 
L 2541 1666 
z
" transform="scale(0.015625)"/>
       <path id="ArialMT-6c" d="M 409 0 
L 409 4581 
L 972 4581 
L 972 0 
L 409 0 
z
" transform="scale(0.015625)"/>
      </defs>
      <use xlink:href="#ArialMT-54"/>
      <use xlink:href="#ArialMT-72" x="57.333984"/>
      <use xlink:href="#ArialMT-69" x="90.634766"/>
      <use xlink:href="#ArialMT-61" x="112.851562"/>
      <use xlink:href="#ArialMT-6c" x="168.466797"/>
     </g>
    </g>
   </g>
   <g id="matplotlib.axis_2">
    <g id="ytick_1">
     <g id="line2d_7">
      <path d="M 118.348 27.190083 
L 631.152 27.190083 
" clip-path="url(#p6c3301393d)" style="fill: none; stroke: #ffffff; stroke-linecap: round"/>
     </g>
     <g id="text_8">
      <!-- Odor A -->
      <g style="fill: #019e61" transform="translate(64.334781 25.76902)scale(0.143 -0.143)">
       <defs>
        <path id="ArialMT-4f" d="M 309 2231 
Q 309 3372 921 4017 
Q 1534 4663 2503 4663 
Q 3138 4663 3647 4359 
Q 4156 4056 4423 3514 
Q 4691 2972 4691 2284 
Q 4691 1588 4409 1038 
Q 4128 488 3612 205 
Q 3097 -78 2500 -78 
Q 1853 -78 1343 234 
Q 834 547 571 1087 
Q 309 1628 309 2231 
z
M 934 2222 
Q 934 1394 1379 917 
Q 1825 441 2497 441 
Q 3181 441 3623 922 
Q 4066 1403 4066 2288 
Q 4066 2847 3877 3264 
Q 3688 3681 3323 3911 
Q 2959 4141 2506 4141 
Q 1863 4141 1398 3698 
Q 934 3256 934 2222 
z
" transform="scale(0.015625)"/>
        <path id="ArialMT-64" d="M 2575 0 
L 2575 419 
Q 2259 -75 1647 -75 
Q 1250 -75 917 144 
Q 584 363 401 755 
Q 219 1147 219 1656 
Q 219 2153 384 2558 
Q 550 2963 881 3178 
Q 1213 3394 1622 3394 
Q 1922 3394 2156 3267 
Q 2391 3141 2538 2938 
L 2538 4581 
L 3097 4581 
L 3097 0 
L 2575 0 
z
M 797 1656 
Q 797 1019 1065 703 
Q 1334 388 1700 388 
Q 2069 388 2326 689 
Q 2584 991 2584 1609 
Q 2584 2291 2321 2609 
Q 2059 2928 1675 2928 
Q 1300 2928 1048 2622 
Q 797 2316 797 1656 
z
" transform="scale(0.015625)"/>
        <path id="ArialMT-6f" d="M 213 1659 
Q 213 2581 725 3025 
Q 1153 3394 1769 3394 
Q 2453 3394 2887 2945 
Q 3322 2497 3322 1706 
Q 3322 1066 3130 698 
Q 2938 331 2570 128 
Q 2203 -75 1769 -75 
Q 1072 -75 642 372 
Q 213 819 213 1659 
z
M 791 1659 
Q 791 1022 1069 705 
Q 1347 388 1769 388 
Q 2188 388 2466 706 
Q 2744 1025 2744 1678 
Q 2744 2294 2464 2611 
Q 2184 2928 1769 2928 
Q 1347 2928 1069 2612 
Q 791 2297 791 1659 
z
" transform="scale(0.015625)"/>
        <path id="ArialMT-20" transform="scale(0.015625)"/>
        <path id="ArialMT-41" d="M -9 0 
L 1750 4581 
L 2403 4581 
L 4278 0 
L 3588 0 
L 3053 1388 
L 1138 1388 
L 634 0 
L -9 0 
z
M 1313 1881 
L 2866 1881 
L 2388 3150 
Q 2169 3728 2063 4100 
Q 1975 3659 1816 3225 
L 1313 1881 
z
" transform="scale(0.015625)"/>
       </defs>
       <use xlink:href="#ArialMT-4f"/>
       <use xlink:href="#ArialMT-64" x="77.783203"/>
       <use xlink:href="#ArialMT-6f" x="133.398438"/>
       <use xlink:href="#ArialMT-72" x="189.013672"/>
       <use xlink:href="#ArialMT-20" x="222.314453"/>
       <use xlink:href="#ArialMT-41" x="244.597656"/>
      </g>
      <!-- 'Target' -->
      <g style="fill: #019e61" transform="translate(63.653297 40.893951)scale(0.143 -0.143)">
       <defs>
        <path id="ArialMT-27" d="M 425 2959 
L 281 3816 
L 281 4581 
L 922 4581 
L 922 3816 
L 772 2959 
L 425 2959 
z
" transform="scale(0.015625)"/>
        <path id="ArialMT-67" d="M 319 -275 
L 866 -356 
Q 900 -609 1056 -725 
Q 1266 -881 1628 -881 
Q 2019 -881 2231 -725 
Q 2444 -569 2519 -288 
Q 2563 -116 2559 434 
Q 2191 0 1641 0 
Q 956 0 581 494 
Q 206 988 206 1678 
Q 206 2153 378 2554 
Q 550 2956 876 3175 
Q 1203 3394 1644 3394 
Q 2231 3394 2613 2919 
L 2613 3319 
L 3131 3319 
L 3131 450 
Q 3131 -325 2973 -648 
Q 2816 -972 2473 -1159 
Q 2131 -1347 1631 -1347 
Q 1038 -1347 672 -1080 
Q 306 -813 319 -275 
z
M 784 1719 
Q 784 1066 1043 766 
Q 1303 466 1694 466 
Q 2081 466 2343 764 
Q 2606 1063 2606 1700 
Q 2606 2309 2336 2618 
Q 2066 2928 1684 2928 
Q 1309 2928 1046 2623 
Q 784 2319 784 1719 
z
" transform="scale(0.015625)"/>
        <path id="ArialMT-65" d="M 2694 1069 
L 3275 997 
Q 3138 488 2766 206 
Q 2394 -75 1816 -75 
Q 1088 -75 661 373 
Q 234 822 234 1631 
Q 234 2469 665 2931 
Q 1097 3394 1784 3394 
Q 2450 3394 2872 2941 
Q 3294 2488 3294 1666 
Q 3294 1616 3291 1516 
L 816 1516 
Q 847 969 1125 678 
Q 1403 388 1819 388 
Q 2128 388 2347 550 
Q 2566 713 2694 1069 
z
M 847 1978 
L 2700 1978 
Q 2663 2397 2488 2606 
Q 2219 2931 1791 2931 
Q 1403 2931 1139 2672 
Q 875 2413 847 1978 
z
" transform="scale(0.015625)"/>
        <path id="ArialMT-74" d="M 1650 503 
L 1731 6 
Q 1494 -44 1306 -44 
Q 1000 -44 831 53 
Q 663 150 594 308 
Q 525 466 525 972 
L 525 2881 
L 113 2881 
L 113 3319 
L 525 3319 
L 525 4141 
L 1084 4478 
L 1084 3319 
L 1650 3319 
L 1650 2881 
L 1084 2881 
L 1084 941 
Q 1084 700 1114 631 
Q 1144 563 1211 522 
Q 1278 481 1403 481 
Q 1497 481 1650 503 
z
" transform="scale(0.015625)"/>
       </defs>
       <use xlink:href="#ArialMT-27"/>
       <use xlink:href="#ArialMT-54" x="19.091797"/>
       <use xlink:href="#ArialMT-61" x="69.050781"/>
       <use xlink:href="#ArialMT-72" x="124.666016"/>
       <use xlink:href="#ArialMT-67" x="157.966797"/>
       <use xlink:href="#ArialMT-65" x="213.582031"/>
       <use xlink:href="#ArialMT-74" x="269.197266"/>
       <use xlink:href="#ArialMT-27" x="296.980469"/>
      </g>
     </g>
    </g>
    <g id="ytick_2">
     <g id="line2d_8">
      <path d="M 118.348 55.029091 
L 631.152 55.029091 
" clip-path="url(#p6c3301393d)" style="fill: none; stroke: #ffffff; stroke-linecap: round"/>
     </g>
     <g id="text_9">
      <!-- No Preference -->
      <g style="fill: #262626" transform="translate(16.650984 60.146927)scale(0.143 -0.143)">
       <defs>
        <path id="ArialMT-4e" d="M 488 0 
L 488 4581 
L 1109 4581 
L 3516 984 
L 3516 4581 
L 4097 4581 
L 4097 0 
L 3475 0 
L 1069 3600 
L 1069 0 
L 488 0 
z
" transform="scale(0.015625)"/>
        <path id="ArialMT-50" d="M 494 0 
L 494 4581 
L 2222 4581 
Q 2678 4581 2919 4538 
Q 3256 4481 3484 4323 
Q 3713 4166 3852 3881 
Q 3991 3597 3991 3256 
Q 3991 2672 3619 2267 
Q 3247 1863 2275 1863 
L 1100 1863 
L 1100 0 
L 494 0 
z
M 1100 2403 
L 2284 2403 
Q 2872 2403 3119 2622 
Q 3366 2841 3366 3238 
Q 3366 3525 3220 3729 
Q 3075 3934 2838 4000 
Q 2684 4041 2272 4041 
L 1100 4041 
L 1100 2403 
z
" transform="scale(0.015625)"/>
        <path id="ArialMT-66" d="M 556 0 
L 556 2881 
L 59 2881 
L 59 3319 
L 556 3319 
L 556 3672 
Q 556 4006 616 4169 
Q 697 4388 901 4523 
Q 1106 4659 1475 4659 
Q 1713 4659 2000 4603 
L 1916 4113 
Q 1741 4144 1584 4144 
Q 1328 4144 1222 4034 
Q 1116 3925 1116 3625 
L 1116 3319 
L 1763 3319 
L 1763 2881 
L 1116 2881 
L 1116 0 
L 556 0 
z
" transform="scale(0.015625)"/>
        <path id="ArialMT-6e" d="M 422 0 
L 422 3319 
L 928 3319 
L 928 2847 
Q 1294 3394 1984 3394 
Q 2284 3394 2536 3286 
Q 2788 3178 2913 3003 
Q 3038 2828 3088 2588 
Q 3119 2431 3119 2041 
L 3119 0 
L 2556 0 
L 2556 2019 
Q 2556 2363 2490 2533 
Q 2425 2703 2258 2804 
Q 2091 2906 1866 2906 
Q 1506 2906 1245 2678 
Q 984 2450 984 1813 
L 984 0 
L 422 0 
z
" transform="scale(0.015625)"/>
        <path id="ArialMT-63" d="M 2588 1216 
L 3141 1144 
Q 3050 572 2676 248 
Q 2303 -75 1759 -75 
Q 1078 -75 664 370 
Q 250 816 250 1647 
Q 250 2184 428 2587 
Q 606 2991 970 3192 
Q 1334 3394 1763 3394 
Q 2303 3394 2647 3120 
Q 2991 2847 3088 2344 
L 2541 2259 
Q 2463 2594 2264 2762 
Q 2066 2931 1784 2931 
Q 1359 2931 1093 2626 
Q 828 2322 828 1663 
Q 828 994 1084 691 
Q 1341 388 1753 388 
Q 2084 388 2306 591 
Q 2528 794 2588 1216 
z
" transform="scale(0.015625)"/>
       </defs>
       <use xlink:href="#ArialMT-4e"/>
       <use xlink:href="#ArialMT-6f" x="72.216797"/>
       <use xlink:href="#ArialMT-20" x="127.832031"/>
       <use xlink:href="#ArialMT-50" x="155.615234"/>
       <use xlink:href="#ArialMT-72" x="222.314453"/>
       <use xlink:href="#ArialMT-65" x="255.615234"/>
       <use xlink:href="#ArialMT-66" x="311.230469"/>
       <use xlink:href="#ArialMT-65" x="339.013672"/>
       <use xlink:href="#ArialMT-72" x="394.628906"/>
       <use xlink:href="#ArialMT-65" x="427.929688"/>
       <use xlink:href="#ArialMT-6e" x="483.544922"/>
       <use xlink:href="#ArialMT-63" x="539.160156"/>
       <use xlink:href="#ArialMT-65" x="589.160156"/>
      </g>
     </g>
    </g>
    <g id="ytick_3">
     <g id="line2d_9">
      <path d="M 118.348 82.868099 
L 631.152 82.868099 
" clip-path="url(#p6c3301393d)" style="fill: none; stroke: #ffffff; stroke-linecap: round"/>
     </g>
     <g id="text_10">
      <!-- Odor B -->
      <g style="fill: #262626" transform="translate(63.548281 87.985935)scale(0.143 -0.143)">
       <defs>
        <path id="ArialMT-42" d="M 469 0 
L 469 4581 
L 2188 4581 
Q 2713 4581 3030 4442 
Q 3347 4303 3526 4014 
Q 3706 3725 3706 3409 
Q 3706 3116 3547 2856 
Q 3388 2597 3066 2438 
Q 3481 2316 3704 2022 
Q 3928 1728 3928 1328 
Q 3928 1006 3792 729 
Q 3656 453 3456 303 
Q 3256 153 2954 76 
Q 2653 0 2216 0 
L 469 0 
z
M 1075 2656 
L 2066 2656 
Q 2469 2656 2644 2709 
Q 2875 2778 2992 2937 
Q 3109 3097 3109 3338 
Q 3109 3566 3000 3739 
Q 2891 3913 2687 3977 
Q 2484 4041 1991 4041 
L 1075 4041 
L 1075 2656 
z
M 1075 541 
L 2216 541 
Q 2509 541 2628 563 
Q 2838 600 2978 687 
Q 3119 775 3209 942 
Q 3300 1109 3300 1328 
Q 3300 1584 3169 1773 
Q 3038 1963 2805 2039 
Q 2572 2116 2134 2116 
L 1075 2116 
L 1075 541 
z
" transform="scale(0.015625)"/>
       </defs>
       <use xlink:href="#ArialMT-4f"/>
       <use xlink:href="#ArialMT-64" x="77.783203"/>
       <use xlink:href="#ArialMT-6f" x="133.398438"/>
       <use xlink:href="#ArialMT-72" x="189.013672"/>
       <use xlink:href="#ArialMT-20" x="222.314453"/>
       <use xlink:href="#ArialMT-42" x="250.097656"/>
      </g>
     </g>
    </g>
   </g>
   <g id="line2d_10">
    <path d="M 118.348 55.029091 
L 631.152 55.029091 
" clip-path="url(#p6c3301393d)" style="fill: none; stroke-dasharray: 1.5,2.475; stroke-dashoffset: 0; stroke: #1a1a1a; stroke-width: 1.5"/>
   </g>
   <g id="line2d_11">
    <defs>
     <path id="md9c952bf4c" d="M 0 3 
C 0.795609 3 1.55874 2.683901 2.12132 2.12132 
C 2.683901 1.55874 3 0.795609 3 0 
C 3 -0.795609 2.683901 -1.55874 2.12132 -2.12132 
C 1.55874 -2.683901 0.795609 -3 0 -3 
C -0.795609 -3 -1.55874 -2.683901 -2.12132 -2.12132 
C -2.683901 -1.55874 -3 -0.795609 -3 0 
C -3 0.795609 -2.683901 1.55874 -2.12132 2.12132 
C -1.55874 2.683901 -0.795609 3 0 3 
z
" style="stroke: #29ab4c"/>
    </defs>
    <g clip-path="url(#p6c3301393d)">
     <use xlink:href="#md9c952bf4c" x="377.104472" y="27.190083" style="fill: #29ab4c; stroke: #29ab4c"/>
     <use xlink:href="#md9c952bf4c" x="381.813416" y="27.190083" style="fill: #29ab4c; stroke: #29ab4c"/>
     <use xlink:href="#md9c952bf4c" x="386.52236" y="27.190083" style="fill: #29ab4c; stroke: #29ab4c"/>
     <use xlink:href="#md9c952bf4c" x="391.231304" y="27.190083" style="fill: #29ab4c; stroke: #29ab4c"/>
     <use xlink:href="#md9c952bf4c" x="395.940248" y="27.190083" style="fill: #29ab4c; stroke: #29ab4c"/>
     <use xlink:href="#md9c952bf4c" x="400.649192" y="27.190083" style="fill: #29ab4c; stroke: #29ab4c"/>
     <use xlink:href="#md9c952bf4c" x="405.358136" y="27.190083" style="fill: #29ab4c; stroke: #29ab4c"/>
     <use xlink:href="#md9c952bf4c" x="410.06708" y="27.190083" style="fill: #29ab4c; stroke: #29ab4c"/>
     <use xlink:href="#md9c952bf4c" x="414.776024" y="27.190083" style="fill: #29ab4c; stroke: #29ab4c"/>
     <use xlink:href="#md9c952bf4c" x="419.484968" y="27.190083" style="fill: #29ab4c; stroke: #29ab4c"/>
     <use xlink:href="#md9c952bf4c" x="424.193912" y="27.190083" style="fill: #29ab4c; stroke: #29ab4c"/>
     <use xlink:href="#md9c952bf4c" x="428.902856" y="27.190083" style="fill: #29ab4c; stroke: #29ab4c"/>
     <use xlink:href="#md9c952bf4c" x="433.6118" y="27.190083" style="fill: #29ab4c; stroke: #29ab4c"/>
     <use xlink:href="#md9c952bf4c" x="438.320744" y="27.190083" style="fill: #29ab4c; stroke: #29ab4c"/>
     <use xlink:href="#md9c952bf4c" x="443.029688" y="27.190083" style="fill: #29ab4c; stroke: #29ab4c"/>
     <use xlink:href="#md9c952bf4c" x="447.738632" y="27.190083" style="fill: #29ab4c; stroke: #29ab4c"/>
     <use xlink:href="#md9c952bf4c" x="452.447576" y="27.190083" style="fill: #29ab4c; stroke: #29ab4c"/>
     <use xlink:href="#md9c952bf4c" x="457.15652" y="27.190083" style="fill: #29ab4c; stroke: #29ab4c"/>
     <use xlink:href="#md9c952bf4c" x="461.865464" y="27.190083" style="fill: #29ab4c; stroke: #29ab4c"/>
     <use xlink:href="#md9c952bf4c" x="466.574408" y="27.190083" style="fill: #29ab4c; stroke: #29ab4c"/>
     <use xlink:href="#md9c952bf4c" x="471.283352" y="27.190083" style="fill: #29ab4c; stroke: #29ab4c"/>
     <use xlink:href="#md9c952bf4c" x="475.992296" y="27.190083" style="fill: #29ab4c; stroke: #29ab4c"/>
     <use xlink:href="#md9c952bf4c" x="480.70124" y="27.190083" style="fill: #29ab4c; stroke: #29ab4c"/>
     <use xlink:href="#md9c952bf4c" x="485.410184" y="27.190083" style="fill: #29ab4c; stroke: #29ab4c"/>
     <use xlink:href="#md9c952bf4c" x="490.119128" y="27.190083" style="fill: #29ab4c; stroke: #29ab4c"/>
     <use xlink:href="#md9c952bf4c" x="494.828072" y="27.190083" style="fill: #29ab4c; stroke: #29ab4c"/>
     <use xlink:href="#md9c952bf4c" x="499.537016" y="27.190083" style="fill: #29ab4c; stroke: #29ab4c"/>
     <use xlink:href="#md9c952bf4c" x="504.24596" y="27.190083" style="fill: #29ab4c; stroke: #29ab4c"/>
     <use xlink:href="#md9c952bf4c" x="508.954904" y="27.190083" style="fill: #29ab4c; stroke: #29ab4c"/>
     <use xlink:href="#md9c952bf4c" x="513.663848" y="27.190083" style="fill: #29ab4c; stroke: #29ab4c"/>
     <use xlink:href="#md9c952bf4c" x="518.372792" y="27.190083" style="fill: #29ab4c; stroke: #29ab4c"/>
     <use xlink:href="#md9c952bf4c" x="523.081736" y="27.190083" style="fill: #29ab4c; stroke: #29ab4c"/>
     <use xlink:href="#md9c952bf4c" x="527.79068" y="27.190083" style="fill: #29ab4c; stroke: #29ab4c"/>
     <use xlink:href="#md9c952bf4c" x="532.499624" y="27.190083" style="fill: #29ab4c; stroke: #29ab4c"/>
     <use xlink:href="#md9c952bf4c" x="537.208567" y="27.190083" style="fill: #29ab4c; stroke: #29ab4c"/>
     <use xlink:href="#md9c952bf4c" x="541.917511" y="27.190083" style="fill: #29ab4c; stroke: #29ab4c"/>
     <use xlink:href="#md9c952bf4c" x="546.626455" y="27.190083" style="fill: #29ab4c; stroke: #29ab4c"/>
     <use xlink:href="#md9c952bf4c" x="551.335399" y="27.190083" style="fill: #29ab4c; stroke: #29ab4c"/>
     <use xlink:href="#md9c952bf4c" x="556.044343" y="27.190083" style="fill: #29ab4c; stroke: #29ab4c"/>
     <use xlink:href="#md9c952bf4c" x="560.753287" y="27.190083" style="fill: #29ab4c; stroke: #29ab4c"/>
     <use xlink:href="#md9c952bf4c" x="565.462231" y="27.190083" style="fill: #29ab4c; stroke: #29ab4c"/>
     <use xlink:href="#md9c952bf4c" x="570.171175" y="27.190083" style="fill: #29ab4c; stroke: #29ab4c"/>
     <use xlink:href="#md9c952bf4c" x="574.880119" y="27.190083" style="fill: #29ab4c; stroke: #29ab4c"/>
     <use xlink:href="#md9c952bf4c" x="579.589063" y="27.190083" style="fill: #29ab4c; stroke: #29ab4c"/>
     <use xlink:href="#md9c952bf4c" x="584.298007" y="27.190083" style="fill: #29ab4c; stroke: #29ab4c"/>
     <use xlink:href="#md9c952bf4c" x="589.006951" y="27.190083" style="fill: #29ab4c; stroke: #29ab4c"/>
     <use xlink:href="#md9c952bf4c" x="593.715895" y="27.190083" style="fill: #29ab4c; stroke: #29ab4c"/>
     <use xlink:href="#md9c952bf4c" x="598.424839" y="27.190083" style="fill: #29ab4c; stroke: #29ab4c"/>
     <use xlink:href="#md9c952bf4c" x="603.133783" y="27.190083" style="fill: #29ab4c; stroke: #29ab4c"/>
     <use xlink:href="#md9c952bf4c" x="607.842727" y="27.190083" style="fill: #29ab4c; stroke: #29ab4c"/>
    </g>
   </g>
   <g id="line2d_12">
    <defs>
     <path id="m41343df8f1" d="M 0 3 
C 0.795609 3 1.55874 2.683901 2.12132 2.12132 
C 2.683901 1.55874 3 0.795609 3 0 
C 3 -0.795609 2.683901 -1.55874 2.12132 -2.12132 
C 1.55874 -2.683901 0.795609 -3 0 -3 
C -0.795609 -3 -1.55874 -2.683901 -2.12132 -2.12132 
C -2.683901 -1.55874 -3 -0.795609 -3 0 
C -3 0.795609 -2.683901 1.55874 -2.12132 2.12132 
C -1.55874 2.683901 -0.795609 3 0 3 
z
" style="stroke: #89c241"/>
    </defs>
    <g clip-path="url(#p6c3301393d)">
     <use xlink:href="#m41343df8f1" x="141.657273" y="82.868099" style="fill: #89c241; stroke: #89c241"/>
     <use xlink:href="#m41343df8f1" x="146.366217" y="82.868099" style="fill: #89c241; stroke: #89c241"/>
     <use xlink:href="#m41343df8f1" x="151.075161" y="82.868099" style="fill: #89c241; stroke: #89c241"/>
     <use xlink:href="#m41343df8f1" x="155.784105" y="82.868099" style="fill: #89c241; stroke: #89c241"/>
     <use xlink:href="#m41343df8f1" x="160.493049" y="82.868099" style="fill: #89c241; stroke: #89c241"/>
     <use xlink:href="#m41343df8f1" x="165.201993" y="82.868099" style="fill: #89c241; stroke: #89c241"/>
     <use xlink:href="#m41343df8f1" x="169.910937" y="82.868099" style="fill: #89c241; stroke: #89c241"/>
     <use xlink:href="#m41343df8f1" x="174.619881" y="82.868099" style="fill: #89c241; stroke: #89c241"/>
     <use xlink:href="#m41343df8f1" x="179.328825" y="82.868099" style="fill: #89c241; stroke: #89c241"/>
     <use xlink:href="#m41343df8f1" x="184.037769" y="82.868099" style="fill: #89c241; stroke: #89c241"/>
     <use xlink:href="#m41343df8f1" x="188.746713" y="82.868099" style="fill: #89c241; stroke: #89c241"/>
     <use xlink:href="#m41343df8f1" x="193.455657" y="82.868099" style="fill: #89c241; stroke: #89c241"/>
     <use xlink:href="#m41343df8f1" x="198.164601" y="82.868099" style="fill: #89c241; stroke: #89c241"/>
     <use xlink:href="#m41343df8f1" x="202.873545" y="82.868099" style="fill: #89c241; stroke: #89c241"/>
     <use xlink:href="#m41343df8f1" x="207.582489" y="82.868099" style="fill: #89c241; stroke: #89c241"/>
     <use xlink:href="#m41343df8f1" x="212.291433" y="82.868099" style="fill: #89c241; stroke: #89c241"/>
     <use xlink:href="#m41343df8f1" x="217.000376" y="82.868099" style="fill: #89c241; stroke: #89c241"/>
     <use xlink:href="#m41343df8f1" x="221.70932" y="82.868099" style="fill: #89c241; stroke: #89c241"/>
     <use xlink:href="#m41343df8f1" x="226.418264" y="82.868099" style="fill: #89c241; stroke: #89c241"/>
     <use xlink:href="#m41343df8f1" x="231.127208" y="82.868099" style="fill: #89c241; stroke: #89c241"/>
     <use xlink:href="#m41343df8f1" x="235.836152" y="82.868099" style="fill: #89c241; stroke: #89c241"/>
     <use xlink:href="#m41343df8f1" x="240.545096" y="82.868099" style="fill: #89c241; stroke: #89c241"/>
     <use xlink:href="#m41343df8f1" x="245.25404" y="82.868099" style="fill: #89c241; stroke: #89c241"/>
     <use xlink:href="#m41343df8f1" x="249.962984" y="82.868099" style="fill: #89c241; stroke: #89c241"/>
     <use xlink:href="#m41343df8f1" x="254.671928" y="82.868099" style="fill: #89c241; stroke: #89c241"/>
     <use xlink:href="#m41343df8f1" x="259.380872" y="82.868099" style="fill: #89c241; stroke: #89c241"/>
     <use xlink:href="#m41343df8f1" x="264.089816" y="82.868099" style="fill: #89c241; stroke: #89c241"/>
     <use xlink:href="#m41343df8f1" x="268.79876" y="82.868099" style="fill: #89c241; stroke: #89c241"/>
     <use xlink:href="#m41343df8f1" x="273.507704" y="82.868099" style="fill: #89c241; stroke: #89c241"/>
     <use xlink:href="#m41343df8f1" x="278.216648" y="82.868099" style="fill: #89c241; stroke: #89c241"/>
     <use xlink:href="#m41343df8f1" x="282.925592" y="82.868099" style="fill: #89c241; stroke: #89c241"/>
     <use xlink:href="#m41343df8f1" x="287.634536" y="82.868099" style="fill: #89c241; stroke: #89c241"/>
     <use xlink:href="#m41343df8f1" x="292.34348" y="82.868099" style="fill: #89c241; stroke: #89c241"/>
     <use xlink:href="#m41343df8f1" x="297.052424" y="82.868099" style="fill: #89c241; stroke: #89c241"/>
     <use xlink:href="#m41343df8f1" x="301.761368" y="82.868099" style="fill: #89c241; stroke: #89c241"/>
     <use xlink:href="#m41343df8f1" x="306.470312" y="82.868099" style="fill: #89c241; stroke: #89c241"/>
     <use xlink:href="#m41343df8f1" x="311.179256" y="82.868099" style="fill: #89c241; stroke: #89c241"/>
     <use xlink:href="#m41343df8f1" x="315.8882" y="82.868099" style="fill: #89c241; stroke: #89c241"/>
     <use xlink:href="#m41343df8f1" x="320.597144" y="82.868099" style="fill: #89c241; stroke: #89c241"/>
     <use xlink:href="#m41343df8f1" x="325.306088" y="82.868099" style="fill: #89c241; stroke: #89c241"/>
     <use xlink:href="#m41343df8f1" x="330.015032" y="82.868099" style="fill: #89c241; stroke: #89c241"/>
     <use xlink:href="#m41343df8f1" x="334.723976" y="82.868099" style="fill: #89c241; stroke: #89c241"/>
     <use xlink:href="#m41343df8f1" x="339.43292" y="82.868099" style="fill: #89c241; stroke: #89c241"/>
     <use xlink:href="#m41343df8f1" x="344.141864" y="82.868099" style="fill: #89c241; stroke: #89c241"/>
     <use xlink:href="#m41343df8f1" x="348.850808" y="82.868099" style="fill: #89c241; stroke: #89c241"/>
     <use xlink:href="#m41343df8f1" x="353.559752" y="82.868099" style="fill: #89c241; stroke: #89c241"/>
     <use xlink:href="#m41343df8f1" x="358.268696" y="82.868099" style="fill: #89c241; stroke: #89c241"/>
     <use xlink:href="#m41343df8f1" x="362.97764" y="82.868099" style="fill: #89c241; stroke: #89c241"/>
     <use xlink:href="#m41343df8f1" x="367.686584" y="82.868099" style="fill: #89c241; stroke: #89c241"/>
     <use xlink:href="#m41343df8f1" x="372.395528" y="82.868099" style="fill: #89c241; stroke: #89c241"/>
    </g>
   </g>
  </g>
 </g>
 <defs>
  <clipPath id="p6c3301393d">
   <rect x="118.348" y="24.406182" width="512.804" height="61.245818"/>
  </clipPath>
 </defs>
</svg>
