<?xml version="1.0" encoding="utf-8" standalone="no"?>
<!DOCTYPE svg PUBLIC "-//W3C//DTD SVG 1.1//EN"
  "http://www.w3.org/Graphics/SVG/1.1/DTD/svg11.dtd">
<svg xmlns:xlink="http://www.w3.org/1999/xlink" width="288pt" height="288pt" viewBox="0 0 288 288" xmlns="http://www.w3.org/2000/svg" version="1.1">
 <metadata>
  <rdf:RDF xmlns:dc="http://purl.org/dc/elements/1.1/" xmlns:cc="http://creativecommons.org/ns#" xmlns:rdf="http://www.w3.org/1999/02/22-rdf-syntax-ns#">
   <cc:Work>
    <dc:type rdf:resource="http://purl.org/dc/dcmitype/StillImage"/>
    <dc:date>2022-05-01T17:17:30.504555</dc:date>
    <dc:format>image/svg+xml</dc:format>
    <dc:creator>
     <cc:Agent>
      <dc:title>Matplotlib v3.5.1, https://matplotlib.org/</dc:title>
     </cc:Agent>
    </dc:creator>
   </cc:Work>
  </rdf:RDF>
 </metadata>
 <defs>
  <style type="text/css">*{stroke-linejoin: round; stroke-linecap: butt}</style>
 </defs>
 <g id="figure_1">
  <g id="patch_1">
   <path d="M 0 288 
L 288 288 
L 288 0 
L 0 0 
L 0 288 
z
" style="fill: none"/>
  </g>
  <g id="axes_1">
   <g id="matplotlib.axis_1">
    <g id="xtick_1">
     <g id="line2d_1">
      <path d="M 114.265947 210.078 
L 114.265947 17.029165 
" clip-path="url(#pddb275d59d)" style="fill: none; stroke: #ffffff; stroke-linecap: round"/>
     </g>
     <g id="text_1">
      <!-- −2 -->
      <g style="fill: #262626" transform="translate(106.740916 229.026313)scale(0.132 -0.132)">
       <defs>
        <path id="ArialMT-2212" d="M 3381 1997 
L 356 1997 
L 356 2522 
L 3381 2522 
L 3381 1997 
z
" transform="scale(0.015625)"/>
        <path id="ArialMT-32" d="M 3222 541 
L 3222 0 
L 194 0 
Q 188 203 259 391 
Q 375 700 629 1000 
Q 884 1300 1366 1694 
Q 2113 2306 2375 2664 
Q 2638 3022 2638 3341 
Q 2638 3675 2398 3904 
Q 2159 4134 1775 4134 
Q 1369 4134 1125 3890 
Q 881 3647 878 3216 
L 300 3275 
Q 359 3922 746 4261 
Q 1134 4600 1788 4600 
Q 2447 4600 2831 4234 
Q 3216 3869 3216 3328 
Q 3216 3053 3103 2787 
Q 2991 2522 2730 2228 
Q 2469 1934 1863 1422 
Q 1356 997 1212 845 
Q 1069 694 975 541 
L 3222 541 
z
" transform="scale(0.015625)"/>
       </defs>
       <use xlink:href="#ArialMT-2212"/>
       <use xlink:href="#ArialMT-32" x="58.398438"/>
      </g>
     </g>
    </g>
    <g id="xtick_2">
     <g id="line2d_2">
      <path d="M 176.218835 210.078 
L 176.218835 17.029165 
" clip-path="url(#pddb275d59d)" style="fill: none; stroke: #ffffff; stroke-linecap: round"/>
     </g>
     <g id="text_2">
      <!-- 0 -->
      <g style="fill: #262626" transform="translate(172.548616 229.026313)scale(0.132 -0.132)">
       <defs>
        <path id="ArialMT-30" d="M 266 2259 
Q 266 3072 433 3567 
Q 600 4063 929 4331 
Q 1259 4600 1759 4600 
Q 2128 4600 2406 4451 
Q 2684 4303 2865 4023 
Q 3047 3744 3150 3342 
Q 3253 2941 3253 2259 
Q 3253 1453 3087 958 
Q 2922 463 2592 192 
Q 2263 -78 1759 -78 
Q 1097 -78 719 397 
Q 266 969 266 2259 
z
M 844 2259 
Q 844 1131 1108 757 
Q 1372 384 1759 384 
Q 2147 384 2411 759 
Q 2675 1134 2675 2259 
Q 2675 3391 2411 3762 
Q 2147 4134 1753 4134 
Q 1366 4134 1134 3806 
Q 844 3388 844 2259 
z
" transform="scale(0.015625)"/>
       </defs>
       <use xlink:href="#ArialMT-30"/>
      </g>
     </g>
    </g>
    <g id="xtick_3">
     <g id="line2d_3">
      <path d="M 238.171723 210.078 
L 238.171723 17.029165 
" clip-path="url(#pddb275d59d)" style="fill: none; stroke: #ffffff; stroke-linecap: round"/>
     </g>
     <g id="text_3">
      <!-- 2 -->
      <g style="fill: #262626" transform="translate(234.501504 229.026313)scale(0.132 -0.132)">
       <use xlink:href="#ArialMT-32"/>
      </g>
     </g>
    </g>
    <g id="text_4">
     <!-- $\log\frac{P(R_{MCH})}{P(R_{OCT})}$ -->
     <g style="fill: #262626" transform="translate(131.1075 257.649812)scale(0.2 -0.2)">
      <defs>
       <path id="DejaVuSans-6c" d="M 603 4863 
L 1178 4863 
L 1178 0 
L 603 0 
L 603 4863 
z
" transform="scale(0.015625)"/>
       <path id="DejaVuSans-6f" d="M 1959 3097 
Q 1497 3097 1228 2736 
Q 959 2375 959 1747 
Q 959 1119 1226 758 
Q 1494 397 1959 397 
Q 2419 397 2687 759 
Q 2956 1122 2956 1747 
Q 2956 2369 2687 2733 
Q 2419 3097 1959 3097 
z
M 1959 3584 
Q 2709 3584 3137 3096 
Q 3566 2609 3566 1747 
Q 3566 888 3137 398 
Q 2709 -91 1959 -91 
Q 1206 -91 779 398 
Q 353 888 353 1747 
Q 353 2609 779 3096 
Q 1206 3584 1959 3584 
z
" transform="scale(0.015625)"/>
       <path id="DejaVuSans-67" d="M 2906 1791 
Q 2906 2416 2648 2759 
Q 2391 3103 1925 3103 
Q 1463 3103 1205 2759 
Q 947 2416 947 1791 
Q 947 1169 1205 825 
Q 1463 481 1925 481 
Q 2391 481 2648 825 
Q 2906 1169 2906 1791 
z
M 3481 434 
Q 3481 -459 3084 -895 
Q 2688 -1331 1869 -1331 
Q 1566 -1331 1297 -1286 
Q 1028 -1241 775 -1147 
L 775 -588 
Q 1028 -725 1275 -790 
Q 1522 -856 1778 -856 
Q 2344 -856 2625 -561 
Q 2906 -266 2906 331 
L 2906 616 
Q 2728 306 2450 153 
Q 2172 0 1784 0 
Q 1141 0 747 490 
Q 353 981 353 1791 
Q 353 2603 747 3093 
Q 1141 3584 1784 3584 
Q 2172 3584 2450 3431 
Q 2728 3278 2906 2969 
L 2906 3500 
L 3481 3500 
L 3481 434 
z
" transform="scale(0.015625)"/>
       <path id="DejaVuSans-Oblique-50" d="M 1081 4666 
L 2541 4666 
Q 3178 4666 3512 4369 
Q 3847 4072 3847 3500 
Q 3847 2731 3353 2303 
Q 2859 1875 1966 1875 
L 1172 1875 
L 806 0 
L 172 0 
L 1081 4666 
z
M 1613 4147 
L 1275 2394 
L 2069 2394 
Q 2606 2394 2893 2669 
Q 3181 2944 3181 3456 
Q 3181 3784 2986 3965 
Q 2791 4147 2438 4147 
L 1613 4147 
z
" transform="scale(0.015625)"/>
       <path id="DejaVuSans-28" d="M 1984 4856 
Q 1566 4138 1362 3434 
Q 1159 2731 1159 2009 
Q 1159 1288 1364 580 
Q 1569 -128 1984 -844 
L 1484 -844 
Q 1016 -109 783 600 
Q 550 1309 550 2009 
Q 550 2706 781 3412 
Q 1013 4119 1484 4856 
L 1984 4856 
z
" transform="scale(0.015625)"/>
       <path id="DejaVuSans-Oblique-52" d="M 1613 4147 
L 1294 2491 
L 2106 2491 
Q 2584 2491 2879 2755 
Q 3175 3019 3175 3444 
Q 3175 3784 2976 3965 
Q 2778 4147 2406 4147 
L 1613 4147 
z
M 2772 2241 
Q 2972 2194 3105 2009 
Q 3238 1825 3413 1275 
L 3809 0 
L 3144 0 
L 2778 1197 
Q 2638 1659 2453 1815 
Q 2269 1972 1888 1972 
L 1191 1972 
L 806 0 
L 172 0 
L 1081 4666 
L 2503 4666 
Q 3150 4666 3495 4373 
Q 3841 4081 3841 3531 
Q 3841 3044 3547 2687 
Q 3253 2331 2772 2241 
z
" transform="scale(0.015625)"/>
       <path id="DejaVuSans-Oblique-4d" d="M 1081 4666 
L 2028 4666 
L 2572 1522 
L 4378 4666 
L 5350 4666 
L 4441 0 
L 3828 0 
L 4622 4091 
L 2791 897 
L 2175 897 
L 1581 4103 
L 788 0 
L 172 0 
L 1081 4666 
z
" transform="scale(0.015625)"/>
       <path id="DejaVuSans-Oblique-43" d="M 4447 4306 
L 4319 3641 
Q 4019 3944 3683 4091 
Q 3347 4238 2956 4238 
Q 2422 4238 2017 3981 
Q 1613 3725 1319 3200 
Q 1131 2863 1032 2486 
Q 934 2109 934 1728 
Q 934 1091 1264 756 
Q 1594 422 2222 422 
Q 2656 422 3056 561 
Q 3456 700 3834 978 
L 3688 231 
Q 3316 72 2936 -9 
Q 2556 -91 2175 -91 
Q 1278 -91 773 396 
Q 269 884 269 1753 
Q 269 2309 461 2846 
Q 653 3384 1013 3828 
Q 1394 4300 1883 4525 
Q 2372 4750 3022 4750 
Q 3422 4750 3780 4639 
Q 4138 4528 4447 4306 
z
" transform="scale(0.015625)"/>
       <path id="DejaVuSans-Oblique-48" d="M 1081 4666 
L 1716 4666 
L 1344 2753 
L 3634 2753 
L 4006 4666 
L 4641 4666 
L 3731 0 
L 3097 0 
L 3531 2222 
L 1241 2222 
L 806 0 
L 172 0 
L 1081 4666 
z
" transform="scale(0.015625)"/>
       <path id="DejaVuSans-29" d="M 513 4856 
L 1013 4856 
Q 1481 4119 1714 3412 
Q 1947 2706 1947 2009 
Q 1947 1309 1714 600 
Q 1481 -109 1013 -844 
L 513 -844 
Q 928 -128 1133 580 
Q 1338 1288 1338 2009 
Q 1338 2731 1133 3434 
Q 928 4138 513 4856 
z
" transform="scale(0.015625)"/>
       <path id="DejaVuSans-Oblique-4f" d="M 2919 4238 
Q 2400 4238 2003 3986 
Q 1606 3734 1313 3219 
Q 1125 2891 1026 2522 
Q 928 2153 928 1778 
Q 928 1128 1239 775 
Q 1550 422 2119 422 
Q 2631 422 3032 676 
Q 3434 931 3719 1434 
Q 3909 1772 4009 2142 
Q 4109 2513 4109 2881 
Q 4109 3528 3796 3883 
Q 3484 4238 2919 4238 
z
M 2100 -91 
Q 1241 -91 748 418 
Q 256 928 256 1813 
Q 256 2319 448 2847 
Q 641 3375 978 3788 
Q 1375 4272 1862 4511 
Q 2350 4750 2938 4750 
Q 3794 4750 4287 4245 
Q 4781 3741 4781 2869 
Q 4781 2331 4593 1812 
Q 4406 1294 4056 872 
Q 3656 384 3173 146 
Q 2691 -91 2100 -91 
z
" transform="scale(0.015625)"/>
       <path id="DejaVuSans-Oblique-54" d="M 378 4666 
L 4325 4666 
L 4225 4134 
L 2559 4134 
L 1759 0 
L 1125 0 
L 1925 4134 
L 275 4134 
L 378 4666 
z
" transform="scale(0.015625)"/>
      </defs>
      <use xlink:href="#DejaVuSans-6c" transform="translate(0 0.909531)"/>
      <use xlink:href="#DejaVuSans-6f" transform="translate(27.783203 0.909531)"/>
      <use xlink:href="#DejaVuSans-67" transform="translate(88.964844 0.909531)"/>
      <use xlink:href="#DejaVuSans-Oblique-50" transform="translate(168.677083 56.8875)scale(0.7)"/>
      <use xlink:href="#DejaVuSans-28" transform="translate(210.888997 56.8875)scale(0.7)"/>
      <use xlink:href="#DejaVuSans-Oblique-52" transform="translate(238.198567 56.8875)scale(0.7)"/>
      <use xlink:href="#DejaVuSans-Oblique-4d" transform="translate(286.836262 45.403125)scale(0.49)"/>
      <use xlink:href="#DejaVuSans-Oblique-43" transform="translate(329.113118 45.403125)scale(0.49)"/>
      <use xlink:href="#DejaVuSans-Oblique-48" transform="translate(363.326985 45.403125)scale(0.49)"/>
      <use xlink:href="#DejaVuSans-29" transform="translate(402.08675 56.8875)scale(0.7)"/>
      <use xlink:href="#DejaVuSans-Oblique-50" transform="translate(173.677083 -39.656094)scale(0.7)"/>
      <use xlink:href="#DejaVuSans-28" transform="translate(215.888997 -39.656094)scale(0.7)"/>
      <use xlink:href="#DejaVuSans-Oblique-52" transform="translate(243.198567 -39.656094)scale(0.7)"/>
      <use xlink:href="#DejaVuSans-Oblique-4f" transform="translate(291.836262 -51.140469)scale(0.49)"/>
      <use xlink:href="#DejaVuSans-Oblique-43" transform="translate(330.404622 -51.140469)scale(0.49)"/>
      <use xlink:href="#DejaVuSans-Oblique-54" transform="translate(364.618489 -51.140469)scale(0.49)"/>
      <use xlink:href="#DejaVuSans-29" transform="translate(396.463704 -39.656094)scale(0.7)"/>
      <path d="M 168.677083 19.706406 
L 168.677083 25.956406 
L 429.396321 25.956406 
L 429.396321 19.706406 
L 168.677083 19.706406 
z
"/>
     </g>
    </g>
   </g>
   <g id="matplotlib.axis_2">
    <g id="ytick_1">
     <g id="line2d_4">
      <path d="M 78.783082 205.57158 
L 271.831918 205.57158 
" clip-path="url(#pddb275d59d)" style="fill: none; stroke: #ffffff; stroke-linecap: round"/>
     </g>
     <g id="text_5">
      <!-- −3 -->
      <g style="fill: #262626" transform="translate(54.23302 210.295736)scale(0.132 -0.132)">
       <defs>
        <path id="ArialMT-33" d="M 269 1209 
L 831 1284 
Q 928 806 1161 595 
Q 1394 384 1728 384 
Q 2125 384 2398 659 
Q 2672 934 2672 1341 
Q 2672 1728 2419 1979 
Q 2166 2231 1775 2231 
Q 1616 2231 1378 2169 
L 1441 2663 
Q 1497 2656 1531 2656 
Q 1891 2656 2178 2843 
Q 2466 3031 2466 3422 
Q 2466 3731 2256 3934 
Q 2047 4138 1716 4138 
Q 1388 4138 1169 3931 
Q 950 3725 888 3313 
L 325 3413 
Q 428 3978 793 4289 
Q 1159 4600 1703 4600 
Q 2078 4600 2393 4439 
Q 2709 4278 2876 4000 
Q 3044 3722 3044 3409 
Q 3044 3113 2884 2869 
Q 2725 2625 2413 2481 
Q 2819 2388 3044 2092 
Q 3269 1797 3269 1353 
Q 3269 753 2831 336 
Q 2394 -81 1725 -81 
Q 1122 -81 723 278 
Q 325 638 269 1209 
z
" transform="scale(0.015625)"/>
       </defs>
       <use xlink:href="#ArialMT-2212"/>
       <use xlink:href="#ArialMT-33" x="58.398438"/>
      </g>
     </g>
    </g>
    <g id="ytick_2">
     <g id="line2d_5">
      <path d="M 78.783082 174.595136 
L 271.831918 174.595136 
" clip-path="url(#pddb275d59d)" style="fill: none; stroke: #ffffff; stroke-linecap: round"/>
     </g>
     <g id="text_6">
      <!-- −2 -->
      <g style="fill: #262626" transform="translate(54.23302 179.319292)scale(0.132 -0.132)">
       <use xlink:href="#ArialMT-2212"/>
       <use xlink:href="#ArialMT-32" x="58.398438"/>
      </g>
     </g>
    </g>
    <g id="ytick_3">
     <g id="line2d_6">
      <path d="M 78.783082 143.618692 
L 271.831918 143.618692 
" clip-path="url(#pddb275d59d)" style="fill: none; stroke: #ffffff; stroke-linecap: round"/>
     </g>
     <g id="text_7">
      <!-- −1 -->
      <g style="fill: #262626" transform="translate(54.23302 148.342848)scale(0.132 -0.132)">
       <defs>
        <path id="ArialMT-31" d="M 2384 0 
L 1822 0 
L 1822 3584 
Q 1619 3391 1289 3197 
Q 959 3003 697 2906 
L 697 3450 
Q 1169 3672 1522 3987 
Q 1875 4303 2022 4600 
L 2384 4600 
L 2384 0 
z
" transform="scale(0.015625)"/>
       </defs>
       <use xlink:href="#ArialMT-2212"/>
       <use xlink:href="#ArialMT-31" x="58.398438"/>
      </g>
     </g>
    </g>
    <g id="ytick_4">
     <g id="line2d_7">
      <path d="M 78.783082 112.642248 
L 271.831918 112.642248 
" clip-path="url(#pddb275d59d)" style="fill: none; stroke: #ffffff; stroke-linecap: round"/>
     </g>
     <g id="text_8">
      <!-- 0 -->
      <g style="fill: #262626" transform="translate(61.942645 117.366404)scale(0.132 -0.132)">
       <use xlink:href="#ArialMT-30"/>
      </g>
     </g>
    </g>
    <g id="ytick_5">
     <g id="line2d_8">
      <path d="M 78.783082 81.665804 
L 271.831918 81.665804 
" clip-path="url(#pddb275d59d)" style="fill: none; stroke: #ffffff; stroke-linecap: round"/>
     </g>
     <g id="text_9">
      <!-- 1 -->
      <g style="fill: #262626" transform="translate(61.942645 86.38996)scale(0.132 -0.132)">
       <use xlink:href="#ArialMT-31"/>
      </g>
     </g>
    </g>
    <g id="ytick_6">
     <g id="line2d_9">
      <path d="M 78.783082 50.68936 
L 271.831918 50.68936 
" clip-path="url(#pddb275d59d)" style="fill: none; stroke: #ffffff; stroke-linecap: round"/>
     </g>
     <g id="text_10">
      <!-- 2 -->
      <g style="fill: #262626" transform="translate(61.942645 55.413516)scale(0.132 -0.132)">
       <use xlink:href="#ArialMT-32"/>
      </g>
     </g>
    </g>
    <g id="ytick_7">
     <g id="line2d_10">
      <path d="M 78.783082 19.712916 
L 271.831918 19.712916 
" clip-path="url(#pddb275d59d)" style="fill: none; stroke: #ffffff; stroke-linecap: round"/>
     </g>
     <g id="text_11">
      <!-- 3 -->
      <g style="fill: #262626" transform="translate(61.942645 24.437072)scale(0.132 -0.132)">
       <use xlink:href="#ArialMT-33"/>
      </g>
     </g>
    </g>
    <g id="text_12">
     <!-- $\log\frac{P(C_{MCH})}{P(C_{OCT})}$ -->
     <g style="fill: #262626" transform="translate(39.63302 157.853582)rotate(-90)scale(0.2 -0.2)">
      <use xlink:href="#DejaVuSans-6c" transform="translate(0 0.909531)"/>
      <use xlink:href="#DejaVuSans-6f" transform="translate(27.783203 0.909531)"/>
      <use xlink:href="#DejaVuSans-67" transform="translate(88.964844 0.909531)"/>
      <use xlink:href="#DejaVuSans-Oblique-50" transform="translate(168.677083 56.8875)scale(0.7)"/>
      <use xlink:href="#DejaVuSans-28" transform="translate(210.888997 56.8875)scale(0.7)"/>
      <use xlink:href="#DejaVuSans-Oblique-43" transform="translate(238.198567 56.8875)scale(0.7)"/>
      <use xlink:href="#DejaVuSans-Oblique-4d" transform="translate(287.07552 45.403125)scale(0.49)"/>
      <use xlink:href="#DejaVuSans-Oblique-43" transform="translate(329.352375 45.403125)scale(0.49)"/>
      <use xlink:href="#DejaVuSans-Oblique-48" transform="translate(363.566243 45.403125)scale(0.49)"/>
      <use xlink:href="#DejaVuSans-29" transform="translate(402.326008 56.8875)scale(0.7)"/>
      <use xlink:href="#DejaVuSans-Oblique-50" transform="translate(173.677083 -39.656094)scale(0.7)"/>
      <use xlink:href="#DejaVuSans-28" transform="translate(215.888997 -39.656094)scale(0.7)"/>
      <use xlink:href="#DejaVuSans-Oblique-43" transform="translate(243.198567 -39.656094)scale(0.7)"/>
      <use xlink:href="#DejaVuSans-Oblique-4f" transform="translate(292.07552 -51.140469)scale(0.49)"/>
      <use xlink:href="#DejaVuSans-Oblique-43" transform="translate(330.643879 -51.140469)scale(0.49)"/>
      <use xlink:href="#DejaVuSans-Oblique-54" transform="translate(364.857747 -51.140469)scale(0.49)"/>
      <use xlink:href="#DejaVuSans-29" transform="translate(396.702961 -39.656094)scale(0.7)"/>
      <path d="M 168.677083 19.706406 
L 168.677083 25.956406 
L 429.635579 25.956406 
L 429.635579 19.706406 
L 168.677083 19.706406 
z
"/>
     </g>
    </g>
   </g>
   <g id="line2d_11">
    <defs>
     <path id="mc817822f84" d="M 0 3 
C 0.795609 3 1.55874 2.683901 2.12132 2.12132 
C 2.683901 1.55874 3 0.795609 3 0 
C 3 -0.795609 2.683901 -1.55874 2.12132 -2.12132 
C 1.55874 -2.683901 0.795609 -3 0 -3 
C -0.795609 -3 -1.55874 -2.683901 -2.12132 -2.12132 
C -2.683901 -1.55874 -3 -0.795609 -3 0 
C -3 0.795609 -2.683901 1.55874 -2.12132 2.12132 
C -1.55874 2.683901 -0.795609 3 0 3 
z
" style="stroke: #1a1a1a; stroke-opacity: 0.5"/>
    </defs>
    <g clip-path="url(#pddb275d59d)">
     <use xlink:href="#mc817822f84" x="238.633365" y="96.818686" style="fill: #1a1a1a; fill-opacity: 0.5; stroke: #1a1a1a; stroke-opacity: 0.5"/>
     <use xlink:href="#mc817822f84" x="115.212567" y="125.202115" style="fill: #1a1a1a; fill-opacity: 0.5; stroke: #1a1a1a; stroke-opacity: 0.5"/>
     <use xlink:href="#mc817822f84" x="186.641548" y="118.858312" style="fill: #1a1a1a; fill-opacity: 0.5; stroke: #1a1a1a; stroke-opacity: 0.5"/>
     <use xlink:href="#mc817822f84" x="219.161304" y="88.218642" style="fill: #1a1a1a; fill-opacity: 0.5; stroke: #1a1a1a; stroke-opacity: 0.5"/>
     <use xlink:href="#mc817822f84" x="107.03009" y="150.952756" style="fill: #1a1a1a; fill-opacity: 0.5; stroke: #1a1a1a; stroke-opacity: 0.5"/>
     <use xlink:href="#mc817822f84" x="222.113675" y="96.818686" style="fill: #1a1a1a; fill-opacity: 0.5; stroke: #1a1a1a; stroke-opacity: 0.5"/>
     <use xlink:href="#mc817822f84" x="117.452804" y="176.622708" style="fill: #1a1a1a; fill-opacity: 0.5; stroke: #1a1a1a; stroke-opacity: 0.5"/>
     <use xlink:href="#mc817822f84" x="199.827223" y="112.642248" style="fill: #1a1a1a; fill-opacity: 0.5; stroke: #1a1a1a; stroke-opacity: 0.5"/>
     <use xlink:href="#mc817822f84" x="171.443795" y="109.542018" style="fill: #1a1a1a; fill-opacity: 0.5; stroke: #1a1a1a; stroke-opacity: 0.5"/>
     <use xlink:href="#mc817822f84" x="176.218835" y="111.093103" style="fill: #1a1a1a; fill-opacity: 0.5; stroke: #1a1a1a; stroke-opacity: 0.5"/>
     <use xlink:href="#mc817822f84" x="248.056752" y="61.848832" style="fill: #1a1a1a; fill-opacity: 0.5; stroke: #1a1a1a; stroke-opacity: 0.5"/>
     <use xlink:href="#mc817822f84" x="142.187733" y="122.005834" style="fill: #1a1a1a; fill-opacity: 0.5; stroke: #1a1a1a; stroke-opacity: 0.5"/>
     <use xlink:href="#mc817822f84" x="125.017157" y="148.774253" style="fill: #1a1a1a; fill-opacity: 0.5; stroke: #1a1a1a; stroke-opacity: 0.5"/>
     <use xlink:href="#mc817822f84" x="210.249937" y="106.426183" style="fill: #1a1a1a; fill-opacity: 0.5; stroke: #1a1a1a; stroke-opacity: 0.5"/>
     <use xlink:href="#mc817822f84" x="229.025868" y="82.613666" style="fill: #1a1a1a; fill-opacity: 0.5; stroke: #1a1a1a; stroke-opacity: 0.5"/>
     <use xlink:href="#mc817822f84" x="185.130202" y="123.596759" style="fill: #1a1a1a; fill-opacity: 0.5; stroke: #1a1a1a; stroke-opacity: 0.5"/>
     <use xlink:href="#mc817822f84" x="155.494056" y="122.005834" style="fill: #1a1a1a; fill-opacity: 0.5; stroke: #1a1a1a; stroke-opacity: 0.5"/>
     <use xlink:href="#mc817822f84" x="206.601437" y="118.858312" style="fill: #1a1a1a; fill-opacity: 0.5; stroke: #1a1a1a; stroke-opacity: 0.5"/>
     <use xlink:href="#mc817822f84" x="187.906068" y="103.278661" style="fill: #1a1a1a; fill-opacity: 0.5; stroke: #1a1a1a; stroke-opacity: 0.5"/>
     <use xlink:href="#mc817822f84" x="212.545538" y="86.395973" style="fill: #1a1a1a; fill-opacity: 0.5; stroke: #1a1a1a; stroke-opacity: 0.5"/>
     <use xlink:href="#mc817822f84" x="135.971668" y="128.465809" style="fill: #1a1a1a; fill-opacity: 0.5; stroke: #1a1a1a; stroke-opacity: 0.5"/>
     <use xlink:href="#mc817822f84" x="133.276365" y="146.67335" style="fill: #1a1a1a; fill-opacity: 0.5; stroke: #1a1a1a; stroke-opacity: 0.5"/>
     <use xlink:href="#mc817822f84" x="161.984157" y="122.005834" style="fill: #1a1a1a; fill-opacity: 0.5; stroke: #1a1a1a; stroke-opacity: 0.5"/>
     <use xlink:href="#mc817822f84" x="184.345947" y="118.858312" style="fill: #1a1a1a; fill-opacity: 0.5; stroke: #1a1a1a; stroke-opacity: 0.5"/>
     <use xlink:href="#mc817822f84" x="97.733917" y="185.268048" style="fill: #1a1a1a; fill-opacity: 0.5; stroke: #1a1a1a; stroke-opacity: 0.5"/>
     <use xlink:href="#mc817822f84" x="174.841877" y="123.596759" style="fill: #1a1a1a; fill-opacity: 0.5; stroke: #1a1a1a; stroke-opacity: 0.5"/>
     <use xlink:href="#mc817822f84" x="221.03924" y="109.542018" style="fill: #1a1a1a; fill-opacity: 0.5; stroke: #1a1a1a; stroke-opacity: 0.5"/>
     <use xlink:href="#mc817822f84" x="207.954335" y="86.395973" style="fill: #1a1a1a; fill-opacity: 0.5; stroke: #1a1a1a; stroke-opacity: 0.5"/>
     <use xlink:href="#mc817822f84" x="133.276365" y="137.065853" style="fill: #1a1a1a; fill-opacity: 0.5; stroke: #1a1a1a; stroke-opacity: 0.5"/>
     <use xlink:href="#mc817822f84" x="153.07279" y="138.888522" style="fill: #1a1a1a; fill-opacity: 0.5; stroke: #1a1a1a; stroke-opacity: 0.5"/>
     <use xlink:href="#mc817822f84" x="149.658076" y="140.755138" style="fill: #1a1a1a; fill-opacity: 0.5; stroke: #1a1a1a; stroke-opacity: 0.5"/>
     <use xlink:href="#mc817822f84" x="244.281039" y="91.750029" style="fill: #1a1a1a; fill-opacity: 0.5; stroke: #1a1a1a; stroke-opacity: 0.5"/>
     <use xlink:href="#mc817822f84" x="153.07279" y="118.858312" style="fill: #1a1a1a; fill-opacity: 0.5; stroke: #1a1a1a; stroke-opacity: 0.5"/>
     <use xlink:href="#mc817822f84" x="87.558029" y="176.622708" style="fill: #1a1a1a; fill-opacity: 0.5; stroke: #1a1a1a; stroke-opacity: 0.5"/>
     <use xlink:href="#mc817822f84" x="254.456927" y="109.542018" style="fill: #1a1a1a; fill-opacity: 0.5; stroke: #1a1a1a; stroke-opacity: 0.5"/>
     <use xlink:href="#mc817822f84" x="158.883928" y="109.542018" style="fill: #1a1a1a; fill-opacity: 0.5; stroke: #1a1a1a; stroke-opacity: 0.5"/>
     <use xlink:href="#mc817822f84" x="120.716498" y="117.297456" style="fill: #1a1a1a; fill-opacity: 0.5; stroke: #1a1a1a; stroke-opacity: 0.5"/>
     <use xlink:href="#mc817822f84" x="188.778702" y="125.202115" style="fill: #1a1a1a; fill-opacity: 0.5; stroke: #1a1a1a; stroke-opacity: 0.5"/>
     <use xlink:href="#mc817822f84" x="226.073498" y="100.082381" style="fill: #1a1a1a; fill-opacity: 0.5; stroke: #1a1a1a; stroke-opacity: 0.5"/>
     <use xlink:href="#mc817822f84" x="110.54061" y="120.427075" style="fill: #1a1a1a; fill-opacity: 0.5; stroke: #1a1a1a; stroke-opacity: 0.5"/>
     <use xlink:href="#mc817822f84" x="134.594711" y="180.704452" style="fill: #1a1a1a; fill-opacity: 0.5; stroke: #1a1a1a; stroke-opacity: 0.5"/>
     <use xlink:href="#mc817822f84" x="142.187733" y="140.755138" style="fill: #1a1a1a; fill-opacity: 0.5; stroke: #1a1a1a; stroke-opacity: 0.5"/>
     <use xlink:href="#mc817822f84" x="244.281039" y="82.613666" style="fill: #1a1a1a; fill-opacity: 0.5; stroke: #1a1a1a; stroke-opacity: 0.5"/>
     <use xlink:href="#mc817822f84" x="263.056971" y="80.643116" style="fill: #1a1a1a; fill-opacity: 0.5; stroke: #1a1a1a; stroke-opacity: 0.5"/>
     <use xlink:href="#mc817822f84" x="134.402905" y="122.005834" style="fill: #1a1a1a; fill-opacity: 0.5; stroke: #1a1a1a; stroke-opacity: 0.5"/>
     <use xlink:href="#mc817822f84" x="176.218835" y="100.082381" style="fill: #1a1a1a; fill-opacity: 0.5; stroke: #1a1a1a; stroke-opacity: 0.5"/>
     <use xlink:href="#mc817822f84" x="183.131028" y="111.093103" style="fill: #1a1a1a; fill-opacity: 0.5; stroke: #1a1a1a; stroke-opacity: 0.5"/>
     <use xlink:href="#mc817822f84" x="234.673542" y="96.818686" style="fill: #1a1a1a; fill-opacity: 0.5; stroke: #1a1a1a; stroke-opacity: 0.5"/>
     <use xlink:href="#mc817822f84" x="149.099926" y="109.542018" style="fill: #1a1a1a; fill-opacity: 0.5; stroke: #1a1a1a; stroke-opacity: 0.5"/>
     <use xlink:href="#mc817822f84" x="232.736884" y="90.001952" style="fill: #1a1a1a; fill-opacity: 0.5; stroke: #1a1a1a; stroke-opacity: 0.5"/>
     <use xlink:href="#mc817822f84" x="134.402905" y="146.67335" style="fill: #1a1a1a; fill-opacity: 0.5; stroke: #1a1a1a; stroke-opacity: 0.5"/>
     <use xlink:href="#mc817822f84" x="190.777876" y="122.005834" style="fill: #1a1a1a; fill-opacity: 0.5; stroke: #1a1a1a; stroke-opacity: 0.5"/>
    </g>
   </g>
   <g id="line2d_12">
    <path d="M 87.558029 160.183142 
L 89.330746 159.347754 
L 91.103463 158.512365 
L 92.876179 157.676977 
L 94.648896 156.841588 
L 96.421612 156.006199 
L 98.194329 155.170811 
L 99.967046 154.335422 
L 101.739762 153.500034 
L 103.512479 152.664645 
L 105.285195 151.829257 
L 107.057912 150.993868 
L 108.830628 150.15848 
L 110.603345 149.323091 
L 112.376062 148.487703 
L 114.148778 147.652314 
L 115.921495 146.816926 
L 117.694211 145.981537 
L 119.466928 145.146149 
L 121.239644 144.31076 
L 123.012361 143.475371 
L 124.785078 142.639983 
L 126.557794 141.804594 
L 128.330511 140.969206 
L 130.103227 140.133817 
L 131.875944 139.298429 
L 133.64866 138.46304 
L 135.421377 137.627652 
L 137.194094 136.792263 
L 138.96681 135.956875 
L 140.739527 135.121486 
L 142.512243 134.286098 
L 144.28496 133.450709 
L 146.057676 132.615321 
L 147.830393 131.779932 
L 149.60311 130.944543 
L 151.375826 130.109155 
L 153.148543 129.273766 
L 154.921259 128.438378 
L 156.693976 127.602989 
L 158.466693 126.767601 
L 160.239409 125.932212 
L 162.012126 125.096824 
L 163.784842 124.261435 
L 165.557559 123.426047 
L 167.330275 122.590658 
L 169.102992 121.75527 
L 170.875709 120.919881 
L 172.648425 120.084493 
L 174.421142 119.249104 
L 176.193858 118.413716 
L 177.966575 117.578327 
L 179.739291 116.742938 
L 181.512008 115.90755 
L 183.284725 115.072161 
L 185.057441 114.236773 
L 186.830158 113.401384 
L 188.602874 112.565996 
L 190.375591 111.730607 
L 192.148307 110.895219 
L 193.921024 110.05983 
L 195.693741 109.224442 
L 197.466457 108.389053 
L 199.239174 107.553665 
L 201.01189 106.718276 
L 202.784607 105.882888 
L 204.557324 105.047499 
L 206.33004 104.21211 
L 208.102757 103.376722 
L 209.875473 102.541333 
L 211.64819 101.705945 
L 213.420906 100.870556 
L 215.193623 100.035168 
L 216.96634 99.199779 
L 218.739056 98.364391 
L 220.511773 97.529002 
L 222.284489 96.693614 
L 224.057206 95.858225 
L 225.829922 95.022837 
L 227.602639 94.187448 
L 229.375356 93.35206 
L 231.148072 92.516671 
L 232.920789 91.681282 
L 234.693505 90.845894 
L 236.466222 90.010505 
L 238.238938 89.175117 
L 240.011655 88.339728 
L 241.784372 87.50434 
L 243.557088 86.668951 
L 245.329805 85.833563 
L 247.102521 84.998174 
L 248.875238 84.162786 
L 250.647954 83.327397 
L 252.420671 82.492009 
L 254.193388 81.65662 
L 255.966104 80.821232 
L 257.738821 79.985843 
L 259.511537 79.150455 
L 261.284254 78.315066 
L 263.056971 77.479677 
" clip-path="url(#pddb275d59d)" style="fill: none; stroke: #1a1a1a; stroke-width: 2; stroke-linecap: round"/>
   </g>
   <g id="line2d_13">
    <path d="M 87.558029 201.303053 
L 89.330746 199.530336 
L 91.103463 197.75762 
L 92.876179 195.984903 
L 94.648896 194.212187 
L 96.421612 192.43947 
L 98.194329 190.666753 
L 99.967046 188.894037 
L 101.739762 187.12132 
L 103.512479 185.348604 
L 105.285195 183.575887 
L 107.057912 181.803171 
L 108.830628 180.030454 
L 110.603345 178.257737 
L 112.376062 176.485021 
L 114.148778 174.712304 
L 115.921495 172.939588 
L 117.694211 171.166871 
L 119.466928 169.394155 
L 121.239644 167.621438 
L 123.012361 165.848721 
L 124.785078 164.076005 
L 126.557794 162.303288 
L 128.330511 160.530572 
L 130.103227 158.757855 
L 131.875944 156.985139 
L 133.64866 155.212422 
L 135.421377 153.439705 
L 137.194094 151.666989 
L 138.96681 149.894272 
L 140.739527 148.121556 
L 142.512243 146.348839 
L 144.28496 144.576123 
L 146.057676 142.803406 
L 147.830393 141.030689 
L 149.60311 139.257973 
L 151.375826 137.485256 
L 153.148543 135.71254 
L 154.921259 133.939823 
L 156.693976 132.167106 
L 158.466693 130.39439 
L 160.239409 128.621673 
L 162.012126 126.848957 
L 163.784842 125.07624 
L 165.557559 123.303524 
L 167.330275 121.530807 
L 169.102992 119.75809 
L 170.875709 117.985374 
L 172.648425 116.212657 
L 174.421142 114.439941 
L 176.193858 112.667224 
L 177.966575 110.894508 
L 179.739291 109.121791 
L 181.512008 107.349074 
L 183.284725 105.576358 
L 185.057441 103.803641 
L 186.830158 102.030925 
L 188.602874 100.258208 
L 190.375591 98.485492 
L 192.148307 96.712775 
L 193.921024 94.940058 
L 195.693741 93.167342 
L 197.466457 91.394625 
L 199.239174 89.621909 
L 201.01189 87.849192 
L 202.784607 86.076476 
L 204.557324 84.303759 
L 206.33004 82.531042 
L 208.102757 80.758326 
L 209.875473 78.985609 
L 211.64819 77.212893 
L 213.420906 75.440176 
L 215.193623 73.667459 
L 216.96634 71.894743 
L 218.739056 70.122026 
L 220.511773 68.34931 
L 222.284489 66.576593 
L 224.057206 64.803877 
L 225.829922 63.03116 
L 227.602639 61.258443 
L 229.375356 59.485727 
L 231.148072 57.71301 
L 232.920789 55.940294 
L 234.693505 54.167577 
L 236.466222 52.394861 
L 238.238938 50.622144 
L 240.011655 48.849427 
L 241.784372 47.076711 
L 243.557088 45.303994 
L 245.329805 43.531278 
L 247.102521 41.758561 
L 248.875238 39.985845 
L 250.647954 38.213128 
L 252.420671 36.440411 
L 254.193388 34.667695 
L 255.966104 32.894978 
L 257.738821 31.122262 
L 259.511537 29.349545 
L 261.284254 27.576829 
L 263.056971 25.804112 
" clip-path="url(#pddb275d59d)" style="fill: none; stroke-dasharray: 5.55,2.4; stroke-dashoffset: 0; stroke: #1a1a1a; stroke-width: 1.5"/>
   </g>
   <g id="legend_1">
    <g id="line2d_14">
     <g>
      <use xlink:href="#mc817822f84" x="101.583082" y="32.21854" style="fill: #1a1a1a; fill-opacity: 0.5; stroke: #1a1a1a; stroke-opacity: 0.5"/>
     </g>
    </g>
    <g id="text_13">
     <!-- Observed Data -->
     <g style="fill: #262626" transform="translate(123.183082 36.41854)scale(0.12 -0.12)">
      <defs>
       <path id="ArialMT-4f" d="M 309 2231 
Q 309 3372 921 4017 
Q 1534 4663 2503 4663 
Q 3138 4663 3647 4359 
Q 4156 4056 4423 3514 
Q 4691 2972 4691 2284 
Q 4691 1588 4409 1038 
Q 4128 488 3612 205 
Q 3097 -78 2500 -78 
Q 1853 -78 1343 234 
Q 834 547 571 1087 
Q 309 1628 309 2231 
z
M 934 2222 
Q 934 1394 1379 917 
Q 1825 441 2497 441 
Q 3181 441 3623 922 
Q 4066 1403 4066 2288 
Q 4066 2847 3877 3264 
Q 3688 3681 3323 3911 
Q 2959 4141 2506 4141 
Q 1863 4141 1398 3698 
Q 934 3256 934 2222 
z
" transform="scale(0.015625)"/>
       <path id="ArialMT-62" d="M 941 0 
L 419 0 
L 419 4581 
L 981 4581 
L 981 2947 
Q 1338 3394 1891 3394 
Q 2197 3394 2470 3270 
Q 2744 3147 2920 2923 
Q 3097 2700 3197 2384 
Q 3297 2069 3297 1709 
Q 3297 856 2875 390 
Q 2453 -75 1863 -75 
Q 1275 -75 941 416 
L 941 0 
z
M 934 1684 
Q 934 1088 1097 822 
Q 1363 388 1816 388 
Q 2184 388 2453 708 
Q 2722 1028 2722 1663 
Q 2722 2313 2464 2622 
Q 2206 2931 1841 2931 
Q 1472 2931 1203 2611 
Q 934 2291 934 1684 
z
" transform="scale(0.015625)"/>
       <path id="ArialMT-73" d="M 197 991 
L 753 1078 
Q 800 744 1014 566 
Q 1228 388 1613 388 
Q 2000 388 2187 545 
Q 2375 703 2375 916 
Q 2375 1106 2209 1216 
Q 2094 1291 1634 1406 
Q 1016 1563 777 1677 
Q 538 1791 414 1992 
Q 291 2194 291 2438 
Q 291 2659 392 2848 
Q 494 3038 669 3163 
Q 800 3259 1026 3326 
Q 1253 3394 1513 3394 
Q 1903 3394 2198 3281 
Q 2494 3169 2634 2976 
Q 2775 2784 2828 2463 
L 2278 2388 
Q 2241 2644 2061 2787 
Q 1881 2931 1553 2931 
Q 1166 2931 1000 2803 
Q 834 2675 834 2503 
Q 834 2394 903 2306 
Q 972 2216 1119 2156 
Q 1203 2125 1616 2013 
Q 2213 1853 2448 1751 
Q 2684 1650 2818 1456 
Q 2953 1263 2953 975 
Q 2953 694 2789 445 
Q 2625 197 2315 61 
Q 2006 -75 1616 -75 
Q 969 -75 630 194 
Q 291 463 197 991 
z
" transform="scale(0.015625)"/>
       <path id="ArialMT-65" d="M 2694 1069 
L 3275 997 
Q 3138 488 2766 206 
Q 2394 -75 1816 -75 
Q 1088 -75 661 373 
Q 234 822 234 1631 
Q 234 2469 665 2931 
Q 1097 3394 1784 3394 
Q 2450 3394 2872 2941 
Q 3294 2488 3294 1666 
Q 3294 1616 3291 1516 
L 816 1516 
Q 847 969 1125 678 
Q 1403 388 1819 388 
Q 2128 388 2347 550 
Q 2566 713 2694 1069 
z
M 847 1978 
L 2700 1978 
Q 2663 2397 2488 2606 
Q 2219 2931 1791 2931 
Q 1403 2931 1139 2672 
Q 875 2413 847 1978 
z
" transform="scale(0.015625)"/>
       <path id="ArialMT-72" d="M 416 0 
L 416 3319 
L 922 3319 
L 922 2816 
Q 1116 3169 1280 3281 
Q 1444 3394 1641 3394 
Q 1925 3394 2219 3213 
L 2025 2691 
Q 1819 2813 1613 2813 
Q 1428 2813 1281 2702 
Q 1134 2591 1072 2394 
Q 978 2094 978 1738 
L 978 0 
L 416 0 
z
" transform="scale(0.015625)"/>
       <path id="ArialMT-76" d="M 1344 0 
L 81 3319 
L 675 3319 
L 1388 1331 
Q 1503 1009 1600 663 
Q 1675 925 1809 1294 
L 2547 3319 
L 3125 3319 
L 1869 0 
L 1344 0 
z
" transform="scale(0.015625)"/>
       <path id="ArialMT-64" d="M 2575 0 
L 2575 419 
Q 2259 -75 1647 -75 
Q 1250 -75 917 144 
Q 584 363 401 755 
Q 219 1147 219 1656 
Q 219 2153 384 2558 
Q 550 2963 881 3178 
Q 1213 3394 1622 3394 
Q 1922 3394 2156 3267 
Q 2391 3141 2538 2938 
L 2538 4581 
L 3097 4581 
L 3097 0 
L 2575 0 
z
M 797 1656 
Q 797 1019 1065 703 
Q 1334 388 1700 388 
Q 2069 388 2326 689 
Q 2584 991 2584 1609 
Q 2584 2291 2321 2609 
Q 2059 2928 1675 2928 
Q 1300 2928 1048 2622 
Q 797 2316 797 1656 
z
" transform="scale(0.015625)"/>
       <path id="ArialMT-20" transform="scale(0.015625)"/>
       <path id="ArialMT-44" d="M 494 0 
L 494 4581 
L 2072 4581 
Q 2606 4581 2888 4516 
Q 3281 4425 3559 4188 
Q 3922 3881 4101 3404 
Q 4281 2928 4281 2316 
Q 4281 1794 4159 1391 
Q 4038 988 3847 723 
Q 3656 459 3429 307 
Q 3203 156 2883 78 
Q 2563 0 2147 0 
L 494 0 
z
M 1100 541 
L 2078 541 
Q 2531 541 2789 625 
Q 3047 709 3200 863 
Q 3416 1078 3536 1442 
Q 3656 1806 3656 2325 
Q 3656 3044 3420 3430 
Q 3184 3816 2847 3947 
Q 2603 4041 2063 4041 
L 1100 4041 
L 1100 541 
z
" transform="scale(0.015625)"/>
       <path id="ArialMT-61" d="M 2588 409 
Q 2275 144 1986 34 
Q 1697 -75 1366 -75 
Q 819 -75 525 192 
Q 231 459 231 875 
Q 231 1119 342 1320 
Q 453 1522 633 1644 
Q 813 1766 1038 1828 
Q 1203 1872 1538 1913 
Q 2219 1994 2541 2106 
Q 2544 2222 2544 2253 
Q 2544 2597 2384 2738 
Q 2169 2928 1744 2928 
Q 1347 2928 1158 2789 
Q 969 2650 878 2297 
L 328 2372 
Q 403 2725 575 2942 
Q 747 3159 1072 3276 
Q 1397 3394 1825 3394 
Q 2250 3394 2515 3294 
Q 2781 3194 2906 3042 
Q 3031 2891 3081 2659 
Q 3109 2516 3109 2141 
L 3109 1391 
Q 3109 606 3145 398 
Q 3181 191 3288 0 
L 2700 0 
Q 2613 175 2588 409 
z
M 2541 1666 
Q 2234 1541 1622 1453 
Q 1275 1403 1131 1340 
Q 988 1278 909 1158 
Q 831 1038 831 891 
Q 831 666 1001 516 
Q 1172 366 1500 366 
Q 1825 366 2078 508 
Q 2331 650 2450 897 
Q 2541 1088 2541 1459 
L 2541 1666 
z
" transform="scale(0.015625)"/>
       <path id="ArialMT-74" d="M 1650 503 
L 1731 6 
Q 1494 -44 1306 -44 
Q 1000 -44 831 53 
Q 663 150 594 308 
Q 525 466 525 972 
L 525 2881 
L 113 2881 
L 113 3319 
L 525 3319 
L 525 4141 
L 1084 4478 
L 1084 3319 
L 1650 3319 
L 1650 2881 
L 1084 2881 
L 1084 941 
Q 1084 700 1114 631 
Q 1144 563 1211 522 
Q 1278 481 1403 481 
Q 1497 481 1650 503 
z
" transform="scale(0.015625)"/>
      </defs>
      <use xlink:href="#ArialMT-4f"/>
      <use xlink:href="#ArialMT-62" x="77.783203"/>
      <use xlink:href="#ArialMT-73" x="133.398438"/>
      <use xlink:href="#ArialMT-65" x="183.398438"/>
      <use xlink:href="#ArialMT-72" x="239.013672"/>
      <use xlink:href="#ArialMT-76" x="272.314453"/>
      <use xlink:href="#ArialMT-65" x="322.314453"/>
      <use xlink:href="#ArialMT-64" x="377.929688"/>
      <use xlink:href="#ArialMT-20" x="433.544922"/>
      <use xlink:href="#ArialMT-44" x="461.328125"/>
      <use xlink:href="#ArialMT-61" x="533.544922"/>
      <use xlink:href="#ArialMT-74" x="589.160156"/>
      <use xlink:href="#ArialMT-61" x="616.943359"/>
     </g>
    </g>
    <g id="line2d_15">
     <path d="M 89.583082 49.22854 
L 101.583082 49.22854 
L 113.583082 49.22854 
" style="fill: none; stroke: #1a1a1a; stroke-width: 2; stroke-linecap: round"/>
    </g>
    <g id="text_14">
     <!-- R = 0.82, p = 0.00 -->
     <g style="fill: #262626" transform="translate(123.183082 53.42854)scale(0.12 -0.12)">
      <defs>
       <path id="ArialMT-52" d="M 503 0 
L 503 4581 
L 2534 4581 
Q 3147 4581 3465 4457 
Q 3784 4334 3975 4021 
Q 4166 3709 4166 3331 
Q 4166 2844 3850 2509 
Q 3534 2175 2875 2084 
Q 3116 1969 3241 1856 
Q 3506 1613 3744 1247 
L 4541 0 
L 3778 0 
L 3172 953 
Q 2906 1366 2734 1584 
Q 2563 1803 2427 1890 
Q 2291 1978 2150 2013 
Q 2047 2034 1813 2034 
L 1109 2034 
L 1109 0 
L 503 0 
z
M 1109 2559 
L 2413 2559 
Q 2828 2559 3062 2645 
Q 3297 2731 3419 2920 
Q 3541 3109 3541 3331 
Q 3541 3656 3305 3865 
Q 3069 4075 2559 4075 
L 1109 4075 
L 1109 2559 
z
" transform="scale(0.015625)"/>
       <path id="ArialMT-3d" d="M 3381 2694 
L 356 2694 
L 356 3219 
L 3381 3219 
L 3381 2694 
z
M 3381 1303 
L 356 1303 
L 356 1828 
L 3381 1828 
L 3381 1303 
z
" transform="scale(0.015625)"/>
       <path id="ArialMT-2e" d="M 581 0 
L 581 641 
L 1222 641 
L 1222 0 
L 581 0 
z
" transform="scale(0.015625)"/>
       <path id="ArialMT-38" d="M 1131 2484 
Q 781 2613 612 2850 
Q 444 3088 444 3419 
Q 444 3919 803 4259 
Q 1163 4600 1759 4600 
Q 2359 4600 2725 4251 
Q 3091 3903 3091 3403 
Q 3091 3084 2923 2848 
Q 2756 2613 2416 2484 
Q 2838 2347 3058 2040 
Q 3278 1734 3278 1309 
Q 3278 722 2862 322 
Q 2447 -78 1769 -78 
Q 1091 -78 675 323 
Q 259 725 259 1325 
Q 259 1772 486 2073 
Q 713 2375 1131 2484 
z
M 1019 3438 
Q 1019 3113 1228 2906 
Q 1438 2700 1772 2700 
Q 2097 2700 2305 2904 
Q 2513 3109 2513 3406 
Q 2513 3716 2298 3927 
Q 2084 4138 1766 4138 
Q 1444 4138 1231 3931 
Q 1019 3725 1019 3438 
z
M 838 1322 
Q 838 1081 952 856 
Q 1066 631 1291 507 
Q 1516 384 1775 384 
Q 2178 384 2440 643 
Q 2703 903 2703 1303 
Q 2703 1709 2433 1975 
Q 2163 2241 1756 2241 
Q 1359 2241 1098 1978 
Q 838 1716 838 1322 
z
" transform="scale(0.015625)"/>
       <path id="ArialMT-2c" d="M 569 0 
L 569 641 
L 1209 641 
L 1209 0 
Q 1209 -353 1084 -570 
Q 959 -788 688 -906 
L 531 -666 
Q 709 -588 793 -436 
Q 878 -284 888 0 
L 569 0 
z
" transform="scale(0.015625)"/>
       <path id="ArialMT-70" d="M 422 -1272 
L 422 3319 
L 934 3319 
L 934 2888 
Q 1116 3141 1344 3267 
Q 1572 3394 1897 3394 
Q 2322 3394 2647 3175 
Q 2972 2956 3137 2557 
Q 3303 2159 3303 1684 
Q 3303 1175 3120 767 
Q 2938 359 2589 142 
Q 2241 -75 1856 -75 
Q 1575 -75 1351 44 
Q 1128 163 984 344 
L 984 -1272 
L 422 -1272 
z
M 931 1641 
Q 931 1000 1190 694 
Q 1450 388 1819 388 
Q 2194 388 2461 705 
Q 2728 1022 2728 1688 
Q 2728 2322 2467 2637 
Q 2206 2953 1844 2953 
Q 1484 2953 1207 2617 
Q 931 2281 931 1641 
z
" transform="scale(0.015625)"/>
      </defs>
      <use xlink:href="#ArialMT-52"/>
      <use xlink:href="#ArialMT-20" x="72.216797"/>
      <use xlink:href="#ArialMT-3d" x="100"/>
      <use xlink:href="#ArialMT-20" x="158.398438"/>
      <use xlink:href="#ArialMT-30" x="186.181641"/>
      <use xlink:href="#ArialMT-2e" x="241.796875"/>
      <use xlink:href="#ArialMT-38" x="269.580078"/>
      <use xlink:href="#ArialMT-32" x="325.195312"/>
      <use xlink:href="#ArialMT-2c" x="380.810547"/>
      <use xlink:href="#ArialMT-20" x="408.59375"/>
      <use xlink:href="#ArialMT-70" x="436.376953"/>
      <use xlink:href="#ArialMT-20" x="491.992188"/>
      <use xlink:href="#ArialMT-3d" x="519.775391"/>
      <use xlink:href="#ArialMT-20" x="578.173828"/>
      <use xlink:href="#ArialMT-30" x="605.957031"/>
      <use xlink:href="#ArialMT-2e" x="661.572266"/>
      <use xlink:href="#ArialMT-30" x="689.355469"/>
      <use xlink:href="#ArialMT-30" x="744.970703"/>
     </g>
    </g>
   </g>
  </g>
 </g>
 <defs>
  <clipPath id="pddb275d59d">
   <rect x="78.783082" y="17.029165" width="193.048835" height="193.048835"/>
  </clipPath>
 </defs>
</svg>
